<svg xmlns="http://www.w3.org/2000/svg" width="32" height="32" viewBox="0 0 32 32"><path d="M19 20v1h-2v-1h2zm1 0h.494c.658 0 1.215.417 1.421 1H20v-1zm-1 3h-2v-1h2v1zm1 0v-1h1.915c-.206.585-.765 1-1.422 1h-.494zm-4-3v1h-2v-1h2zm0 3h-2v-1h2v1zm-3-3v1h-1.915c.206-.585.765-1 1.422-1h.494zm0 3h-.494a1.504 1.504 0 0 1-1.421-1H13v1zm3.5 6C9.596 29 4 23.404 4 16.5S9.596 4 16.5 4 29 9.596 29 16.5 23.404 29 16.5 29zm0-1C22.851 28 28 22.851 28 16.5S22.851 5 16.5 5 5 10.149 5 16.5 10.149 28 16.5 28zM12 15a1 1 0 1 0 0-2 1 1 0 0 0 0 2zm9 0a1 1 0 1 0 0-2 1 1 0 0 0 0 2zm-8.493 4A2.498 2.498 0 0 0 10 21.5c0 1.381 1.12 2.5 2.507 2.5h7.987a2.498 2.498 0 0 0 2.507-2.5c0-1.381-1.12-2.5-2.507-2.5h-7.987zm8.871-9.033l.559.829-3.316 2.237-.559-.829 3.316-2.237zm-6.44 2.237l-.559.829-3.316-2.237.559-.829 3.316 2.237z"/></svg>