<svg xmlns="http://www.w3.org/2000/svg" width="32" height="32" viewBox="0 0 32 32"><title>angry-selected</title><path fill="#f89820" d="M27.314 4.686C24.292 1.664 20.274 0 16 0S7.708 1.664 4.686 4.686C1.664 7.708 0 11.726 0 16s1.664 8.292 4.686 11.314C7.708 30.336 11.726 32 16 32s8.292-1.664 11.314-4.686C30.336 24.292 32 20.274 32 16s-1.664-8.292-4.686-11.314zm-5.255 1.809l.419.632-3.352 2.222-.419-.632 3.352-2.222zm-12.117 0l3.352 2.222-.419.632-3.352-2.222.419-.632zm.34 3.56a1.534 1.534 0 1 1 0 3.069 1.534 1.534 0 0 1 0-3.069zm12.746 11.691c-.469.579-1.604-.266-7.028-.268-5.423.001-6.559.846-7.027.268s4.342-2.882 7.04-2.882 7.483 2.304 7.016 2.882zm-1.31-8.623a1.534 1.534 0 1 1 0-3.069 1.534 1.534 0 0 1 0 3.069z"/></svg>