<svg xmlns="http://www.w3.org/2000/svg" width="32" height="32" viewBox="0 0 32 32"><title>angry</title><path fill="#f89820" d="M9.942 6.495l3.352 2.222-.419.632-3.352-2.222.419-.632zm12.117 0l.419.632-3.352 2.222-.419-.632 3.352-2.222z"/><path fill="#f89820" d="M27.314 4.686C24.292 1.664 20.274 0 16 0S7.708 1.664 4.686 4.686C1.664 7.708 0 11.726 0 16s1.664 8.292 4.686 11.314C7.708 30.336 11.726 32 16 32s8.292-1.664 11.314-4.686C30.336 24.292 32 20.274 32 16s-1.664-8.292-4.686-11.314zM16 31.241C7.596 31.241.759 24.404.759 16S7.596.758 16 .758 31.242 7.595 31.242 16c0 8.404-6.837 15.241-15.242 15.241z"/><path fill="#f89820" d="M11.815 11.589a1.534 1.534 0 1 1-3.069 0 1.534 1.534 0 0 1 3.069 0zm11.437 0a1.534 1.534 0 1 1-3.069 0 1.534 1.534 0 0 1 3.069 0zm-7.24 7.274c-2.697 0-7.507 2.304-7.04 2.882s1.604-.266 7.027-.268c5.423.001 6.559.846 7.028.268s-4.318-2.882-7.016-2.882z"/></svg>