<svg xmlns="http://www.w3.org/2000/svg" width="32" height="32" viewBox="0 0 32 32"><path d="M20.106 12.5l-1.044.704.559.829 1.378-.93 1.378.93.559-.829-1.044-.704 1.044-.704-.559-.829-1.378.93-1.378-.93-.559.829 1.044.704zm-9 0l-1.044.704.559.829 1.378-.93 1.378.93.559-.829-1.044-.704 1.044-.704-.559-.829-1.378.93-1.378-.93-.559.829 1.044.704zM16.5 29C9.596 29 4 23.404 4 16.5S9.596 4 16.5 4 29 9.596 29 16.5 23.404 29 16.5 29zm0-5c2.485 0 4.5-1.119 4.5-2.5S18.985 19 16.5 19 12 20.119 12 21.5s2.015 2.5 4.5 2.5z"/></svg>