<svg xmlns="http://www.w3.org/2000/svg" width="32" height="32" viewBox="0 0 32 32"><title>confused-selected</title><path fill="#f89820" d="M27.314 4.686C24.292 1.664 20.274 0 16 0S7.708 1.664 4.686 4.686C1.664 7.708 0 11.726 0 16s1.664 8.292 4.686 11.314C7.708 30.336 11.726 32 16 32s8.292-1.664 11.314-4.686C30.336 24.292 32 20.274 32 16s-1.664-8.292-4.686-11.314zm-5.596 5.369a1.534 1.534 0 1 1 0 3.069 1.534 1.534 0 0 1 0-3.069zm-11.436 0a1.534 1.534 0 1 1 0 3.069 1.534 1.534 0 0 1 0-3.069zm14.79 12.873l-3.57-.984-3.67 1.011-3.67-1.011-3.67 1.011-3.771-1.039.202-.731 3.569.984 3.67-1.011 3.67 1.011 3.67-1.011 3.771 1.039-.201.731z"/></svg>