<svg xmlns="http://www.w3.org/2000/svg" width="32" height="32" viewBox="0 0 32 32"><title>crying-selected</title><path fill="#de2f27" d="M27.314 4.686C24.292 1.664 20.274 0 16 0S7.708 1.664 4.686 4.686C1.664 7.708 0 11.726 0 16s1.664 8.292 4.686 11.314C7.708 30.336 11.726 32 16 32s8.292-1.664 11.314-4.686C30.336 24.292 32 20.274 32 16s-1.664-8.292-4.686-11.314zm-5.596 5.369a1.534 1.534 0 1 1 0 3.069 1.534 1.534 0 0 1 0-3.069zm-11.436 0a1.534 1.534 0 1 1 0 3.069 1.534 1.534 0 0 1 0-3.069zm-1.235 5.296s1.551 2.427 0 2.427 0-2.427 0-2.427zm16.386 9.121c-.01-.01-1.062-1.002-2.725-1.98-1.52-.894-3.88-1.96-6.487-1.96s-4.966 1.066-6.487 1.96c-1.663.978-2.715 1.971-2.725 1.98l-.523-.549c.045-.042 1.113-1.053 2.846-2.075 1.605-.947 4.104-2.075 6.889-2.075s5.283 1.129 6.889 2.075c1.733 1.022 2.801 2.032 2.846 2.075l-.523.549z"/></svg>