<svg xmlns="http://www.w3.org/2000/svg" width="32" height="32" viewBox="0 0 32 32"><title>crying</title><path fill="#de2f27" d="M27.314 4.686C24.292 1.664 20.274 0 16 0S7.708 1.664 4.686 4.686C1.664 7.708 0 11.726 0 16s1.664 8.292 4.686 11.314C7.708 30.336 11.726 32 16 32s8.292-1.664 11.314-4.686C30.336 24.292 32 20.274 32 16s-1.664-8.292-4.686-11.314zM16 31.241C7.596 31.241.759 24.404.759 16S7.596.758 16 .758 31.242 7.595 31.242 16c0 8.404-6.837 15.241-15.242 15.241z"/><path fill="#de2f27" d="M11.815 11.589a1.534 1.534 0 1 1-3.069 0 1.534 1.534 0 0 1 3.069 0zm11.437 0a1.534 1.534 0 1 1-3.069 0 1.534 1.534 0 0 1 3.069 0zM9.047 17.778c1.551 0 0-2.427 0-2.427s-1.551 2.427 0 2.427zm7.175 1.995c-2.785 0-5.283 1.128-6.889 2.075C7.6 22.87 6.532 23.88 6.487 23.923l.523.549c.01-.01 1.062-1.003 2.725-1.98 1.52-.894 3.88-1.96 6.487-1.96s4.966 1.066 6.487 1.96c1.663.978 2.715 1.971 2.725 1.98l.523-.549c-.045-.042-1.113-1.053-2.846-2.075-1.606-.947-4.104-2.075-6.889-2.075z"/></svg>