<svg xmlns="http://www.w3.org/2000/svg" width="32" height="32" viewBox="0 0 32 32"><title>eight-selected</title><path fill="#e3e5e4" d="M16.221 14.566c.997-.338 1.763-1.051 1.763-2.101 0-.926-.552-1.888-1.959-1.888-1.3 0-2.012.855-2.012 1.853 0 1.157.873 1.781 2.208 2.137zm-.446 1.122c-1.353.392-2.084 1.282-2.084 2.387-.053 1.176.837 2.209 2.315 2.209 1.407 0 2.315-.873 2.315-2.066 0-1.407-.98-2.084-2.547-2.529z"/><path fill="#e3e5e4" d="M15.997 0C7.177 0 .001 7.177.001 15.999S7.177 32 15.997 32c8.821 0 15.998-7.178 15.998-16.001S24.818 0 15.996 0zm-.026 21.423c-2.422 0-3.883-1.443-3.883-3.135 0-1.461.873-2.494 2.297-3.099l-.018-.053c-1.282-.606-1.834-1.603-1.834-2.6 0-1.835 1.549-3.081 3.58-3.081 2.244 0 3.366 1.407 3.366 2.85 0 .98-.481 2.03-1.906 2.707v.053c1.443.57 2.333 1.585 2.333 2.992 0 2.012-1.727 3.366-3.936 3.366z"/></svg>