<svg xmlns="http://www.w3.org/2000/svg" width="32" height="32" viewBox="0 0 32 32"><title>eight</title><path fill="#e3e5e4" d="M17.573 15.065v-.053c1.425-.677 1.906-1.728 1.906-2.707 0-1.443-1.122-2.85-3.366-2.85-2.03 0-3.58 1.247-3.58 3.081 0 .998.552 1.995 1.834 2.6l.018.053c-1.425.605-2.297 1.639-2.297 3.099 0 1.692 1.46 3.135 3.883 3.135 2.209 0 3.936-1.354 3.936-3.366 0-1.407-.891-2.423-2.333-2.992zm-3.562-2.636c0-.998.712-1.852 2.012-1.852 1.407 0 1.959.962 1.959 1.888 0 1.051-.766 1.763-1.763 2.101-1.336-.356-2.208-.98-2.208-2.137zm1.995 7.855c-1.478 0-2.369-1.033-2.315-2.209 0-1.104.73-1.995 2.084-2.387 1.567.445 2.547 1.122 2.547 2.529 0 1.193-.909 2.066-2.315 2.066z"/><path fill="#e3e5e4" d="M15.996 0C7.176 0 0 7.177 0 15.999S7.176 32 15.996 32c8.821 0 15.998-7.178 15.998-16.001S24.817 0 15.995 0zm0 31.028C7.711 31.028.972 24.286.972 15.999S7.712.972 15.996.972c8.285 0 15.026 6.741 15.026 15.027s-6.741 15.029-15.026 15.029z"/></svg>