<svg xmlns="http://www.w3.org/2000/svg" width="32" height="32" viewBox="0 0 32 32"><path d="M16.5 20.758c.434.777 1.369 2.024 3.305 2.115C22.5 23 24.964 20.5 24.964 19.56c-1.038 1.135-2.773 1.237-3.738.771-1.421-.686-1.174-2.044-2.21-2.933-.589-.505-1.425-.535-2.14 0-.129.096-.258.22-.376.369a2.07 2.07 0 0 0-.376-.369c-.716-.535-1.552-.505-2.14 0-1.036.889-.789 2.247-2.21 2.933-.965.466-2.7.364-3.738-.771 0 .94 2.464 3.44 5.159 3.313 1.936-.091 2.871-1.338 3.305-2.115zm0 8.242C9.596 29 4 23.404 4 16.5S9.596 4 16.5 4 29 9.596 29 16.5 23.404 29 16.5 29zm0-1C22.851 28 28 22.851 28 16.5S22.851 5 16.5 5 5 10.149 5 16.5 10.149 28 16.5 28zM12 14a1 1 0 1 0 0-2 1 1 0 0 0 0 2zm9 0a1 1 0 1 0 0-2 1 1 0 0 0 0 2z"/></svg>