<svg xmlns="http://www.w3.org/2000/svg" width="32" height="32" viewBox="0 0 32 32"><path d="M16.5 10.707c.063-.01.126-.021.19-.035 3.203-.802 7.718-.765 10.041-.409.28.043.325 1.215.075 1.256-.459.169-.655.59-.655.59s-.137.374-.535 1.894-1.347 1.702-1.347 1.702-1.162.261-2.502.261c-1.34 0-2.142-.055-3-.446s-1.233-1.477-1.233-1.477-.432-.937-.73-1.82c-.045-.134-.163-.225-.304-.284-.14.058-.259.15-.304.284-.298.884-.73 1.82-.73 1.82s-.375 1.087-1.233 1.477c-.858.39-1.66.446-3 .446s-2.502-.261-2.502-.261-.949-.182-1.347-1.702-.535-1.894-.535-1.894-.196-.421-.655-.59c-.249-.041-.205-1.213.075-1.256 2.323-.356 6.839-.393 10.041.409.064.013.127.025.19.035zM16.5 29C23.404 29 29 23.404 29 16.5S23.404 4 16.5 4 4 9.596 4 16.5 9.596 29 16.5 29zm-.019-7C19.962 22 22 20 22 20v1s-2.037 2-5.519 2S11 21 11 21v-1s2 2 5.481 2zM8.44 11.317c.494-.32 2.314-.328 2.954-.313s1.813.109 2.952.454c1.139.345.464 1.518.375 1.771-.128.366-.531 1.018-.952 1.287S12.421 15 11.258 15c-.676 0-1.224-.029-1.765-.139s-.809-.208-1.126-.83c-.137-.269-.254-.71-.302-1.03s-.236-1.288.375-1.684zm16.12 0c.611.395.423 1.363.375 1.684s-.164.761-.302 1.03c-.318.622-.586.72-1.126.83S22.418 15 21.742 15c-1.164 0-2.09-.215-2.511-.484s-.824-.921-.952-1.287c-.088-.252-.764-1.426.375-1.771s2.312-.438 2.952-.454c.64-.016 2.459-.007 2.954.313zM12 14a1 1 0 1 0 0-2 1 1 0 0 0 0 2zm9 0a1 1 0 1 0 0-2 1 1 0 0 0 0 2z"/></svg>