<!-- Generated by IcoMoon.io -->
<svg version="1.1" xmlns="http://www.w3.org/2000/svg" width="32" height="32" viewBox="0 0 32 32">
<title>five-selected</title>
<path fill="#e3e5e4" d="M15.997 0c-8.82 0-15.996 7.177-15.996 15.999s7.176 16.001 15.996 16.001c8.821 0 15.998-7.178 15.998-16.001s-7.177-15.999-15.999-15.999zM15.063 21.423c-1.264 0-2.333-0.356-2.885-0.712l0.392-1.193c0.481 0.285 1.425 0.641 2.475 0.641 1.478 0 2.742-0.962 2.742-2.511-0.018-1.496-1.015-2.565-3.33-2.565-0.659 0-1.176 0.071-1.603 0.125l0.748-5.557h5.539v1.318h-4.417l-0.445 2.974c0.267-0.036 0.517-0.071 0.944-0.071 0.891 0 1.781 0.196 2.493 0.623 0.908 0.517 1.656 1.514 1.656 2.974 0 2.262-1.799 3.954-4.31 3.954z"></path>
</svg>
