<svg xmlns="http://www.w3.org/2000/svg" width="32" height="32" viewBox="0 0 32 32"><title>five</title><path fill="#e3e5e4" d="M17.715 14.495c-.712-.428-1.603-.623-2.493-.623-.427 0-.677.036-.944.071l.445-2.974h4.417V9.651h-5.538l-.748 5.557c.428-.053.944-.125 1.603-.125 2.315 0 3.313 1.069 3.33 2.565 0 1.55-1.264 2.511-2.742 2.511-1.051 0-1.994-.356-2.475-.641l-.392 1.193c.552.356 1.621.712 2.885.712 2.511 0 4.31-1.692 4.31-3.954 0-1.46-.748-2.458-1.657-2.974z"/><path fill="#e3e5e4" d="M15.996 0C7.176 0 0 7.177 0 15.999S7.176 32 15.996 32c8.821 0 15.998-7.178 15.998-16.001S24.817 0 15.995 0zm0 31.028C7.711 31.028.972 24.286.972 15.999S7.712.972 15.996.972c8.285 0 15.026 6.741 15.026 15.027s-6.741 15.029-15.026 15.029z"/></svg>