<svg xmlns="http://www.w3.org/2000/svg" width="32" height="32" viewBox="0 0 32 32"><path d="M9.297 11.696l-2.44-1.466C8.909 7.081 12.461 5 16.499 5s7.591 2.082 9.642 5.23l-2.44 1.466a3 3 0 0 0-5.532.304h-3.341a3.001 3.001 0 0 0-5.532-.304zm-.282.997A3 3 0 1 0 15 13h3a3 3 0 1 0 5.985-.307l2.667-1.602a11.448 11.448 0 0 1 1.349 5.409c0 6.351-5.149 11.5-11.5 11.5s-11.5-5.149-11.5-11.5c0-1.955.488-3.797 1.349-5.409l2.667 1.602zM16.5 29C23.404 29 29 23.404 29 16.5S23.404 4 16.5 4 4 9.596 4 16.5 9.596 29 16.5 29zM12 15a2 2 0 1 1-.001-3.999A2 2 0 0 1 12 15zm9 0a2 2 0 1 1-.001-3.999A2 2 0 0 1 21 15zm-9-1a1 1 0 1 0 0-2 1 1 0 0 0 0 2zm9 0a1 1 0 1 0 0-2 1 1 0 0 0 0 2zm-4.5 10a2.5 2.5 0 1 1 0-5 2.5 2.5 0 0 1 0 5zm0-1a1.5 1.5 0 1 0-.001-3.001A1.5 1.5 0 0 0 16.5 23z"/></svg>