<svg xmlns="http://www.w3.org/2000/svg" width="32" height="32" viewBox="0 0 32 32"><path d="M9.195 11.935a3.002 3.002 0 0 1 5.634.065h3.341a3.001 3.001 0 0 1 5.634-.065l3.332-2.002C24.933 6.372 20.993 4 16.498 4S8.063 6.372 5.86 9.933l3.332 2.002zM9 12.985V13a3 3 0 1 0 6 0h3a3 3 0 1 0 6 0v-.015l3.63-2.181A12.448 12.448 0 0 1 29 16.5C29 23.404 23.404 29 16.5 29S4 23.404 4 16.5c0-2.052.494-3.988 1.37-5.696L9 12.985zM12 15a2 2 0 1 1-.001-3.999A2 2 0 0 1 12 15zm9 0a2 2 0 1 1-.001-3.999A2 2 0 0 1 21 15zm-9-1a1 1 0 1 0 0-2 1 1 0 0 0 0 2zm9 0a1 1 0 1 0 0-2 1 1 0 0 0 0 2zm-4.5 10a2.5 2.5 0 1 0 0-5 2.5 2.5 0 0 0 0 5z"/></svg>