<svg xmlns="http://www.w3.org/2000/svg" width="32" height="32" viewBox="0 0 32 32"><title>four</title><path fill="#e3e5e4" d="M18.553 9.651h-1.692l-5.165 7.391v1.033h5.378v3.152h1.478v-3.152h1.621v-1.229h-1.621V9.651zm-1.479 3.33v3.865h-3.793v-.036l2.832-3.936c.32-.534.605-1.033.962-1.71h.053a30.615 30.615 0 0 0-.053 1.817z"/><path fill="#e3e5e4" d="M15.996 0C7.176 0 0 7.177 0 15.999S7.176 32 15.996 32c8.821 0 15.998-7.178 15.998-16.001S24.817 0 15.995 0zm0 31.028C7.711 31.028.972 24.286.972 15.999S7.712.972 15.996.972c8.285 0 15.026 6.741 15.026 15.027s-6.741 15.029-15.026 15.029z"/></svg>