<svg xmlns="http://www.w3.org/2000/svg" width="32" height="32" viewBox="0 0 32 32"><title>frustrated-selected</title><path fill="#f89820" d="M27.314 4.686C24.292 1.664 20.274 0 16 0S7.708 1.664 4.686 4.686C1.664 7.708 0 11.726 0 16s1.664 8.292 4.686 11.314C7.708 30.336 11.726 32 16 32s8.292-1.664 11.314-4.686C30.336 24.292 32 20.274 32 16s-1.664-8.292-4.686-11.314zm-4.062 6.903a1.534 1.534 0 0 1-3.068 0c0-.847 3.068-.847 3.068 0zm-14.504 0c0-.847 3.068-.847 3.068 0a1.534 1.534 0 0 1-3.068 0zm14.297 10.812c-.052-.024-5.269-2.386-9.599-2.386-4.027 0-2.708 1.999-2.719 2.084l-.754-.082c.012-.113-1.28-2.761 3.473-2.761 4.497 0 9.695 2.354 9.914 2.455l-.316.69z"/></svg>