<svg xmlns="http://www.w3.org/2000/svg" width="32" height="32" viewBox="0 0 32 32"><title>frustrated</title><path fill="#f89820" d="M27.314 4.686C24.292 1.664 20.274 0 16 0S7.708 1.664 4.686 4.686C1.664 7.708 0 11.726 0 16s1.664 8.292 4.686 11.314C7.708 30.336 11.726 32 16 32s8.292-1.664 11.314-4.686C30.336 24.292 32 20.274 32 16s-1.664-8.292-4.686-11.314zM16 31.241C7.596 31.241.759 24.404.759 16S7.596.758 16 .758 31.242 7.595 31.242 16c0 8.404-6.837 15.241-15.242 15.241z"/><path fill="#f89820" d="M10.282 13.123c.847 0 1.534-.687 1.534-1.534s-3.068-.847-3.068 0 .687 1.534 1.534 1.534zm11.436 0c.847 0 1.534-.687 1.534-1.534s-3.068-.847-3.068 0 .687 1.534 1.534 1.534zM9.973 22.018l.754.082c.011-.085-1.308-2.084 2.719-2.084 4.329 0 9.546 2.362 9.599 2.386l.316-.69c-.219-.1-5.417-2.455-9.914-2.455-4.754 0-3.462 2.648-3.473 2.761z"/></svg>