<svg xmlns="http://www.w3.org/2000/svg" width="32" height="32" viewBox="0 0 32 32"><title>happy-selected</title><path fill="#29a249" d="M16 .031C7.181.031.031 7.18.031 16S7.18 31.969 16 31.969c8.819 0 15.969-7.149 15.969-15.969S24.82.031 16 .031zm5.846 9.891a1.568 1.568 0 1 1 0 3.136 1.568 1.568 0 0 1 0-3.136zm-11.692 0a1.568 1.568 0 1 1 0 3.136 1.568 1.568 0 0 1 0-3.136zm14.974 11.912c-.989 1.357-2.169 2.439-3.509 3.217-1.676.973-3.601 1.466-5.722 1.466s-4.037-.494-5.692-1.467c-1.323-.779-2.48-1.862-3.439-3.221-1.624-2.301-2.111-4.572-2.131-4.668l.759-.159c.005.022.481 2.231 2.021 4.401 2.041 2.878 4.894 4.337 8.482 4.337 3.6 0 6.494-1.468 8.604-4.364 1.583-2.173 2.102-4.361 2.107-4.383l.755.175c-.022.096-.561 2.365-2.236 4.664z"/></svg>