<svg xmlns="http://www.w3.org/2000/svg" width="32" height="32" viewBox="0 0 32 32"><path d="M16.5 29C9.596 29 4 23.404 4 16.5S9.596 4 16.5 4 29 9.596 29 16.5 23.404 29 16.5 29zm0-1C22.851 28 28 22.851 28 16.5S22.851 5 16.5 5 5 10.149 5 16.5 10.149 28 16.5 28zm2.172-14.207l2.828-2.828 2.828 2.828-.707.707-2.121-2.121-2.121 2.121-.707-.707zm-10 0l2.828-2.828 2.828 2.828-.707.707-2.121-2.121L9.379 14.5l-.707-.707zM9 19h15s-1 6-7.5 6S9 19 9 19zm1.345 1s1.287 4.013 6.18 4.013S22.643 20 22.643 20H10.345z"/></svg>