<svg xmlns="http://www.w3.org/2000/svg" width="32" height="32" viewBox="0 0 32 32"><title>nine-selected</title><path fill="#e3e5e4" d="M15.989 10.648c-1.336 0-2.28 1.176-2.28 2.814 0 1.443.873 2.458 2.226 2.458 1.051 0 1.87-.517 2.28-1.211.089-.143.142-.321.142-.57 0-1.977-.73-3.491-2.369-3.491z"/><path fill="#e3e5e4" d="M15.997 0C7.177 0 .001 7.177.001 15.999S7.177 32 15.997 32c8.821 0 15.998-7.178 15.998-16.001S24.818 0 15.996 0zm1.951 19.767c-.891.873-2.119 1.407-3.366 1.55-.57.089-1.069.107-1.443.089v-1.282c.338.036.73 0 1.265-.053.908-.125 1.763-.499 2.422-1.122.766-.695 1.318-1.71 1.532-3.081h-.053c-.641.784-1.567 1.247-2.725 1.247-2.084 0-3.419-1.567-3.419-3.544 0-2.191 1.585-4.114 3.954-4.114s3.829 1.924 3.829 4.88c.001 2.547-.854 4.328-1.994 5.432z"/></svg>