<svg xmlns="http://www.w3.org/2000/svg" width="32" height="32" viewBox="0 0 32 32"><title>question-circle-o-selected</title><path d="M27.314 4.686C24.292 1.664 20.274 0 16 0S7.708 1.664 4.686 4.686C1.664 7.708 0 11.726 0 16s1.664 8.292 4.686 11.314C7.708 30.336 11.726 32 16 32s8.292-1.664 11.314-4.686C30.336 24.292 32 20.274 32 16s-1.664-8.292-4.686-11.314zM17.152 25.194h-2.448v-2.448h2.448v2.448zm3.882-10.916c-.358.645-1.059 1.429-2.102 2.353-.701.621-1.159 1.079-1.373 1.373s-.374.633-.478 1.015c-.104.382-.163 1.003-.179 1.863h-2.066a25.345 25.345 0 0 1-.012-.645c0-.844.119-1.573.358-2.186.175-.462.458-.928.848-1.397.287-.342.802-.842 1.547-1.499s1.228-1.18 1.451-1.571a2.53 2.53 0 0 0 .334-1.278c0-.836-.327-1.571-.979-2.204s-1.453-.949-2.401-.949c-.916 0-1.68.287-2.293.86s-1.015 1.469-1.206 2.687l-2.21-.263c.199-1.632.79-2.882 1.774-3.75s2.283-1.302 3.899-1.302c1.712 0 3.077.466 4.097 1.397s1.529 2.058 1.529 3.38c0 .764-.179 1.469-.537 2.114z"/></svg>