<svg xmlns="http://www.w3.org/2000/svg" width="32" height="32" viewBox="0 0 32 32"><title>question</title><path d="M27.314 4.686C24.292 1.664 20.274 0 16 0S7.708 1.664 4.686 4.686C1.664 7.708 0 11.726 0 16s1.664 8.292 4.686 11.314C7.708 30.336 11.726 32 16 32s8.292-1.664 11.314-4.686C30.336 24.292 32 20.274 32 16s-1.664-8.292-4.686-11.314zM16 31.241C7.596 31.241.759 24.404.759 16S7.596.758 16 .758 31.242 7.595 31.242 16c0 8.404-6.837 15.241-15.242 15.241z"/><path d="M22.345 11.216V7.735H9.612v3.481h9.252v2.416l-5.778 3.308v3.586h3.481v-2.463l2.297-1.331v.012l3.481-1.998v-.031l.043-.025-.043-.073zm-9.247 10.401h3.466v3.459h-3.466v-3.459z"/></svg>