<svg xmlns="http://www.w3.org/2000/svg" width="32" height="32" viewBox="0 0 32 32"><title>question-circle-o</title><path d="M27.314 4.686C24.292 1.664 20.274 0 16 0S7.708 1.664 4.686 4.686C1.664 7.708 0 11.726 0 16s1.664 8.292 4.686 11.314C7.708 30.336 11.726 32 16 32s8.292-1.664 11.314-4.686C30.336 24.292 32 20.274 32 16s-1.664-8.292-4.686-11.314zM16 31.241C7.596 31.241.759 24.404.759 16S7.596.758 16 .758 31.242 7.595 31.242 16c0 8.404-6.837 15.241-15.242 15.241z"/><path d="M20.043 8.784c-1.019-.932-2.385-1.397-4.097-1.397-1.616 0-2.916.434-3.899 1.302s-1.575 2.118-1.774 3.75l2.21.263c.191-1.218.593-2.114 1.206-2.687s1.377-.86 2.293-.86c.947 0 1.748.316 2.401.949s.979 1.368.979 2.204c0 .462-.112.888-.334 1.278s-.707.914-1.451 1.571c-.745.657-1.26 1.157-1.547 1.499-.39.47-.673.936-.848 1.397-.239.613-.358 1.342-.358 2.186 0 .143.004.358.012.645h2.066c.016-.86.076-1.481.179-1.863s.263-.721.478-1.015c.215-.294.673-.752 1.373-1.373 1.043-.924 1.744-1.708 2.102-2.353s.537-1.35.537-2.114c0-1.322-.51-2.448-1.529-3.38zm-5.339 13.961h2.448v2.448h-2.448v-2.448z"/></svg>