<svg xmlns="http://www.w3.org/2000/svg" width="32" height="32" viewBox="0 0 32 32"><title>sad-selected</title><path fill="#de2f27" d="M16 .031C7.181.031.031 7.18.031 16S7.18 31.969 16 31.969 31.969 24.82 31.969 16C31.969 7.181 24.819.031 16 .031zm5.846 9.891a1.568 1.568 0 1 1 0 3.136 1.568 1.568 0 0 1 0-3.136zm-11.692 0a1.568 1.568 0 1 1 0 3.136 1.568 1.568 0 0 1 0-3.136zm15.489 14.739c-.011-.01-1.086-1.025-2.786-2.024-1.554-.914-3.966-2.004-6.631-2.004s-5.077 1.09-6.631 2.004c-1.7 1-2.775 2.014-2.786 2.025l-.534-.562c.046-.043 1.138-1.076 2.909-2.121 1.641-.968 4.195-2.121 7.042-2.121s5.401 1.154 7.042 2.121c1.771 1.044 2.864 2.077 2.909 2.121l-.535.562z"/></svg>