<svg xmlns="http://www.w3.org/2000/svg" width="32" height="32" viewBox="0 0 32 32"><title>six-selected</title><path fill="#e3e5e4" d="M16.007 14.78c-.944 0-1.816.588-2.244 1.425-.107.178-.178.41-.178.695.036 1.906.908 3.313 2.547 3.313 1.353 0 2.262-1.122 2.262-2.778s-.944-2.654-2.387-2.654z"/><path fill="#e3e5e4" d="M15.997 0C7.177 0 .001 7.177.001 15.999S7.177 32 15.997 32c8.821 0 15.998-7.178 15.998-16.001S24.818 0 15.997 0zm.135 21.423c-2.475 0-4.096-1.924-4.096-4.933 0-2.28.819-4.079 1.959-5.219.962-.944 2.244-1.532 3.704-1.71a7.556 7.556 0 0 1 1.14-.089v1.282c-.32-.018-.73 0-1.175.071-2.458.41-3.758 2.209-4.025 4.114h.053c.552-.73 1.514-1.336 2.796-1.336 2.048 0 3.491 1.478 3.491 3.74 0 2.119-1.442 4.078-3.847 4.078z"/></svg>