<svg xmlns="http://www.w3.org/2000/svg" width="32" height="32" viewBox="0 0 32 32"><title>smile-selected</title><path fill="#2da97d" d="M16 .031C7.181.031.031 7.18.031 16S7.18 31.969 16 31.969c8.819 0 15.969-7.149 15.969-15.969S24.82.031 16 .031zm5.846 9.891a1.568 1.568 0 1 1 0 3.136 1.568 1.568 0 0 1 0-3.136zm-11.692 0a1.568 1.568 0 1 1 0 3.136 1.568 1.568 0 0 1 0-3.136zm12.947 13.22c-1.649 1.009-4.263 2.211-7.356 2.211-3.099 0-5.574-1.206-7.104-2.218-1.656-1.096-2.575-2.183-2.614-2.228l.594-.498c.018.022.908 1.066 2.469 2.094 1.437.947 3.758 2.075 6.654 2.075 2.903 0 5.372-1.134 6.932-2.085 1.704-1.039 2.727-2.093 2.737-2.104l.559.537c-.044.045-1.089 1.126-2.872 2.216z"/></svg>