<svg xmlns="http://www.w3.org/2000/svg" width="32" height="32" viewBox="0 0 32 32"><path d="M16.5 10.707c.063-.01.126-.021.19-.035 3.203-.802 7.718-.765 10.041-.409.28.043.325 1.215.075 1.256-.459.169-.655.59-.655.59s-.137.374-.535 1.894-1.347 1.702-1.347 1.702-1.162.261-2.502.261c-1.34 0-2.142-.055-3-.446s-1.233-1.477-1.233-1.477-.432-.937-.73-1.82c-.045-.134-.163-.225-.304-.284-.14.058-.259.15-.304.284-.298.884-.73 1.82-.73 1.82s-.375 1.087-1.233 1.477c-.858.39-1.66.446-3 .446s-2.502-.261-2.502-.261-.949-.182-1.347-1.702-.535-1.894-.535-1.894-.196-.421-.655-.59c-.249-.041-.205-1.213.075-1.256 2.323-.356 6.839-.393 10.041.409.064.013.127.025.19.035zM16.5 29C23.404 29 29 23.404 29 16.5S23.404 4 16.5 4 4 9.596 4 16.5 9.596 29 16.5 29zm-.981-7h2.989c.824 0 1.492-.677 1.492-1.495V20h1v1c0 1-1 2-2 2h-7v-1h3.519z"/></svg>