<svg xmlns="http://www.w3.org/2000/svg" width="32" height="32" viewBox="0 0 32 32"><title>starburst</title><path d="M28.741 14.892l-2.465-1.643 1.312-2.657a1.333 1.333 0 0 0-1.109-1.921l-2.957-.191-.192-2.957a1.327 1.327 0 0 0-.663-1.069 1.325 1.325 0 0 0-1.257-.04l-2.655 1.313-1.644-2.465c-.495-.743-1.724-.743-2.219 0l-1.645 2.464-2.656-1.312a1.325 1.325 0 0 0-1.257.04 1.33 1.33 0 0 0-.664 1.069l-.191 2.956-2.957.191a1.335 1.335 0 0 0-1.109 1.921l1.312 2.657-2.465 1.644a1.334 1.334 0 0 0 0 2.218l2.467 1.644-1.313 2.656a1.333 1.333 0 0 0 1.109 1.921l2.957.191.191 2.957c.028.444.277.845.664 1.068s.856.239 1.257.041l2.656-1.313 1.644 2.465a1.334 1.334 0 0 0 2.218 0l1.644-2.465 2.655 1.313a1.34 1.34 0 0 0 1.257-.04 1.33 1.33 0 0 0 .664-1.069l.191-2.956 2.959-.192a1.33 1.33 0 0 0 1.109-1.921l-1.312-2.656 2.465-1.644a1.334 1.334 0 0 0 0-2.218zm-5.376 3.996l.947 1.913-2.133.139a1.335 1.335 0 0 0-1.245 1.245l-.137 2.131-1.913-.945a1.33 1.33 0 0 0-1.7.456L16.001 25.6l-1.185-1.777a1.331 1.331 0 0 0-1.7-.454l-1.915.945-.137-2.131a1.335 1.335 0 0 0-1.245-1.245l-2.128-.137.947-1.913a1.333 1.333 0 0 0-.456-1.7l-1.777-1.185 1.776-1.184c.557-.372.752-1.1.456-1.7l-.947-1.915 2.133-.137a1.335 1.335 0 0 0 1.245-1.245l.137-2.131 1.913.945a1.337 1.337 0 0 0 1.7-.456l1.183-1.775 1.185 1.777a1.336 1.336 0 0 0 1.7.456l1.915-.947.139 2.132c.044.668.577 1.2 1.245 1.244l2.131.137-.945 1.916a1.334 1.334 0 0 0 .456 1.7l1.776 1.184-1.777 1.185a1.33 1.33 0 0 0-.459 1.699z"/></svg>