<!-- Generated by IcoMoon.io -->
<svg version="1.1" xmlns="http://www.w3.org/2000/svg" width="32" height="32" viewBox="0 0 32 32">
<title>ten-selected</title>
<path fill="#e3e5e4" d="M20.575 10.666c-1.371 0-2.369 1.674-2.369 4.827 0 3.010 0.926 4.72 2.351 4.72 1.603 0 2.369-1.87 2.369-4.827 0-2.85-0.73-4.72-2.351-4.72z"></path>
<path fill="#e3e5e4" d="M15.997 0c-8.82 0-15.996 7.177-15.996 15.999s7.176 16.001 15.996 16.001c8.821 0 15.998-7.178 15.998-16.001s-7.177-15.999-15.999-15.999zM12.579 21.228h-1.514v-10.116h-0.036l-2.012 1.087-0.303-1.194 2.529-1.354h1.336v11.577zM20.468 21.424c-2.262 0-3.793-2.119-3.829-5.949 0-3.883 1.674-6.020 4.025-6.020 2.44 0 3.829 2.173 3.829 5.86 0 3.936-1.46 6.109-4.025 6.109z"></path>
</svg>
