<svg xmlns="http://www.w3.org/2000/svg" width="32" height="32" viewBox="0 0 32 32"><title>three-selected</title><path fill="#e3e5e4" d="M15.997 0C7.177 0 .001 7.177.001 15.999S7.177 32 15.997 32c8.821 0 15.998-7.178 15.998-16.001S24.818 0 15.996 0zm-.809 21.423c-1.3 0-2.44-.41-3.01-.784l.428-1.211c.445.285 1.478.73 2.564.73 2.012 0 2.636-1.282 2.618-2.244-.018-1.621-1.478-2.315-2.992-2.315h-.873v-1.176h.873c1.14 0 2.582-.588 2.582-1.959 0-.926-.588-1.746-2.03-1.746-.926 0-1.816.41-2.315.766l-.41-1.14c.605-.445 1.781-.891 3.028-.891 2.28 0 3.313 1.353 3.313 2.761 0 1.193-.712 2.209-2.137 2.725v.036c1.425.285 2.582 1.354 2.582 2.974 0 1.853-1.442 3.473-4.221 3.473z"/></svg>