<svg xmlns="http://www.w3.org/2000/svg" width="32" height="32" viewBox="0 0 32 32"><title>thumb-down</title><path d="M7.071 8q0-.464-.339-.804t-.804-.339-.804.339T4.785 8t.339.804.804.339.804-.339T7.071 8zm20.572 10.286q0-.625-.384-1.446t-.955-.839q.268-.304.446-.848t.179-.991q0-1.232-.946-2.125.321-.571.321-1.232t-.313-1.313-.848-.938q.089-.536.089-1 0-1.518-.875-2.25t-2.429-.732h-2.286q-2.339 0-6.107 1.304-.089.036-.518.188t-.634.223-.625.205-.679.196-.589.116-.563.054h-.571v11.429h.571q.286 0 .634.161t.714.482.688.634.714.786.616.759.563.732.411.536q.982 1.214 1.375 1.625.732.768 1.063 1.955t.545 2.241.679 1.518q1.714 0 2.286-.839t.571-2.589q0-1.054-.857-2.866t-.857-2.848h6.286q.893 0 1.589-.688t.696-1.598zm2.286.018q0 1.839-1.357 3.196t-3.214 1.357h-3.143q.857 1.768.857 3.429 0 2.107-.625 3.321-.625 1.232-1.821 1.813T17.93 32q-.911 0-1.607-.661-.607-.589-.964-1.464t-.455-1.616-.313-1.509-.554-1.143q-.857-.893-1.911-2.268Q10.322 21 9.68 20.571H4.787q-.946 0-1.616-.67t-.67-1.616V6.856q0-.946.67-1.616t1.616-.67H9.93q.393 0 2.464-.714 2.286-.786 3.982-1.179t3.571-.393h2q2.5 0 4.045 1.411t1.527 3.857v.089q1.071 1.375 1.071 3.179 0 .393-.054.768.679 1.196.679 2.571 0 .643-.161 1.232.875 1.321.875 2.911z"/></svg>