<svg xmlns="http://www.w3.org/2000/svg" width="32" height="32" viewBox="0 0 32 32"><title>two-selected</title><path fill="#e3e5e4" d="M15.997 0C7.177 0 .001 7.177.001 15.999S7.177 32 15.997 32c8.821 0 15.998-7.178 15.998-16.001S24.818 0 15.996 0zm3.625 21.227h-7.391v-.962l1.229-1.193c2.956-2.814 4.292-4.31 4.31-6.056 0-1.176-.57-2.262-2.297-2.262-1.051 0-1.923.534-2.457.98l-.499-1.104a5.077 5.077 0 0 1 3.277-1.176c2.493 0 3.544 1.71 3.544 3.366 0 2.137-1.549 3.865-3.989 6.216l-.926.855v.036h5.2v1.3z"/></svg>