<svg xmlns="http://www.w3.org/2000/svg" width="32" height="32" viewBox="0 0 32 32"><title>two</title><path fill="#e3e5e4" d="M14.421 19.892l.926-.855c2.44-2.351 3.989-4.079 3.989-6.216 0-1.656-1.051-3.366-3.544-3.366a5.08 5.08 0 0 0-3.277 1.176l.499 1.104c.534-.445 1.407-.98 2.457-.98 1.728 0 2.297 1.087 2.297 2.262-.018 1.745-1.353 3.241-4.31 6.056l-1.229 1.193v.962h7.391v-1.3h-5.2v-.036z"/><path fill="#e3e5e4" d="M15.996 0C7.176 0 0 7.177 0 15.999S7.176 32 15.996 32c8.821 0 15.998-7.178 15.998-16.001S24.817 0 15.995 0zm0 31.028C7.711 31.028.972 24.286.972 15.999S7.712.972 15.996.972c8.285 0 15.026 6.741 15.026 15.027s-6.741 15.029-15.026 15.029z"/></svg>