<svg xmlns="http://www.w3.org/2000/svg" width="32" height="32" viewBox="0 0 32 32"><path d="M16.5 4C9.597 4 4 9.597 4 16.5S9.597 29 16.5 29 29 23.403 29 16.5 23.403 4 16.5 4zm-7.437 8.203l3.316-2.238.559.828-3.316 2.238-.559-.828zM13 23h-.494a1.507 1.507 0 0 1-1.422-1H13v1zm0-2h-1.916c.206-.584.766-1 1.422-1H13v1zm-1-6a1 1 0 1 1 0-2 1 1 0 1 1 0 2zm4 8h-2v-1h2v1zm0-2h-2v-1h2v1zm4-1h.494c.659 0 1.216.419 1.422 1H20v-1zm-1 3h-2v-1h2v1zm0-2h-2v-1h2v1zm1.494 2H20v-1h1.916c-.206.584-.766 1-1.422 1zM21 15a1 1 0 1 1 0-2 1 1 0 1 1 0 2zm2.378-1.966l-3.316-2.238.559-.828 3.316 2.234-.559.831z"/></svg>