<svg xmlns="http://www.w3.org/2000/svg" width="32" height="32" viewBox="0 0 32 32"><title>zero-selected</title><path fill="#e3e5e4" d="M16.007 10.666c-1.371 0-2.369 1.674-2.369 4.827 0 3.01.926 4.72 2.351 4.72 1.603 0 2.369-1.87 2.369-4.827 0-2.85-.73-4.72-2.351-4.72z"/><path fill="#e3e5e4" d="M15.997 0C7.177 0 .001 7.177.001 15.999S7.177 32 15.997 32c8.821 0 15.998-7.178 15.998-16.001S24.818 0 15.996 0zM15.9 21.423c-2.262 0-3.793-2.119-3.829-5.949 0-3.883 1.674-6.02 4.025-6.02 2.44 0 3.829 2.173 3.829 5.86 0 3.936-1.461 6.109-4.025 6.109z"/></svg>