<!-- Generated by IcoMoon.io -->
<svg version="1.1" xmlns="http://www.w3.org/2000/svg" width="32" height="32" viewBox="0 0 32 32">
<title>two</title>
<path fill="#e3e5e4" d="M14.421 19.892l0.926-0.855c2.44-2.351 3.989-4.079 3.989-6.216 0-1.656-1.051-3.366-3.544-3.366-1.336 0-2.475 0.499-3.277 1.176l0.499 1.104c0.534-0.445 1.407-0.98 2.457-0.98 1.728 0 2.297 1.087 2.297 2.262-0.018 1.745-1.353 3.241-4.31 6.056l-1.229 1.193v0.962h7.391v-1.3h-5.2v-0.036z"></path>
<path fill="#e3e5e4" d="M15.996 0c-8.82 0-15.996 7.177-15.996 15.999s7.176 16.001 15.996 16.001c8.821 0 15.998-7.178 15.998-16.001s-7.177-15.999-15.999-15.999zM15.996 31.028c-8.285 0-15.024-6.742-15.024-15.029s6.74-15.027 15.024-15.027c8.285 0 15.026 6.741 15.026 15.027s-6.741 15.029-15.026 15.029z"></path>
</svg>
