<!-- Generated by IcoMoon.io -->
<svg version="1.1" xmlns="http://www.w3.org/2000/svg" width="32" height="32" viewBox="0 0 32 32">
<title>nine-selected</title>
<path fill="#e3e5e4" d="M15.989 10.648c-1.336 0-2.28 1.176-2.28 2.814 0 1.443 0.873 2.458 2.226 2.458 1.051 0 1.87-0.517 2.28-1.211 0.089-0.143 0.142-0.321 0.142-0.57 0-1.977-0.73-3.491-2.369-3.491z"></path>
<path fill="#e3e5e4" d="M15.997 0c-8.82 0-15.996 7.177-15.996 15.999s7.176 16.001 15.996 16.001c8.821 0 15.998-7.178 15.998-16.001s-7.177-15.999-15.999-15.999zM17.948 19.767c-0.891 0.873-2.119 1.407-3.366 1.55-0.57 0.089-1.069 0.107-1.443 0.089v-1.282c0.338 0.036 0.73 0 1.265-0.053 0.908-0.125 1.763-0.499 2.422-1.122 0.766-0.695 1.318-1.71 1.532-3.081h-0.053c-0.641 0.784-1.567 1.247-2.725 1.247-2.084 0-3.419-1.567-3.419-3.544 0-2.191 1.585-4.114 3.954-4.114s3.829 1.924 3.829 4.88c0.001 2.547-0.854 4.328-1.994 5.432z"></path>
</svg>
