<svg xmlns="http://www.w3.org/2000/svg" width="32" height="32" viewBox="0 0 32 32"><title>baffled-selected</title><path fill="#f89820" d="M27.314 4.686C24.292 1.664 20.274 0 16 0S7.708 1.664 4.686 4.686C1.664 7.708 0 11.726 0 16s1.664 8.292 4.686 11.314C7.708 30.336 11.726 32 16 32s8.292-1.664 11.314-4.686C30.336 24.292 32 20.274 32 16s-1.664-8.292-4.686-11.314zm-8.71 3.752l.142-.351c.029.012.731.275 1.692-.294s1.067-1.311 1.071-1.342l.754.084c-.005.046-.134 1.138-1.439 1.911-.625.37-1.184.468-1.602.468a2.12 2.12 0 0 1-.765-.126l.147-.35zm-8.113-1.982c.004.027.11.769 1.071 1.338.965.571 1.681.298 1.688.295l.293.7a2.12 2.12 0 0 1-.765.126c-.418 0-.977-.098-1.602-.468-1.305-.773-1.434-1.865-1.439-1.911l.754-.079zm-.716 6.629c-.679-.153-1.078-.947-.891-1.774s.888-1.372 1.567-1.219c.679.153 1.078.947.891 1.774s-.888 1.372-1.567 1.219zm5.278 11.247c-9.151-.876-3.943-6.669 2.288-5.014 6.718 2.251 6.036 7.594-2.288 5.014zm7.172-11.246c-.679.153-1.381-.392-1.567-1.219s.212-1.621.891-1.774 1.381.392 1.567 1.219-.212 1.621-.891 1.774z"/></svg>