<!-- Generated by IcoMoon.io -->
<svg version="1.1" xmlns="http://www.w3.org/2000/svg" width="32" height="32" viewBox="0 0 32 32">
<title>baffled</title>
<path fill="#f89820" d="M27.314 4.686c-3.022-3.022-7.040-4.686-11.314-4.686s-8.292 1.664-11.314 4.686c-3.022 3.022-4.686 7.040-4.686 11.314s1.664 8.292 4.686 11.314c3.022 3.022 7.040 4.686 11.314 4.686s8.292-1.664 11.314-4.686c3.022-3.022 4.686-7.040 4.686-11.314s-1.664-8.292-4.686-11.314zM16 31.241c-8.404 0-15.242-6.837-15.242-15.241s6.837-15.242 15.242-15.242c8.404 0 15.241 6.837 15.241 15.242s-6.837 15.241-15.241 15.241z"></path>
<path fill="#f89820" d="M22.226 13.085c-0.679 0.153-1.38-0.392-1.567-1.219s0.212-1.62 0.891-1.774c0.679-0.153 1.38 0.392 1.567 1.219s-0.212 1.62-0.891 1.774z"></path>
<path fill="#f89820" d="M20.825 8.446c1.305-0.773 1.434-1.865 1.439-1.911l-0.754-0.084c-0.004 0.031-0.11 0.773-1.071 1.342s-1.662 0.305-1.692 0.294l-0.142 0.351-0.147 0.35c0.022 0.009 0.31 0.126 0.765 0.126 0.418 0 0.977-0.098 1.602-0.468z"></path>
<path fill="#f89820" d="M9.776 13.085c-0.679-0.153-1.078-0.947-0.891-1.774s0.888-1.372 1.567-1.219c0.679 0.153 1.078 0.947 0.891 1.774s-0.888 1.372-1.567 1.219z"></path>
<path fill="#f89820" d="M11.175 8.446c0.625 0.37 1.184 0.468 1.602 0.468 0.455 0 0.743-0.117 0.765-0.126l-0.293-0.7c-0.007 0.003-0.723 0.276-1.688-0.295-0.961-0.569-1.067-1.311-1.071-1.338l-0.754 0.079c0.005 0.046 0.134 1.138 1.439 1.911z"></path>
<path fill="#f89820" d="M17.341 19.318c-6.231-1.655-11.439 4.137-2.288 5.014 8.324 2.58 9.005-2.762 2.288-5.014z"></path>
</svg>
