<!-- Generated by IcoMoon.io -->
<svg version="1.1" xmlns="http://www.w3.org/2000/svg" width="32" height="32" viewBox="0 0 32 32">
<title>baffled-selected</title>
<path fill="#f89820" d="M27.314 4.686c-3.022-3.022-7.040-4.686-11.314-4.686s-8.292 1.664-11.314 4.686c-3.022 3.022-4.686 7.040-4.686 11.314s1.664 8.292 4.686 11.314c3.022 3.022 7.040 4.686 11.314 4.686s8.292-1.664 11.314-4.686c3.022-3.022 4.686-7.040 4.686-11.314s-1.664-8.292-4.686-11.314zM18.604 8.438l0.142-0.351c0.029 0.012 0.731 0.275 1.692-0.294s1.067-1.311 1.071-1.342l0.754 0.084c-0.005 0.046-0.134 1.138-1.439 1.911-0.625 0.37-1.184 0.468-1.602 0.468-0.455 0-0.743-0.117-0.765-0.126l0.147-0.35zM10.491 6.456c0.004 0.027 0.11 0.769 1.071 1.338 0.965 0.571 1.681 0.298 1.688 0.295l0.293 0.7c-0.022 0.009-0.31 0.126-0.765 0.126-0.418 0-0.977-0.098-1.602-0.468-1.305-0.773-1.434-1.865-1.439-1.911l0.754-0.079zM9.775 13.085c-0.679-0.153-1.078-0.947-0.891-1.774s0.888-1.372 1.567-1.219c0.679 0.153 1.078 0.947 0.891 1.774s-0.888 1.372-1.567 1.219zM15.053 24.332c-9.151-0.876-3.943-6.669 2.288-5.014 6.718 2.251 6.036 7.594-2.288 5.014zM22.225 13.086c-0.679 0.153-1.381-0.392-1.567-1.219s0.212-1.621 0.891-1.774 1.381 0.392 1.567 1.219-0.212 1.621-0.891 1.774z"></path>
</svg>
