<svg xmlns="http://www.w3.org/2000/svg" width="32" height="32" viewBox="0 0 32 32"><title>baffled</title><path fill="#f89820" d="M27.314 4.686C24.292 1.664 20.274 0 16 0S7.708 1.664 4.686 4.686C1.664 7.708 0 11.726 0 16s1.664 8.292 4.686 11.314C7.708 30.336 11.726 32 16 32s8.292-1.664 11.314-4.686C30.336 24.292 32 20.274 32 16s-1.664-8.292-4.686-11.314zM16 31.241C7.596 31.241.758 24.404.758 16S7.595.758 16 .758C24.404.758 31.241 7.595 31.241 16S24.404 31.241 16 31.241z"/><path fill="#f89820" d="M22.226 13.085c-.679.153-1.38-.392-1.567-1.219s.212-1.62.891-1.774c.679-.153 1.38.392 1.567 1.219s-.212 1.62-.891 1.774zm-1.401-4.639c1.305-.773 1.434-1.865 1.439-1.911l-.754-.084c-.004.031-.11.773-1.071 1.342s-1.662.305-1.692.294l-.142.351-.147.35c.022.009.31.126.765.126.418 0 .977-.098 1.602-.468zM9.776 13.085c-.679-.153-1.078-.947-.891-1.774s.888-1.372 1.567-1.219c.679.153 1.078.947.891 1.774s-.888 1.372-1.567 1.219zm1.399-4.639c.625.37 1.184.468 1.602.468.455 0 .743-.117.765-.126l-.293-.7c-.007.003-.723.276-1.688-.295-.961-.569-1.067-1.311-1.071-1.338l-.754.079c.005.046.134 1.138 1.439 1.911zm6.166 10.872c-6.231-1.655-11.439 4.137-2.288 5.014 8.324 2.58 9.005-2.762 2.288-5.014z"/></svg>