<!-- Generated by IcoMoon.io -->
<svg version="1.1" xmlns="http://www.w3.org/2000/svg" width="32" height="32" viewBox="0 0 32 32">
<title>circle-selected</title>
<path fill="#e3e5e4" d="M15.997 0c-8.821 0-15.997 7.177-15.997 15.999s7.176 16.001 15.997 16.001c8.822 0 15.999-7.178 15.999-16.001s-7.177-15.999-15.999-15.999zM15.997 31.028c-8.285 0-15.025-6.742-15.025-15.029s6.74-15.027 15.025-15.027c8.286 0 15.027 6.741 15.027 15.027s-6.741 15.029-15.027 15.029z"></path>
<path fill="#e3e5e4" d="M15.998 5.85c-5.605 0-10.149 4.544-10.149 10.149s4.544 10.15 10.149 10.15c5.606 0 10.15-4.545 10.15-10.15s-4.544-10.149-10.15-10.149z"></path>
</svg>
