<!-- Generated by IcoMoon.io -->
<svg version="1.1" xmlns="http://www.w3.org/2000/svg" width="32" height="32" viewBox="0 0 32 32">
<title>confused-selected</title>
<path fill="#f89820" d="M27.314 4.686c-3.022-3.022-7.040-4.686-11.314-4.686s-8.292 1.664-11.314 4.686c-3.022 3.022-4.686 7.040-4.686 11.314s1.664 8.292 4.686 11.314c3.022 3.022 7.040 4.686 11.314 4.686s8.292-1.664 11.314-4.686c3.022-3.022 4.686-7.040 4.686-11.314s-1.664-8.292-4.686-11.314zM21.718 10.055c0.847 0 1.534 0.687 1.534 1.534s-0.687 1.534-1.534 1.534-1.534-0.687-1.534-1.534 0.687-1.534 1.534-1.534zM10.282 10.055c0.847 0 1.534 0.687 1.534 1.534s-0.687 1.534-1.534 1.534c-0.847 0-1.534-0.687-1.534-1.534s0.687-1.534 1.534-1.534zM25.072 22.928l-3.57-0.984-3.67 1.011-3.67-1.011-3.67 1.011-3.771-1.039 0.202-0.731 3.569 0.984 3.67-1.011 3.67 1.011 3.67-1.011 3.771 1.039-0.201 0.731z"></path>
</svg>
