<!-- Generated by IcoMoon.io -->
<svg version="1.1" xmlns="http://www.w3.org/2000/svg" width="32" height="32" viewBox="0 0 32 32">
<title>crying-selected</title>
<path fill="#de2f27" d="M27.314 4.686c-3.022-3.022-7.040-4.686-11.314-4.686s-8.292 1.664-11.314 4.686c-3.022 3.022-4.686 7.040-4.686 11.314s1.664 8.292 4.686 11.314c3.022 3.022 7.040 4.686 11.314 4.686s8.292-1.664 11.314-4.686c3.022-3.022 4.686-7.040 4.686-11.314s-1.664-8.292-4.686-11.314zM21.718 10.055c0.847 0 1.534 0.687 1.534 1.534s-0.687 1.534-1.534 1.534-1.534-0.687-1.534-1.534 0.687-1.534 1.534-1.534zM10.282 10.055c0.847 0 1.534 0.687 1.534 1.534s-0.687 1.534-1.534 1.534c-0.847 0-1.534-0.687-1.534-1.534s0.687-1.534 1.534-1.534zM9.047 15.351c0 0 1.551 2.427 0 2.427s0-2.427 0-2.427zM25.433 24.472c-0.010-0.010-1.062-1.002-2.725-1.98-1.52-0.894-3.88-1.96-6.487-1.96s-4.966 1.066-6.487 1.96c-1.663 0.978-2.715 1.971-2.725 1.98l-0.523-0.549c0.045-0.042 1.113-1.053 2.846-2.075 1.605-0.947 4.104-2.075 6.889-2.075s5.283 1.129 6.889 2.075c1.733 1.022 2.801 2.032 2.846 2.075l-0.523 0.549z"></path>
</svg>
