<svg xmlns="http://www.w3.org/2000/svg" width="32" height="32" viewBox="0 0 32 32"><title>five-selected</title><path fill="#e3e5e4" d="M15.997 0C7.177 0 .001 7.177.001 15.999S7.177 32 15.997 32c8.821 0 15.998-7.178 15.998-16.001S24.818 0 15.996 0zm-.934 21.423c-1.264 0-2.333-.356-2.885-.712l.392-1.193c.481.285 1.425.641 2.475.641 1.478 0 2.742-.962 2.742-2.511-.018-1.496-1.015-2.565-3.33-2.565-.659 0-1.176.071-1.603.125l.748-5.557h5.539v1.318h-4.417l-.445 2.974c.267-.036.517-.071.944-.071.891 0 1.781.196 2.493.623.908.517 1.656 1.514 1.656 2.974 0 2.262-1.799 3.954-4.31 3.954z"/></svg>