<!-- Generated by IcoMoon.io -->
<svg version="1.1" xmlns="http://www.w3.org/2000/svg" width="32" height="32" viewBox="0 0 32 32">
<title>frustrated-selected</title>
<path fill="#f89820" d="M27.314 4.686c-3.022-3.022-7.040-4.686-11.314-4.686s-8.292 1.664-11.314 4.686c-3.022 3.022-4.686 7.040-4.686 11.314s1.664 8.292 4.686 11.314c3.022 3.022 7.040 4.686 11.314 4.686s8.292-1.664 11.314-4.686c3.022-3.022 4.686-7.040 4.686-11.314s-1.664-8.292-4.686-11.314zM23.252 11.589c0 0.847-0.687 1.534-1.534 1.534s-1.534-0.687-1.534-1.534 3.068-0.847 3.068 0zM8.748 11.589c0-0.847 3.068-0.847 3.068 0s-0.687 1.534-1.534 1.534c-0.847 0-1.534-0.687-1.534-1.534zM23.045 22.401c-0.052-0.024-5.269-2.386-9.599-2.386-4.027 0-2.708 1.999-2.719 2.084l-0.754-0.082c0.012-0.113-1.28-2.761 3.473-2.761 4.497 0 9.695 2.354 9.914 2.455l-0.316 0.69z"></path>
</svg>
