<svg xmlns="http://www.w3.org/2000/svg" width="32" height="32" viewBox="0 0 32 32"><title>happy</title><path fill="#29a249" d="M27.314 4.686C24.292 1.664 20.274 0 16 0S7.708 1.664 4.686 4.686C1.664 7.708 0 11.726 0 16s1.664 8.292 4.686 11.314C7.708 30.336 11.726 32 16 32s8.292-1.664 11.314-4.686C30.336 24.292 32 20.274 32 16s-1.664-8.292-4.686-11.314zM16 31.241C7.596 31.241.759 24.404.759 16S7.596.758 16 .758 31.241 7.595 31.241 16c0 8.404-6.837 15.241-15.241 15.241z"/><path fill="#29a249" d="M26.377 16.973c-.005.021-.512 2.162-2.061 4.287-2.064 2.833-4.895 4.269-8.416 4.269-3.509 0-6.301-1.427-8.297-4.242-1.506-2.124-1.972-4.284-1.977-4.305l-.742.155c.019.093.496 2.315 2.084 4.566.938 1.329 2.07 2.389 3.364 3.15 1.619.952 3.492 1.435 5.568 1.435s3.958-.482 5.597-1.434c1.31-.761 2.465-1.819 3.432-3.147 1.639-2.249 2.165-4.469 2.187-4.563l-.739-.171zm-14.561-5.384a1.534 1.534 0 1 1-3.069 0 1.534 1.534 0 0 1 3.069 0zm11.436 0a1.534 1.534 0 1 1-3.069 0 1.534 1.534 0 0 1 3.069 0z"/></svg>