<!-- Generated by IcoMoon.io -->
<svg version="1.1" xmlns="http://www.w3.org/2000/svg" width="32" height="32" viewBox="0 0 32 32">
<title>happy</title>
<path fill="#29a249" d="M27.314 4.686c-3.022-3.022-7.040-4.686-11.314-4.686s-8.292 1.664-11.314 4.686c-3.022 3.022-4.686 7.040-4.686 11.314s1.664 8.292 4.686 11.314c3.022 3.022 7.040 4.686 11.314 4.686s8.292-1.664 11.314-4.686c3.022-3.022 4.686-7.040 4.686-11.314s-1.664-8.292-4.686-11.314zM16 31.241c-8.404 0-15.241-6.837-15.241-15.241s6.837-15.242 15.241-15.242 15.241 6.837 15.241 15.242c0 8.404-6.837 15.241-15.241 15.241z"></path>
<path fill="#29a249" d="M26.377 16.973c-0.005 0.021-0.512 2.162-2.061 4.287-2.064 2.833-4.895 4.269-8.416 4.269-3.509 0-6.301-1.427-8.297-4.242-1.506-2.124-1.972-4.284-1.977-4.305l-0.742 0.155c0.019 0.093 0.496 2.315 2.084 4.566 0.938 1.329 2.070 2.389 3.364 3.15 1.619 0.952 3.492 1.435 5.568 1.435s3.958-0.482 5.597-1.434c1.31-0.761 2.465-1.819 3.432-3.147 1.639-2.249 2.165-4.469 2.187-4.563l-0.739-0.171z"></path>
<path fill="#29a249" d="M11.816 11.589c0 0.847-0.687 1.534-1.534 1.534s-1.534-0.687-1.534-1.534c0-0.847 0.687-1.534 1.534-1.534s1.534 0.687 1.534 1.534z"></path>
<path fill="#29a249" d="M23.252 11.589c0 0.847-0.687 1.534-1.534 1.534s-1.534-0.687-1.534-1.534c0-0.847 0.687-1.534 1.534-1.534s1.534 0.687 1.534 1.534z"></path>
</svg>
