<svg xmlns="http://www.w3.org/2000/svg" width="32" height="32" viewBox="0 0 32 32"><title>nine</title><path fill="#e3e5e4" d="M16.113 9.455c-2.369 0-3.954 1.924-3.954 4.114 0 1.977 1.336 3.544 3.42 3.544 1.158 0 2.084-.463 2.725-1.247h.053c-.214 1.371-.766 2.387-1.532 3.081-.659.623-1.514.997-2.422 1.122-.534.053-.926.089-1.265.053v1.282c.374.018.873 0 1.443-.089 1.247-.143 2.475-.677 3.366-1.55 1.14-1.104 1.995-2.885 1.995-5.432 0-2.957-1.461-4.88-3.829-4.88zm2.101 5.254c-.41.695-1.229 1.211-2.28 1.211-1.353 0-2.226-1.015-2.226-2.458 0-1.639.944-2.814 2.28-2.814 1.639 0 2.369 1.514 2.369 3.491 0 .249-.053.427-.142.57z"/><path fill="#e3e5e4" d="M15.996 0C7.176 0 0 7.177 0 15.999S7.176 32 15.996 32c8.821 0 15.998-7.178 15.998-16.001S24.817 0 15.995 0zm0 31.028C7.711 31.028.972 24.286.972 15.999S7.712.972 15.996.972c8.285 0 15.026 6.741 15.026 15.027s-6.741 15.029-15.026 15.029z"/></svg>