<svg xmlns="http://www.w3.org/2000/svg" width="32" height="32" viewBox="0 0 32 32"><title>question-selected</title><path d="M27.314 4.686C24.292 1.664 20.274 0 16 0S7.708 1.664 4.686 4.686C1.664 7.708 0 11.726 0 16s1.664 8.292 4.686 11.314C7.708 30.336 11.726 32 16 32s8.292-1.664 11.314-4.686C30.336 24.292 32 20.274 32 16s-1.664-8.292-4.686-11.314zm-10.75 20.389h-3.466v-3.458h3.466v3.458zm5.781-10.359v.031l-3.481 1.998v-.012l-2.297 1.331v2.463h-3.481v-3.586l5.778-3.308v-2.416H9.612V7.736h12.733v6.882l.043.073-.043.025z"/></svg>