<!-- Generated by IcoMoon.io -->
<svg version="1.1" xmlns="http://www.w3.org/2000/svg" width="32" height="32" viewBox="0 0 32 32">
<title>question-circle-o</title>
<path d="M27.314 4.686c-3.022-3.022-7.040-4.686-11.314-4.686s-8.292 1.664-11.314 4.686c-3.022 3.022-4.686 7.040-4.686 11.314s1.664 8.292 4.686 11.314c3.022 3.022 7.040 4.686 11.314 4.686s8.292-1.664 11.314-4.686c3.022-3.022 4.686-7.040 4.686-11.314s-1.664-8.292-4.686-11.314zM16 31.241c-8.404 0-15.241-6.837-15.241-15.241s6.837-15.242 15.241-15.242 15.242 6.837 15.242 15.242c0 8.404-6.837 15.241-15.242 15.241z"></path>
<path d="M20.043 8.784c-1.019-0.932-2.385-1.397-4.097-1.397-1.616 0-2.916 0.434-3.899 1.302s-1.575 2.118-1.774 3.75l2.21 0.263c0.191-1.218 0.593-2.114 1.206-2.687s1.377-0.86 2.293-0.86c0.947 0 1.748 0.316 2.401 0.949s0.979 1.368 0.979 2.204c0 0.462-0.112 0.888-0.334 1.278s-0.707 0.914-1.451 1.571c-0.745 0.657-1.26 1.157-1.547 1.499-0.39 0.47-0.673 0.936-0.848 1.397-0.239 0.613-0.358 1.342-0.358 2.186 0 0.143 0.004 0.358 0.012 0.645h2.066c0.016-0.86 0.076-1.481 0.179-1.863s0.263-0.721 0.478-1.015c0.215-0.294 0.673-0.752 1.373-1.373 1.043-0.924 1.744-1.708 2.102-2.353s0.537-1.35 0.537-2.114c0-1.322-0.51-2.448-1.529-3.38z"></path>
<path d="M14.704 22.745h2.448v2.448h-2.448v-2.448z"></path>
</svg>
