<!-- Generated by IcoMoon.io -->
<svg version="1.1" xmlns="http://www.w3.org/2000/svg" width="32" height="32" viewBox="0 0 32 32">
<title>question-selected</title>
<path d="M27.314 4.686c-3.022-3.022-7.040-4.686-11.314-4.686s-8.292 1.664-11.314 4.686c-3.022 3.022-4.686 7.040-4.686 11.314s1.664 8.292 4.686 11.314c3.022 3.022 7.040 4.686 11.314 4.686s8.292-1.664 11.314-4.686c3.022-3.022 4.686-7.040 4.686-11.314s-1.664-8.292-4.686-11.314zM16.564 25.075h-3.466v-3.458h3.466v3.458zM22.345 14.716v0.031l-3.481 1.998v-0.012l-2.297 1.331v2.463h-3.481v-2.726l-0-0.86 5.778-3.308v-2.416h-9.252v-3.481h12.733v6.882l0.043 0.073-0.043 0.025z"></path>
</svg>
