<!-- Generated by IcoMoon.io -->
<svg version="1.1" xmlns="http://www.w3.org/2000/svg" width="32" height="32" viewBox="0 0 32 32">
<title>question-circle-o-selected</title>
<path d="M27.314 4.686c-3.022-3.022-7.040-4.686-11.314-4.686s-8.292 1.664-11.314 4.686c-3.022 3.022-4.686 7.040-4.686 11.314s1.664 8.292 4.686 11.314c3.022 3.022 7.040 4.686 11.314 4.686s8.292-1.664 11.314-4.686c3.022-3.022 4.686-7.040 4.686-11.314s-1.664-8.292-4.686-11.314zM17.152 25.194h-2.448v-2.448h2.448v2.448zM21.034 14.278c-0.358 0.645-1.059 1.429-2.102 2.353-0.701 0.621-1.159 1.079-1.373 1.373s-0.374 0.633-0.478 1.015c-0.104 0.382-0.163 1.003-0.179 1.863h-2.066c-0.008-0.287-0.012-0.502-0.012-0.645 0-0.844 0.119-1.573 0.358-2.186 0.175-0.462 0.458-0.928 0.848-1.397 0.287-0.342 0.802-0.842 1.547-1.499s1.228-1.18 1.451-1.571c0.223-0.39 0.334-0.816 0.334-1.278 0-0.836-0.327-1.571-0.979-2.204s-1.453-0.949-2.401-0.949c-0.916 0-1.68 0.287-2.293 0.86s-1.015 1.469-1.206 2.687l-2.21-0.263c0.199-1.632 0.79-2.882 1.774-3.75s2.283-1.302 3.899-1.302c1.712 0 3.077 0.466 4.097 1.397s1.529 2.058 1.529 3.38c0 0.764-0.179 1.469-0.537 2.114z"></path>
</svg>
