<!-- Generated by IcoMoon.io -->
<svg version="1.1" xmlns="http://www.w3.org/2000/svg" width="32" height="32" viewBox="0 0 32 32">
<title>serious-selected</title>
<path fill="#f89820" d="M16 0.031c-8.819 0-15.969 7.149-15.969 15.969s7.149 15.969 15.969 15.969c8.819 0 15.969-7.149 15.969-15.969s-7.149-15.969-15.969-15.969zM21.846 9.922c0.866 0 1.568 0.702 1.568 1.568s-0.702 1.568-1.568 1.568c-0.866 0-1.568-0.702-1.568-1.568s0.702-1.568 1.568-1.568zM10.154 9.922c0.866 0 1.568 0.702 1.568 1.568s-0.702 1.568-1.568 1.568c-0.866 0-1.568-0.702-1.568-1.568s0.702-1.568 1.568-1.568zM25.377 22.579h-18.817v-0.775h18.817v0.775z"></path>
</svg>
