<svg xmlns="http://www.w3.org/2000/svg" width="32" height="32" viewBox="0 0 32 32"><title>three</title><path fill="#e3e5e4" d="M16.825 14.976v-.036c1.425-.517 2.137-1.532 2.137-2.725 0-1.407-1.033-2.761-3.313-2.761-1.246 0-2.422.445-3.028.891l.41 1.14c.499-.356 1.389-.766 2.315-.766 1.443 0 2.03.819 2.03 1.746 0 1.371-1.443 1.959-2.582 1.959h-.873V15.6h.873c1.514 0 2.974.695 2.992 2.315.018.962-.605 2.244-2.618 2.244-1.086 0-2.119-.445-2.564-.73l-.428 1.211c.57.374 1.71.784 3.01.784 2.778 0 4.221-1.621 4.221-3.473 0-1.621-1.158-2.689-2.583-2.974z"/><path fill="#e3e5e4" d="M15.996 0C7.176 0 0 7.177 0 15.999S7.176 32 15.996 32c8.821 0 15.998-7.178 15.998-16.001S24.817 0 15.995 0zm0 31.028C7.711 31.028.972 24.286.972 15.999S7.712.972 15.996.972c8.285 0 15.026 6.741 15.026 15.027s-6.741 15.029-15.026 15.029z"/></svg>