<svg xmlns="http://www.w3.org/2000/svg" width="32" height="32" viewBox="0 0 32 32"><title>zero</title><path fill="#e3e5e4" d="M16.095 9.455c-2.351 0-4.025 2.137-4.025 6.02.036 3.829 1.567 5.949 3.829 5.949 2.564 0 4.025-2.173 4.025-6.109 0-3.687-1.389-5.86-3.829-5.86zm-.107 10.757c-1.425 0-2.351-1.71-2.351-4.72 0-3.152.998-4.827 2.369-4.827 1.621 0 2.351 1.87 2.351 4.72 0 2.956-.766 4.827-2.369 4.827z"/><path fill="#e3e5e4" d="M15.996 0C7.176 0 0 7.177 0 15.999S7.176 32 15.996 32c8.821 0 15.998-7.178 15.998-16.001S24.817 0 15.995 0zm0 31.028C7.711 31.028.972 24.286.972 15.999S7.712.972 15.996.972c8.285 0 15.026 6.741 15.026 15.027s-6.741 15.029-15.026 15.029z"/></svg>