<svg xmlns="http://www.w3.org/2000/svg" preserveAspectRatio="xMidYMid" width="22" height="22" viewBox="0 0 22 22"><defs><style>.cls-1{fill:#2da137;fill-rule:evenodd}</style></defs><path d="M17 22H5a5 5 0 0 1-5-5V5a5 5 0 0 1 5-5h12a5 5 0 0 1 5 5v12a5 5 0 0 1-5 5zM15.695 7.318a1.017 1.017 0 0 0-1.477 0l-4.81 5.059-1.626-1.692a1.017 1.017 0 0 0-1.477 0 1.102 1.102 0 0 0-.306.768c0 .291.109.564.306.769l2.365 2.46a1.019 1.019 0 0 0 1.477 0l5.548-5.827a1.118 1.118 0 0 0 0-1.537z" class="cls-1"/></svg>