<svg xmlns="http://www.w3.org/2000/svg" preserveAspectRatio="xMidYMid" width="24" height="20" viewBox="0 0 24 20"><defs><style>.cls-1{fill:#1e1e1e;opacity:.8;fill-rule:evenodd}</style></defs><path d="M21.911 17.005V-.018h2.111v17.023h-2.111zM20 .196l1.002-.183v13.992L20 13.785V.196zm.683 17.238v.948c0 .511-.134.908-.403 1.191-.268.283-.615.424-1.039.424-.136 0-.276-.014-.421-.042a1.732 1.732 0 0 1-.398-.126l.087-.519c.11.052.223.089.338.111.116.023.247.034.394.034a.697.697 0 0 0 .569-.268c.144-.178.217-.438.217-.78v-.186a.889.889 0 0 1-.743.378c-.376 0-.673-.122-.891-.366-.217-.244-.326-.578-.326-1.002 0-.404.122-.738.366-1.002s.546-.396.905-.396c.409 0 .735.137.979.412.244.276.366.672.366 1.189zm-.656-.081c0-.32-.059-.564-.176-.73a.58.58 0 0 0-.502-.248c-.177 0-.325.081-.445.243a1.008 1.008 0 0 0-.179.613c0 .252.055.455.164.61.11.155.262.232.457.232a.821.821 0 0 0 .42-.1.674.674 0 0 0 .261-.258v-.362zM15.013.013H18v13.992h-2.987V.013zm.644 17.846a.993.993 0 0 1-.442-.357.94.94 0 0 1-.16-.543c0-.36.11-.637.332-.833.221-.196.514-.293.877-.293.359 0 .652.097.877.293.225.196.337.473.337.833a.938.938 0 0 1-.162.542 1.044 1.044 0 0 1-.442.361c.215.085.386.213.513.384.128.17.192.367.192.589 0 .376-.121.664-.364.863-.242.199-.557.299-.946.299-.394 0-.712-.1-.954-.299-.242-.199-.363-.487-.363-.863a.97.97 0 0 1 .188-.589c.126-.171.298-.3.517-.387zm1.008-1.313a.516.516 0 0 0-.401-.171.515.515 0 0 0-.403.165.642.642 0 0 0-.147.443c0 .184.05.331.15.441.1.11.235.165.405.165.167 0 .3-.055.4-.165a.63.63 0 0 0 .151-.441.628.628 0 0 0-.155-.437zm-.876 2.734c.12.117.28.175.48.175a.65.65 0 0 0 .472-.176.638.638 0 0 0 .182-.479.653.653 0 0 0-.186-.483.644.644 0 0 0-.473-.185.631.631 0 0 0-.473.184.664.664 0 0 0-.181.484c0 .204.06.364.179.48zm-2.561-1.999c.37-.004.66.117.87.361.209.245.314.58.314 1.004 0 .396-.11.721-.331.973-.22.252-.539.378-.956.378-.347 0-.641-.098-.88-.293-.24-.196-.355-.473-.346-.833l.006-.014.615-.022c0 .195.056.348.168.456a.601.601 0 0 0 .437.164c.204 0 .36-.074.467-.221.108-.147.162-.342.162-.585 0-.245-.056-.444-.166-.597a.545.545 0 0 0-.472-.229c-.18 0-.314.03-.402.091a.513.513 0 0 0-.191.262l-.567-.047.228-2.238h2.085v.584h-1.538l-.119 1.014c.078-.059.168-.107.27-.146a1.11 1.11 0 0 1 .346-.062zM10.237-.018h1.504v14.023h-1.504V-.018zm1.012 17.471v.926c0 .526-.116.928-.347 1.204-.232.276-.546.414-.944.414-.399 0-.716-.138-.949-.414-.233-.276-.349-.678-.349-1.204v-.926c0-.524.115-.925.347-1.203.231-.278.546-.417.946-.417.397 0 .713.139.946.417.233.278.35.679.35 1.203zm-.659-.103c0-.332-.055-.577-.163-.736a.535.535 0 0 0-.474-.239.532.532 0 0 0-.473.239c-.108.159-.162.404-.162.736v1.124c0 .334.055.58.164.741.11.16.268.24.476.24.208 0 .365-.08.472-.239.106-.159.16-.407.16-.742V17.35zM8 .196L9.002.013v13.992L8 13.785V.196zm-.177 17.466a5.59 5.59 0 0 1-.592.77l-.878.948.008.016h1.778v.543H5.517v-.467l1.286-1.435c.209-.235.354-.428.433-.58a.94.94 0 0 0 .12-.443.685.685 0 0 0-.155-.456.518.518 0 0 0-.417-.183c-.232 0-.404.066-.515.2-.113.133-.169.317-.169.55h-.637l-.005-.016c-.009-.36.106-.662.344-.908.239-.245.566-.368.982-.368.379 0 .679.107.9.322.22.215.33.496.33.842 0 .232-.063.454-.191.665zM4 .196L6.005.013v13.992L4 13.785V.196zm.013 19.743h-.659v-3.406h-.802v-.497l1.461-.145v4.048zM-.01-.018h2.063v17.023H-.01V-.018z" class="cls-1"/></svg>