<svg xmlns="http://www.w3.org/2000/svg" xmlns:xlink="http://www.w3.org/1999/xlink" preserveAspectRatio="xMidYMid" width="22" height="22" viewBox="0 0 22 22">
  <defs>
    <style>
      .cls-1 {
        fill: #2da137;
        fill-rule: evenodd;
      }
    </style>
  </defs>
  <path d="M17.000,22.000 L5.000,22.000 C2.239,22.000 -0.000,19.761 -0.000,17.000 L-0.000,5.000 C-0.000,2.239 2.239,-0.000 5.000,-0.000 L17.000,-0.000 C19.761,-0.000 22.000,2.239 22.000,5.000 L22.000,17.000 C22.000,19.761 19.761,22.000 17.000,22.000 ZM15.695,7.318 C15.498,7.113 15.236,7.000 14.957,7.000 C14.678,7.000 14.416,7.113 14.218,7.318 L9.408,12.377 L7.782,10.685 C7.585,10.480 7.323,10.367 7.044,10.367 C6.765,10.367 6.503,10.480 6.305,10.685 C6.108,10.890 5.999,11.163 5.999,11.453 C5.999,11.744 6.108,12.017 6.305,12.222 L8.670,14.682 C8.867,14.887 9.130,15.000 9.409,15.000 C9.688,15.000 9.950,14.887 10.147,14.682 L15.695,8.855 C16.103,8.431 16.103,7.742 15.695,7.318 Z" class="cls-1"/>
</svg>
