<svg xmlns="http://www.w3.org/2000/svg" xmlns:xlink="http://www.w3.org/1999/xlink" preserveAspectRatio="xMidYMid" width="22" height="33" viewBox="0 0 22 33">
  <defs>
    <style>
      .cls-1 {
        fill: #777;
        fill-rule: evenodd;
      }
    </style>
  </defs>
  <path d="M20.008,27.678 C19.965,27.719 19.921,27.760 19.877,27.800 L19.834,27.719 L20.008,27.678 ZM20.852,26.782 L19.717,27.046 L18.843,27.250 L19.049,27.637 L19.364,28.231 L21.178,31.684 L19.008,33.017 L17.172,29.523 L16.855,28.925 L16.680,28.596 L16.174,29.168 L15.383,30.061 L14.385,31.188 L14.310,30.197 L14.258,29.516 L14.206,28.831 L14.010,21.019 L20.356,25.272 L20.877,25.669 L21.396,26.062 L21.994,26.516 L20.852,26.782 ZM9.261,15.000 C9.261,15.000 -0.000,15.482 -0.000,12.505 L-0.000,3.495 C-0.000,0.518 9.261,1.000 9.261,1.000 C9.261,1.000 19.000,0.345 19.000,3.495 L19.000,12.505 C19.000,15.655 9.261,15.000 9.261,15.000 ZM16.554,29.754 C16.544,29.757 16.535,29.760 16.525,29.764 L16.546,29.740 L16.554,29.754 Z" class="cls-1"/>
</svg>
