<svg xmlns="http://www.w3.org/2000/svg" width="172.89" height="172.91" viewBox="0 0 172.89 172.91"><g fill="#E3E5E4"><path d="M43.814 62.492l1.636 6.448 10.874-5.871h.193v54.663h8.179V55.178h-7.217zM108.386 54.119c-12.703 0-21.749 11.549-21.749 32.528.193 20.691 8.469 32.144 20.69 32.144 13.857 0 21.748-11.741 21.748-33.01 0-19.921-7.506-31.662-20.689-31.662zm-.578 58.128c-7.698 0-12.702-9.239-12.702-25.503 0-17.034 5.389-26.081 12.799-26.081 8.758 0 12.702 10.105 12.702 25.504-.001 15.975-4.138 26.08-12.799 26.08z"/><path d="M86.439 0C38.778 0 .004 38.779.004 86.45c0 47.676 38.774 86.46 86.436 86.46 47.666 0 86.446-38.784 86.446-86.46C172.886 38.779 134.105 0 86.439 0zm0 167.656c-44.765 0-81.182-36.43-81.182-81.206 0-44.772 36.417-81.196 81.182-81.196 44.77 0 81.192 36.424 81.192 81.196.001 44.777-36.422 81.206-81.192 81.206z"/></g></svg>