<svg xmlns="http://www.w3.org/2000/svg" width="172.89" height="172.91" viewBox="0 0 172.89 172.91"><g fill="#E3E5E4"><path d="M77.922 107.483l5.004-4.619c13.184-12.703 21.556-22.039 21.556-33.587 0-8.95-5.678-18.189-19.15-18.189-7.217 0-13.376 2.695-17.706 6.352l2.694 5.967c2.887-2.406 7.603-5.293 13.279-5.293 9.335 0 12.414 5.871 12.414 12.222-.096 9.431-7.313 17.515-23.288 32.721l-6.64 6.447v5.197h39.937v-7.025h-28.1v-.193z"/><path d="M86.433 0C38.772 0-.002 38.779-.002 86.45c0 47.676 38.774 86.46 86.436 86.46 47.666 0 86.446-38.784 86.446-86.46C172.879 38.779 134.099 0 86.433 0zm0 167.656c-44.765 0-81.182-36.43-81.182-81.206 0-44.772 36.417-81.196 81.182-81.196 44.77 0 81.192 36.424 81.192 81.196 0 44.777-36.422 81.206-81.192 81.206z"/></g></svg>