<svg xmlns="http://www.w3.org/2000/svg" width="172.89" height="172.91" viewBox="0 0 172.89 172.91"><path fill="#E3E5E4" d="M86.439 0C38.778 0 .004 38.779.004 86.45c0 47.676 38.774 86.46 86.436 86.46 47.666 0 86.446-38.784 86.446-86.46C172.886 38.779 134.105 0 86.439 0zm-5.047 115.76c-6.832 0-12.605-1.925-15.589-3.85l2.117-6.448c2.599 1.54 7.698 3.465 13.376 3.465 7.987 0 14.819-5.196 14.819-13.569C96.019 87.274 90.631 81.5 78.12 81.5c-3.561 0-6.352.386-8.661.674l4.042-30.026h29.929v7.121H79.563L77.158 75.34c1.443-.192 2.791-.385 5.1-.385 4.813 0 9.623 1.059 13.473 3.368 4.908 2.791 8.95 8.181 8.95 16.072 0 12.222-9.72 21.365-23.289 21.365z"/></svg>