<svg xmlns="http://www.w3.org/2000/svg" width="172.89" height="172.91" viewBox="0 0 172.89 172.91"><g fill="#E3E5E4"><path d="M95.724 78.323c-3.85-2.31-8.66-3.368-13.473-3.368-2.309 0-3.656.192-5.1.385l2.405-16.072h23.866v-7.122H73.495l-4.042 30.026c2.31-.288 5.101-.674 8.661-.674 12.511 0 17.899 5.774 17.995 13.858 0 8.373-6.832 13.569-14.819 13.569-5.678 0-10.777-1.925-13.376-3.465l-2.117 6.448c2.983 1.925 8.757 3.85 15.589 3.85 13.569 0 23.289-9.143 23.289-21.364-.001-7.89-4.043-13.28-8.951-16.071z"/><path d="M86.433 0C38.772 0-.002 38.779-.002 86.45c0 47.676 38.774 86.46 86.436 86.46 47.666 0 86.446-38.784 86.446-86.46C172.879 38.779 134.099 0 86.433 0zm0 167.656c-44.765 0-81.182-36.43-81.182-81.206 0-44.772 36.417-81.196 81.182-81.196 44.77 0 81.192 36.424 81.192 81.196 0 44.777-36.422 81.206-81.192 81.206z"/></g></svg>