<svg xmlns="http://www.w3.org/2000/svg" width="172.89" height="172.91" viewBox="0 0 172.89 172.91"><g fill="#E3E5E4"><path d="M87.647 78.708c5.389-1.828 9.527-5.678 9.527-11.355 0-5.004-2.983-10.202-10.586-10.202-7.025 0-10.874 4.619-10.874 10.01.001 6.254 4.716 9.623 11.933 11.547zM85.241 84.771c-7.313 2.117-11.259 6.929-11.259 12.896-.289 6.352 4.522 11.934 12.51 11.934 7.603 0 12.511-4.716 12.511-11.163 0-7.604-5.293-11.26-13.762-13.667z"/><path d="M86.439 0C38.778 0 .004 38.779.004 86.45c0 47.676 38.774 86.46 86.436 86.46 47.666 0 86.446-38.784 86.446-86.46C172.886 38.779 134.105 0 86.439 0zM86.3 115.76c-13.088 0-20.979-7.795-20.979-16.938 0-7.892 4.716-13.474 12.414-16.745l-.097-.289c-6.928-3.272-9.911-8.661-9.911-14.051 0-9.913 8.372-16.649 19.343-16.649 12.125 0 18.188 7.603 18.188 15.398 0 5.293-2.599 10.971-10.297 14.628v.289c7.795 3.079 12.606 8.564 12.606 16.168 0 10.874-9.334 18.189-21.267 18.189z"/></g></svg>