<svg xmlns="http://www.w3.org/2000/svg" width="632.805" height="632.805" viewBox="0 0 632.805 632.805"><g fill="#F89820"><path d="M196.607 128.442l66.295 43.932-8.286 12.504-66.295-43.932zM436.223 128.432l8.287 12.502-66.286 43.94-8.288-12.503z"/><path d="M540.133 92.672C480.374 32.912 400.917 0 316.402 0S152.432 32.912 92.673 92.672C32.912 152.434 0 231.89 0 316.405c0 84.514 32.912 163.969 92.674 223.729 59.761 59.764 139.216 92.672 223.729 92.672 84.514 0 163.969-32.908 223.731-92.672 59.762-59.76 92.672-139.215 92.672-223.729-.001-84.515-32.911-163.972-92.673-223.733zM316.402 617.805C150.208 617.805 15 482.598 15 316.405 15 150.209 150.208 15 316.402 15s301.403 135.209 301.403 301.405c0 166.193-135.209 301.4-301.403 301.4z"/><circle cx="203.319" cy="229.171" r="30.334"/><circle cx="429.487" cy="229.171" r="30.334"/><path d="M316.64 373.028c-53.342 0-148.458 45.566-139.208 56.997 9.264 11.447 31.725-5.268 138.97-5.292 107.247.024 129.708 16.739 138.973 5.292 9.249-11.431-85.393-56.997-138.735-56.997z"/></g></svg>