<svg xmlns="http://www.w3.org/2000/svg" width="632.805" height="632.805" viewBox="0 0 632.805 632.805"><path fill="#F89820" d="M540.133 92.672C480.374 32.912 400.917 0 316.402 0c-84.515 0-163.97 32.912-223.729 92.672C32.912 152.434 0 231.89 0 316.405c0 84.514 32.912 163.969 92.674 223.729 59.761 59.765 139.216 92.672 223.729 92.672 84.514 0 163.969-32.907 223.731-92.672 59.763-59.76 92.672-139.215 92.672-223.729-.001-84.515-32.911-163.972-92.673-223.733zm-103.91 35.76l8.287 12.502-66.286 43.939-8.288-12.502 66.287-43.939zm-239.616.01l66.295 43.932-8.286 12.504-66.295-43.932 8.286-12.504zm6.712 70.395c16.753 0 30.334 13.581 30.334 30.334s-13.581 30.334-30.334 30.334-30.334-13.581-30.334-30.334 13.581-30.334 30.334-30.334zm252.056 231.188c-9.265 11.446-31.726-5.269-138.973-5.292-107.245.023-129.706 16.738-138.97 5.292-9.25-11.432 85.866-56.997 139.208-56.997s147.984 45.566 138.735 56.997zm-25.888-170.52c-16.753 0-30.334-13.581-30.334-30.334s13.581-30.334 30.334-30.334 30.334 13.581 30.334 30.334-13.581 30.334-30.334 30.334z"/></svg>