<svg xmlns="http://www.w3.org/2000/svg" width="632.805" height="632.805" viewBox="0 0 632.805 632.805"><g fill="#F89820"><path d="M540.133 92.672C480.374 32.912 400.917 0 316.403 0c-84.515 0-163.971 32.912-223.73 92.672C32.912 152.434 0 231.89 0 316.405c0 84.513 32.912 163.968 92.674 223.728 59.761 59.766 139.216 92.672 223.729 92.672 84.514 0 163.969-32.906 223.73-92.672 59.762-59.76 92.672-139.215 92.672-223.728 0-84.515-32.91-163.972-92.672-223.733zm-223.73 525.133C150.208 617.805 15 482.598 15 316.405 15 150.209 150.208 15 316.403 15c166.193 0 301.402 135.209 301.402 301.405 0 166.193-135.209 301.4-301.402 301.4z"/><ellipse transform="rotate(77.273 432.841 229.202)" cx="432.828" cy="229.195" rx="30.333" ry="24.92"/><path d="M411.813 167.017c25.809-15.278 28.354-36.879 28.449-37.791l-14.906-1.654c-.08.619-2.18 15.286-21.186 26.538-19.004 11.251-32.873 6.038-33.455 5.81l-2.818 6.949-2.898 6.917c.439.185 6.129 2.489 15.133 2.489 8.265 0 19.327-1.944 31.681-9.258z"/><ellipse transform="scale(-1) rotate(-77.273 -286.722 250.206)" cx="199.991" cy="229.178" rx="30.332" ry="24.921"/><path d="M220.993 167.017c12.354 7.315 23.415 9.258 31.683 9.258 9.001 0 14.692-2.304 15.132-2.489l-5.8-13.833c-.138.058-14.293 5.454-33.374-5.843-19.005-11.252-21.104-25.918-21.174-26.451l-14.918 1.567c.096.912 2.645 22.513 28.451 37.791zM342.922 382.018c-123.211-32.729-226.208 81.82-45.241 99.146 164.605 51.018 178.081-54.628 45.241-99.146z"/></g></svg>