<svg xmlns="http://www.w3.org/2000/svg" width="632.805" height="632.805" viewBox="0 0 632.805 632.805"><path fill="#F89820" d="M540.133 92.672C480.374 32.912 400.917 0 316.403 0c-84.515 0-163.971 32.912-223.73 92.672C32.912 152.434 0 231.89 0 316.405c0 84.513 32.912 163.968 92.674 223.728 59.761 59.766 139.216 92.672 223.729 92.672 84.514 0 163.969-32.906 223.73-92.672 59.762-59.76 92.672-139.215 92.672-223.728 0-84.515-32.91-163.972-92.672-223.733zm-172.236 74.197l2.818-6.949c.582.228 14.451 5.441 33.455-5.81 19.006-11.252 21.105-25.919 21.186-26.538l14.906 1.654c-.096.912-2.641 22.513-28.449 37.791-12.354 7.314-23.416 9.258-31.682 9.258-9.004 0-14.693-2.304-15.133-2.489l2.899-6.917zm-160.437-39.21c.07.533 2.169 15.199 21.174 26.451 19.081 11.297 33.236 5.901 33.374 5.843l5.8 13.833c-.44.185-6.131 2.489-15.132 2.489-8.268 0-19.329-1.943-31.683-9.258-25.806-15.278-28.355-36.879-28.451-37.791l14.918-1.567zm-14.151 131.106c-13.425-3.032-21.317-18.737-17.626-35.077 3.69-16.34 17.565-27.128 30.991-24.096 13.425 3.032 21.317 18.737 17.626 35.077s-17.566 27.128-30.991 24.096zm104.372 222.4c-180.967-17.326-77.97-131.875 45.241-99.146 132.84 44.517 119.364 150.163-45.241 99.146zM439.51 258.783c-13.426 3.032-27.301-7.757-30.99-24.098-3.691-16.341 4.199-32.046 17.625-35.078s27.301 7.757 30.992 24.098-4.201 32.046-17.627 35.078z"/></svg>