<svg xmlns="http://www.w3.org/2000/svg" width="172.89" height="172.91" viewBox="0 0 172.89 172.91"><g fill="#E3E5E4"><path d="M86.439 0C38.776 0 0 38.779 0 86.45c0 47.676 38.776 86.46 86.439 86.46 47.668 0 86.45-38.784 86.45-86.46C172.89 38.779 134.108 0 86.439 0zm0 167.656c-44.767 0-81.186-36.43-81.186-81.206 0-44.772 36.419-81.196 81.186-81.196 44.772 0 81.196 36.424 81.196 81.196 0 44.777-36.424 81.206-81.196 81.206z"/><path d="M86.445 31.611c-30.288 0-54.841 24.551-54.841 54.839 0 30.287 24.554 54.844 54.841 54.844 30.29 0 54.844-24.557 54.844-54.844 0-30.288-24.554-54.839-54.844-54.839z"/></g></svg>