<svg xmlns="http://www.w3.org/2000/svg" width="632.805" height="632.805" viewBox="0 0 632.805 632.805"><path fill="#F89820" d="M540.133 92.672C480.374 32.912 400.917 0 316.402 0c-84.514 0-163.97 32.912-223.729 92.672C32.912 152.434 0 231.89 0 316.405c0 84.513 32.911 163.968 92.673 223.728 59.761 59.764 139.216 92.672 223.729 92.672 84.515 0 163.97-32.908 223.731-92.672 59.762-59.76 92.672-139.215 92.672-223.728 0-84.515-32.91-163.972-92.672-223.733zM429.487 198.837c16.753 0 30.334 13.581 30.334 30.334s-13.581 30.334-30.334 30.334-30.334-13.581-30.334-30.334 13.581-30.334 30.334-30.334zm-226.168 0c16.753 0 30.334 13.581 30.334 30.334s-13.581 30.334-30.334 30.334-30.334-13.581-30.334-30.334 13.581-30.334 30.334-30.334zm292.484 254.562l-70.589-19.451-72.582 20-72.578-20-72.576 20-74.565-20.549 3.985-14.462 70.58 19.45 72.576-20 72.578 20.001 72.582-20 74.574 20.549-3.985 14.462z"/></svg>