<svg xmlns="http://www.w3.org/2000/svg" width="632.805" height="632.805" viewBox="0 0 632.805 632.805"><g fill="#DE2F27"><path d="M540.133 92.672C480.374 32.912 400.917 0 316.402 0c-84.514 0-163.97 32.912-223.729 92.672C32.912 152.434 0 231.89 0 316.405c0 84.513 32.911 163.968 92.673 223.728 59.761 59.764 139.216 92.672 223.729 92.672 84.515 0 163.97-32.908 223.731-92.672 59.762-59.76 92.672-139.215 92.672-223.728 0-84.515-32.91-163.972-92.672-223.733zM316.402 617.805C150.208 617.805 15 482.598 15 316.405 15 150.209 150.208 15 316.402 15s301.403 135.209 301.403 301.405c0 166.193-135.209 301.4-301.403 301.4z"/><circle cx="203.319" cy="229.171" r="30.334"/><circle cx="429.487" cy="229.171" r="30.334"/><path d="M178.903 351.57c30.667 0 0-48 0-48s-30.667 48 0 48zM320.784 391.012c-55.07 0-104.478 22.316-136.226 41.035-34.264 20.203-55.396 40.188-56.279 41.025l10.341 10.865c.207-.195 21.01-19.826 53.889-39.164 30.066-17.684 76.727-38.762 128.275-38.762 51.547 0 98.207 21.078 128.273 38.762 32.883 19.338 53.686 38.969 53.889 39.162l10.344-10.863c-.883-.84-22.016-20.822-56.279-41.025-31.753-18.718-81.157-41.035-136.227-41.035z"/></g></svg>