<svg xmlns="http://www.w3.org/2000/svg" width="632.805" height="632.805" viewBox="0 0 632.805 632.805"><path fill="#DE2F27" d="M540.133 92.672C480.374 32.912 400.917 0 316.402 0c-84.514 0-163.97 32.912-223.729 92.672C32.912 152.434 0 231.89 0 316.405c0 84.513 32.911 163.968 92.673 223.728 59.761 59.764 139.216 92.672 223.729 92.672 84.515 0 163.97-32.908 223.731-92.672 59.762-59.76 92.672-139.215 92.672-223.728 0-84.515-32.91-163.972-92.672-223.733zM429.487 198.837c16.753 0 30.334 13.581 30.334 30.334s-13.581 30.334-30.334 30.334-30.334-13.581-30.334-30.334 13.581-30.334 30.334-30.334zm-226.168 0c16.753 0 30.334 13.581 30.334 30.334s-13.581 30.334-30.334 30.334-30.334-13.581-30.334-30.334 13.581-30.334 30.334-30.334zM178.903 303.57s30.667 48 0 48 0-48 0-48zm324.043 180.365c-.203-.192-21.007-19.823-53.89-39.161-30.065-17.685-76.726-38.763-128.272-38.763-51.548 0-98.209 21.078-128.275 38.763-32.879 19.338-53.682 38.969-53.889 39.163l-10.341-10.864c.883-.837 22.015-20.822 56.279-41.025 31.748-18.719 81.156-41.035 136.226-41.035 55.069 0 104.474 22.317 136.227 41.035 34.264 20.203 55.396 40.186 56.279 41.025l-10.344 10.862z"/></svg>