<svg xmlns="http://www.w3.org/2000/svg" width="632.805" height="632.805" viewBox="0 0 632.805 632.805"><g fill="#F89820"><path d="M540.133 92.672C480.374 32.912 400.917 0 316.402 0c-84.514 0-163.97 32.912-223.729 92.672C32.911 152.434 0 231.89 0 316.405c0 84.513 32.91 163.968 92.672 223.728 59.762 59.764 139.217 92.672 223.729 92.672 84.515 0 163.97-32.908 223.731-92.672 59.762-59.76 92.672-139.215 92.672-223.728.001-84.515-32.909-163.972-92.671-223.733zM316.402 617.805C150.208 617.805 15 482.598 15 316.405 15 150.209 150.208 15 316.402 15s301.403 135.209 301.403 301.405c0 166.193-135.209 301.4-301.403 301.4z"/><path d="M203.319 259.505c16.754 0 30.334-13.581 30.334-30.334s-60.668-16.753-60.668 0 13.581 30.334 30.334 30.334zM429.487 259.505c16.752 0 30.334-13.581 30.334-30.334s-60.668-16.753-60.668 0 13.58 30.334 30.334 30.334zM197.217 435.4l14.912 1.622c.214-1.683-25.868-41.215 53.774-41.215 85.616 0 188.78 46.71 189.813 47.182l6.239-13.641c-4.332-1.982-107.124-48.541-196.052-48.541-94.002 0-68.456 52.363-68.686 54.593z"/></g></svg>