<svg xmlns="http://www.w3.org/2000/svg" width="632.805" height="632.805" viewBox="0 0 632.805 632.805"><path fill="#F89820" d="M540.133 92.672C480.374 32.912 400.917 0 316.402 0c-84.514 0-163.97 32.912-223.729 92.672C32.911 152.434 0 231.89 0 316.405c0 84.513 32.91 163.968 92.672 223.728 59.762 59.764 139.217 92.672 223.729 92.672 84.515 0 163.97-32.908 223.731-92.672 59.763-59.76 92.672-139.215 92.672-223.728.001-84.515-32.909-163.972-92.671-223.733zm-80.312 136.499c0 16.753-13.582 30.334-30.334 30.334-16.754 0-30.334-13.581-30.334-30.334s60.668-16.753 60.668 0zm-286.836 0c0-16.753 60.668-16.753 60.668 0s-13.58 30.334-30.334 30.334c-16.753 0-30.334-13.581-30.334-30.334zm282.731 213.818c-1.033-.473-104.196-47.183-189.813-47.183-79.642 0-53.56 39.532-53.774 41.216l-14.912-1.622c.23-2.23-25.316-54.594 68.686-54.594 88.928 0 191.72 46.56 196.052 48.541l-6.239 13.642z"/></svg>