<svg xmlns="http://www.w3.org/2000/svg" width="632.805" height="632.805" viewBox="0 0 632.805 632.805"><path fill="#F89820" d="M540.133 92.672C480.373 32.912 400.916 0 316.402 0c-84.514 0-163.97 32.912-223.729 92.672C32.912 152.434 0 231.89 0 316.404c0 84.514 32.912 163.969 92.674 223.729 59.761 59.764 139.216 92.672 223.729 92.672 84.514 0 163.969-32.908 223.73-92.672 59.762-59.76 92.672-139.215 92.672-223.729 0-84.514-32.91-163.971-92.672-223.732zM429.791 198.836c16.752 0 30.334 13.582 30.334 30.334 0 16.754-13.582 30.334-30.334 30.334-16.754 0-30.334-13.58-30.334-30.334 0-16.752 13.58-30.334 30.334-30.334zm-226.168 0c16.754 0 30.334 13.582 30.334 30.334 0 16.754-13.58 30.334-30.334 30.334-16.753 0-30.334-13.58-30.334-30.334 0-16.752 13.581-30.334 30.334-30.334zm306.779 218.816S420 502.886 317.05 502.886c-102.952 0-194.649-85.234-194.649-85.234v-15h388v15z"/></svg>