<svg xmlns="http://www.w3.org/2000/svg" width="632.805" height="632.805" viewBox="0 0 632.805 632.805"><g fill="#F89820"><path d="M540.133 92.672C480.373 32.912 400.916 0 316.402 0c-84.514 0-163.97 32.912-223.729 92.672C32.912 152.434 0 231.89 0 316.404c0 84.514 32.912 163.969 92.674 223.729 59.761 59.764 139.216 92.672 223.729 92.672 84.514 0 163.969-32.908 223.73-92.672 59.762-59.76 92.672-139.215 92.672-223.729 0-84.514-32.91-163.971-92.672-223.732zM316.402 617.805C150.208 617.805 15 482.598 15 316.404 15 150.209 150.208 15 316.402 15c166.193 0 301.402 135.209 301.402 301.404.001 166.194-135.208 301.401-301.402 301.401z"/><circle cx="203.623" cy="229.17" r="30.334"/><circle cx="429.791" cy="229.17" r="30.334"/><path d="M122.402 402.652h388v15S420 502.886 317.05 502.886c-102.952 0-194.649-85.234-194.649-85.234v-15z"/></g></svg>