<svg xmlns="http://www.w3.org/2000/svg" width="632.806" height="632.806" viewBox="0 0 632.806 632.806"><g fill="#29A249"><path d="M540.134 92.672C480.374 32.912 400.917 0 316.403 0s-163.97 32.912-223.73 92.672C32.912 152.434 0 231.89 0 316.405c0 84.514 32.912 163.969 92.673 223.729 59.761 59.762 139.216 92.672 223.73 92.672s163.97-32.91 223.731-92.672c59.761-59.76 92.672-139.215 92.672-223.729 0-84.515-32.911-163.972-92.672-223.733zM316.403 617.806C150.209 617.806 15 482.599 15 316.405 15 150.209 150.209 15 316.403 15c166.194 0 301.403 135.209 301.403 301.405 0 166.194-135.209 301.401-301.403 301.401z"/><path d="M521.615 335.647c-.099.423-10.135 42.747-40.756 84.776-40.811 56.014-96.808 84.416-166.438 84.416-69.395 0-124.596-28.227-164.07-83.896-29.775-41.993-39-84.714-39.089-85.141l-14.683 3.068c.385 1.849 9.804 45.784 41.214 90.293 18.545 26.277 40.928 47.236 66.528 62.297 32.013 18.83 69.056 28.379 110.1 28.379 41.028 0 78.268-9.541 110.687-28.357 25.914-15.041 48.751-35.979 67.875-62.227 32.402-44.474 42.817-88.378 43.245-90.225l-14.613-3.383z"/><circle cx="203.32" cy="229.171" r="30.334"/><circle cx="429.487" cy="229.171" r="30.334"/></g></svg>