<svg xmlns="http://www.w3.org/2000/svg" width="632.805" height="632.805" viewBox="0 0 632.805 632.805"><path d="M540.133 92.672C480.374 32.912 400.917 0 316.402 0c-84.515 0-163.97 32.912-223.729 92.672C32.912 152.434 0 231.89 0 316.404c0 84.514 32.912 163.969 92.674 223.729 59.761 59.764 139.216 92.672 223.729 92.672 84.514 0 163.969-32.908 223.731-92.672 59.763-59.76 92.672-139.215 92.672-223.729-.001-84.514-32.911-163.971-92.673-223.732zM316.402 617.805C150.208 617.805 15 482.598 15 316.404 15 150.209 150.208 15 316.402 15s301.403 135.209 301.403 301.404c0 166.194-135.209 301.401-301.403 301.401z"/><path d="M396.35 173.7c-20.156-18.422-47.158-27.633-81.01-27.633-31.966 0-57.669 8.583-77.113 25.743-19.448 17.164-31.139 41.886-35.073 74.161l43.693 5.196c3.779-24.091 11.728-41.805 23.855-53.142 12.122-11.336 27.238-17.005 45.347-17.005 18.735 0 34.559 6.259 47.471 18.776 12.91 12.518 19.367 27.043 19.367 43.576 0 9.133-2.207 17.559-6.613 25.271-4.405 7.717-13.975 18.068-28.692 31.059-14.728 12.989-24.918 22.872-30.586 29.641-7.716 9.291-13.307 18.502-16.768 27.633-4.724 12.128-7.086 26.533-7.086 43.225 0 2.834.078 7.085.236 12.753h40.857c.313-17.005 1.494-29.286 3.543-36.844 2.045-7.561 5.195-14.248 9.447-20.075 4.25-5.823 13.303-14.88 27.16-27.161 20.625-18.265 34.482-33.774 41.568-46.528 7.084-12.754 10.627-26.688 10.627-41.805.001-26.137-10.078-48.419-30.23-66.841zM290.777 449.796h48.417v48.417h-48.417z"/></svg>