<svg xmlns="http://www.w3.org/2000/svg" width="632.805" height="632.805" viewBox="0 0 632.805 632.805"><path d="M540.133 92.671C480.374 32.912 400.917 0 316.402 0c-84.514 0-163.97 32.912-223.729 92.672C32.912 152.434 0 231.889 0 316.405c0 84.514 32.911 163.969 92.673 223.729 59.761 59.767 139.216 92.672 223.729 92.672 84.515 0 163.97-32.905 223.731-92.672 59.762-59.76 92.672-139.215 92.672-223.729 0-84.516-32.91-163.973-92.672-223.734zM327.559 495.862h-68.548V427.47h68.548v68.392zM441.88 291.005v.613l-68.833 39.503v-.233l-45.425 26.32v48.698h-68.833V351.99l-.006-17.006 114.264-65.419v-47.77H190.082v-68.836H441.88v136.102l.844 1.451-.844.493z"/></svg>