<svg xmlns="http://www.w3.org/2000/svg" width="632.805" height="632.805" viewBox="0 0 632.805 632.805"><path d="M540.133 92.672C480.374 32.912 400.917 0 316.402 0c-84.515 0-163.97 32.912-223.729 92.672C32.912 152.434 0 231.89 0 316.404c0 84.514 32.912 163.969 92.674 223.729 59.761 59.764 139.216 92.672 223.729 92.672 84.514 0 163.969-32.908 223.731-92.672 59.763-59.76 92.672-139.215 92.672-223.729-.001-84.514-32.911-163.971-92.673-223.732zm-200.94 405.541h-48.417v-48.417h48.417v48.417zm76.76-215.868c-7.086 12.754-20.943 28.264-41.568 46.528-13.857 12.281-22.91 21.338-27.16 27.161-4.252 5.827-7.402 12.515-9.447 20.075-2.049 7.558-3.229 19.839-3.543 36.844h-40.857c-.158-5.668-.236-9.919-.236-12.753 0-16.691 2.362-31.097 7.086-43.225 3.461-9.131 9.052-18.342 16.768-27.633 5.668-6.769 15.858-16.651 30.586-29.641 14.718-12.991 24.287-23.342 28.692-31.059 4.406-7.712 6.613-16.138 6.613-25.271 0-16.533-6.457-31.058-19.367-43.576-12.912-12.517-28.735-18.776-47.471-18.776-18.109 0-33.225 5.669-45.347 17.005-12.127 11.337-20.076 29.051-23.855 53.142l-43.693-5.196c3.934-32.275 15.625-56.997 35.073-74.161 19.444-17.16 45.147-25.743 77.113-25.743 33.852 0 60.854 9.211 81.01 27.633 20.152 18.422 30.231 40.704 30.23 66.84 0 15.118-3.543 29.052-10.627 41.806z"/></svg>