<svg xmlns="http://www.w3.org/2000/svg" width="632.805" height="632.805" viewBox="0 0 632.805 632.805"><path d="M540.133 92.671C480.374 32.912 400.917 0 316.402 0c-84.514 0-163.97 32.912-223.729 92.672C32.912 152.434 0 231.889 0 316.405c0 84.514 32.911 163.969 92.673 223.729 59.761 59.767 139.216 92.672 223.729 92.672 84.515 0 163.97-32.905 223.731-92.672 59.762-59.76 92.672-139.215 92.672-223.729 0-84.516-32.91-163.973-92.672-223.734zM316.402 617.805C150.208 617.805 15 482.598 15 316.405 15 150.208 150.208 15 316.402 15s301.403 135.209 301.403 301.405c0 166.193-135.209 301.4-301.403 301.4z"/><path d="M441.88 221.795v-68.836H190.082v68.836h182.965v47.77l-114.264 65.419.006 17.006v53.916h68.833v-48.698l45.425-26.32v.233l68.833-39.503v-.613l.844-.493-.844-1.451zM259.011 427.47h68.548v68.393h-68.548z"/></svg>