<svg xmlns="http://www.w3.org/2000/svg" width="632.806" height="632.806" viewBox="0 0 632.806 632.806"><g fill="#F89820"><path d="M540.134 92.672C480.373 32.912 400.917 0 316.402 0c-84.514 0-163.97 32.912-223.729 92.672C32.911 152.434 0 231.89 0 316.405c0 84.514 32.911 163.969 92.673 223.729 59.761 59.762 139.216 92.672 223.729 92.672 84.515 0 163.97-32.91 223.732-92.672 59.76-59.76 92.672-139.215 92.672-223.729 0-84.515-32.912-163.972-92.672-223.733zM316.402 617.806C150.208 617.806 15 482.599 15 316.405 15 150.209 150.208 15 316.402 15c166.195 0 301.404 135.209 301.404 301.405 0 166.194-135.209 301.401-301.404 301.401z"/><circle cx="203.319" cy="229.171" r="30.334"/><circle cx="429.486" cy="229.171" r="30.334"/><path d="M133.795 428.669h364v15h-364z"/></g></svg>