<svg xmlns="http://www.w3.org/2000/svg" width="632.806" height="632.806" viewBox="0 0 632.806 632.806"><path fill="#F89820" d="M316.402.619C142.001.619.618 142 .618 316.405c0 174.403 141.383 315.783 315.784 315.783 174.404 0 315.786-141.38 315.786-315.783C632.188 142 490.806.619 316.402.619zm115.603 195.598c17.127 0 31.01 13.884 31.01 31.01 0 17.125-13.883 31.01-31.01 31.01-17.125 0-31.008-13.885-31.008-31.01.001-17.126 13.883-31.01 31.008-31.01zm-231.205 0c17.126 0 31.009 13.884 31.009 31.01 0 17.125-13.882 31.01-31.009 31.01-17.126 0-31.008-13.885-31.008-31.01 0-17.126 13.882-31.01 31.008-31.01zm301.035 250.287H129.727V431.17h372.109v15.334z"/></svg>