<svg xmlns="http://www.w3.org/2000/svg" width="172.89" height="172.91" viewBox="0 0 172.89 172.91"><g fill="#E3E5E4"><path d="M67.24 59.172h30.601v.192l-27.136 55.337h8.756l27.234-56.973v-5.582H67.24z"/><path d="M86.433 0C38.772 0-.002 38.779-.002 86.45c0 47.676 38.774 86.46 86.436 86.46 47.666 0 86.446-38.784 86.446-86.46C172.879 38.779 134.099 0 86.433 0zm0 167.656c-44.765 0-81.182-36.43-81.182-81.206 0-44.772 36.417-81.196 81.182-81.196 44.77 0 81.192 36.424 81.192 81.196 0 44.777-36.422 81.206-81.192 81.206z"/></g></svg>