<svg xmlns="http://www.w3.org/2000/svg" width="172.89" height="172.91" viewBox="0 0 172.89 172.91"><g fill="#E3E5E4"><path d="M89.084 73.512c-6.929 0-12.125 3.272-15.108 7.218h-.289c1.443-10.298 8.469-20.018 21.749-22.231 2.405-.385 4.619-.481 6.351-.385v-6.929c-1.539 0-3.656.096-6.158.481-7.892.962-14.819 4.138-20.017 9.239-6.159 6.159-10.586 15.88-10.586 28.198 0 16.264 8.758 26.657 22.134 26.657 12.991 0 20.786-10.586 20.786-22.038 0-12.223-7.795-20.21-18.862-20.21zm-1.924 35.704c-8.854 0-13.568-7.603-13.762-17.9 0-1.54.386-2.791.963-3.753 2.31-4.523 7.024-7.699 12.125-7.699 7.795 0 12.896 5.39 12.896 14.34-.001 8.948-4.909 15.012-12.222 15.012z"/><path d="M86.433 0C38.772 0-.002 38.779-.002 86.45c0 47.676 38.774 86.46 86.436 86.46 47.666 0 86.446-38.784 86.446-86.46C172.879 38.779 134.099 0 86.433 0zm0 167.656c-44.765 0-81.182-36.43-81.182-81.206 0-44.772 36.417-81.196 81.182-81.196 44.77 0 81.192 36.424 81.192 81.196 0 44.777-36.422 81.206-81.192 81.206z"/></g></svg>