<svg xmlns="http://www.w3.org/2000/svg" width="632.806" height="632.806" viewBox="0 0 632.806 632.806"><path fill="#2DA97D" d="M316.403.619C142.001.619.618 142 .618 316.405c0 174.403 141.383 315.783 315.785 315.783 174.403 0 315.785-141.38 315.785-315.783C632.188 142 490.806.619 316.403.619zm115.603 195.598c17.126 0 31.009 13.884 31.009 31.01 0 17.125-13.883 31.01-31.009 31.01s-31.009-13.885-31.009-31.01c.001-17.126 13.883-31.01 31.009-31.01zm-231.206 0c17.126 0 31.009 13.884 31.009 31.01 0 17.125-13.882 31.01-31.009 31.01-17.126 0-31.009-13.885-31.009-31.01.001-17.126 13.883-31.01 31.009-31.01zm256.026 261.43c-32.605 19.946-84.31 43.723-145.474 43.723-61.285 0-110.218-23.856-140.476-43.868-32.757-21.664-50.927-43.161-51.685-44.066l11.753-9.851.004.006c.365.433 17.951 21.076 48.819 41.408 28.423 18.721 74.323 41.037 131.584 41.037 57.417 0 106.237-22.421 137.079-41.229 33.689-20.543 53.926-41.399 54.125-41.607l11.059 10.624c-.862.898-21.536 22.258-56.788 43.823z"/></svg>