<svg xmlns="http://www.w3.org/2000/svg" width="632.806" height="632.806" viewBox="0 0 632.806 632.806"><g fill="#2DA97D"><path d="M540.134 92.672C480.374 32.912 400.917 0 316.403 0s-163.97 32.912-223.73 92.672C32.912 152.434 0 231.89 0 316.405c0 84.514 32.912 163.969 92.673 223.729 59.761 59.762 139.216 92.672 223.73 92.672s163.97-32.91 223.731-92.672c59.761-59.76 92.672-139.215 92.672-223.729 0-84.515-32.911-163.972-92.672-223.733zM316.403 617.806C150.209 617.806 15 482.599 15 316.405 15 150.209 150.209 15 316.403 15c166.194 0 301.403 135.209 301.403 301.405 0 166.194-135.209 301.401-301.403 301.401z"/><circle cx="203.32" cy="229.171" r="30.334"/><circle cx="429.487" cy="229.171" r="30.334"/><path d="M445.554 442.009c-30.17 18.398-77.926 40.33-134.092 40.33-56.013 0-100.913-21.83-128.717-40.143-30.195-19.889-47.398-40.082-47.755-40.506l-.004-.006-11.497 9.637c.741.885 18.515 21.914 50.558 43.105 29.599 19.576 77.465 42.912 137.415 42.912 59.831 0 110.408-23.258 142.303-42.77 34.484-21.096 54.708-41.99 55.552-42.869L498.5 401.308c-.196.203-19.991 20.605-52.946 40.701z"/></g></svg>