<svg xmlns="http://www.w3.org/2000/svg" width="172.89" height="172.91" viewBox="0 0 172.89 172.91"><g fill="#E3E5E4"><path d="M111.177 57.633c-7.41 0-12.799 9.047-12.799 26.081 0 16.264 5.004 25.503 12.702 25.503 8.661 0 12.799-10.105 12.799-26.08 0-15.399-3.944-25.504-12.702-25.504z"/><path d="M86.439 0C38.778 0 .004 38.779.004 86.45c0 47.676 38.774 86.46 86.436 86.46 47.666 0 86.446-38.784 86.446-86.46C172.886 38.779 134.105 0 86.439 0zm-18.47 114.702h-8.18V60.039h-.192L48.723 65.91l-1.636-6.449 13.665-7.314h7.217v62.555zm42.631 1.059c-12.222 0-20.497-11.452-20.69-32.144 0-20.979 9.046-32.528 21.749-32.528 13.184 0 20.689 11.741 20.689 31.662 0 21.269-7.891 33.01-21.748 33.01z"/></g></svg>