<svg xmlns="http://www.w3.org/2000/svg" width="172.89" height="172.91" viewBox="0 0 172.89 172.91"><g fill="#E3E5E4"><path d="M86.493 57.632c-7.409 0-12.799 9.047-12.799 26.081 0 16.264 5.005 25.503 12.703 25.503 8.66 0 12.799-10.105 12.799-26.08 0-15.399-3.945-25.504-12.703-25.504z"/><path d="M86.439 0C38.778 0 .004 38.779.004 86.45c0 47.676 38.774 86.46 86.436 86.46 47.666 0 86.446-38.784 86.446-86.46C172.886 38.779 134.105 0 86.439 0zm-.523 115.76c-12.222 0-20.497-11.452-20.69-32.144 0-20.979 9.046-32.528 21.749-32.528 13.184 0 20.69 11.741 20.69 31.662 0 21.269-7.892 33.01-21.749 33.01z"/></g></svg>