<svg xmlns="http://www.w3.org/2000/svg" preserveAspectRatio="xMidYMid" width="22" height="33" viewBox="0 0 22 33"><defs><style>.cls-1{fill:#777;fill-rule:evenodd}</style></defs><path d="M20.008 27.678a7.558 7.558 0 0 1-.131.122l-.043-.081.174-.041zm.844-.896l-1.135.264-.874.204.206.387.315.594 1.814 3.453-2.17 1.333-1.836-3.494-.317-.598-.175-.329-.506.572-.791.893-.998 1.127-.075-.991-.052-.681-.052-.685-.196-7.812 6.346 4.253.521.397.519.393.598.454-1.142.266zM9.261 15S0 15.482 0 12.505v-9.01C0 .518 9.261 1 9.261 1S19 .345 19 3.495v9.01C19 15.655 9.261 15 9.261 15zm7.293 14.754a.332.332 0 0 0-.029.01l.021-.024.008.014z" class="cls-1"/></svg>