<svg xmlns="http://www.w3.org/2000/svg" preserveAspectRatio="xMidYMid" width="21" height="19" viewBox="0 0 21 19"><defs><style>.cls-1{fill:#00b4ae;fill-rule:evenodd}</style></defs><path d="M20.125 13.003l-2.112 2.057a3.042 3.042 0 0 1-4.224 0 2.87 2.87 0 0 1-.454-.587l.982-.956c.047-.046.104-.072.159-.103.068.226.187.44.369.617.582.568 1.53.567 2.112 0l2.111-2.057a1.43 1.43 0 0 0 0-2.058 1.52 1.52 0 0 0-2.111 0l-.752.732a3.842 3.842 0 0 0-1.905-.202l1.601-1.559a3.042 3.042 0 0 1 4.224 0 2.859 2.859 0 0 1 0 4.116zm-3.16-9.183H1.536v10.347c0 .611.55 1.146 1.178 1.146h5.44l.026 1.495H1.964c-1.1 0-1.964-.841-1.964-1.91V1.91C0 .84.864 0 1.964 0h14.572c1.1 0 1.964.84 1.964 1.91v4.584h-1.535V3.82zM1.916 1.291c-.376 0-.627.243-.627.608s.251.609.627.609c.375 0 .626-.244.626-.609s-.251-.608-.626-.608zm2.137 0c-.376 0-.627.243-.627.608s.251.609.627.609.626-.244.626-.609-.25-.608-.626-.608zm2.137 0c-.376 0-.626.243-.626.608s.25.609.626.609.626-.244.626-.609-.25-.608-.626-.608zm6.543 10.683a3.042 3.042 0 0 1 4.224 0c.183.179.328.379.453.587l-.981.956c-.047.046-.104.071-.159.102a1.436 1.436 0 0 0-.369-.616 1.522 1.522 0 0 0-2.112 0l-2.112 2.057a1.432 1.432 0 0 0 0 2.059c.582.567 1.53.567 2.112 0l.751-.733a3.832 3.832 0 0 0 1.905.202l-1.6 1.559a3.042 3.042 0 0 1-4.224 0 2.859 2.859 0 0 1 0-4.116l2.112-2.057z" class="cls-1"/></svg>