<svg xmlns="http://www.w3.org/2000/svg" preserveAspectRatio="xMidYMid" width="22" height="22" viewBox="0 0 22 22"><defs><style>.cls-1{fill:#e84c3d;fill-rule:evenodd}</style></defs><path d="M18 22H4a4 4 0 0 1-4-4V4a4 4 0 0 1 4-4h14a4 4 0 0 1 4 4v14a4 4 0 0 1-4 4zM15.695 7.318a1.017 1.017 0 0 0-1.477 0l-4.81 5.059-1.626-1.692a1.017 1.017 0 0 0-1.477 0 1.102 1.102 0 0 0-.306.768c0 .291.109.564.306.769l2.365 2.46a1.019 1.019 0 0 0 1.477 0l5.548-5.827a1.118 1.118 0 0 0 0-1.537z" class="cls-1"/></svg>