<svg xmlns="http://www.w3.org/2000/svg" preserveAspectRatio="xMidYMid" width="16" height="31" viewBox="0 0 16 31"><defs><style>.cls-1{fill:#777;fill-rule:evenodd}</style></defs><path d="M15.502 5.041l-1.86 3.025.33.207c.958.601 1.24 1.891.631 2.883-.61.991-1.881 1.308-2.839.707l-.654-.41-4.456 7.301c-.411.668-1.856.755-2.29 1.073a.695.695 0 0 1-.782.033l-2.265.579a.708.708 0 0 1-.316-.723c.089-.532.413-3.323.824-3.991l4.456-7.302-.655-.41c-.957-.601-1.24-1.892-.63-2.884.609-.991 1.88-1.308 2.838-.707l.33.207 1.86-3.024C10.986.039 12.993-.461 14.506.488c1.513.949 1.959 2.988.996 4.553zm-7.514 6.047a3.16 3.16 0 0 1-1.04-1.066l-3.009 4.949 1.524 3.036 3.932-6.45a3.123 3.123 0 0 1-1.407-.469zM4.03 23.032a.338.338 0 0 1 .42.022c.111.1 2.715 2.481 2.54 4.623-.15 1.834-1.569 3.098-3.374 3.004-1.755-.091-2.875-1.456-2.723-3.32.184-2.253 3.016-4.245 3.137-4.329zm-.024 6.838a.396.396 0 0 0 .084-.006c.676-.133 1.985-.779 2.107-2.273a.324.324 0 0 0-.309-.351.348.348 0 0 0-.364.317c-.109 1.34-1.485 1.638-1.547 1.651a.346.346 0 0 0-.276.393.326.326 0 0 0 .305.269z" class="cls-1"/></svg>