<svg xmlns="http://www.w3.org/2000/svg" preserveAspectRatio="xMidYMid" width="26" height="14" viewBox="0 0 26 14"><defs><style>.cls-1{fill:#f8f8f8;fill-rule:evenodd}</style></defs><path d="M25.804 7.519C25.572 7.783 19.99 14 12.999 14S.426 7.783.194 7.519a.79.79 0 0 1 0-1.038C.426 6.217 6.008 0 12.999 0c6.992 0 12.573 6.217 12.805 6.481a.79.79 0 0 1 0 1.038zM12.999 1.556C10.06 1.556 7.667 3.998 7.667 7s2.393 5.444 5.332 5.444c2.94 0 5.332-2.442 5.332-5.444s-2.392-5.444-5.332-5.444zm0 9.333c-2.1 0-3.808-1.745-3.808-3.889 0-2.144 1.708-3.889 3.808-3.889.622 0 1.202.168 1.721.439a2.341 2.341 0 0 0-.959 1.894c0 1.531 1.448 2.716 2.982 2.211-.308 1.832-1.864 3.234-3.744 3.234z" class="cls-1"/></svg>