<svg xmlns="http://www.w3.org/2000/svg" preserveAspectRatio="xMidYMid" width="19" height="17" viewBox="0 0 19 17"><defs><style>.cls-1{fill:#777;fill-rule:evenodd}</style></defs><path d="M18.932 16.082a5.461 5.461 0 0 0-1.176-.299c-.358-.029-.621-.114-.788-.254-.099-.059-.232-.269-.4-.631a15.07 15.07 0 0 1-.742-1.649 29.404 29.404 0 0 0-.743-1.816 70.616 70.616 0 0 1-1.095-2.601c-.161-.406-.632-1.502-1.417-3.288L10.231.231l-.126-.232H8.643L5.446 8.013 2.74 14.831c-.213.384-.396.635-.548.753-.16.111-.579.225-1.256.343a9.84 9.84 0 0 0-.914.199l-.023.875h.24c.655 0 1.29-.052 1.907-.155l.548-.088c2.155.147 3.483.221 3.985.221.016-.074.023-.173.023-.299 0-.221-.004-.435-.011-.642l-.463-.066a9.599 9.599 0 0 1-.342-.056 1.226 1.226 0 0 0-.154-.021c-.587-.082-.979-.2-1.177-.355-.129-.088-.194-.247-.194-.476 0-.147.088-.457.263-.929.571-1.543.967-2.554 1.188-3.033l5.138.022 1.051 2.524.536 1.261c.046.126.069.244.069.354a.407.407 0 0 1-.137.299c-.091.074-.35.159-.777.255l-1.496.31c-.03.243-.045.531-.045.863l.662-.022 2.284-.122c.426-.014.94-.022 1.542-.022.73 0 1.45.029 2.158.088.852.059 1.583.089 2.192.089.008-.089.011-.185.011-.288 0-.133-.022-.343-.068-.631zm-8.884-6.287c-.107 0-.306-.002-.6-.006L8.09 9.773l-1.753-.022 1.941-4.982c.297.583.647 1.362 1.051 2.336a45.71 45.71 0 0 1 1.05 2.668l-.331.022z" class="cls-1"/></svg>