<svg xmlns="http://www.w3.org/2000/svg" preserveAspectRatio="xMidYMid" width="22" height="21" viewBox="0 0 22 21"><defs><style>.cls-1{fill:#777;fill-rule:evenodd}</style></defs><path d="M21.51 4.175c-.676-1.726-1.966-3.049-3.634-3.726a5.753 5.753 0 0 0-2.17-.442c-2.389 0-4.062 1.599-4.714 2.348-.649-.752-2.314-2.357-4.703-2.357a5.73 5.73 0 0 0-2.164.441c-1.668.677-2.959 2-3.635 3.725A7.282 7.282 0 0 0 .683 9.89c1.198 2.552 3.922 6.525 10.093 10.957l.214.154.214-.154c6.202-4.454 8.923-8.412 10.113-10.948a7.277 7.277 0 0 0 .193-5.724z" class="cls-1"/></svg>