<svg xmlns="http://www.w3.org/2000/svg" preserveAspectRatio="xMidYMid" width="13" height="13" viewBox="0 0 13 13"><defs><style>.cls-1{fill:#777;opacity:.5;fill-rule:evenodd}</style></defs><path d="M6.5 0a6.5 6.5 0 1 0 0 13 6.5 6.5 0 0 0 0-13zm0 2C7.328 2 8 2.674 8 3.505c0 .832-.672 1.506-1.5 1.506S5 4.337 5 3.505C5 2.674 5.672 2 6.5 2zm1.125 9h-2.25C5.168 11 5 10.783 5 10.514s.168-.486.375-.486h.375V6.889h-.375c-.207 0-.375-.218-.375-.486 0-.269.168-.486.375-.486h1.5c.207 0 .375.217.375.486v3.625h.375c.207 0 .375.217.375.486S7.832 11 7.625 11z" class="cls-1"/></svg>