<svg xmlns="http://www.w3.org/2000/svg" preserveAspectRatio="xMidYMid" width="21" height="15" viewBox="0 0 21 15"><defs><style>.cls-1{fill:#000;fill-rule:evenodd}</style></defs><path d="M10 15v-2h11v2H10zm5-6h6v2h-6V9zm2-4h4v2h-4V5zm-6.215 4.734c-.411.419-1.088.408-1.511-.02a1.106 1.106 0 0 1-.163-1.35L7.826 7.06 6.783 8.119c.039.336-.064.686-.318.943l-4.538 4.604a1.12 1.12 0 0 1-1.599 0 1.158 1.158 0 0 1 0-1.621l4.538-4.604a1.118 1.118 0 0 1 1.232-.249l.928-.943-1.283-1.303a1.065 1.065 0 0 1-1.331-.165c-.423-.429-.432-1.115-.02-1.533L7.307.289a1.06 1.06 0 0 1 1.512.02c.365.371.42.935.163 1.351l3.369 3.418c.41-.261.964-.205 1.33.165.422.428.432 1.114.02 1.532l-2.916 2.959z" class="cls-1"/></svg>