<svg xmlns="http://www.w3.org/2000/svg" preserveAspectRatio="xMidYMid" width="15" height="15" viewBox="0 0 15 15"><defs><style>.cls-1{fill:#646464;fill-rule:evenodd}</style></defs><path d="M13.815 7.532l-2.43 2.431c-.147.145-.395.133-.554-.026L9.195 8.3l1.363-1.364.455.454 1.331-1.331c.841-.841.773-2.273-.151-3.197l-.05-.05c-.924-.924-2.355-.992-3.196-.151L7.616 3.993l.456.456-1.363 1.364-1.637-1.637c-.159-.161-.171-.409-.026-.554l2.428-2.43C8.238.427 9.284.036 10.418.09c1.135.054 2.222.545 3.062 1.385l.051.05c.84.84 1.332 1.928 1.385 3.062.054 1.135-.337 2.181-1.101 2.945zM6.37 10.026l-.395.395a.854.854 0 0 1-.65.243 1.024 1.024 0 0 1-.676-.305c-.384-.384-.412-.98-.063-1.329l.395-.395 1.314-1.314.961-.961 1.363-1.364.397-.395a.854.854 0 0 1 .65-.243c.241.011.483.113.676.305.384.384.412.98.061 1.328l-.395.396-1.364 1.364-.961.961-1.313 1.314zM4.432 8.084l-.454-.454-1.331 1.331c-.841.841-.773 2.273.151 3.198l.049.049c.925.924 2.356.992 3.197.151l1.331-1.332-.455-.454 1.314-1.314 1.636 1.637c.16.161.171.409.026.554l-2.379 2.38c-.764.765-1.81 1.156-2.945 1.102-1.134-.054-2.222-.545-3.061-1.385l-.052-.052C.62 12.655.128 11.568.074 10.433.021 9.298.412 8.252 1.176 7.488l2.379-2.38c.147-.145.395-.134.554.026L5.746 6.77 4.432 8.084z" class="cls-1"/></svg>