<svg xmlns="http://www.w3.org/2000/svg" preserveAspectRatio="xMidYMid" width="18" height="21" viewBox="0 0 18 21"><defs><style>.cls-1{fill:#646464;fill-rule:evenodd}</style></defs><path d="M14.895 10.597a.754.754 0 0 1-.757-.748V1.496H1.515v15.585h5.806c.417 0 .758.336.758.748a.755.755 0 0 1-.758.748H.757A.755.755 0 0 1 0 17.829V.748C0 .337.341 0 .757 0h14.138c.416 0 .757.337.757.748v9.101a.755.755 0 0 1-.757.748zM4.544 12.468h2.02c.416 0 .757.336.757.748a.755.755 0 0 1-.757.748h-2.02a.755.755 0 0 1-.757-.748c0-.412.341-.748.757-.748zM11.36 5.86H4.544a.755.755 0 0 1-.757-.748c0-.412.341-.748.757-.748h6.816c.417 0 .758.336.758.748a.755.755 0 0 1-.758.748zm0 4.114H4.544a.755.755 0 0 1-.757-.748c0-.411.341-.748.757-.748h6.817c.416 0 .757.337.757.748a.755.755 0 0 1-.758.748zm.397 4.38l1.547-3.046 1.548 3.046 3.147.656-2.191 2.538.398 3.452-2.902-1.477L10.403 21l.397-3.452-2.191-2.538 3.148-.656z" class="cls-1"/></svg>