<svg xmlns="http://www.w3.org/2000/svg" preserveAspectRatio="xMidYMid" width="15" height="14" viewBox="0 0 15 14"><defs><style>.cls-1{fill:#606060;fill-rule:evenodd}</style></defs><path d="M14.141 5.574a.251.251 0 0 0-.203-.168l-3.658-.453L7.391.707a.252.252 0 0 0-.324-.118.231.231 0 0 0-.124.118L4.08 4.953l-3.684.453a.25.25 0 0 0-.202.168.243.243 0 0 0 .063.253L3.53 8.979l-.775 4.452a.25.25 0 0 0 .364.26l4.047-2.102 4.046 2.102a.25.25 0 0 0 .263-.019.24.24 0 0 0 .1-.241L10.8 8.979l3.278-3.149a.248.248 0 0 0 .063-.256z" class="cls-1"/></svg>