<svg xmlns="http://www.w3.org/2000/svg" preserveAspectRatio="xMidYMid" width="22" height="16" viewBox="0 0 22 16"><defs><style>.cls-1{fill:#646464;fill-rule:evenodd}</style></defs><path d="M20.103 7.057a.211.211 0 0 1 .004.052v8.41c0 .264-.242.481-.539.481H2.427c-.296 0-.539-.217-.539-.481v-8.47C.778 6.612 0 5.625 0 4.474c0-.085.027-.165.072-.237L3.34.245A.545.545 0 0 1 3.807 0h14.381c.193 0 .373.096.467.245l3.273 3.992a.413.413 0 0 1 .072.237c0 1.155-.782 2.146-1.897 2.583zM1.115 4.799c.171.866 1.02 1.528 2.041 1.524 1.02 0 1.874-.658 2.045-1.524H1.115zm4.846 5.043v5.195h3.106V9.842c0-.381-.346-.686-.769-.686H6.729c-.427 0-.768.309-.768.686zm.382-5.043c.175.866 1.025 1.524 2.045 1.524 1.021 0 1.87-.658 2.041-1.524H6.343zm5.232 0c.171.866 1.021 1.524 2.041 1.524 1.021 0 1.87-.658 2.041-1.524h-4.082zm5.228.004c.171.866 1.021 1.524 2.041 1.524 1.021 0 1.87-.662 2.046-1.524h-4.087z" class="cls-1"/></svg>