<svg xmlns="http://www.w3.org/2000/svg" preserveAspectRatio="xMidYMid" width="21" height="21" viewBox="0 0 21 21"><defs><style>.cls-1{fill:#777;fill-rule:evenodd}</style></defs><path d="M19.917 12.704l-1.474.246c-.15.491-.351.97-.593 1.43l.869 1.22a1.3 1.3 0 0 1-.14 1.671l-1.308 1.307c-.246.246-.57.382-.917.382-.272 0-.535-.083-.754-.241l-1.215-.869a8.326 8.326 0 0 1-1.431.592l-.25 1.474A1.295 1.295 0 0 1 11.423 21H9.572a1.296 1.296 0 0 1-1.281-1.084l-.245-1.474a8.304 8.304 0 0 1-1.387-.57l-1.233.877a1.289 1.289 0 0 1-1.667-.14l-1.307-1.307a1.293 1.293 0 0 1-.14-1.672l.864-1.202a8.048 8.048 0 0 1-.601-1.425l-1.492-.255A1.296 1.296 0 0 1 0 11.467V9.62c0-.636.456-1.175 1.083-1.281l1.457-.245c.149-.496.342-.974.583-1.435l-.877-1.232a1.3 1.3 0 0 1 .14-1.672l1.312-1.307c.241-.246.57-.382.917-.382.272 0 .535.083.754.241l1.207.869a8.101 8.101 0 0 1 1.426-.601l.254-1.491A1.296 1.296 0 0 1 9.537 0h1.847c.636 0 1.176.456 1.281 1.084l.246 1.456a8.18 8.18 0 0 1 1.482.61l1.22-.869a1.29 1.29 0 0 1 1.667.14l1.307 1.308c.452.447.509 1.153.141 1.671l-.869 1.215c.241.457.439.935.592 1.43l1.474.251A1.279 1.279 0 0 1 21 9.577v1.846c0 .636-.456 1.176-1.083 1.281zm-9.415-6.738a4.534 4.534 0 0 0-4.531 4.532c0 2.5 2.031 4.531 4.531 4.531a4.534 4.534 0 0 0 4.532-4.531 4.535 4.535 0 0 0-4.532-4.532zm0 7.879a3.349 3.349 0 0 1-3.347-3.347c0-1.847 1.5-3.347 3.347-3.347s3.347 1.5 3.347 3.347-1.5 3.347-3.347 3.347z" class="cls-1"/></svg>