<svg xmlns="http://www.w3.org/2000/svg" preserveAspectRatio="xMidYMid" width="19" height="15" viewBox="0 0 19 15"><defs><style>.cls-1{fill:#777;fill-rule:evenodd}</style></defs><path d="M17.793 0H1.206C.54 0 0 .548 0 1.224v12.551C0 14.452.54 15 1.206 15h16.587C18.46 15 19 14.452 19 13.775V1.224C19 .548 18.46 0 17.793 0zm0 1.224v8.906l-2.377-2.194a.894.894 0 0 0-1.248.03l-2.406 2.442-4.745-5.752a.895.895 0 0 0-1.379-.009L1.206 9.874v-8.65h16.587zm-5.126 3.215c0-.93.742-1.684 1.658-1.684.917 0 1.659.754 1.659 1.684a1.67 1.67 0 0 1-1.659 1.683 1.67 1.67 0 0 1-1.658-1.683z" class="cls-1"/></svg>