<?xml version="1.0" standalone="no"?>
<!DOCTYPE svg PUBLIC "-//W3C//DTD SVG 1.1//EN" "http://www.w3.org/Graphics/SVG/1.1/DTD/svg11.dtd" >
<svg xmlns="http://www.w3.org/2000/svg">
<metadata>Generated by IcoMoon</metadata>
<defs>
<font id="icomoon" horiz-adv-x="1024">
<font-face units-per-em="1024" ascent="960" descent="-64" />
<missing-glyph horiz-adv-x="1024" />
<glyph unicode="&#x20;" horiz-adv-x="512" d="" />
<glyph unicode="&#xe900;" glyph-name="angry" d="M318.144 752.16l107.264-71.104-13.408-20.224-107.264 71.104 13.408 20.224zM705.888 752.16l13.408-20.224-107.264-71.104-13.408 20.224 107.264 71.104zM874.048 810.048c-96.704 96.704-225.28 149.952-362.048 149.952s-265.344-53.248-362.048-149.952c-96.704-96.704-149.952-225.28-149.952-362.048s53.248-265.344 149.952-362.048c96.704-96.704 225.28-149.952 362.048-149.952s265.344 53.248 362.048 149.952c96.704 96.704 149.952 225.28 149.952 362.048s-53.248 265.344-149.952 362.048zM512-39.712c-268.928 0-487.712 218.784-487.712 487.712s218.784 487.744 487.712 487.744 487.744-218.784 487.744-487.744c0-268.928-218.784-487.712-487.744-487.712zM378.080 589.152c0-27.104-21.984-49.088-49.088-49.088s-49.088 21.984-49.088 49.088c0 27.104 21.984 49.088 49.088 49.088s49.088-21.984 49.088-49.088zM744.064 589.152c0-27.104-21.984-49.088-49.088-49.088s-49.088 21.984-49.088 49.088c0 27.104 21.984 49.088 49.088 49.088s49.088-21.984 49.088-49.088zM512.384 356.384c-86.304 0-240.224-73.728-225.28-92.224s51.328 8.512 224.864 8.576c173.536-0.032 209.888-27.072 224.896-8.576s-138.176 92.224-224.512 92.224z" />
<glyph unicode="&#xe901;" glyph-name="angry-selected" d="M874.048 810.048c-96.704 96.704-225.28 149.952-362.048 149.952s-265.344-53.248-362.048-149.952c-96.704-96.704-149.952-225.28-149.952-362.048s53.248-265.344 149.952-362.048c96.704-96.704 225.28-149.952 362.048-149.952s265.344 53.248 362.048 149.952c96.704 96.704 149.952 225.28 149.952 362.048s-53.248 265.344-149.952 362.048zM705.888 752.16l13.408-20.224-107.264-71.104-13.408 20.224 107.264 71.104zM318.144 752.16l107.264-71.104-13.408-20.224-107.264 71.104 13.408 20.224zM329.024 638.24c27.104 0 49.088-21.984 49.088-49.088s-21.984-49.088-49.088-49.088c-27.104 0-49.088 21.984-49.088 49.088s21.984 49.088 49.088 49.088zM736.896 264.128c-15.008-18.528-51.328 8.512-224.896 8.576-173.536-0.032-209.888-27.072-224.864-8.576s138.944 92.224 225.28 92.224 239.456-73.728 224.512-92.224zM694.976 540.064c-27.104 0-49.088 21.984-49.088 49.088s21.984 49.088 49.088 49.088 49.088-21.984 49.088-49.088-21.984-49.088-49.088-49.088z" />
<glyph unicode="&#xe902;" glyph-name="baffled" d="M874.048 810.048c-96.704 96.704-225.28 149.952-362.048 149.952s-265.344-53.248-362.048-149.952c-96.704-96.704-149.952-225.28-149.952-362.048s53.248-265.344 149.952-362.048c96.704-96.704 225.28-149.952 362.048-149.952s265.344 53.248 362.048 149.952c96.704 96.704 149.952 225.28 149.952 362.048s-53.248 265.344-149.952 362.048zM512-39.712c-268.928 0-487.744 218.784-487.744 487.712s218.784 487.744 487.744 487.744c268.928 0 487.712-218.784 487.712-487.744s-218.784-487.712-487.712-487.712zM711.232 541.28c-21.728-4.896-44.16 12.544-50.144 39.008s6.784 51.84 28.512 56.768c21.728 4.896 44.16-12.544 50.144-39.008s-6.784-51.84-28.512-56.768zM666.4 689.728c41.76 24.736 45.888 59.68 46.048 61.152l-24.128 2.688c-0.128-0.992-3.52-24.736-34.272-42.944s-53.184-9.76-54.144-9.408l-4.544-11.232-4.704-11.2c0.704-0.288 9.92-4.032 24.48-4.032 13.376 0 31.264 3.136 51.264 14.976zM312.832 541.28c-21.728 4.896-34.496 30.304-28.512 56.768s28.416 43.904 50.144 39.008c21.728-4.896 34.496-30.304 28.512-56.768s-28.416-43.904-50.144-39.008zM357.6 689.728c20-11.84 37.888-14.976 51.264-14.976 14.56 0 23.776 3.744 24.48 4.032l-9.376 22.4c-0.224-0.096-23.136-8.832-54.016 9.44-30.752 18.208-34.144 41.952-34.272 42.816l-24.128-2.528c0.16-1.472 4.288-36.416 46.048-61.152zM554.912 341.824c-199.392 52.96-366.048-132.384-73.216-160.448 266.368-82.56 288.16 88.384 73.216 160.448z" />
<glyph unicode="&#xe903;" glyph-name="baffled-selected" d="M874.048 810.048c-96.704 96.704-225.28 149.952-362.048 149.952s-265.344-53.248-362.048-149.952c-96.704-96.704-149.952-225.28-149.952-362.048s53.248-265.344 149.952-362.048c96.704-96.704 225.28-149.952 362.048-149.952s265.344 53.248 362.048 149.952c96.704 96.704 149.952 225.28 149.952 362.048s-53.248 265.344-149.952 362.048zM595.328 689.984l4.544 11.232c0.928-0.384 23.392-8.8 54.144 9.408s34.144 41.952 34.272 42.944l24.128-2.688c-0.16-1.472-4.288-36.416-46.048-61.152-20-11.84-37.888-14.976-51.264-14.976-14.56 0-23.776 3.744-24.48 4.032l4.704 11.2zM335.712 753.408c0.128-0.864 3.52-24.608 34.272-42.816 30.88-18.272 53.792-9.536 54.016-9.44l9.376-22.4c-0.704-0.288-9.92-4.032-24.48-4.032-13.376 0-31.264 3.136-51.264 14.976-41.76 24.736-45.888 59.68-46.048 61.152l24.128 2.528zM312.8 541.28c-21.728 4.896-34.496 30.304-28.512 56.768s28.416 43.904 50.144 39.008c21.728-4.896 34.496-30.304 28.512-56.768s-28.416-43.904-50.144-39.008zM481.696 181.376c-292.832 28.032-126.176 213.408 73.216 160.448 214.976-72.032 193.152-243.008-73.216-160.448zM711.2 541.248c-21.728-4.896-44.192 12.544-50.144 39.008s6.784 51.872 28.512 56.768 44.192-12.544 50.144-39.008-6.784-51.872-28.512-56.768z" />
<glyph unicode="&#xe904;" glyph-name="circle" d="M511.904 960c-282.272 0-511.904-229.664-511.904-511.968s229.632-512.032 511.904-512.032c282.304 0 511.968 229.696 511.968 512.032s-229.664 511.968-511.968 511.968zM511.904-32.896c-265.12 0-480.8 215.744-480.8 480.928s215.68 480.864 480.8 480.864c265.152 0 480.864-215.712 480.864-480.864s-215.712-480.928-480.864-480.928z" />
<glyph unicode="&#xe905;" glyph-name="circle-selected" d="M511.904 960c-282.272 0-511.904-229.664-511.904-511.968s229.632-512.032 511.904-512.032c282.304 0 511.968 229.696 511.968 512.032s-229.664 511.968-511.968 511.968zM511.904-32.896c-265.12 0-480.8 215.744-480.8 480.928s215.68 480.864 480.8 480.864c265.152 0 480.864-215.712 480.864-480.864s-215.712-480.928-480.864-480.928zM511.936 772.8c-179.36 0-324.768-145.408-324.768-324.768s145.408-324.8 324.768-324.8c179.392 0 324.8 145.44 324.8 324.8s-145.408 324.768-324.8 324.768z" />
<glyph unicode="&#xe906;" glyph-name="comment" d="M512 740.576q-116.576 0-218.016-39.712t-161.152-107.136-59.712-145.728q0-64 40.864-122.016t115.136-100.288l49.728-28.576-15.424-54.848q-13.728-52-40-98.272 86.848 36 157.152 97.728l24.576 21.728 32.576-3.424q39.424-4.576 74.272-4.576 116.576 0 217.984 39.712t161.152 107.136 59.712 145.728-59.712 145.728-161.152 107.136-218.016 39.712zM1024 448q0-99.424-68.576-183.712t-186.272-133.152-257.152-48.864q-40 0-82.848 4.576-113.152-100-262.848-138.272-28-8-65.152-12.576h-2.848q-8.576 0-15.424 6.016t-9.152 15.712v0.576q-1.728 2.272-0.288 6.848t1.152 5.728 2.56 5.44l3.424 5.152t4 4.864 4.576 5.152q4 4.576 17.728 19.712t19.712 21.728 17.728 22.56 18.56 29.152 15.424 33.728 14.848 43.424q-89.728 50.848-141.44 125.728t-51.712 160.576q0 99.424 68.576 183.712t186.272 133.152 257.152 48.864 257.152-48.864 186.272-133.152 68.576-183.712z" />
<glyph unicode="&#xe907;" glyph-name="comments" d="M402.272 740.576q-87.424 0-163.424-29.728t-120.864-80.576-44.864-109.152q0-46.848 30.272-90.272t85.152-75.424l55.424-32-20-48q19.424 11.424 35.424 22.272l25.152 17.728 30.272-5.728q44.576-8 87.424-8 87.424 0 163.424 29.728t120.864 80.576 44.864 109.152-44.864 109.152-120.864 80.576-163.424 29.728zM402.272 813.728q109.152 0 202.016-39.136t146.56-106.56 53.728-146.848-53.728-146.848-146.56-106.56-202.016-39.136q-49.152 0-100.576 9.152-70.848-50.272-158.848-73.152-20.576-5.152-49.152-9.152h-1.728q-6.272 0-11.712 4.576t-6.56 12q-0.576 1.728-0.576 3.712t0.288 3.712 1.152 3.424l1.44 2.848t2.016 3.136 2.272 2.848 2.56 2.848 2.272 2.56q2.848 3.424 13.152 14.272t14.848 16.864 12.864 16.576 14.272 22.016 11.712 25.152q-70.848 41.152-111.424 101.152t-40.576 128q0 79.424 53.728 146.848t146.56 106.56 201.984 39.136zM872 145.728q5.728-13.728 11.712-25.152t14.272-22.016 12.864-16.576 14.848-16.864 13.152-14.272q0.576-0.576 2.272-2.56t2.56-2.848 2.272-2.848 2.016-3.136l1.44-2.848t1.152-3.424 0.288-3.712-0.576-3.712q-1.728-8-7.424-12.576t-12.576-4q-28.576 4-49.152 9.152-88 22.848-158.848 73.152-51.424-9.152-100.576-9.152-154.848 0-269.728 75.424 33.152-2.272 50.272-2.272 92 0 176.576 25.728t150.848 73.728q71.424 52.576 109.728 121.152t38.272 145.152q0 44-13.152 86.848 73.728-40.576 116.576-101.728t42.848-131.424q0-68.576-40.576-128.288t-111.424-100.864z" />
<glyph unicode="&#xe908;" glyph-name="comment-selected" d="M1024 448q0-99.424-68.576-183.712t-186.272-133.152-257.152-48.864q-40 0-82.848 4.576-113.152-100-262.848-138.272-28-8-65.152-12.576-9.728-1.152-17.44 5.152t-10.016 16.576v0.576q-1.728 2.272-0.288 6.848t1.152 5.728 2.56 5.44l3.424 5.152t4 4.864 4.576 5.152q4 4.576 17.728 19.712t19.712 21.728 17.728 22.56 18.56 29.152 15.424 33.728 14.848 43.424q-89.728 50.848-141.44 125.728t-51.712 160.576q0 74.272 40.576 142.016t109.152 116.864 163.424 78.016 198.848 28.864q139.424 0 257.152-48.864t186.272-133.152 68.576-183.712z" />
<glyph unicode="&#xe909;" glyph-name="comments-selected" d="M804.576 521.152q0-79.424-53.728-146.848t-146.56-106.56-202.016-39.136q-49.152 0-100.576 9.152-70.848-50.272-158.848-73.152-20.576-5.152-49.152-9.152h-1.728q-6.272 0-11.712 4.576t-6.56 12q-0.576 1.728-0.576 3.712t0.288 3.712 1.152 3.424l1.44 2.848t2.016 3.136 2.272 2.848 2.56 2.848 2.272 2.56q2.848 3.424 13.152 14.272t14.848 16.864 12.864 16.576 14.272 22.016 11.712 25.152q-70.848 41.152-111.424 101.152t-40.576 128q0 79.424 53.728 146.848t146.56 106.56 201.984 39.136 202.016-39.136 146.56-106.56 53.728-146.848zM1024 374.848q0-68.576-40.576-128.288t-111.424-100.864q5.728-13.728 11.712-25.152t14.272-22.016 12.864-16.576 14.848-16.864 13.152-14.272q0.576-0.576 2.272-2.56t2.56-2.848 2.272-2.848 2.016-3.136l1.44-2.848t1.152-3.424 0.288-3.712-0.576-3.712q-1.728-8-7.424-12.576t-12.576-4q-28.576 4-49.152 9.152-88 22.848-158.848 73.152-51.424-9.152-100.576-9.152-154.848 0-269.728 75.424 33.152-2.272 50.272-2.272 92 0 176.576 25.728t150.848 73.728q71.424 52.576 109.728 121.152t38.272 145.152q0 44-13.152 86.848 73.728-40.576 116.576-101.728t42.848-131.424z" />
<glyph unicode="&#xe90a;" glyph-name="confused" d="M874.048 810.048c-96.704 96.704-225.28 149.952-362.048 149.952s-265.344-53.248-362.048-149.952c-96.704-96.704-149.952-225.28-149.952-362.048s53.248-265.344 149.952-362.048c96.704-96.704 225.28-149.952 362.048-149.952s265.344 53.248 362.048 149.952c96.704 96.704 149.952 225.28 149.952 362.048s-53.248 265.344-149.952 362.048zM512-39.712c-268.928 0-487.712 218.784-487.712 487.712s218.784 487.744 487.712 487.744 487.744-218.784 487.744-487.744c0-268.928-218.784-487.712-487.744-487.712zM378.080 589.152c0-27.104-21.984-49.088-49.088-49.088s-49.088 21.984-49.088 49.088c0 27.104 21.984 49.088 49.088 49.088s49.088-21.984 49.088-49.088zM744.064 589.152c0-27.104-21.984-49.088-49.088-49.088s-49.088 21.984-49.088 49.088c0 27.104 21.984 49.088 49.088 49.088s49.088-21.984 49.088-49.088zM570.624 250.592l-117.44 32.352-117.44-32.352-114.208 31.488-6.464-23.392 120.672-33.248 117.44 32.352 117.44-32.352 117.44 32.352 114.24-31.488 6.432 23.392-120.672 33.248z" />
<glyph unicode="&#xe90b;" glyph-name="confused-selected" d="M874.048 810.048c-96.704 96.704-225.28 149.952-362.048 149.952s-265.344-53.248-362.048-149.952c-96.704-96.704-149.952-225.28-149.952-362.048s53.248-265.344 149.952-362.048c96.704-96.704 225.28-149.952 362.048-149.952s265.344 53.248 362.048 149.952c96.704 96.704 149.952 225.28 149.952 362.048s-53.248 265.344-149.952 362.048zM694.976 638.24c27.104 0 49.088-21.984 49.088-49.088s-21.984-49.088-49.088-49.088-49.088 21.984-49.088 49.088 21.984 49.088 49.088 49.088zM329.024 638.24c27.104 0 49.088-21.984 49.088-49.088s-21.984-49.088-49.088-49.088c-27.104 0-49.088 21.984-49.088 49.088s21.984 49.088 49.088 49.088zM802.304 226.304l-114.24 31.488-117.44-32.352-117.44 32.352-117.44-32.352-120.672 33.248 6.464 23.392 114.208-31.488 117.44 32.352 117.44-32.352 117.44 32.352 120.672-33.248-6.432-23.392z" />
<glyph unicode="&#xe90c;" glyph-name="crying" d="M874.048 810.048c-96.704 96.704-225.28 149.952-362.048 149.952s-265.344-53.248-362.048-149.952c-96.704-96.704-149.952-225.28-149.952-362.048s53.248-265.344 149.952-362.048c96.704-96.704 225.28-149.952 362.048-149.952s265.344 53.248 362.048 149.952c96.704 96.704 149.952 225.28 149.952 362.048s-53.248 265.344-149.952 362.048zM512-39.712c-268.928 0-487.712 218.784-487.712 487.712s218.784 487.744 487.712 487.744 487.744-218.784 487.744-487.744c0-268.928-218.784-487.712-487.744-487.712zM378.080 589.152c0-27.104-21.984-49.088-49.088-49.088s-49.088 21.984-49.088 49.088c0 27.104 21.984 49.088 49.088 49.088s49.088-21.984 49.088-49.088zM744.064 589.152c0-27.104-21.984-49.088-49.088-49.088s-49.088 21.984-49.088 49.088c0 27.104 21.984 49.088 49.088 49.088s49.088-21.984 49.088-49.088zM289.504 391.104c49.632 0 0 77.664 0 77.664s-49.632-77.664 0-77.664zM519.104 327.264c-89.12 0-169.056-36.096-220.448-66.4-55.456-32.704-89.632-65.024-91.072-66.4l16.736-17.568c0.32 0.32 33.984 32.096 87.2 63.36 48.64 28.608 124.16 62.72 207.584 62.72s158.912-34.112 207.584-62.72c53.216-31.296 86.88-63.072 87.2-63.36l16.736 17.568c-1.44 1.344-35.616 33.696-91.072 66.4-51.392 30.304-131.328 66.4-220.448 66.4z" />
<glyph unicode="&#xe90d;" glyph-name="crying-selected" d="M874.048 810.048c-96.704 96.704-225.28 149.952-362.048 149.952s-265.344-53.248-362.048-149.952c-96.704-96.704-149.952-225.28-149.952-362.048s53.248-265.344 149.952-362.048c96.704-96.704 225.28-149.952 362.048-149.952s265.344 53.248 362.048 149.952c96.704 96.704 149.952 225.28 149.952 362.048s-53.248 265.344-149.952 362.048zM694.976 638.24c27.104 0 49.088-21.984 49.088-49.088s-21.984-49.088-49.088-49.088-49.088 21.984-49.088 49.088 21.984 49.088 49.088 49.088zM329.024 638.24c27.104 0 49.088-21.984 49.088-49.088s-21.984-49.088-49.088-49.088c-27.104 0-49.088 21.984-49.088 49.088s21.984 49.088 49.088 49.088zM289.504 468.768c0 0 49.632-77.664 0-77.664s0 77.664 0 77.664zM813.856 176.896c-0.32 0.32-33.984 32.064-87.2 63.36-48.64 28.608-124.16 62.72-207.584 62.72s-158.912-34.112-207.584-62.72c-53.216-31.296-86.88-63.072-87.2-63.36l-16.736 17.568c1.44 1.344 35.616 33.696 91.072 66.4 51.36 30.304 131.328 66.4 220.448 66.4s169.056-36.128 220.448-66.4c55.456-32.704 89.632-65.024 91.072-66.4l-16.736-17.568z" />
<glyph unicode="&#xe90e;" glyph-name="down" d="M874.048 810.048c-96.704 96.704-225.28 149.952-362.048 149.952s-265.344-53.248-362.048-149.952-149.952-225.28-149.952-362.048c0-136.768 53.248-265.344 149.952-362.048s225.28-149.952 362.048-149.952c136.768 0 265.344 53.248 362.048 149.952s149.952 225.28 149.952 362.048c0 136.768-53.248 265.344-149.952 362.048zM512-39.712c-268.928 0-487.712 218.784-487.712 487.712s218.784 487.744 487.712 487.744c268.928 0 487.744-218.784 487.744-487.744s-218.784-487.712-487.744-487.712zM378.112 589.152c0-27.104-21.984-49.088-49.088-49.088s-49.088 21.984-49.088 49.088c0 27.104 21.984 49.088 49.088 49.088s49.088-21.984 49.088-49.088zM744.096 589.152c0-27.104-21.984-49.088-49.088-49.088s-49.088 21.984-49.088 49.088c0 27.104 21.984 49.088 49.088 49.088s49.088-21.984 49.088-49.088zM290.752 187.936l-5.76 23.584 448.256 109.216 5.76-23.584-448.256-109.216z" />
<glyph unicode="&#xe90f;" glyph-name="down-selected" d="M512 959.008c-282.208 0-511.008-228.768-511.008-511.008s228.768-511.008 511.008-511.008c282.208 0 511.008 228.768 511.008 511.008s-228.768 511.008-511.008 511.008zM324.928 642.496c27.712 0 50.176-22.464 50.176-50.176s-22.464-50.176-50.176-50.176-50.176 22.464-50.176 50.176c0 27.712 22.464 50.176 50.176 50.176zM285.824 182.112l-5.888 24.096 458.208 111.648 5.888-24.096-458.208-111.648zM699.072 542.112c-27.712 0-50.176 22.464-50.176 50.176s22.464 50.176 50.176 50.176c27.712 0 50.176-22.464 50.176-50.176s-22.464-50.176-50.176-50.176z" />
<glyph unicode="&#xe910;" glyph-name="eight" d="M562.336 477.92v1.696c45.6 21.664 60.992 55.296 60.992 86.624 0 46.176-35.904 91.2-107.712 91.2-64.96 0-114.56-39.904-114.56-98.592 0-31.936 17.664-63.84 58.688-83.2l0.576-1.696c-45.6-19.36-73.504-52.448-73.504-99.168 0-54.144 46.72-100.32 124.256-100.32 70.688 0 125.952 43.328 125.952 107.712 0 45.024-28.512 77.536-74.656 95.744zM448.352 562.272c0 31.936 22.784 59.264 64.384 59.264 45.024 0 62.688-30.784 62.688-60.416 0-33.632-24.512-56.416-56.416-67.232-42.752 11.392-70.656 31.36-70.656 68.384zM512.192 310.912c-47.296 0-75.808 33.056-74.080 70.688 0 35.328 23.36 63.84 66.688 76.384 50.144-14.24 81.504-35.904 81.504-80.928 0-38.176-29.088-66.112-74.080-66.112zM511.872 960c-282.24 0-511.872-229.664-511.872-511.968s229.632-512.032 511.872-512.032c282.272 0 511.936 229.696 511.936 512.032s-229.664 511.968-511.968 511.968zM511.872-32.896c-265.12 0-480.768 215.744-480.768 480.928s215.68 480.864 480.768 480.864c265.12 0 480.832-215.712 480.832-480.864s-215.712-480.928-480.832-480.928z" />
<glyph unicode="&#xe911;" glyph-name="eight-selected" d="M519.072 493.888c31.904 10.816 56.416 33.632 56.416 67.232 0 29.632-17.664 60.416-62.688 60.416-41.6 0-64.384-27.36-64.384-59.296 0-37.024 27.936-56.992 70.656-68.384zM504.8 457.984c-43.296-12.544-66.688-41.024-66.688-76.384-1.696-37.632 26.784-70.688 74.080-70.688 45.024 0 74.080 27.936 74.080 66.112 0 45.024-31.36 66.688-81.504 80.928zM511.904 960c-282.24 0-511.872-229.664-511.872-511.968s229.632-512.032 511.872-512.032c282.272 0 511.936 229.696 511.936 512.032s-229.664 511.968-511.968 511.968zM511.072 274.464c-77.504 0-124.256 46.176-124.256 100.32 0 46.752 27.936 79.808 73.504 99.168l-0.576 1.696c-41.024 19.392-58.688 51.296-58.688 83.2 0 58.72 49.568 98.592 114.56 98.592 71.808 0 107.712-45.024 107.712-91.2 0-31.36-15.392-64.96-60.992-86.624v-1.696c46.176-18.24 74.656-50.72 74.656-95.744 0-64.384-55.264-107.712-125.952-107.712z" />
<glyph unicode="&#xe912;" glyph-name="envelop" d="M170.080 663.232l247.52-215.232-247.584-215.296c-6.208 5.888-10.016 14.24-10.016 23.52v383.552c0 9.248 3.872 17.568 10.080 23.456zM885.984 663.296c6.208-5.888 10.016-14.24 10.016-23.52v-383.552c0-9.248-3.872-17.568-10.080-23.456l-247.52 215.232 247.584 215.296zM614.464 427.168l233.536-203.168h-640l233.536 203.168 86.464-75.168 86.464 75.168zM192.128 704c-35.424 0-64.128-28.64-64.128-63.808v-384.384c0-35.232 28.48-63.808 64.128-63.808h671.776c35.424 0 64.128 28.64 64.128 63.808v384.384c0 35.232-28.48 63.808-64.128 63.808h-671.776zM528 393.6l-320 278.4h640l-320-278.4z" />
<glyph unicode="&#xe913;" glyph-name="envelop-selected" d="M829.536 285.536l-25.856-25.856-191.68 164.32-84-72-84 72-191.68-164.32-25.856 25.856 189.536 162.464-189.536 162.464 25.856 25.856 275.68-236.32 275.68 236.32 25.856-25.856-189.536-162.464 189.536-162.464zM192.128 704c-35.424 0-64.128-28.64-64.128-63.808v-384.384c0-35.232 28.48-63.808 64.128-63.808h671.776c35.424 0 64.128 28.64 64.128 63.808v384.384c0 35.232-28.48 63.808-64.128 63.808h-671.776z" />
<glyph unicode="&#xe914;" glyph-name="exclamation" d="M511.488 22.016c-234.624 0-425.472 190.88-425.472 425.472s190.848 425.472 425.472 425.472c234.624 0 425.472-190.88 425.472-425.472s-190.88-425.472-425.472-425.472zM511.488 838.912c-215.84 0-391.424-175.584-391.424-391.424s175.584-391.424 391.424-391.424c215.84 0 391.424 175.584 391.424 391.424s-175.584 391.424-391.424 391.424zM449.536 279.040h123.904v-87.040h-123.904v87.040zM449.536 701.952h123.904v-385.024h-123.904v385.024z" />
<glyph unicode="&#xe915;" glyph-name="five" d="M566.88 496.16c-22.784 13.696-51.296 19.936-79.776 19.936-13.664 0-21.664-1.152-30.208-2.272l14.24 95.168h141.344v42.176h-177.216l-23.936-177.824c13.696 1.696 30.208 4 51.296 4 74.080 0 106.016-34.208 106.56-82.080 0-49.6-40.448-80.352-87.744-80.352-33.632 0-63.808 11.392-79.2 20.512l-12.544-38.176c17.664-11.392 51.872-22.784 92.32-22.784 80.352 0 137.92 54.144 137.92 126.528 0 46.72-23.936 78.656-53.024 95.168zM511.872 960c-282.24 0-511.872-229.664-511.872-511.968s229.632-512.032 511.872-512.032c282.272 0 511.936 229.696 511.936 512.032s-229.664 511.968-511.968 511.968zM511.872-32.896c-265.12 0-480.768 215.744-480.768 480.928s215.68 480.864 480.768 480.864c265.12 0 480.832-215.712 480.832-480.864s-215.712-480.928-480.832-480.928z" />
<glyph unicode="&#xe916;" glyph-name="five-selected" d="M511.904 960c-282.24 0-511.872-229.664-511.872-511.968s229.632-512.032 511.872-512.032c282.272 0 511.936 229.696 511.936 512.032s-229.664 511.968-511.968 511.968zM482.016 274.464c-40.448 0-74.656 11.392-92.32 22.784l12.544 38.176c15.392-9.12 45.6-20.512 79.2-20.512 47.296 0 87.744 30.784 87.744 80.352-0.576 47.872-32.48 82.080-106.56 82.080-21.088 0-37.632-2.272-51.296-4l23.936 177.824h177.248v-42.176h-141.344l-14.24-95.168c8.544 1.152 16.544 2.272 30.208 2.272 28.512 0 56.992-6.272 79.776-19.936 29.056-16.544 52.992-48.448 52.992-95.168 0-72.384-57.568-126.528-137.92-126.528z" />
<glyph unicode="&#xe917;" glyph-name="four" d="M593.696 651.168h-54.144l-165.28-236.512v-33.056h172.096v-100.864h47.296v100.864h51.872v39.328h-51.872v230.24zM546.368 544.608v-123.68h-121.376v1.152l90.624 125.952c10.24 17.088 19.36 33.056 30.784 54.72h1.696c-1.152-19.392-1.696-38.752-1.696-58.144zM511.872 960c-282.24 0-511.872-229.664-511.872-511.968s229.632-512.032 511.872-512.032c282.272 0 511.936 229.696 511.936 512.032s-229.664 511.968-511.968 511.968zM511.872-32.896c-265.12 0-480.768 215.744-480.768 480.928s215.68 480.864 480.768 480.864c265.12 0 480.832-215.712 480.832-480.864s-215.712-480.928-480.832-480.928z" />
<glyph unicode="&#xe918;" glyph-name="four-selected" d="M515.648 548.032l-90.624-125.952v-1.152h121.408v123.68c0 19.392 0.576 38.752 1.696 58.144h-1.696c-11.392-21.664-20.512-37.6-30.784-54.72zM511.904 960c-282.24 0-511.872-229.664-511.872-511.968s229.632-512.032 511.872-512.032c282.272 0 511.936 229.696 511.936 512.032s-229.664 511.968-511.968 511.968zM645.568 381.6h-51.872v-100.864h-47.296v100.864h-172.128v33.056l165.28 236.512h54.144v-230.24h51.872v-39.328z" />
<glyph unicode="&#xe919;" glyph-name="frustrated" d="M874.048 810.048c-96.704 96.704-225.28 149.952-362.048 149.952s-265.344-53.248-362.048-149.952c-96.704-96.704-149.952-225.28-149.952-362.048s53.248-265.344 149.952-362.048c96.704-96.704 225.28-149.952 362.048-149.952s265.344 53.248 362.048 149.952c96.704 96.704 149.952 225.28 149.952 362.048s-53.248 265.344-149.952 362.048zM512-39.712c-268.928 0-487.712 218.784-487.712 487.712s218.784 487.744 487.712 487.744 487.744-218.784 487.744-487.744c0-268.928-218.784-487.712-487.744-487.712zM329.024 540.064c27.104 0 49.088 21.984 49.088 49.088s-98.176 27.104-98.176 0 21.984-49.088 49.088-49.088zM694.976 540.064c27.104 0 49.088 21.984 49.088 49.088s-98.176 27.104-98.176 0 21.984-49.088 49.088-49.088zM319.136 255.424l24.128-2.624c0.352 2.72-41.856 66.688 87.008 66.688 138.528 0 305.472-75.584 307.168-76.352l10.112 22.080c-7.008 3.2-173.344 78.56-317.248 78.56-152.128 0-110.784-84.736-111.136-88.352z" />
<glyph unicode="&#xe91a;" glyph-name="frustrated-selected" d="M874.048 810.048c-96.704 96.704-225.28 149.952-362.048 149.952s-265.344-53.248-362.048-149.952c-96.704-96.704-149.952-225.28-149.952-362.048s53.248-265.344 149.952-362.048c96.704-96.704 225.28-149.952 362.048-149.952s265.344 53.248 362.048 149.952c96.704 96.704 149.952 225.28 149.952 362.048s-53.248 265.344-149.952 362.048zM744.064 589.152c0-27.104-21.984-49.088-49.088-49.088s-49.088 21.984-49.088 49.088 98.176 27.104 98.176 0zM279.936 589.152c0 27.104 98.176 27.104 98.176 0s-21.984-49.088-49.088-49.088c-27.104 0-49.088 21.984-49.088 49.088zM737.44 243.168c-1.664 0.768-168.608 76.352-307.168 76.352-128.864 0-86.656-63.968-87.008-66.688l-24.128 2.624c0.384 3.616-40.96 88.352 111.136 88.352 143.904 0 310.24-75.328 317.248-78.56l-10.112-22.080z" />
<glyph unicode="&#xe91b;" glyph-name="grin" d="M874.048 810.048c-96.704 96.704-225.28 149.952-362.048 149.952s-265.344-53.248-362.048-149.952c-96.704-96.704-149.952-225.28-149.952-362.048s53.248-265.344 149.952-362.048c96.704-96.704 225.28-149.952 362.048-149.952s265.344 53.248 362.048 149.952c96.704 96.704 149.952 225.28 149.952 362.048s-53.248 265.344-149.952 362.048zM512-39.712c-268.928 0-487.712 218.784-487.712 487.712s218.784 487.744 487.712 487.744c268.928 0 487.712-218.784 487.712-487.744s-218.784-487.712-487.712-487.712zM378.592 589.152c0-27.104-21.984-49.088-49.088-49.088s-49.088 21.984-49.088 49.088c0 27.104 21.984 49.088 49.088 49.088s49.088-21.984 49.088-49.088zM744.576 589.152c0-27.104-21.984-49.088-49.088-49.088s-49.088 21.984-49.088 49.088c0 27.104 21.984 49.088 49.088 49.088s49.088-21.984 49.088-49.088zM198.080 308.448h627.872v-24.288c0 0-146.304-137.92-312.896-137.92s-314.976 137.92-314.976 137.92v24.288z" />
<glyph unicode="&#xe91c;" glyph-name="grin-selected" d="M874.048 810.048c-96.704 96.704-225.28 149.952-362.048 149.952s-265.344-53.248-362.048-149.952c-96.704-96.704-149.952-225.28-149.952-362.048s53.248-265.344 149.952-362.048c96.704-96.704 225.28-149.952 362.048-149.952s265.344 53.248 362.048 149.952c96.704 96.704 149.952 225.28 149.952 362.048s-53.248 265.344-149.952 362.048zM695.488 638.24c27.104 0 49.088-21.984 49.088-49.088s-21.984-49.088-49.088-49.088c-27.104 0-49.088 21.984-49.088 49.088s21.984 49.088 49.088 49.088zM329.504 638.24c27.104 0 49.088-21.984 49.088-49.088s-21.984-49.088-49.088-49.088c-27.104 0-49.088 21.984-49.088 49.088s21.984 49.088 49.088 49.088zM825.92 284.16c0 0-146.304-137.92-312.896-137.92s-314.976 137.92-314.976 137.92v24.288h627.872v-24.288z" />
<glyph unicode="&#xe91d;" glyph-name="happy" d="M874.048 810.048c-96.704 96.704-225.28 149.952-362.048 149.952s-265.344-53.248-362.048-149.952c-96.704-96.704-149.952-225.28-149.952-362.048s53.248-265.344 149.952-362.048c96.704-96.704 225.28-149.952 362.048-149.952s265.344 53.248 362.048 149.952c96.704 96.704 149.952 225.28 149.952 362.048s-53.248 265.344-149.952 362.048zM512-39.712c-268.928 0-487.712 218.784-487.712 487.712s218.784 487.744 487.712 487.744 487.712-218.784 487.712-487.744c0-268.928-218.784-487.712-487.712-487.712zM844.064 416.864c-0.16-0.672-16.384-69.184-65.952-137.184-66.048-90.656-156.64-136.608-269.312-136.608-112.288 0-201.632 45.664-265.504 135.744-48.192 67.968-63.104 137.088-63.264 137.76l-23.744-4.96c0.608-2.976 15.872-74.080 66.688-146.112 30.016-42.528 66.24-76.448 107.648-100.8 51.808-30.464 111.744-45.92 178.176-45.92s126.656 15.424 179.104 45.888c41.92 24.352 78.88 58.208 109.824 100.704 52.448 71.968 69.28 143.008 69.984 146.016l-23.648 5.472zM378.112 589.152c0-27.104-21.984-49.088-49.088-49.088s-49.088 21.984-49.088 49.088c0 27.104 21.984 49.088 49.088 49.088s49.088-21.984 49.088-49.088zM744.064 589.152c0-27.104-21.984-49.088-49.088-49.088s-49.088 21.984-49.088 49.088c0 27.104 21.984 49.088 49.088 49.088s49.088-21.984 49.088-49.088z" />
<glyph unicode="&#xe91e;" glyph-name="happy-selected" d="M512 959.008c-282.208 0-511.008-228.768-511.008-511.008s228.768-511.008 511.008-511.008c282.208 0 511.008 228.768 511.008 511.008s-228.768 511.008-511.008 511.008zM699.072 642.496c27.712 0 50.176-22.464 50.176-50.176s-22.464-50.176-50.176-50.176-50.176 22.464-50.176 50.176c0 27.712 22.464 50.176 50.176 50.176zM324.928 642.496c27.712 0 50.176-22.464 50.176-50.176s-22.464-50.176-50.176-50.176c-27.712 0-50.176 22.464-50.176 50.176s22.464 50.176 50.176 50.176zM804.096 261.312c-31.648-43.424-69.408-78.048-112.288-102.944-53.632-31.136-115.232-46.912-183.104-46.912s-129.184 15.808-182.144 46.944c-42.336 24.928-79.36 59.584-110.048 103.072-51.968 73.632-67.552 146.304-68.192 149.376l24.288 5.088c0.16-0.704 15.392-71.392 64.672-140.832 65.312-92.096 156.608-138.784 271.424-138.784 115.2 0 207.808 46.976 275.328 139.648 50.656 69.536 67.264 139.552 67.424 140.256l24.16-5.6c-0.704-3.072-17.952-75.68-71.552-149.248z" />
<glyph unicode="&#xe91f;" glyph-name="heart" d="M950.848 619.424q0 46.272-12.288 81.728t-31.424 56.288-46.56 34.016-53.728 17.728-56 4.576-64-14.56-63.136-36.576-49.44-41.152-34.272-35.136q-10.272-12.576-28-12.576t-28 12.576q-13.728 16-34.272 35.136t-49.44 41.152-63.136 36.576-64 14.56-56-4.576-53.728-17.728-46.56-34.016-31.424-56.288-12.288-81.728q0-96 106.848-202.848l332-320 331.424 319.424q107.424 107.424 107.424 203.424zM1024 619.424q0-126.272-130.848-257.152l-356-342.848q-10.272-10.272-25.152-10.272t-25.152 10.272l-356.576 344q-5.728 4.576-15.712 14.848t-31.712 37.44-38.848 55.712-30.56 69.152-13.44 78.848q0 125.728 72.576 196.576t200.576 70.848q35.424 0 72.288-12.288t68.576-33.152 54.56-39.136 43.424-38.848q20.576 20.576 43.424 38.848t54.56 39.136 68.576 33.152 72.288 12.288q128 0 200.576-70.848t72.576-196.576z" />
<glyph unicode="&#xe920;" glyph-name="heart-selected" d="M512 9.152q-14.848 0-25.152 10.272l-356.576 344q-5.728 4.576-15.712 14.848t-31.712 37.44-38.848 55.712-30.56 69.152-13.44 78.848q0 125.728 72.576 196.576t200.576 70.848q35.424 0 72.288-12.288t68.576-33.152 54.56-39.136 43.424-38.848q20.576 20.576 43.424 38.848t54.56 39.136 68.576 33.152 72.288 12.288q128 0 200.576-70.848t72.576-196.576q0-126.272-130.848-257.152l-356-342.848q-10.272-10.272-25.152-10.272z" />
<glyph unicode="&#xe921;" glyph-name="nine" d="M515.616 657.44c-75.808 0-126.528-61.568-126.528-131.648 0-63.264 42.752-113.408 109.44-113.408 37.056 0 66.688 14.816 87.2 39.904h1.696c-6.848-43.872-24.512-76.384-49.024-98.592-21.088-19.936-48.448-31.904-77.504-35.904-17.088-1.696-29.632-2.848-40.48-1.696v-41.024c11.968-0.576 27.936 0 46.176 2.848 39.904 4.576 79.2 21.664 107.712 49.6 36.48 35.328 63.84 92.32 63.84 173.824 0 94.624-46.752 156.16-122.528 156.16zM582.848 489.312c-13.12-22.24-39.328-38.752-72.96-38.752-43.296 0-71.232 32.48-71.232 78.656 0 52.448 30.208 90.048 72.96 90.048 52.448 0 75.808-48.448 75.808-111.712 0-7.968-1.696-13.664-4.544-18.24zM511.872 960c-282.24 0-511.872-229.664-511.872-511.968s229.632-512.032 511.872-512.032c282.272 0 511.936 229.696 511.936 512.032s-229.664 511.968-511.968 511.968zM511.872-32.896c-265.12 0-480.768 215.744-480.768 480.928s215.68 480.864 480.768 480.864c265.12 0 480.832-215.712 480.832-480.864s-215.712-480.928-480.832-480.928z" />
<glyph unicode="&#xe922;" glyph-name="nine-selected" d="M511.648 619.264c-42.752 0-72.96-37.632-72.96-90.048 0-46.176 27.936-78.656 71.232-78.656 33.632 0 59.84 16.544 72.96 38.752 2.848 4.576 4.544 10.272 4.544 18.24 0 63.264-23.36 111.712-75.808 111.712zM511.904 960c-282.24 0-511.872-229.664-511.872-511.968s229.632-512.032 511.872-512.032c282.272 0 511.936 229.696 511.936 512.032s-229.664 511.968-511.968 511.968zM574.336 327.456c-28.512-27.936-67.808-45.024-107.712-49.6-18.24-2.848-34.208-3.424-46.176-2.848v41.024c10.816-1.152 23.36 0 40.48 1.696 29.056 4 56.416 15.968 77.504 35.904 24.512 22.24 42.176 54.72 49.024 98.592h-1.696c-20.512-25.088-50.144-39.904-87.2-39.904-66.688 0-109.408 50.144-109.408 113.408 0 70.112 50.72 131.648 126.528 131.648s122.528-61.568 122.528-156.16c0.032-81.504-27.328-138.496-63.808-173.824z" />
<glyph unicode="&#xe923;" glyph-name="one" d="M424.992 607.872l9.696-38.176 64.384 34.752h1.152v-323.712h48.448v370.464h-42.752zM511.872 960c-282.24 0-511.872-229.664-511.872-511.968s229.632-512.032 511.872-512.032c282.272 0 511.936 229.696 511.936 512.032s-229.664 511.968-511.968 511.968zM511.872-32.896c-265.12 0-480.768 215.744-480.768 480.928s215.68 480.864 480.768 480.864c265.12 0 480.832-215.712 480.832-480.864s-215.712-480.928-480.832-480.928z" />
<glyph unicode="&#xe924;" glyph-name="one-selected" d="M511.904 960c-282.24 0-511.872-229.664-511.872-511.968s229.632-512.032 511.872-512.032c282.272 0 511.936 229.696 511.936 512.032s-229.664 511.968-511.968 511.968zM548.704 280.736h-48.448v323.712h-1.152l-64.384-34.784-9.696 38.176 80.928 43.328h42.752v-370.464z" />
<glyph unicode="&#xe925;" glyph-name="question" d="M874.048 810.048c-96.704 96.704-225.28 149.952-362.048 149.952s-265.344-53.248-362.048-149.952c-96.704-96.704-149.952-225.28-149.952-362.048s53.248-265.344 149.952-362.048c96.704-96.704 225.28-149.952 362.048-149.952s265.344 53.248 362.048 149.952c96.704 96.704 149.952 225.28 149.952 362.048s-53.248 265.344-149.952 362.048zM512-39.712c-268.928 0-487.712 218.784-487.712 487.712s218.784 487.744 487.712 487.744 487.744-218.784 487.744-487.744c0-268.928-218.784-487.712-487.744-487.712zM715.040 601.088v111.392h-407.456v-111.392h296.064v-77.312l-184.896-105.856v-114.752h111.392v78.816l73.504 42.592v-0.384l111.392 63.936v0.992l1.376 0.8-1.376 2.336zM419.136 268.256h110.912v-110.688h-110.912v110.688z" />
<glyph unicode="&#xe926;" glyph-name="question-circle-o" d="M874.048 810.048c-96.704 96.704-225.28 149.952-362.048 149.952s-265.344-53.248-362.048-149.952c-96.704-96.704-149.952-225.28-149.952-362.048s53.248-265.344 149.952-362.048c96.704-96.704 225.28-149.952 362.048-149.952s265.344 53.248 362.048 149.952c96.704 96.704 149.952 225.28 149.952 362.048s-53.248 265.344-149.952 362.048zM512-39.712c-268.928 0-487.712 218.784-487.712 487.712s218.784 487.744 487.712 487.744 487.744-218.784 487.744-487.744c0-268.928-218.784-487.712-487.744-487.712zM641.376 678.912c-32.608 29.824-76.32 44.704-131.104 44.704-51.712 0-93.312-13.888-124.768-41.664s-50.4-67.776-56.768-120l70.72-8.416c6.112 38.976 18.976 67.648 38.592 85.984s44.064 27.52 73.376 27.52c30.304 0 55.936-10.112 76.832-30.368s31.328-43.776 31.328-70.528c0-14.784-3.584-28.416-10.688-40.896s-22.624-29.248-46.432-50.272c-23.84-21.024-40.32-37.024-49.504-47.968-12.48-15.040-21.536-29.952-27.136-44.704-7.648-19.616-11.456-42.944-11.456-69.952 0-4.576 0.128-11.456 0.384-20.64h66.112c0.512 27.52 2.432 47.392 5.728 59.616s8.416 23.072 15.296 32.48c6.88 9.408 21.536 24.064 43.936 43.936 33.376 29.568 55.808 54.656 67.264 75.296s17.184 43.2 17.184 67.648c0 42.304-16.32 78.336-48.928 108.16zM470.528 232.16h78.336v-78.336h-78.336v78.336z" />
<glyph unicode="&#xe927;" glyph-name="question-circle-o-selected" d="M874.048 810.048c-96.704 96.704-225.28 149.952-362.048 149.952s-265.344-53.248-362.048-149.952c-96.704-96.704-149.952-225.28-149.952-362.048s53.248-265.344 149.952-362.048c96.704-96.704 225.28-149.952 362.048-149.952s265.344 53.248 362.048 149.952c96.704 96.704 149.952 225.28 149.952 362.048s-53.248 265.344-149.952 362.048zM548.864 153.792h-78.336v78.336h78.336v-78.336zM673.088 503.104c-11.456-20.64-33.888-45.728-67.264-75.296-22.432-19.872-37.088-34.528-43.936-43.936s-11.968-20.256-15.296-32.48c-3.328-12.224-5.216-32.096-5.728-59.616h-66.112c-0.256 9.184-0.384 16.064-0.384 20.64 0 27.008 3.808 50.336 11.456 69.952 5.6 14.784 14.656 29.696 27.136 44.704 9.184 10.944 25.664 26.944 49.504 47.968s39.296 37.76 46.432 50.272c7.136 12.48 10.688 26.112 10.688 40.896 0 26.752-10.464 50.272-31.328 70.528s-46.496 30.368-76.832 30.368c-29.312 0-53.76-9.184-73.376-27.52s-32.48-47.008-38.592-85.984l-70.72 8.416c6.368 52.224 25.28 92.224 56.768 120s73.056 41.664 124.768 41.664c54.784 0 98.464-14.912 131.104-44.704s48.928-65.856 48.928-108.16c0-24.448-5.728-47.008-17.184-67.648z" />
<glyph unicode="&#xe928;" glyph-name="question-selected" d="M874.048 810.048c-96.704 96.704-225.28 149.952-362.048 149.952s-265.344-53.248-362.048-149.952c-96.704-96.704-149.952-225.28-149.952-362.048s53.248-265.344 149.952-362.048c96.704-96.704 225.28-149.952 362.048-149.952s265.344 53.248 362.048 149.952c96.704 96.704 149.952 225.28 149.952 362.048s-53.248 265.344-149.952 362.048zM530.048 157.6h-110.912v110.656h110.912v-110.656zM715.040 489.088v-0.992l-111.392-63.936v0.384l-73.504-42.592v-78.816h-111.392v114.752l184.896 105.856v77.312h-296.064v111.392h407.456v-220.224l1.376-2.336-1.376-0.8z" />
<glyph unicode="&#xe929;" glyph-name="sad" d="M874.048 810.048c-96.704 96.704-225.28 149.952-362.048 149.952s-265.344-53.248-362.048-149.952c-96.704-96.704-149.952-225.28-149.952-362.048s53.248-265.344 149.952-362.048c96.704-96.704 225.28-149.952 362.048-149.952s265.344 53.248 362.048 149.952c96.704 96.704 149.952 225.28 149.952 362.048s-53.248 265.344-149.952 362.048zM512-39.712c-268.928 0-487.712 218.784-487.712 487.712s218.784 487.744 487.712 487.744c268.928 0 487.744-218.784 487.744-487.744s-218.784-487.712-487.744-487.712zM378.112 589.152c0-27.104-21.984-49.088-49.088-49.088s-49.088 21.984-49.088 49.088c0 27.104 21.984 49.088 49.088 49.088s49.088-21.984 49.088-49.088zM744.064 589.152c0-27.104-21.984-49.088-49.088-49.088s-49.088 21.984-49.088 49.088c0 27.104 21.984 49.088 49.088 49.088s49.088-21.984 49.088-49.088zM519.072 327.264c-89.12 0-169.056-36.096-220.448-66.4-55.456-32.704-89.632-65.024-91.072-66.4l16.736-17.568c0.32 0.32 33.984 32.096 87.2 63.36 48.64 28.608 124.16 62.72 207.584 62.72s158.912-34.112 207.584-62.72c53.216-31.296 86.88-63.072 87.2-63.36l16.736 17.568c-1.44 1.344-35.616 33.696-91.072 66.4-51.392 30.304-131.328 66.4-220.448 66.4z" />
<glyph unicode="&#xe92a;" glyph-name="sad-selected" d="M512 959.008c-282.208 0-511.008-228.768-511.008-511.008s228.768-511.008 511.008-511.008 511.008 228.768 511.008 511.008c0 282.208-228.8 511.008-511.008 511.008zM699.072 642.496c27.712 0 50.176-22.464 50.176-50.176s-22.464-50.176-50.176-50.176c-27.712 0-50.176 22.464-50.176 50.176s22.464 50.176 50.176 50.176zM324.928 642.496c27.712 0 50.176-22.464 50.176-50.176s-22.464-50.176-50.176-50.176c-27.712 0-50.176 22.464-50.176 50.176s22.464 50.176 50.176 50.176zM820.576 170.848c-0.352 0.32-34.752 32.8-89.152 64.768-49.728 29.248-126.912 64.128-212.192 64.128s-162.464-34.88-212.192-64.128c-54.4-32-88.8-64.448-89.152-64.8l-17.088 17.984c1.472 1.376 36.416 34.432 93.088 67.872 52.512 30.976 134.24 67.872 225.344 67.872s172.832-36.928 225.344-67.872c56.672-33.408 91.648-66.464 93.088-67.872l-17.12-17.984z" />
<glyph unicode="&#xe92b;" glyph-name="serious" d="M874.048 810.048c-96.704 96.704-225.28 149.952-362.048 149.952s-265.344-53.248-362.048-149.952c-96.704-96.704-149.952-225.28-149.952-362.048s53.248-265.344 149.952-362.048c96.704-96.704 225.28-149.952 362.048-149.952s265.344 53.248 362.048 149.952c96.704 96.704 149.952 225.28 149.952 362.048s-53.248 265.344-149.952 362.048zM512-39.712c-268.928 0-487.712 218.784-487.712 487.712s218.784 487.744 487.712 487.744c268.928 0 487.744-218.784 487.744-487.744s-218.784-487.712-487.744-487.712zM378.080 589.152c0-27.104-21.984-49.088-49.088-49.088s-49.088 21.984-49.088 49.088c0 27.104 21.984 49.088 49.088 49.088s49.088-21.984 49.088-49.088zM744.064 589.152c0-27.104-21.984-49.088-49.088-49.088s-49.088 21.984-49.088 49.088c0 27.104 21.984 49.088 49.088 49.088s49.088-21.984 49.088-49.088zM216.512 266.336h589.024v-24.288h-589.024v24.288z" />
<glyph unicode="&#xe92c;" glyph-name="serious-selected" d="M512 959.008c-282.208 0-511.008-228.768-511.008-511.008s228.768-511.008 511.008-511.008c282.208 0 511.008 228.768 511.008 511.008s-228.768 511.008-511.008 511.008zM699.072 642.496c27.712 0 50.176-22.464 50.176-50.176s-22.464-50.176-50.176-50.176c-27.712 0-50.176 22.464-50.176 50.176s22.464 50.176 50.176 50.176zM324.928 642.496c27.712 0 50.176-22.464 50.176-50.176s-22.464-50.176-50.176-50.176c-27.712 0-50.176 22.464-50.176 50.176s22.464 50.176 50.176 50.176zM812.064 237.472h-602.144v24.8h602.144v-24.8z" />
<glyph unicode="&#xe92d;" glyph-name="seven" d="M398.208 609.568h181.216v-1.152l-160.704-327.712h51.84l161.28 337.408v33.056h-233.664zM511.872 960c-282.24 0-511.872-229.664-511.872-511.968s229.632-512.032 511.872-512.032c282.272 0 511.936 229.696 511.936 512.032s-229.664 511.968-511.968 511.968zM511.872-32.896c-265.12 0-480.768 215.744-480.768 480.928s215.68 480.864 480.768 480.864c265.12 0 480.832-215.712 480.832-480.864s-215.712-480.928-480.832-480.928z" />
<glyph unicode="&#xe92e;" glyph-name="seven-selected" d="M511.904 960c-282.24 0-511.872-229.664-511.872-511.968s229.632-512.032 511.872-512.032c282.272 0 511.936 229.696 511.936 512.032s-229.664 511.968-511.936 511.968zM631.904 618.112l-161.28-337.408h-51.84l160.704 327.712v1.152h-181.216v41.6h233.664v-33.056z" />
<glyph unicode="&#xe92f;" glyph-name="six" d="M527.584 524.64c-41.024 0-71.808-19.392-89.472-42.752h-1.696c8.544 60.992 50.144 118.56 128.8 131.648 14.24 2.272 27.36 2.848 37.6 2.272v41.024c-9.12 0-21.664-0.576-36.48-2.848-46.752-5.696-87.744-24.512-118.528-54.72-36.48-36.48-62.688-94.048-62.688-167.008 0-96.32 51.872-157.856 131.072-157.856 76.928 0 123.104 62.688 123.104 130.496 0 72.384-46.176 119.68-111.712 119.68zM516.16 313.216c-52.448 0-80.352 45.024-81.504 106.016 0 9.12 2.272 16.544 5.696 22.24 13.696 26.784 41.6 45.6 71.808 45.6 46.176 0 76.384-31.936 76.384-84.928s-29.088-88.896-72.384-88.896zM511.872 960c-282.24 0-511.872-229.664-511.872-511.968s229.632-512.032 511.872-512.032c282.272 0 511.936 229.696 511.936 512.032s-229.664 511.968-511.968 511.968zM511.872-32.896c-265.12 0-480.768 215.744-480.768 480.928s215.68 480.864 480.768 480.864c265.12 0 480.832-215.712 480.832-480.864s-215.712-480.928-480.832-480.928z" />
<glyph unicode="&#xe930;" glyph-name="six-selected" d="M512.224 487.040c-30.208 0-58.112-18.816-71.808-45.6-3.424-5.696-5.696-13.12-5.696-22.24 1.152-60.992 29.056-106.016 81.504-106.016 43.296 0 72.384 35.904 72.384 88.896s-30.208 84.928-76.384 84.928zM511.904 960c-282.24 0-511.872-229.664-511.872-511.968s229.632-512.032 511.872-512.032c282.272 0 511.936 229.696 511.936 512.032s-229.664 511.968-511.936 511.968zM516.224 274.464c-79.2 0-131.072 61.568-131.072 157.856 0 72.96 26.208 130.528 62.688 167.008 30.784 30.208 71.808 49.024 118.528 54.72 14.816 2.272 27.36 2.848 36.48 2.848v-41.024c-10.24 0.576-23.36 0-37.6-2.272-78.656-13.12-120.256-70.688-128.8-131.648h1.696c17.664 23.36 48.448 42.752 89.472 42.752 65.536 0 111.712-47.296 111.712-119.68 0-67.808-46.144-130.496-123.104-130.496z" />
<glyph unicode="&#xe931;" glyph-name="smile" d="M874.048 810.048c-96.704 96.704-225.28 149.952-362.048 149.952s-265.344-53.248-362.048-149.952c-96.704-96.704-149.952-225.28-149.952-362.048s53.248-265.344 149.952-362.048c96.704-96.704 225.28-149.952 362.048-149.952s265.344 53.248 362.048 149.952c96.704 96.704 149.952 225.28 149.952 362.048s-53.248 265.344-149.952 362.048zM512-39.712c-268.928 0-487.712 218.784-487.712 487.712s218.784 487.744 487.712 487.744 487.712-218.784 487.712-487.744c0-268.928-218.784-487.712-487.712-487.712zM378.112 589.152c0-27.104-21.984-49.088-49.088-49.088s-49.088 21.984-49.088 49.088c0 27.104 21.984 49.088 49.088 49.088s49.088-21.984 49.088-49.088zM744.064 589.152c0-27.104-21.984-49.088-49.088-49.088s-49.088 21.984-49.088 49.088c0 27.104 21.984 49.088 49.088 49.088s49.088-21.984 49.088-49.088zM720.992 244.736c-48.832-29.76-126.112-65.248-216.992-65.248-90.624 0-163.296 35.328-208.288 64.96-48.864 32.192-76.704 64.864-77.28 65.536 0 0 0 0 0 0l-18.592-15.584c1.184-1.44 29.952-35.456 81.824-69.76 47.904-31.68 125.344-69.44 222.368-69.44 96.832 0 178.656 37.632 230.272 69.216 55.808 34.144 88.544 67.936 89.888 69.376l-17.504 16.8c-0.32-0.32-32.352-33.344-85.664-65.856z" />
<glyph unicode="&#xe932;" glyph-name="smile-selected" d="M512 959.008c-282.208 0-511.008-228.768-511.008-511.008s228.768-511.008 511.008-511.008c282.208 0 511.008 228.768 511.008 511.008s-228.768 511.008-511.008 511.008zM699.072 642.496c27.712 0 50.176-22.464 50.176-50.176s-22.464-50.176-50.176-50.176-50.176 22.464-50.176 50.176c0 27.712 22.464 50.176 50.176 50.176zM324.928 642.496c27.712 0 50.176-22.464 50.176-50.176s-22.464-50.176-50.176-50.176c-27.712 0-50.176 22.464-50.176 50.176s22.464 50.176 50.176 50.176zM739.232 219.456c-52.768-32.288-136.416-70.752-235.392-70.752-99.168 0-178.368 38.592-227.328 70.976-52.992 35.072-82.4 69.856-83.648 71.296l19.008 15.936c0 0 0 0 0 0 0.576-0.704 29.056-34.112 79.008-67.008 45.984-30.304 120.256-66.4 212.928-66.4 92.896 0 171.904 36.288 221.824 66.72 54.528 33.248 87.264 66.976 87.584 67.328l17.888-17.184c-1.408-1.44-34.848-36.032-91.904-70.912z" />
<glyph unicode="&#xe933;" glyph-name="square" d="M752 813.728h-475.424q-37.728 0-64.576-26.848t-26.848-64.576v-475.424q0-37.728 26.848-64.576t64.576-26.848h475.424q37.728 0 64.576 26.848t26.848 64.576v475.424q0 37.728-26.848 64.576t-64.576 26.848zM916.576 722.272v-475.424q0-68-48.288-116.288t-116.288-48.288h-475.424q-68 0-116.288 48.288t-48.288 116.288v475.424q0 68 48.288 116.288t116.288 48.288h475.424q68 0 116.288-48.288t48.288-116.288z" />
<glyph unicode="&#xe934;" glyph-name="square-selected" d="M957.728 722.272v-548.576q0-68-48.288-116.288t-116.288-48.288h-548.576q-68 0-116.288 48.288t-48.288 116.288v548.576q0 68 48.288 116.288t116.288 48.288h548.576q68 0 116.288-48.288t48.288-116.288z" />
<glyph unicode="&#xe935;" glyph-name="star" d="M512 840.16l136-246.496 276.608-53.088-192.544-205.44 34.944-279.296-255.008 119.52-255.008-119.52 34.944 279.296-192.544 205.44 276.608 53.088 136 246.496z" />
<glyph unicode="&#xe936;" glyph-name="starburst" d="M919.712 483.456l-78.88 52.576 41.984 85.024c6.304 12.8 5.856 27.904-1.28 40.224-7.168 12.384-19.968 20.352-34.208 21.248l-94.624 6.112-6.144 94.624c-0.864 14.24-8.864 27.104-21.216 34.208-12.384 7.136-27.52 7.68-40.224 1.28l-84.96-42.016-52.608 78.88c-15.84 23.776-55.168 23.776-71.008 0l-52.64-78.848-84.992 41.984c-12.768 6.4-27.904 5.856-40.224-1.28-12.384-7.136-20.352-19.968-21.248-34.208l-6.112-94.592-94.624-6.112c-14.24-0.928-27.104-8.928-34.208-21.248s-7.648-27.488-1.28-40.224l41.984-85.024-78.88-52.608c-11.872-7.936-18.976-21.248-18.976-35.488s7.136-27.552 18.976-35.488l78.944-52.608-42.016-84.992c-6.304-12.8-5.856-27.904 1.28-40.224s19.968-20.352 34.208-21.248l94.624-6.112 6.112-94.624c0.896-14.208 8.864-27.040 21.248-34.176s27.392-7.648 40.224-1.312l84.992 42.016 52.608-78.88c7.936-11.872 21.248-18.976 35.488-18.976s27.552 7.136 35.488 18.976l52.608 78.88 84.96-42.016c12.768-6.304 27.872-5.792 40.224 1.28 12.384 7.136 20.352 19.968 21.248 34.208l6.112 94.592 94.688 6.144c14.24 0.896 27.104 8.864 34.208 21.248s7.648 27.488 1.28 40.224l-41.984 84.992 78.88 52.608c11.872 7.936 18.976 21.248 18.976 35.488s-7.136 27.616-18.976 35.488zM747.68 355.584l30.304-61.216-68.256-4.448c-21.408-1.408-38.432-18.432-39.84-39.84l-4.384-68.192-61.216 30.24c-19.2 9.568-42.496 3.296-54.4-14.592l-37.856-56.736-37.92 56.864c-8.16 12.256-21.664 18.976-35.552 18.976-6.368 0-12.8-1.408-18.848-4.448l-61.28-30.24-4.384 68.192c-1.376 21.376-18.432 38.432-39.84 39.84l-68.096 4.384 30.304 61.216c9.504 19.232 3.232 42.528-14.592 54.4l-56.864 37.92 56.832 37.888c17.824 11.904 24.064 35.2 14.592 54.4l-30.304 61.28 68.256 4.384c21.408 1.408 38.432 18.432 39.84 39.84l4.384 68.192 61.216-30.24c19.104-9.44 42.496-3.232 54.4 14.592l37.856 56.8 37.92-56.864c11.904-17.824 35.232-24.032 54.4-14.592l61.28 30.304 4.448-68.224c1.408-21.376 18.464-38.4 39.84-39.808l68.192-4.384-30.24-61.312c-9.504-19.232-3.232-42.496 14.592-54.4l56.832-37.888-56.864-37.92c-17.92-11.808-24.16-35.104-14.688-54.368z" />
<glyph unicode="&#xe937;" glyph-name="starburst-selected" d="M813.408 528.672l50.304 101.856c3.168 6.368 2.912 13.952-0.64 20.096s-9.984 10.144-17.12 10.624l-113.312 7.328-7.328 113.312c-0.48 7.136-4.448 13.536-10.624 17.12s-13.728 3.84-20.128 0.64l-101.76-50.336-63.008 94.496c-7.936 11.872-27.552 11.872-35.488 0l-63.008-94.496-101.76 50.336c-6.432 3.2-13.952 2.944-20.128-0.64s-10.144-9.984-10.624-17.12l-7.296-113.312-113.376-7.296c-7.136-0.48-13.568-4.448-17.12-10.624-3.584-6.176-3.808-13.728-0.64-20.128l50.304-101.792-94.464-63.008c-5.92-3.968-9.504-10.624-9.504-17.76s3.552-13.792 9.504-17.76l94.496-63.008-50.336-101.792c-3.168-6.4-2.912-13.952 0.64-20.128 3.552-6.144 9.984-10.144 17.12-10.592l113.312-7.296 7.296-113.376c0.48-7.136 4.448-13.536 10.624-17.12 6.144-3.552 13.664-3.744 20.128-0.64l101.792 50.304 63.008-94.464c3.968-5.92 10.624-9.504 17.76-9.504s13.792 3.552 17.76 9.504l63.008 94.464 101.792-50.304c6.4-3.104 13.952-2.912 20.128 0.64s10.144 9.984 10.624 17.12l7.296 113.312 113.312 7.328c7.136 0.48 13.536 4.448 17.12 10.624 3.552 6.176 3.808 13.728 0.64 20.128l-50.304 101.76 94.464 63.072c5.92 3.968 9.504 10.624 9.504 17.76s-3.552 13.792-9.504 17.76l-94.464 62.944z" />
<glyph unicode="&#xe938;" glyph-name="star-selected" d="M512 840.16l136-246.496 276.608-53.088-192.544-205.44 34.944-279.296-255.008 119.52-255.008-119.52 34.944 279.296-192.544 205.44 276.608 53.088 136 246.496z" />
<glyph unicode="&#xe939;" glyph-name="target" d="M512 96v0c-194.4 0-352 157.6-352 352s157.6 352 352 352c194.4 0 352-157.6 352-352s-157.6-352-352-352zM512 128c176.736 0 320 143.264 320 320s-143.264 320-320 320c-176.736 0-320-143.264-320-320s143.264-320 320-320v0zM512 224v0c-123.712 0-224 100.288-224 224s100.288 224 224 224c123.712 0 224-100.288 224-224s-100.288-224-224-224zM512 256c106.048 0 192 85.952 192 192s-85.952 192-192 192c-106.048 0-192-85.952-192-192s85.952-192 192-192v0zM512 352v0c-53.024 0-96 42.976-96 96s42.976 96 96 96c53.024 0 96-42.976 96-96s-42.976-96-96-96zM512 384c35.36 0 64 28.64 64 64s-28.64 64-64 64c-35.36 0-64-28.64-64-64s28.64-64 64-64v0z" />
<glyph unicode="&#xe93a;" glyph-name="target-selected" d="M512 96v0c-194.4 0-352 157.6-352 352s157.6 352 352 352c194.4 0 352-157.6 352-352s-157.6-352-352-352zM512 224c123.712 0 224 100.288 224 224s-100.288 224-224 224c-123.712 0-224-100.288-224-224s100.288-224 224-224v0zM512 256v0c-106.048 0-192 85.952-192 192s85.952 192 192 192c106.048 0 192-85.952 192-192s-85.952-192-192-192zM512 352c53.024 0 96 42.976 96 96s-42.976 96-96 96c-53.024 0-96-42.976-96-96s42.976-96 96-96v0zM512 384c35.36 0 64 28.64 64 64s-28.64 64-64 64c-35.36 0-64-28.64-64-64s28.64-64 64-64v0z" />
<glyph unicode="&#xe93b;" glyph-name="ten" d="M259.488 589.92l9.696-38.176 64.384 34.784h1.152v-323.712h48.448v370.464h-42.752zM641.888 639.488c-75.232 0-128.8-68.384-128.8-192.64 1.152-122.528 50.144-190.368 122.528-190.368 82.048 0 128.8 69.536 128.8 195.488 0 117.984-44.448 187.52-122.528 187.52zM638.464 295.264c-45.6 0-75.232 54.72-75.232 151.040 0 100.864 31.904 154.464 75.808 154.464 51.872 0 75.232-59.84 75.232-151.040 0-94.592-24.512-154.464-75.808-154.464zM511.904 960c-282.24 0-511.872-229.664-511.872-511.968s229.632-512.032 511.872-512.032c282.272 0 511.936 229.696 511.936 512.032s-229.664 511.968-511.968 511.968zM511.904-32.896c-265.12 0-480.768 215.744-480.768 480.928s215.68 480.864 480.768 480.864c265.12 0 480.832-215.712 480.832-480.864s-215.712-480.928-480.832-480.928z" />
<glyph unicode="&#xe93c;" glyph-name="ten-selected" d="M658.4 618.688c-43.872 0-75.808-53.568-75.808-154.464 0-96.32 29.632-151.040 75.232-151.040 51.296 0 75.808 59.84 75.808 154.464 0 91.2-23.36 151.040-75.232 151.040zM511.904 960c-282.24 0-511.872-229.664-511.872-511.968s229.632-512.032 511.872-512.032c282.272 0 511.936 229.696 511.936 512.032s-229.664 511.968-511.968 511.968zM402.528 280.704h-48.448v323.712h-1.152l-64.384-34.784-9.696 38.208 80.928 43.328h42.752v-370.464zM654.976 274.432c-72.384 0-121.376 67.808-122.528 190.368 0 124.256 53.568 192.64 128.8 192.64 78.080 0 122.528-69.536 122.528-187.52 0-125.952-46.72-195.488-128.8-195.488z" />
<glyph unicode="&#xe93d;" glyph-name="three" d="M538.4 480.768v1.152c45.6 16.544 68.384 49.024 68.384 87.2 0 45.024-33.056 88.352-106.016 88.352-39.872 0-77.504-14.24-96.896-28.512l13.12-36.48c15.968 11.392 44.448 24.512 74.080 24.512 46.176 0 64.96-26.208 64.96-55.872 0-43.872-46.176-62.688-82.624-62.688h-27.936v-37.632h27.936c48.448 0 95.168-22.24 95.744-74.080 0.576-30.784-19.36-71.808-83.776-71.808-34.752 0-67.808 14.24-82.048 23.36l-13.696-38.752c18.24-11.968 54.72-25.088 96.32-25.088 88.896 0 135.072 51.872 135.072 111.136 0 51.872-37.056 86.048-82.656 95.168zM511.872 960c-282.24 0-511.872-229.664-511.872-511.968s229.632-512.032 511.872-512.032c282.272 0 511.936 229.696 511.936 512.032s-229.664 511.968-511.968 511.968zM511.872-32.896c-265.12 0-480.768 215.744-480.768 480.928s215.68 480.864 480.768 480.864c265.12 0 480.832-215.712 480.832-480.864s-215.712-480.928-480.832-480.928z" />
<glyph unicode="&#xe93e;" glyph-name="three-selected" d="M511.904 960c-282.24 0-511.872-229.664-511.872-511.968s229.632-512.032 511.872-512.032c282.272 0 511.936 229.696 511.936 512.032s-229.664 511.968-511.968 511.968zM486.016 274.464c-41.6 0-78.080 13.12-96.32 25.088l13.696 38.752c14.24-9.12 47.296-23.36 82.048-23.36 64.384 0 84.352 41.024 83.776 71.808-0.576 51.872-47.296 74.080-95.744 74.080h-27.936v37.632h27.936c36.48 0 82.624 18.816 82.624 62.688 0 29.632-18.816 55.872-64.96 55.872-29.632 0-58.112-13.12-74.080-24.512l-13.12 36.48c19.36 14.24 56.992 28.512 96.896 28.512 72.96 0 106.016-43.296 106.016-88.352 0-38.176-22.784-70.688-68.384-87.2v-1.152c45.6-9.12 82.624-43.328 82.624-95.168 0-59.296-46.144-111.136-135.072-111.136z" />
<glyph unicode="&#xe93f;" glyph-name="thumb-down" d="M226.272 704q0 14.848-10.848 25.728t-25.728 10.848-25.728-10.848-10.848-25.728 10.848-25.728 25.728-10.848 25.728 10.848 10.848 25.728zM884.576 374.848q0 20-12.288 46.272t-30.56 26.848q8.576 9.728 14.272 27.136t5.728 31.712q0 39.424-30.272 68 10.272 18.272 10.272 39.424t-10.016 42.016-27.136 30.016q2.848 17.152 2.848 32 0 48.576-28 72t-77.728 23.424h-73.152q-74.848 0-195.424-41.728-2.848-1.152-16.576-6.016t-20.288-7.136-20-6.56-21.728-6.272-18.848-3.712-18.016-1.728h-18.272v-365.728h18.272q9.152 0 20.288-5.152t22.848-15.424 22.016-20.288 22.848-25.152 19.712-24.288 18.016-23.424 13.152-17.152q31.424-38.848 44-52 23.424-24.576 34.016-62.56t17.44-71.712 21.728-48.576q54.848 0 73.152 26.848t18.272 82.848q0 33.728-27.424 91.712t-27.424 91.136h201.152q28.576 0 50.848 22.016t22.272 51.136zM957.728 374.272q0-58.848-43.424-102.272t-102.848-43.424h-100.576q27.424-56.576 27.424-109.728 0-67.424-20-106.272-20-39.424-58.272-58.016t-86.272-18.56q-29.152 0-51.424 21.152-19.424 18.848-30.848 46.848t-14.56 51.712-10.016 48.288-17.728 36.576q-27.424 28.576-61.152 72.576-57.728 74.848-78.272 88.576h-156.576q-30.272 0-51.712 21.44t-21.44 51.712v365.728q0 30.272 21.44 51.712t51.712 21.44h164.576q12.576 0 78.848 22.848 73.152 25.152 127.424 37.728t114.272 12.576h64q80 0 129.44-45.152t48.864-123.424v-2.848q34.272-44 34.272-101.728 0-12.576-1.728-24.576 21.728-38.272 21.728-82.272 0-20.576-5.152-39.424 28-42.272 28-93.152z" />
<glyph unicode="&#xe940;" glyph-name="thumb-down-selected" d="M194.272 630.848q0-14.848-10.848-25.728t-25.728-10.848q-15.424 0-26.016 10.848t-10.56 25.728q0 15.424 10.56 26.016t26.016 10.56q14.848 0 25.728-10.56t10.848-26.016zM285.728 338.272v365.728q0 14.848-10.848 25.728t-25.728 10.848h-164.576q-14.848 0-25.728-10.848t-10.848-25.728v-365.728q0-14.848 10.848-25.728t25.728-10.848h164.576q14.848 0 25.728 10.848t10.848 25.728zM930.848 423.424q31.424-34.848 31.424-85.152-0.576-44.576-32.864-77.152t-76.864-32.576h-158.272q2.272-8 4.576-13.728t6.272-12.576 5.728-10.272q10.272-21.152 15.424-32.576t10.848-33.44 5.728-43.712q0-13.728-0.288-22.272t-2.848-25.728-6.848-28.576-13.728-25.728-22.848-23.136-34.272-14.848-47.136-6.016q-14.848 0-25.728 10.848-11.424 11.424-19.424 28.576t-11.136 29.728-7.136 34.848q-5.152 24-7.712 34.56t-10.016 27.712-17.728 27.424q-18.848 18.848-57.728 68.576-28 36.576-57.728 69.152t-43.424 33.728q-14.272 1.152-24.576 11.712t-10.272 24.864v366.272q0 14.848 10.848 25.44t25.728 11.136q20 0.576 90.272 25.152 44 14.848 68.864 22.56t69.44 16.576 82.272 8.864h73.728q76-1.152 112.576-44.576 33.152-39.424 28-103.424 22.272-21.152 30.848-53.728 9.728-34.848 0-66.848 26.272-34.848 24.576-78.272 0-18.272-8.576-43.424z" />
<glyph unicode="&#xe941;" glyph-name="thumb-up" d="M226.272 192q0 14.848-10.848 25.728t-25.728 10.848-25.728-10.848-10.848-25.728 10.848-25.728 25.728-10.848 25.728 10.848 10.848 25.728zM884.576 521.152q0 29.152-22.272 51.136t-50.848 22.016h-201.152q0 33.152 27.424 91.136t27.424 91.712q0 56-18.272 82.848t-73.152 26.848q-14.848-14.848-21.728-48.576t-17.44-71.712-34.016-62.56q-12.576-13.152-44-52-2.272-2.848-13.152-17.152t-18.016-23.424-19.712-24.288-22.848-25.152-22.016-20.288-22.848-15.424-20.288-5.152h-18.272v-365.728h18.272q7.424 0 18.016-1.728t18.848-3.712 21.728-6.272 20-6.56 20.288-7.136 16.576-6.016q120.576-41.728 195.424-41.728h69.152q109.728 0 109.728 95.424 0 14.848-2.848 32 17.152 9.152 27.136 30.016t10.016 42.016-10.272 39.424q30.272 28.576 30.272 68 0 14.272-5.728 31.712t-14.272 27.136q18.272 0.576 30.56 26.848t12.288 46.272zM957.728 521.728q0-50.848-28-93.152 5.152-18.848 5.152-39.424 0-44-21.728-82.272 1.728-12 1.728-24.576 0-57.728-34.272-101.728 0.576-79.424-48.576-125.44t-129.728-46.016h-73.728q-54.848 0-108.288 12.864t-123.712 37.44q-66.272 22.848-78.848 22.848h-164.576q-30.272 0-51.712 21.44t-21.44 51.712v365.728q0 30.272 21.44 51.712t51.712 21.44h156.576q20.576 13.728 78.272 88.576 33.152 42.848 61.152 73.152 13.728 14.272 20.288 48.864t17.44 72.288 35.424 61.728q22.272 21.152 51.424 21.152 48 0 86.272-18.56t58.272-58.016 20-106.272q0-53.152-27.424-109.728h100.576q59.424 0 102.848-43.424t43.424-102.272z" />
<glyph unicode="&#xe942;" glyph-name="thumb-up-selected" d="M194.272 192q0 14.848-10.848 25.728t-25.728 10.848q-15.424 0-26.016-10.848t-10.56-25.728q0-15.424 10.56-26.016t26.016-10.56q14.848 0 25.728 10.56t10.848 26.016zM285.728 484.576v-365.728q0-14.848-10.848-25.728t-25.728-10.848h-164.576q-14.848 0-25.728 10.848t-10.848 25.728v365.728q0 14.848 10.848 25.728t25.728 10.848h164.576q14.848 0 25.728-10.848t10.848-25.728zM962.272 484.576q0-49.152-31.424-85.152 8.576-25.152 8.576-43.424 1.728-43.424-24.576-78.272 9.728-32 0-66.848-8.576-32.576-30.848-53.728 5.152-64-28-103.424-36.576-43.424-112.576-44.576h-73.728q-37.728 0-82.272 8.864t-69.44 16.576-68.864 22.56q-70.272 24.576-90.272 25.152-14.848 0.576-25.728 11.136t-10.848 25.44v366.272q0 14.272 10.272 24.864t24.576 11.712q13.728 1.152 43.424 33.728t57.728 69.152q38.848 49.728 57.728 68.576 10.272 10.272 17.728 27.424t10.016 27.712 7.712 34.56q4 22.272 7.136 34.848t11.136 29.728 19.424 28.576q10.848 10.848 25.728 10.848 26.272 0 47.136-6.016t34.272-14.848 22.848-23.136 13.728-25.728 6.848-28.576 2.848-25.728 0.288-22.272q0-21.728-5.44-43.424t-10.848-34.272-15.712-32q-1.728-3.424-5.728-10.272t-6.272-12.576-4.576-13.728h158.272q44.576 0 77.152-32.576t32.576-77.152z" />
<glyph unicode="&#xe943;" glyph-name="tick" d="M319.136 480.96l119.008-230.496c0 0 193.376 468.416 498.272 624.544-7.424-111.52-37.184-208.192 14.88-327.136-133.856-29.728-409.024-364.32-498.272-527.904-126.432 156.128-275.168 275.104-379.296 312.288l245.408 148.704z" />
<glyph unicode="&#xe944;" glyph-name="two" d="M461.472 323.456l29.632 27.36c78.080 75.232 127.648 130.528 127.648 198.912 0 52.992-33.632 107.712-113.408 107.712-42.752 0-79.2-15.968-104.864-37.632l15.968-35.328c17.088 14.24 45.024 31.36 78.624 31.36 55.296 0 73.504-34.784 73.504-72.384-0.576-55.84-43.296-103.712-137.92-193.792l-39.328-38.176v-30.784h236.512v41.6h-166.4v1.152zM511.872 960c-282.24 0-511.872-229.664-511.872-511.968s229.632-512.032 511.872-512.032c282.272 0 511.936 229.696 511.936 512.032s-229.664 511.968-511.968 511.968zM511.872-32.896c-265.12 0-480.768 215.744-480.768 480.928s215.68 480.864 480.768 480.864c265.12 0 480.832-215.712 480.832-480.864s-215.712-480.928-480.832-480.928z" />
<glyph unicode="&#xe945;" glyph-name="two-selected" d="M511.904 960c-282.24 0-511.872-229.664-511.872-511.968s229.632-512.032 511.872-512.032c282.272 0 511.936 229.696 511.936 512.032s-229.664 511.968-511.968 511.968zM627.904 280.736h-236.512v30.784l39.328 38.176c94.592 90.048 137.344 137.92 137.92 193.792 0 37.632-18.24 72.384-73.504 72.384-33.632 0-61.536-17.088-78.624-31.36l-15.968 35.328c25.632 21.664 62.112 37.632 104.864 37.632 79.776 0 113.408-54.72 113.408-107.712 0-68.384-49.568-123.68-127.648-198.912l-29.632-27.36v-1.152h166.4v-41.6z" />
<glyph unicode="&#xe946;" glyph-name="zero" d="M515.040 657.44c-75.232 0-128.8-68.384-128.8-192.64 1.152-122.528 50.144-190.368 122.528-190.368 82.048 0 128.8 69.536 128.8 195.488 0 117.984-44.448 187.52-122.528 187.52zM511.616 313.216c-45.6 0-75.232 54.72-75.232 151.040 0 100.864 31.936 154.464 75.808 154.464 51.872 0 75.232-59.84 75.232-151.040 0-94.592-24.512-154.464-75.808-154.464zM511.872 960c-282.24 0-511.872-229.664-511.872-511.968s229.632-512.032 511.872-512.032c282.272 0 511.936 229.696 511.936 512.032s-229.664 511.968-511.968 511.968zM511.872-32.896c-265.12 0-480.768 215.744-480.768 480.928s215.68 480.864 480.768 480.864c265.12 0 480.832-215.712 480.832-480.864s-215.712-480.928-480.832-480.928z" />
<glyph unicode="&#xe947;" glyph-name="zero-selected" d="M512.224 618.688c-43.872 0-75.808-53.568-75.808-154.464 0-96.32 29.632-151.040 75.232-151.040 51.296 0 75.808 59.84 75.808 154.464 0 91.2-23.36 151.040-75.232 151.040zM511.904 960c-282.24 0-511.872-229.664-511.872-511.968s229.632-512.032 511.872-512.032c282.272 0 511.936 229.696 511.936 512.032s-229.664 511.968-511.968 511.968zM508.8 274.464c-72.384 0-121.376 67.808-122.528 190.368 0 124.256 53.568 192.64 128.8 192.64 78.080 0 122.528-69.536 122.528-187.52 0-125.952-46.752-195.488-128.8-195.488z" />
<glyph unicode="&#xe948;" glyph-name="bold-0" d="M512 959.872c-282.24 0-511.872-229.632-511.872-511.872s229.632-511.872 511.872-511.872 511.872 229.632 511.872 511.872-229.632 511.872-511.872 511.872zM512 0.128c-246.944 0-447.872 200.896-447.872 447.872s200.928 447.872 447.872 447.872c247.008 0 447.872-200.896 447.872-447.872s-200.864-447.872-447.872-447.872zM512 664.064c-99.008 0-145.824-68.16-145.824-215.776 0-147.584 46.816-216.352 145.824-216.352s145.888 68.736 145.888 216.352-46.88 215.776-145.888 215.776zM512 298.304c-47.36 0-60.512 41.504-60.512 149.984s13.12 149.376 60.512 149.376c47.424 0 60.512-40.896 60.512-149.376s-13.088-149.984-60.512-149.984z" />
<glyph unicode="&#xe949;" glyph-name="bold-0-selected" d="M512 597.664c-47.392 0-60.512-40.896-60.512-149.376s13.152-149.984 60.512-149.984c47.424 0 60.512 41.504 60.512 149.984s-13.088 149.376-60.512 149.376zM512 959.872c-282.24 0-511.872-229.632-511.872-511.872s229.632-511.872 511.872-511.872c282.24 0 511.872 229.632 511.872 511.872s-229.632 511.872-511.872 511.872zM512 231.936c-99.008 0-145.824 68.736-145.824 216.352s46.816 215.776 145.824 215.776c99.008 0 145.888-68.16 145.888-215.776s-46.88-216.352-145.888-216.352z" />
<glyph unicode="&#xe94a;" glyph-name="bold-1" d="M512 960c-282.311 0-512-229.689-512-512s229.689-512 512-512 512 229.689 512 512-229.689 512-512 512zM512 0.016c-247.038 0-447.984 200.946-447.984 447.984s200.946 447.984 447.984 447.984 447.984-200.946 447.984-447.984-200.946-447.984-447.984-447.984zM432.268 585.538h-11.843v-58.063h100.185v-289.96h82.997v420.969h-68.145c-1.792-31.432-23.142-72.946-103.194-72.946z" />
<glyph unicode="&#xe94b;" glyph-name="bold-1-selected" d="M512 960c-282.311 0-512-229.689-512-512s229.689-512 512-512 512 229.689 512 512c0 282.311-229.689 512-512 512zM603.575 237.515h-82.965v289.96h-100.185v58.063h11.843c80.052 0 101.401 41.514 103.194 72.946h68.145v-420.969z" />
<glyph unicode="&#xe94c;" glyph-name="bold-2" d="M512 960c-282.311 0-512-229.689-512-512s229.689-512 512-512 512 229.689 512 512-229.689 512-512 512zM512 0.016c-247.038 0-447.984 200.946-447.984 447.984s200.946 447.984 447.984 447.984 447.984-200.946 447.984-447.984-200.946-447.984-447.984-447.984zM567.47 388.753c40.938 27.879 87.766 64.624 87.766 136.93 0 85.365-64.080 132.801-144.676 132.801-37.385 0-137.634-11.875-137.634-148.805h80.692c0.672 30.856 2.433 78.868 60.559 78.868 40.234 0 58.031-32.008 58.031-59.887 0-47.404-30.216-68.753-106.107-123.903-91.319-66.449-94.84-118.046-97.88-167.242h287.56v73.522h-182.606c9.506 19.621 38.57 38.57 94.296 77.715z" />
<glyph unicode="&#xe94d;" glyph-name="bold-2-selected" d="M512 960c-282.311 0-512-229.689-512-512s229.689-512 512-512 512 229.689 512 512c0 282.311-229.689 512-512 512zM655.78 237.515h-287.56c3.041 49.196 6.562 100.793 97.88 167.242 75.923 55.182 106.107 76.531 106.107 123.935 0 27.879-17.828 59.887-58.031 59.887-58.127 0-59.887-48.012-60.559-78.868h-80.692c0 136.93 100.249 148.805 137.634 148.805 80.596 0 144.676-47.436 144.676-132.801 0-72.306-46.828-109.083-87.766-136.962-55.726-39.146-84.757-58.063-94.264-77.715h182.606v-73.522z" />
<glyph unicode="&#xe94e;" glyph-name="bold-3" d="M512 960c-282.311 0-512-229.689-512-512s229.689-512 512-512 512 229.689 512 512-229.689 512-512 512zM512 0.016c-247.038 0-447.984 200.946-447.984 447.984s200.946 447.984 447.984 447.984 447.984-200.946 447.984-447.984-200.946-447.984-447.984-447.984zM593.524 465.444v1.184c23.75 10.691 50.445 37.385 50.445 80.084 0 88.886-74.131 117.405-130.465 117.405-94.904 0-139.363-56.334-139.363-135.234h77.075c0 14.82 0 68.753 56.878 68.753 45.643 0 52.749-38.57 52.749-53.965 0-54.574-45.675-56.942-70.546-56.942h-13.027v-59.279c38.57 0 94.264-2.369 94.264-59.887 0-46.828-28.999-69.329-62.192-69.329-55.758 0-61.711 50.957-61.711 73.522l0.64 0.608h-81.268c0-131.649 106.779-140.515 146.469-140.515 84.757 0 143.46 56.334 143.46 135.714 0.032 71.826-48.588 93.751-63.408 97.88z" />
<glyph unicode="&#xe94f;" glyph-name="bold-3-selected" d="M512 960c-282.311 0-512-229.689-512-512s229.689-512 512-512 512 229.689 512 512c0 282.311-229.689 512-512 512zM513.472 231.85c-39.69 0-146.469 8.834-146.469 140.515h81.268l-0.64-0.608c0-22.566 5.953-73.522 61.711-73.522 33.192 0 62.16 22.47 62.16 69.329 0 57.518-55.662 59.855-94.232 59.855v59.311h13.027c24.87 0 70.546 2.369 70.546 56.942 0 15.396-7.106 53.965-52.717 53.965-56.878 0-56.878-53.933-56.878-68.753h-77.075c0 78.9 44.459 135.234 139.363 135.234 56.334 0 130.465-28.519 130.465-117.405 0-42.699-26.695-69.393-50.445-80.084v-1.184c14.82-4.129 63.44-26.055 63.376-97.912-0.032-79.316-58.735-135.682-143.46-135.682z" />
<glyph unicode="&#xe950;" glyph-name="bold-4" d="M512 960c-282.311 0-512-229.689-512-512s229.689-512 512-512 512 229.689 512 512-229.689 512-512 512zM512 0.016c-247.070 0-447.984 200.946-447.984 447.984s200.914 447.984 447.984 447.984c247.006 0 447.984-200.946 447.984-447.984s-200.978-447.984-447.984-447.984zM613.017 658.485h-94.264l-154.727-256.192v-71.698h165.993v-93.079h83.029v93.079h46.892v64.656h-46.892v263.234zM530.021 395.219h-104.89l105.53 180.813h1.184c-0.032-12.995-1.824-78.804-1.824-180.813z" />
<glyph unicode="&#xe951;" glyph-name="bold-4-selected" d="M512 960c-282.311 0-512-229.689-512-512s229.689-512 512-512 512 229.689 512 512c0 282.311-229.689 512-512 512zM659.973 330.595h-46.956v-93.079h-83.029v93.079h-165.961v71.698l154.727 256.192h94.264v-263.266h46.956v-64.624zM425.162 395.219h104.858c0 102.010 1.824 167.818 1.888 180.781h-1.216l-105.53-180.781z" />
<glyph unicode="&#xe952;" glyph-name="bold-5" d="M512 960c-282.311 0-512-229.689-512-512s229.689-512 512-512 512 229.689 512 512-229.689 512-512 512zM512 0.016c-247.038 0-447.984 200.946-447.984 447.984s200.946 447.984 447.984 447.984 447.984-200.946 447.984-447.984-200.946-447.984-447.984-447.984zM529.508 522.355c-40.938 0-59.951-12.451-75.347-23.11l14.852 91.351h171.371v69.969h-231.258l-29.063-231.258 74.099-3.553c16.004 29.639 44.427 30.248 55.726 30.248 43.819 0 61.647-37.993 61.647-75.347 0-45.067-23.142-78.9-62.832-78.9-36.745 0-55.15 23.174-58.703 57.55h-83.029c4.161-84.725 71.122-123.903 136.962-123.903 123.903 0 152.934 93.687 152.934 151.206 0.064 96.632-71.026 135.746-127.36 135.746z" />
<glyph unicode="&#xe953;" glyph-name="bold-5-selected" d="M512 960c-282.311 0-512-229.689-512-512s229.689-512 512-512 512 229.689 512 512c0 282.311-229.689 512-512 512zM503.934 235.371c-65.84 0-132.801 39.21-136.962 123.903h83.029c3.553-34.345 21.957-57.518 58.703-57.518 39.69 0 62.8 33.832 62.8 78.9 0 37.321-17.828 75.347-61.615 75.347-11.299 0-39.722-0.608-55.726-30.248l-74.099 3.553 29.063 231.258h231.258v-69.969h-171.371l-14.852-91.351c15.396 10.659 34.409 23.11 75.347 23.11 56.334 0 127.392-39.114 127.36-135.746-0.032-57.518-29.031-151.238-152.934-151.238z" />
<glyph unicode="&#xe954;" glyph-name="bold-6" d="M512 960c-282.311 0-512-229.689-512-512s229.689-512 512-512 512 229.689 512 512-229.689 512-512 512zM512 0.016c-247.038 0-447.984 200.946-447.984 447.984s200.946 447.984 447.984 447.984 447.984-200.946 447.984-447.984-200.946-447.984-447.984-447.984zM528.26 515.345c-46.828 0-67.569-19.589-78.836-34.985l-1.184 1.12c2.977 54.574 15.364 116.221 69.329 116.221 30.824 0 46.316-16.58 48.684-40.33h82.421c-7.714 44.491-16.004 56.91-39.146 79.444-20.773 20.741-68.785 27.335-86.006 27.335-145.892 0-156.583-140.579-156.583-220.631 0-104.89 24.934-211.605 152.422-211.605 81.236 0 137.57 61.647 137.57 153.542 0 62.864-41.482 129.888-128.672 129.888zM515.873 298.331c-39.754 0-65.84 32.584-65.84 78.196 0 52.813 32.008 72.37 63.376 72.37 26.087 0 60.495-17.156 60.527-70.546 0.032-56.878-27.815-80.020-58.063-80.020z" />
<glyph unicode="&#xe955;" glyph-name="bold-6-selected" d="M513.408 448.896c-31.368 0-63.376-19.557-63.376-72.338 0-45.643 26.087-78.196 65.84-78.196 30.248 0 58.063 23.142 58.063 80.020-0.032 53.357-34.441 70.514-60.527 70.514zM512 960c-282.311 0-512-229.689-512-512s229.689-512 512-512 512 229.689 512 512c0 282.311-229.689 512-512 512zM519.362 231.914c-127.488 0-152.422 106.715-152.422 211.605 0 80.052 10.691 220.631 156.583 220.631 17.252 0 65.264-6.594 86.006-27.335 23.142-22.534 31.432-34.953 39.146-79.444h-82.389c-2.369 23.75-17.892 40.33-48.684 40.33-53.965 0-66.353-61.647-69.329-116.221l1.184-1.12c11.267 15.396 32.008 34.985 78.836 34.985 87.222 0 128.672-67.025 128.672-129.888-0.064-91.863-56.366-153.542-137.602-153.542z" />
<glyph unicode="&#xe956;" glyph-name="bold-7" d="M512 960c-282.311 0-512-229.689-512-512s229.689-512 512-512 512 229.689 512 512-229.689 512-512 512zM512 0.016c-247.038 0-447.984 200.946-447.984 447.984s200.946 447.984 447.984 447.984 447.984-200.946 447.984-447.984-200.946-447.984-447.984-447.984zM362.843 573.887h209.3c-35.561-37.961-141.091-171.979-150.054-340.341h85.397c10.051 181.421 113.276 305.964 153.606 349.847h0.032v64.016h-296.522l-1.76-73.522z" />
<glyph unicode="&#xe957;" glyph-name="bold-7-selected" d="M512 960c-282.311 0-512-229.689-512-512s229.689-512 512-512 512 229.689 512 512c0 282.311-229.689 512-512 512zM661.093 583.394c-40.33-43.883-143.556-168.394-153.606-349.815h-85.397c8.962 168.362 114.493 302.348 150.054 340.309h-209.3l1.76 73.522h296.49v-64.016z" />
<glyph unicode="&#xe958;" glyph-name="bold-8" d="M512 960c-282.311 0-512-229.689-512-512s229.689-512 512-512 512 229.689 512 512-229.689 512-512 512zM512 0.016c-247.038 0-447.984 200.946-447.984 447.984s200.946 447.984 447.984 447.984 447.984-200.946 447.984-447.984-200.946-447.984-447.984-447.984zM594.965 469.637c33.8 17.764 48.62 48.652 48.62 84.757 0 58.127-46.22 109.723-133.409 109.723-73.522 0-131.073-43.339-131.073-115.037 0-39.146 17.828-65.84 51.053-82.453-64.048-29.639-64.048-85.333-64.048-106.715 0-57.518 37.353-128.032 145.86-128.032 111.452 0 145.86 82.965 145.86 136.354-0.032 54.574-22.534 81.204-62.864 101.401zM515.489 597.669c26.695 0 48.652-20.133 48.652-52.141 0-30.184-18.949-52.205-51.565-52.205-35.593 0-53.965 27.271-53.965 52.205 0 30.824 19.525 52.141 56.878 52.141zM512.544 298.267c-37.929 0-61.071 26.695-61.071 67.025 0 45.643 29.095 65.2 59.311 65.2 46.252 0 61.647-36.137 61.647-65.776-0.032-29.063-16.612-66.449-59.887-66.449z" />
<glyph unicode="&#xe959;" glyph-name="bold-8-selected" d="M510.784 430.492c-30.216 0-59.311-19.557-59.311-65.2 0-40.33 23.142-67.025 61.071-67.025 43.275 0 59.855 37.385 59.887 66.449 0 29.639-15.428 65.776-61.647 65.776zM512.576 493.323c32.616 0 51.565 22.022 51.565 52.205 0 32.008-21.957 52.141-48.652 52.141-37.353 0-56.878-21.317-56.878-52.141 0-24.934 18.373-52.205 53.965-52.205zM512 960c-282.311 0-512-229.689-512-512s229.689-512 512-512 512 229.689 512 512c0 282.311-229.689 512-512 512zM511.968 231.882c-108.507 0-145.86 70.514-145.86 128.032 0 21.381 0 77.075 64.048 106.715-33.224 16.612-51.053 43.307-51.053 82.453 0 71.698 57.55 115.037 131.073 115.037 87.19 0 133.409-51.597 133.409-109.723 0-36.105-14.82-66.993-48.652-84.757 40.33-20.197 62.832-46.828 62.864-101.401 0.032-53.389-34.377-136.354-145.828-136.354z" />
<glyph unicode="&#xe95a;" glyph-name="bold-9" d="M512 960c-282.311 0-512-229.689-512-512s229.689-512 512-512 512 229.689 512 512-229.689 512-512 512zM512 0.016c-247.038 0-447.984 200.946-447.984 447.984s200.946 447.984 447.984 447.984 447.984-200.946 447.984-447.984-200.946-447.984-447.984-447.984zM509.631 664.118c-82.421 0-143.492-48.076-143.492-151.238 0-70.578 46.828-131.585 127.424-131.585 28.519 0 61.071 7.074 80.084 35.497l1.184-1.184c-0.64-88.342-35.017-117.405-69.393-117.405-25.51 0-43.883 12.515-48.652 41.514v0.64h-82.325c7.074-67.025 58.703-108.475 130.401-108.475 75.891 0 152.966 52.685 152.966 215.734 0.032 59.343-2.337 216.502-148.197 216.502zM511.36 447.616c-31.4 0-62.224 13.699-62.224 77.075 0 60.527 38.538 71.218 59.887 71.218 42.667 0 63.376-29.703 63.376-77.715 0-49.804-32.008-70.578-61.039-70.578z" />
<glyph unicode="&#xe95b;" glyph-name="bold-9-selected" d="M512 960c-282.311 0-512-229.689-512-512s229.689-512 512-512 512 229.689 512 512c0 282.311-229.689 512-512 512zM504.862 231.882c-71.698 0-123.327 41.45-130.401 108.475h82.325v-0.64c4.769-28.999 23.142-41.514 48.652-41.514 34.377 0 68.753 29.063 69.393 117.405l-1.184 1.184c-19.013-28.455-51.565-35.497-80.084-35.497-80.596 0-127.424 61.007-127.424 131.585 0 103.162 61.071 151.238 143.492 151.238 145.86 0 148.229-157.159 148.197-216.502 0-163.049-77.043-215.734-152.966-215.734zM509.023 595.909c-21.349 0-59.887-10.691-59.887-71.218 0-63.376 30.824-77.075 62.224-77.075 29.031 0 61.039 20.773 61.039 70.578 0 48.012-20.709 77.715-63.376 77.715z" />
<glyph unicode="&#xe95c;" glyph-name="bold-10" d="M512 960c-282.311 0-512-229.689-512-512s229.689-512 512-512 512 229.689 512 512-229.689 512-512 512zM512 0.016c-247.038 0-447.984 200.946-447.984 447.984s200.946 447.984 447.984 447.984 447.984-200.946 447.984-447.984-200.946-447.984-447.984-447.984zM224.12 591.236h-11.875v-58.127h100.249v-289.96h82.997v420.969h-68.177c-1.792-31.464-23.174-72.882-103.194-72.882zM665.734 664.118c-98.969 0-145.86-68.209-145.86-215.798 0-147.653 46.892-216.438 145.86-216.438 99.065 0 145.924 68.753 145.924 216.438-0.032 147.589-46.86 215.798-145.924 215.798zM665.734 298.267c-47.372 0-60.463 41.514-60.463 150.054 0 108.475 13.059 149.413 60.463 149.413 47.5 0 60.527-40.938 60.527-149.413-0.032-108.539-13.091-150.054-60.527-150.054z" />
<glyph unicode="&#xe95d;" glyph-name="bold-10-selected" d="M512 960c-282.311 0-512-229.689-512-512s229.689-512 512-512 512 229.689 512 512c0 282.311-229.689 512-512 512zM395.491 243.149h-82.997v289.992h-100.249v58.127h11.875c80.020 0 101.401 41.418 103.194 72.882h68.177v-421.001zM665.734 231.882c-98.969 0-145.86 68.753-145.86 216.438 0 147.589 46.892 215.798 145.86 215.798 99.097 0 145.924-68.209 145.924-215.798-0.032-147.685-46.828-216.438-145.924-216.438zM665.734 597.733c-47.372 0-60.463-40.938-60.463-149.413 0-108.539 13.059-150.054 60.463-150.054 47.436 0 60.527 41.514 60.527 150.054-0.032 108.475-13.027 149.413-60.527 149.413z" />
<glyph unicode="&#xe95e;" glyph-name="bold-angry" d="M512 960c-282.311 0-512-229.689-512-512s229.689-512 512-512 512 229.689 512 512-229.689 512-512 512zM512 0.016c-247.038 0-447.984 200.946-447.984 447.984s200.946 447.984 447.984 447.984 447.984-200.946 447.984-447.984-200.946-447.984-447.984-447.984zM707.447 725.008l17.94-26.506-108.038-73.125-17.94 26.506 108.038 73.125zM316.562 724.961l107.998-73.147-17.95-26.503-107.998 73.147 17.95 26.503zM387.649 517.457c0-37.688-30.553-68.241-68.241-68.241s-68.241 30.553-68.241 68.241c0 37.688 30.553 68.241 68.241 68.241s68.241-30.553 68.241-68.241zM772.865 517.457c0-37.688-30.553-68.241-68.241-68.241s-68.241 30.553-68.241 68.241c0 37.688 30.553 68.241 68.241 68.241s68.241-30.553 68.241-68.241zM512.448 297.946c-186.351 0-242.525-94.84-227.449-118.654 15.108-23.686 51.821 11.011 227.033 11.139 175.18-0.128 211.861-34.825 227.001-11.139 15.14 23.846-40.234 118.654-226.585 118.654z" />
<glyph unicode="&#xe95f;" glyph-name="bold-angry-selected" d="M512 960c-282.311 0-512-229.689-512-512s229.689-512 512-512 512 229.689 512 512-229.689 512-512 512zM707.473 724.965l17.956-26.503-108.027-73.138-17.956 26.503 108.027 73.138zM316.559 724.965l107.995-73.138-17.956-26.503-107.995 73.138 17.956 26.503zM251.167 517.457c0 37.673 30.536 68.241 68.241 68.241 37.673 0 68.241-30.568 68.241-68.241 0-37.737-30.568-68.241-68.241-68.241-37.705 0-68.241 30.568-68.241 68.241zM739.001 179.293c-15.14-23.686-51.821 11.011-227.001 11.139-175.212-0.128-211.925-34.825-227.033-11.139-15.076 23.814 41.098 118.654 227.449 118.654s241.756-94.808 226.585-118.654zM704.624 449.216c-37.705 0-68.273 30.568-68.273 68.241s30.568 68.241 68.273 68.241c37.673 0 68.241-30.568 68.241-68.241 0-37.737-30.6-68.241-68.241-68.241z" />
<glyph unicode="&#xe960;" glyph-name="bold-baffled" d="M512 960c-282.311 0-512-229.689-512-512s229.689-512 512-512 512 229.689 512 512-229.689 512-512 512zM512 0.016c-247.006 0-447.984 200.946-447.984 447.984s200.978 447.984 447.984 447.984c247.070 0 447.984-200.946 447.984-447.984s-200.914-447.984-447.984-447.984zM524.515 321.6c-140.547 0-177.484-71.858-166.090-95.672 11.363-23.718 8.13-38.442 140.291-38.346 132.161-0.096 154.055 1.12 165.481 24.838 11.395 23.782 0.896 109.179-139.683 109.179zM372.573 519.762c0-37.706-27.815-68.273-62.128-68.273s-62.128 30.567-62.128 68.273c0 37.706 27.815 68.273 62.128 68.273s62.128-30.567 62.128-68.273zM775.746 519.762c0-37.706-27.815-68.273-62.128-68.273s-62.128 30.567-62.128 68.273c0 37.706 27.815 68.273 62.128 68.273s62.128-30.567 62.128-68.273zM685.483 658.517c21.957 16.932 42.891 44.779 43.755 45.963l-25.638 19.205c-0.192-0.256-19.269-25.574-37.705-39.818-14.884-11.459-49.932-23.846-62.16-27.623l9.442-30.568c5.057 1.536 50.189 15.748 72.306 32.84zM338.549 658.517c22.086-17.092 67.281-31.336 72.338-32.872l9.442 30.568c-12.259 3.777-47.34 16.164-62.192 27.623-18.501 14.244-37.545 39.562-37.737 39.818l-25.638-19.205c0.864-1.152 21.829-28.999 43.787-45.931z" />
<glyph unicode="&#xe961;" glyph-name="bold-baffled-selected" d="M512 960c-282.311 0-512-229.689-512-512s229.689-512 512-512 512 229.689 512 512-229.689 512-512 512zM665.926 683.835c18.437 14.244 37.513 39.562 37.705 39.818l25.638-19.205c-0.864-1.152-21.829-28.999-43.755-45.963-22.118-17.092-67.249-31.336-72.306-32.872l-9.442 30.568c12.227 3.809 47.276 16.196 62.16 27.655zM320.4 723.653c0.192-0.256 19.237-25.574 37.737-39.818 14.852-11.459 49.964-23.846 62.192-27.623l-9.442-30.568c-5.057 1.568-50.221 15.78-72.338 32.872-21.957 16.932-42.923 44.779-43.787 45.963l25.638 19.173zM310.446 451.489c-34.249 0-62.128 30.568-62.128 68.273s27.879 68.273 62.128 68.273 62.128-30.632 62.128-68.273c0.032-37.705-27.847-68.273-62.128-68.273zM664.166 212.421c-11.427-23.718-33.32-24.934-165.481-24.838-132.161-0.096-128.896 14.628-140.291 38.346-11.363 23.814 25.574 95.672 166.090 95.672 140.611 0 151.11-85.397 139.683-109.179zM713.618 451.489c-34.313 0-62.128 30.568-62.128 68.273s27.815 68.273 62.128 68.273c34.249 0 62.096-30.632 62.096-68.273 0-37.705-27.847-68.273-62.096-68.273z" />
<glyph unicode="&#xe962;" glyph-name="bold-circle" d="M512 960c-282.311 0-512-229.689-512-512 0-282.343 229.689-512.032 512-512.032s512 229.689 512 512.032c0 282.311-229.689 512-512 512zM512-0.016c-247.038 0-447.984 201.010-447.984 448.016s200.946 447.984 447.984 447.984 447.984-200.978 447.984-447.984-200.946-448.016-447.984-448.016z" />
<glyph unicode="&#xe963;" glyph-name="bold-circle-selected" d="M512 960c-282.311 0-512-229.657-512-512s229.689-512.032 512-512.032 512 229.689 512 512.032c0 282.343-229.689 512-512 512zM512-0.016c-247.038 0-447.984 201.010-447.984 448.016 0 247.038 200.946 447.984 447.984 447.984s447.984-200.978 447.984-447.984c0-247.006-200.946-448.016-447.984-448.016zM512 798.424c-193.232 0-350.392-157.191-350.392-350.392s157.191-350.424 350.392-350.424c193.2 0 350.392 157.223 350.392 350.424s-157.191 350.392-350.392 350.392z" />
<glyph unicode="&#xe964;" glyph-name="bold-comment" horiz-adv-x="1195" d="M597.259 839.578c-82.87 0-160.327-14.11-232.408-42.331s-129.344-66.296-171.824-114.188c-42.405-47.93-63.645-99.705-63.645-155.362 0-45.504 14.521-88.842 43.563-130.053 29.042-41.248 69.954-76.897 122.737-106.947l53.007-30.423c0 0-12.729-76.934-134.047-230.915 61.704 25.607 192.541 127.963 242.524 171.861l26.205 23.106 34.716-3.658c27.997-3.21 54.425-4.89 79.174-4.89 82.87 0 160.327 14.11 232.408 42.368 72.082 28.183 129.344 66.296 171.787 114.226 42.48 47.893 63.683 99.668 63.645 155.362-0.037 55.657-21.203 107.432-63.645 155.362-42.405 47.93-99.668 86.005-171.787 114.226-72.156 28.183-149.613 42.293-232.408 42.256v0zM1194.517 533.259c0-77.308-26.69-148.717-79.995-214.304-53.38-65.549-125.76-117.361-217.29-155.325s-191.533-57.038-299.973-57.038c-31.095 0-63.309 1.829-96.644 5.375-87.984-77.756-190.227-131.509-306.618-161.297-21.763-6.197-47.109-11.087-76.001-14.67h-3.322c-6.645 0-12.654 2.352-17.992 7.018-5.338 4.703-8.884 10.788-10.676 18.366v0.672c-1.344 1.754-1.456 4.442-0.336 7.988s1.568 5.786 1.344 6.682 0.784 2.986 2.986 6.346l3.994 6.010c0 0 1.568 1.904 4.666 5.637 3.098 3.808 4.89 5.823 5.338 6.047 3.098 3.584 10.004 11.236 20.68 22.957 10.676 11.796 18.366 20.232 22.994 25.383 4.666 5.114 11.535 13.886 20.68 26.317 9.146 12.393 16.35 23.741 21.651 33.969 5.301 10.265 11.311 23.405 17.992 39.382 6.719 15.977 12.468 32.887 17.321 50.655-69.805 39.531-124.79 88.394-164.993 146.627s-60.323 120.684-60.323 187.315c0 77.308 26.653 148.755 79.995 214.304s125.76 117.324 217.29 155.325c91.53 38.001 191.533 57.001 299.973 57.001s208.443-19 299.973-57.001c91.53-38.001 163.948-89.775 217.29-155.325 53.305-65.549 79.995-136.996 79.995-214.304v-0.112z" />
<glyph unicode="&#xe965;" glyph-name="bold-comments" d="M872 145.76c3.808-9.184 7.712-17.568 11.712-25.184 3.968-7.616 8.704-14.944 14.272-22.016 5.504-7.072 9.824-12.608 12.832-16.576 3.072-4 8-9.632 14.848-16.864 6.88-7.264 11.264-12 13.152-14.272 0.416-0.384 1.152-1.216 2.272-2.528 1.12-1.344 2.016-2.304 2.56-2.88s1.312-1.504 2.24-2.848 1.632-2.368 2.016-3.168l1.44-2.816c0 0 0.416-1.152 1.152-3.424s0.864-3.488 0.288-3.712c-0.608-0.192-0.768-1.408-0.608-3.712-1.12-5.312-3.616-9.504-7.392-12.576s-7.968-4.384-12.608-4c-19.040 2.688-35.392 5.728-49.12 9.12-58.688 15.264-111.616 39.616-158.88 73.184-34.24-6.112-67.776-9.184-100.576-9.184-103.232 0-193.152 25.184-269.728 75.424 22.080-1.504 38.848-2.24 50.272-2.24 61.344 0 120.192 8.576 176.576 25.728s106.688 41.728 150.848 73.728c47.616 35.072 84.224 75.424 109.728 121.152 25.568 45.728 38.304 94.112 38.272 145.152 0 29.344-4.384 58.272-13.152 86.848 49.152-27.040 88-60.96 116.608-101.728 28.576-40.768 42.848-84.544 42.848-131.424 0-45.696-13.536-88.48-40.576-128.288-27.072-39.808-64.192-73.408-111.424-100.832l0.128-0.064zM407.36 732.384c-55.968 0-108.288-9.504-156.96-28.576-48.704-19.072-87.36-44.8-116.032-77.12-28.64-32.384-43.008-67.36-43.008-104.928 0-30.72 9.792-60 29.44-87.872 19.616-27.872 47.264-51.936 82.88-72.192l35.808-20.608c0 0-8.608-51.936-90.528-155.904 41.664 17.248 130.048 86.4 163.776 116.064l17.696 15.616 23.456-2.496c18.912-2.144 36.736-3.296 53.472-3.296 55.968 0 108.32 9.568 156.96 28.608 48.672 19.040 87.36 44.8 116 77.152 28.704 32.352 43.040 67.328 43.008 104.928-0.032 37.568-14.304 72.576-43.008 104.928-28.608 32.352-67.296 58.048-116 77.152-48.704 19.040-101.024 28.576-156.96 28.544v0zM810.784 525.536c0-52.224-18.016-100.48-54.016-144.736-36.032-44.288-84.896-79.232-146.752-104.896s-129.376-38.464-202.624-38.464c-21.024 0-42.784 1.216-65.28 3.584-59.424-52.512-128.48-88.832-207.072-108.928-14.688-4.192-31.808-7.456-51.328-9.92h-2.24c-4.512 0-8.576 1.536-12.16 4.672s-6.016 7.328-7.2 12.448v0.48c-0.928 1.152-0.992 2.976-0.224 5.344 0.768 2.4 1.056 3.936 0.928 4.544-0.16 0.608 0.512 2.016 2.016 4.256l2.72 4.064c0 0 1.024 1.312 3.136 3.872 2.112 2.528 3.328 3.936 3.616 4.064 2.080 2.4 6.752 7.584 13.984 15.52 7.2 7.968 12.384 13.632 15.552 17.088 3.104 3.456 7.776 9.376 13.952 17.792s11.072 16.032 14.624 22.976c3.584 6.944 7.616 15.776 12.16 26.592 4.544 10.784 8.416 22.176 11.712 34.176-47.136 26.72-84.288 59.712-111.456 99.008-27.168 39.392-40.736 81.568-40.736 126.56 0 52.224 18.016 100.48 54.016 144.736 36.032 44.256 84.96 79.232 146.752 104.896 61.824 25.664 129.376 38.496 202.624 38.496s140.768-12.832 202.624-38.496c61.856-25.664 110.72-60.64 146.752-104.896 36-44.288 54.016-92.512 54.016-144.736v-0.096z" />
<glyph unicode="&#xe966;" glyph-name="bold-comment-selected" d="M1024 448q0-99.424-68.576-183.712t-186.272-133.152-257.152-48.864q-40 0-82.848 4.576-113.152-100-262.848-138.272-28-8-65.152-12.576-9.728-1.152-17.44 5.152t-10.016 16.576v0.576q-1.728 2.272-0.288 6.848t1.152 5.728 2.56 5.44l3.424 5.152t4 4.864 4.576 5.152q4 4.576 17.728 19.712t19.712 21.728 17.728 22.56 18.56 29.152 15.424 33.728 14.848 43.424q-89.728 50.848-141.44 125.728t-51.712 160.576q0 74.272 40.576 142.016t109.152 116.864 163.424 78.016 198.848 28.864q139.424 0 257.152-48.864t186.272-133.152 68.576-183.712z" />
<glyph unicode="&#xe967;" glyph-name="bold-comments-selected" d="M804.576 521.152q0-79.424-53.728-146.848t-146.56-106.56-202.016-39.136q-49.152 0-100.576 9.152-70.848-50.272-158.848-73.152-20.576-5.152-49.152-9.152h-1.728q-6.272 0-11.712 4.576t-6.56 12q-0.576 1.728-0.576 3.712t0.288 3.712 1.152 3.424l1.44 2.848t2.016 3.136 2.272 2.848 2.56 2.848 2.272 2.56q2.848 3.424 13.152 14.272t14.848 16.864 12.864 16.576 14.272 22.016 11.712 25.152q-70.848 41.152-111.424 101.152t-40.576 128q0 79.424 53.728 146.848t146.56 106.56 201.984 39.136 202.016-39.136 146.56-106.56 53.728-146.848zM1024 374.848q0-68.576-40.576-128.288t-111.424-100.864q5.728-13.728 11.712-25.152t14.272-22.016 12.864-16.576 14.848-16.864 13.152-14.272q0.576-0.576 2.272-2.56t2.56-2.848 2.272-2.848 2.016-3.136l1.44-2.848t1.152-3.424 0.288-3.712-0.576-3.712q-1.728-8-7.424-12.576t-12.576-4q-28.576 4-49.152 9.152-88 22.848-158.848 73.152-51.424-9.152-100.576-9.152-154.848 0-269.728 75.424 33.152-2.272 50.272-2.272 92 0 176.576 25.728t150.848 73.728q71.424 52.576 109.728 121.152t38.272 145.152q0 44-13.152 86.848 73.728-40.576 116.576-101.728t42.848-131.424z" />
<glyph unicode="&#xe968;" glyph-name="bold-confused" d="M512 960c-282.311 0-512-229.689-512-512s229.689-512 512-512c282.279 0 511.968 229.689 511.968 512s-229.689 512-511.968 512zM512 0.016c-247.038 0-447.984 200.946-447.984 447.984s200.946 447.984 447.984 447.984c247.006 0 447.952-200.946 447.952-447.984s-200.946-447.984-447.952-447.984zM386.945 582.178c0-37.688-30.553-68.241-68.241-68.241s-68.241 30.553-68.241 68.241c0 37.688 30.553 68.241 68.241 68.241s68.241-30.553 68.241-68.241zM772.129 582.178c0-37.688-30.553-68.241-68.241-68.241s-68.241 30.553-68.241 68.241c0 37.688 30.553 68.241 68.241 68.241s68.241-30.553 68.241-68.241zM576.528 312.99l-115.741 39.53-125.951-30.504-106.139 28.135-16.388-61.871 121.822-32.264 123.615 29.895 118.142-40.362 123.903 39.818 89.59-33.16 22.246 60.015-110.332 40.842z" />
<glyph unicode="&#xe969;" glyph-name="bold-confused-selected" d="M512 960c-282.311 0-512-229.689-512-512s229.689-512 512-512c282.279 0 511.968 229.689 511.968 512s-229.689 512-511.968 512zM703.888 650.419c37.673 0 68.241-30.568 68.241-68.209 0-37.705-30.568-68.273-68.241-68.273s-68.241 30.568-68.241 68.273c0 37.641 30.568 68.209 68.241 68.209zM318.704 650.419c37.641 0 68.209-30.568 68.209-68.209 0-37.705-30.568-68.273-68.209-68.273-37.705 0-68.273 30.568-68.273 68.273 0 37.641 30.568 68.209 68.273 68.209zM789.381 252.207l-89.59 33.16-123.903-39.818-118.142 40.394-123.583-29.927-121.854 32.264 16.388 61.903 106.139-28.135 125.983 30.472 115.709-39.498 124.767 40.074 110.332-40.842-22.246-60.047z" />
<glyph unicode="&#xe96a;" glyph-name="bold-crying" d="M704.656 533.141c37.673 0 68.241-1.216 68.241 29.863 0 31.112-30.568 56.302-68.241 56.302s-68.241-25.19-68.241-56.302c0-31.080 30.568-29.863 68.241-29.863zM319.408 533.141c37.673 0 68.241-1.216 68.241 29.863 0 31.112-30.568 56.302-68.241 56.302s-68.241-25.19-68.241-56.302c0.032-31.080 30.6-29.863 68.241-29.863zM512 960c-282.311 0-512-229.689-512-512s229.689-512 512-512 512 229.689 512 512-229.689 512-512 512zM512 0.016c-247.038 0-447.984 200.978-447.984 447.984s200.946 447.984 447.984 447.984 447.984-200.978 447.984-447.984c0-247.006-200.946-447.984-447.984-447.984zM251.135 251.407l42.027-48.3c0.992 0.864 99.545 85.461 223.416 85.461 122.111 0 211.157-83.573 212.021-84.405l44.363 46.124c-4.321 4.193-107.835 102.266-256.384 102.266-147.589 0.032-260.737-97.016-265.442-101.145zM276.453 474.535c0 0-76.851-104.826 0-104.826 76.915 0.032 0 104.826 0 104.826z" />
<glyph unicode="&#xe96b;" glyph-name="bold-crying-selected" d="M512 960c-282.311 0-512-229.689-512-512s229.689-512 512-512 512 229.689 512 512-229.689 512-512 512zM704.656 619.307c37.673 0 68.241-25.19 68.241-56.302 0-31.080-30.568-29.863-68.241-29.863s-68.241-1.216-68.241 29.863c0 31.112 30.568 56.302 68.241 56.302zM319.408 619.307c37.673 0 68.241-25.19 68.241-56.302 0-31.080-30.568-29.863-68.241-29.863s-68.241-1.216-68.241 29.863c0.032 31.112 30.6 56.302 68.241 56.302zM276.453 474.535c0 0 76.915-104.826 0-104.826-76.883 0.032 0 104.826 0 104.826zM728.598 204.195c-0.864 0.8-89.91 84.405-212.021 84.405-123.871 0-222.424-84.597-223.416-85.461l-42.027 48.3c4.705 4.129 117.885 101.177 265.442 101.177 148.549 0 252.063-98.073 256.384-102.266l-44.363-46.156z" />
<glyph unicode="&#xe96c;" glyph-name="bold-down" d="M512 960c-282.311 0-512-229.689-512-512s229.689-512 512-512 512 229.689 512 512-229.689 512-512 512zM512 0.016c-247.038 0-447.984 200.946-447.984 447.984s200.946 447.984 447.984 447.984 447.984-200.946 447.984-447.984-200.946-447.984-447.984-447.984zM387.617 582.818c0-37.688-30.553-68.241-68.241-68.241s-68.241 30.553-68.241 68.241c0 37.688 30.553 68.241 68.241 68.241s68.241-30.553 68.241-68.241zM772.833 582.818c0-37.688-30.553-68.241-68.241-68.241s-68.241 30.553-68.241 68.241c0 37.688 30.553 68.241 68.241 68.241s68.241-30.553 68.241-68.241zM278.175 244.928l-10.998 63.062 478.61 83.469 10.998-63.062-478.61-83.469z" />
<glyph unicode="&#xe96d;" glyph-name="bold-down-selected" d="M512 960c-282.311 0-512-229.689-512-512s229.689-512 512-512 512 229.689 512 512-229.689 512-512 512zM319.376 651.059c37.673 0 68.241-30.536 68.241-68.241s-30.568-68.241-68.241-68.241-68.241 30.536-68.241 68.241 30.568 68.241 68.241 68.241zM278.15 244.941l-11.011 63.088 478.648 83.477 11.011-63.088-478.648-83.477zM704.592 514.577c-37.673 0-68.241 30.536-68.241 68.241s30.568 68.241 68.241 68.241 68.241-30.536 68.241-68.241-30.6-68.241-68.241-68.241z" />
<glyph unicode="&#xe96e;" glyph-name="bold-envelop" horiz-adv-x="1600" d="M113.543 860.882l474.68-412.757-474.831-412.958c-11.812 11.41-19.15 27.293-19.15 45.035v735.694c0 17.743 7.389 33.626 19.301 44.985zM1486.517 861.033c11.862-11.309 19.251-27.343 19.251-45.086v-735.694c0-17.793-7.439-33.676-19.351-45.035l-474.73 412.857 474.831 412.958zM965.796 408.167l447.84-389.736h-1227.413l447.94 389.736 165.816-144.203 165.816 144.203zM128.27 960c-70.82 0-128.27-57.249-128.27-127.617v-768.716c0-70.468 56.998-127.617 128.27-127.617h1343.519c70.77 0 128.22 57.249 128.22 127.617v768.767c0 70.468-56.948 127.617-128.22 127.617h-1343.519zM800.030 357.402l-594.958 520.268h1189.716l-594.757-520.268z" />
<glyph unicode="&#xe96f;" glyph-name="bold-envelop-selected" d="M829.536 285.536l-25.856-25.856-191.68 164.32-84-72-84 72-191.68-164.32-25.856 25.856 189.536 162.464-189.536 162.464 25.856 25.856 275.68-236.32 275.68 236.32 25.856-25.856-189.536-162.464 189.536-162.464zM192.128 704c-35.424 0-64.128-28.64-64.128-63.808v-384.384c0-35.232 28.48-63.808 64.128-63.808h671.776c35.424 0 64.128 28.64 64.128 63.808v384.384c0 35.232-28.48 63.808-64.128 63.808h-671.776z" />
<glyph unicode="&#xe970;" glyph-name="bold-exclamation" d="M512 960c-282.311 0-512-229.689-512-512s229.689-512 512-512 512 229.689 512 512-229.689 512-512 512zM512 0.016c-247.038 0-447.984 200.946-447.984 447.984s200.946 447.984 447.984 447.984 447.984-200.946 447.984-447.984-200.946-447.984-447.984-447.984zM450.065 280.086h123.967v-87.094h-123.967v87.094zM447.376 317.951h129.344l32.072 385.12h-193.488z" />
<glyph unicode="&#xe971;" glyph-name="bold-flame" d="M382.996-31.038c-5.522 0-11.043 1.339-16.23 4.016v0c-59.231 31.456-105.244 81.15-137.035 147.911-19.409 40.826-72.115 188.737 62.912 376.805l0.167 0.167c134.525 183.216 139.712 334.808 135.529 391.362-1.004 13.72 6.191 26.771 18.238 33.297 12.214 6.525 26.939 5.354 37.982-3.179 18.907-14.724 36.643-32.627 52.706-53.542 52.873-68.936 81.987-158.285 81.987-251.817 0-46.013 4.518-84.329 12.214-105.077 0.669-1.673 1.171-3.179 1.841-4.518 3.346 11.712 6.191 32.293 4.183 64.418-0.837 14.222 6.86 27.273 19.576 33.464s27.608 4.183 38.316-5.020c27.441-24.094 66.593-73.119 97.882-170.499 27.273-85.835 29.616-149.25 26.771-187.231-9.705-153.6-96.376-229.061-167.32-265.37-13.888-7.195-30.62-4.35-41.328 7.362-10.876 11.712-12.549 28.612-4.183 42.165 60.235 97.882-8.366 211.325-40.659 255.331-35.472 48.523-59.231 99.89-73.788 138.039-20.58-41.83-51.869-107.754-91.357-195.932s-15.895-156.612 11.043-198.442c8.533-13.218 7.195-30.62-3.346-42.332-7.027-7.362-16.565-11.378-26.102-11.378zM649.705-2.593c0 0 0 0 0 0s0 0 0 0zM629.626 18.991c0-0.167-0.167-0.167 0 0-0.167-0.167 0-0.167 0 0zM506.478 553.914l15.561-64.92c0.167-1.004 23.759-96.711 84.831-180.204 66.761-91.357 89.014-184.889 64.418-263.697 60.068 45.511 93.030 111.77 98.384 197.94v0.335c2.51 33.631 0.335 90.186-24.429 168.492-18.74 58.060-39.822 95.707-57.558 119.467-2.844-49.694-18.74-80.481-45.176-86.17-11.378-2.342-39.822-2.677-58.227 46.348-10.039 26.604-15.561 70.107-15.561 122.813 0 82.489-25.433 161.129-71.613 221.365-5.856 7.529-11.88 14.724-18.071 21.25-1.506-78.306-24.094-222.201-146.071-388.35-118.965-165.814-74.625-291.305-58.227-325.94 17.903-37.48 40.826-68.601 68.601-92.863-5.354 15.393-9.203 31.122-11.378 47.184-6.525 47.352 1.339 96.042 23.258 144.899 73.621 164.643 119.467 252.152 119.969 253.156l31.289 58.897zM640.167 492.842c0 0 0 0 0 0s0 0 0 0z" />
<glyph unicode="&#xe972;" glyph-name="bold-flame-selected" horiz-adv-x="604" d="M490.667 516.267c-100.978 130.844-229.689 248.178-220.444 443.733-78.933-91.733-108.8-184.889-88.889-292.978 10.667-58.311 23.467-116.622 7.111-175.644-5.689-18.489-8.533-41.956-34.133-41.956s-28.444 24.178-33.422 42.667c-15.644 50.489-4.978 103.111-9.956 169.244-167.822-280.178-166.4-688.356 151.467-725.333 220.444-4.267 344.889 169.244 342.044 313.6-2.133 104.533-53.333 187.022-113.778 266.667z" />
<glyph unicode="&#xe973;" glyph-name="bold-frustrated" d="M512 960c-282.311 0-512-229.689-512-512s229.689-512 512-512 512 229.689 512 512-229.689 512-512 512zM512 0.016c-247.038 0-447.984 200.946-447.984 447.984s200.946 447.984 447.984 447.984 447.984-200.946 447.984-447.984-200.946-447.984-447.984-447.984zM324.529 530.069c37.705 0 68.273 30.504 68.273 68.241 0 37.673-30.568 36.201-68.273 36.201-37.641 0-68.209 1.472-68.209-36.201 0-37.737 30.568-68.241 68.209-68.241zM709.745 634.511c-37.641 0-68.209 1.472-68.209-36.201 0-37.737 30.568-68.241 68.209-68.241 37.705 0 68.273 30.504 68.273 68.241 0 37.673-30.568 36.201-68.273 36.201zM246.078 295.962l63.344-9.218c3.201 14.308 29.671 41.354 107.163 41.354 123.647 0 327.954-65.872 330.035-66.513l19.749 60.879c-8.738 2.849-215.958 69.649-349.783 69.649-156.807 0-170.059-92.215-170.507-96.152z" />
<glyph unicode="&#xe974;" glyph-name="bold-frustrated-selected" d="M512 960c-282.311 0-512-229.689-512-512s229.689-512 512-512 512 229.689 512 512c0 282.311-229.689 512-512 512zM324.529 634.511c37.705 0 68.273 1.472 68.273-36.201 0-37.737-30.568-68.241-68.273-68.241-37.641 0-68.209 30.504-68.209 68.241 0 37.673 30.568 36.201 68.209 36.201zM746.619 261.585c-2.049 0.672-206.388 66.513-330.035 66.513-77.491 0-103.962-27.047-107.163-41.354l-63.344 9.218c0.448 3.937 13.699 96.152 170.507 96.152 133.793 0 341.045-66.801 349.783-69.649l-19.749-60.879zM709.745 530.069c-37.641 0-68.209 30.504-68.209 68.241 0 37.673 30.568 36.201 68.209 36.201 37.705 0 68.273 1.472 68.273-36.201 0-37.737-30.568-68.241-68.273-68.241z" />
<glyph unicode="&#xe975;" glyph-name="bold-grin" d="M512 959.968c-282.311 0-512-229.689-512-511.968 0-282.311 229.689-511.968 512-511.968s512 229.657 512 511.968c0 282.279-229.689 511.968-512 511.968zM512 0.016c-247.038 0-447.984 200.946-447.984 447.984 0 247.006 200.946 447.952 447.984 447.952s447.984-200.946 447.984-447.952c0-247.038-200.946-447.984-447.984-447.984zM387.649 619.115c0-37.688-30.553-68.241-68.241-68.241s-68.241 30.553-68.241 68.241c0 37.688 30.553 68.241 68.241 68.241s68.241-30.553 68.241-68.241zM772.897 619.115c0-37.688-30.553-68.241-68.241-68.241s-68.241 30.553-68.241 68.241c0 37.688 30.553 68.241 68.241 68.241s68.241-30.553 68.241-68.241zM512 324.769c-175.148 0.128-211.861 48.012-227.001 15.332-15.14-32.808 40.202-163.529 226.617-163.529 186.319 0 242.493 130.721 227.417 163.529-15.108 32.68-51.789-15.204-227.033-15.332z" />
<glyph unicode="&#xe976;" glyph-name="bold-grin-selected" d="M512 959.968c-282.311 0-512-229.689-512-511.968 0-282.311 229.689-511.968 512-511.968s512 229.657 512 511.968c0 282.279-229.689 511.968-512 511.968zM251.167 619.115c0 37.673 30.568 68.241 68.241 68.241s68.241-30.568 68.241-68.241c0-37.705-30.568-68.241-68.241-68.241s-68.241 30.536-68.241 68.241zM511.616 176.54c-186.415 0-241.756 130.721-226.617 163.529 15.14 32.68 51.853-15.204 227.001-15.332 175.244 0.128 211.925 48.012 227.033 15.332 15.108-32.808-41.098-163.529-227.417-163.529zM704.688 550.874c-37.705 0-68.273 30.536-68.273 68.241 0 37.673 30.568 68.241 68.273 68.241 37.673 0 68.209-30.568 68.209-68.241-0.032-37.705-30.568-68.241-68.209-68.241z" />
<glyph unicode="&#xe977;" glyph-name="bold-happy" d="M512 960c-282.311 0-512-229.689-512-512s229.689-512 512-512 512 229.689 512 512-229.689 512-512 512zM512 0.016c-247.038 0-447.984 200.978-447.984 447.984 0 247.038 200.946 447.984 447.984 447.984s447.984-200.946 447.984-447.984c0-247.006-200.946-447.984-447.984-447.984zM507.071 203.107c-169.322 0-201.458 156.679-202.739 163.337l-62.928-11.747c13.795-74.547 87.062-215.574 265.666-215.574 177.516 0 257.888 139.971 275.557 213.973l-62.256 14.884c-1.6-6.786-41.386-164.873-213.301-164.873zM382.688 592.612c0-37.688-30.553-68.241-68.241-68.241s-68.241 30.553-68.241 68.241c0 37.688 30.553 68.241 68.241 68.241s68.241-30.553 68.241-68.241zM767.904 592.612c0-37.688-30.553-68.241-68.241-68.241s-68.241 30.553-68.241 68.241c0 37.688 30.553 68.241 68.241 68.241s68.241-30.553 68.241-68.241z" />
<glyph unicode="&#xe978;" glyph-name="bold-happy-selected" d="M512 960c-282.311 0-512-229.689-512-512s229.689-512 512-512 512 229.689 512 512c0 282.311-229.689 512-512 512zM699.663 660.853c37.705 0 68.241-30.536 68.241-68.241 0-37.673-30.536-68.241-68.241-68.241s-68.273 30.568-68.273 68.241c0.032 37.705 30.6 68.241 68.273 68.241zM314.447 660.853c37.673 0 68.241-30.536 68.241-68.241 0-37.673-30.568-68.241-68.241-68.241-37.705 0-68.241 30.568-68.241 68.241 0 37.705 30.536 68.241 68.241 68.241zM507.071 139.123c-178.605 0-251.871 141.027-265.666 215.574l62.928 11.747c1.28-6.658 33.416-163.337 202.739-163.337 171.915 0 211.701 158.056 213.301 164.841l62.256-14.884c-17.7-73.97-98.009-213.941-275.557-213.941z" />
</font>
</defs>
</svg>
