<svg xmlns="http://www.w3.org/2000/svg" width="172.89" height="172.91" viewBox="0 0 172.89 172.91"><g fill="#E3E5E4"><path d="M100.248 52.147h-9.143L63.198 92.085v5.582H92.26v17.034h7.987V97.667h8.757v-6.641h-8.757V52.147zM92.26 70.144v20.883H71.762v-.192l15.302-21.268a179.687 179.687 0 0 0 5.196-9.239h.288a167.507 167.507 0 0 0-.288 9.816z"/><path d="M86.433 0C38.772 0-.002 38.779-.002 86.45c0 47.676 38.774 86.46 86.436 86.46 47.666 0 86.446-38.784 86.446-86.46C172.879 38.779 134.099 0 86.433 0zm0 167.656c-44.765 0-81.182-36.43-81.182-81.206 0-44.772 36.417-81.196 81.182-81.196 44.77 0 81.192 36.424 81.192 81.196 0 44.777-36.422 81.206-81.192 81.206z"/></g></svg>