<svg xmlns="http://www.w3.org/2000/svg" width="172.89" height="172.91" viewBox="0 0 172.89 172.91"><path fill="#E3E5E4" d="M86.439 0C38.778 0 .004 38.779.004 86.45c0 47.676 38.774 86.46 86.436 86.46 47.666 0 86.446-38.784 86.446-86.46C172.886 38.779 134.105 0 86.439 0zm19.589 114.701H66.092v-5.197l6.64-6.447c15.975-15.206 23.192-23.29 23.288-32.721 0-6.352-3.079-12.223-12.414-12.223-5.677 0-10.393 2.888-13.279 5.294l-2.694-5.968c4.33-3.656 10.489-6.352 17.706-6.352 13.473 0 19.15 9.239 19.15 18.189 0 11.548-8.372 20.884-21.556 33.587l-5.004 4.619v.192h28.1v7.027z"/></svg>