<svg xmlns="http://www.w3.org/2000/svg" width="172.89" height="172.91" viewBox="0 0 172.89 172.91"><g fill="#E3E5E4"><path d="M86.968 51.088c-12.703 0-21.749 11.549-21.749 32.528.193 20.691 8.469 32.144 20.69 32.144 13.857 0 21.749-11.741 21.749-33.01.001-19.921-7.506-31.662-20.69-31.662zm-.577 58.128c-7.698 0-12.703-9.239-12.703-25.503 0-17.034 5.39-26.081 12.799-26.081 8.758 0 12.703 10.105 12.703 25.504 0 15.974-4.139 26.08-12.799 26.08z"/><path d="M86.433 0C38.772 0-.002 38.779-.002 86.45c0 47.676 38.774 86.46 86.436 86.46 47.666 0 86.446-38.784 86.446-86.46C172.879 38.779 134.099 0 86.433 0zm0 167.656c-44.765 0-81.182-36.43-81.182-81.206 0-44.772 36.417-81.196 81.182-81.196 44.77 0 81.192 36.424 81.192 81.196 0 44.777-36.422 81.206-81.192 81.206z"/></g></svg>