<svg xmlns="http://www.w3.org/2000/svg" xmlns:xlink="http://www.w3.org/1999/xlink" preserveAspectRatio="xMidYMid" width="33" height="33" viewBox="0 0 33 33">
  <defs>
    <style>
      .cls-1 {
        fill: #0af;
        fill-rule: evenodd;
      }
    </style>
  </defs>
  <path d="M16.500,33.000 C7.402,33.000 -0.000,25.598 -0.000,16.500 C-0.000,7.402 7.402,-0.000 16.500,-0.000 C25.598,-0.000 33.000,7.402 33.000,16.500 C33.000,25.598 25.598,33.000 16.500,33.000 ZM16.500,1.320 C8.130,1.320 1.320,8.130 1.320,16.500 C1.320,24.870 8.130,31.680 16.500,31.680 C24.870,31.680 31.680,24.870 31.680,16.500 C31.680,8.130 24.870,1.320 16.500,1.320 ZM16.500,27.000 C10.701,27.000 6.000,22.299 6.000,16.500 C6.000,10.701 10.701,6.000 16.500,6.000 C22.299,6.000 27.000,10.701 27.000,16.500 C27.000,22.299 22.299,27.000 16.500,27.000 Z" class="cls-1"/>
</svg>
