<?xml version="1.0" encoding="utf-8"?>
<!-- Generator: Adobe Illustrator 16.0.0, SVG Export Plug-In . SVG Version: 6.00 Build 0)  -->
<!DOCTYPE svg PUBLIC "-//W3C//DTD SVG 1.1//EN" "http://www.w3.org/Graphics/SVG/1.1/DTD/svg11.dtd">
<svg version="1.1" id="Layer_1" xmlns="http://www.w3.org/2000/svg" xmlns:xlink="http://www.w3.org/1999/xlink" x="0px" y="0px"
	 width="632.805px" height="632.805px" viewBox="0 0 632.805 632.805" enable-background="new 0 0 632.805 632.805"
	 xml:space="preserve">
<g display="none">
	<path display="inline" fill="#29A249" d="M540.133,92.672C480.374,32.912,400.917,0,316.403,0
		c-84.514,0-163.97,32.912-223.73,92.672C32.912,152.434,0,231.89,0,316.405c0,84.513,32.912,163.968,92.673,223.728
		c59.761,59.764,139.216,92.672,223.73,92.672c84.514,0,163.971-32.908,223.73-92.672c59.762-59.76,92.672-139.215,92.672-223.728
		C632.805,231.89,599.895,152.433,540.133,92.672z M316.403,617.805C150.209,617.805,15,482.598,15,316.405
		C15,150.209,150.209,15,316.403,15c166.193,0,301.402,135.209,301.402,301.405C617.805,482.598,482.596,617.805,316.403,617.805z"
		/>
	<path display="inline" fill="#29A249" d="M521.616,335.646c-0.102,0.425-10.136,42.747-40.756,84.774
		c-40.813,56.016-96.811,84.416-166.439,84.416c-69.395,0-124.596-28.227-164.07-83.895c-29.775-41.994-39-84.716-39.089-85.145
		l-14.683,3.068c0.385,1.85,9.804,45.785,41.214,90.293c18.545,26.276,40.928,47.235,66.528,62.297
		c32.013,18.83,69.056,28.379,110.1,28.379c41.029,0,78.269-9.541,110.688-28.354c25.914-15.041,48.752-35.979,67.875-62.229
		c32.4-44.473,42.814-88.377,43.244-90.225L521.616,335.646z"/>
	<circle display="inline" fill="#29A249" cx="203.32" cy="229.171" r="30.334"/>
	<circle display="inline" fill="#29A249" cx="429.487" cy="229.171" r="30.334"/>
</g>
<g display="none">
	<path display="inline" fill="#2DA97D" d="M540.133,92.672C480.374,32.912,400.917,0,316.403,0
		c-84.514,0-163.97,32.912-223.73,92.672C32.912,152.434,0,231.89,0,316.405c0,84.513,32.912,163.968,92.673,223.728
		c59.761,59.764,139.216,92.672,223.73,92.672c84.514,0,163.971-32.908,223.73-92.672c59.762-59.76,92.672-139.215,92.672-223.728
		C632.805,231.89,599.895,152.433,540.133,92.672z M316.403,617.805C150.209,617.805,15,482.598,15,316.405
		C15,150.209,150.209,15,316.403,15c166.193,0,301.402,135.209,301.402,301.405C617.805,482.598,482.596,617.805,316.403,617.805z"
		/>
	<circle display="inline" fill="#2DA97D" cx="203.32" cy="229.171" r="30.334"/>
	<circle display="inline" fill="#2DA97D" cx="429.487" cy="229.171" r="30.334"/>
	<path display="inline" fill="#2DA97D" d="M445.553,442.008c-30.17,18.398-77.926,40.33-134.091,40.33
		c-56.013,0-100.913-21.83-128.717-40.143c-30.195-19.891-47.398-40.082-47.755-40.506c-0.002-0.004-0.003-0.006-0.004-0.008
		l-11.497,9.639c0.741,0.885,18.515,21.914,50.558,43.104c29.599,19.576,77.465,42.912,137.415,42.912
		c59.832,0,110.408-23.258,142.302-42.77c34.484-21.1,54.709-41.99,55.555-42.869L498.5,401.307
		C498.303,401.51,478.508,421.913,445.553,442.008z"/>
</g>
<g display="none">
	<path display="inline" fill="#EE6427" d="M540.133,92.672C480.374,32.912,400.917,0,316.402,0
		c-84.514,0-163.97,32.912-223.73,92.672C32.912,152.432,0,231.89,0,316.405c0,84.513,32.912,163.968,92.672,223.728
		c59.761,59.764,139.217,92.672,223.73,92.672c84.515,0,163.97-32.908,223.731-92.672c59.762-59.76,92.672-139.215,92.672-223.728
		C632.805,231.89,599.895,152.433,540.133,92.672z M316.402,617.805C150.209,617.805,15,482.598,15,316.405
		C15,150.209,150.209,15,316.402,15c166.194,0,301.403,135.209,301.403,301.405C617.805,482.598,482.596,617.805,316.402,617.805z"
		/>
	<circle display="inline" fill="#EE6427" cx="203.323" cy="229.171" r="30.334"/>
	<circle display="inline" fill="#EE6427" cx="429.491" cy="229.171" r="30.334"/>
	
		<rect x="308.939" y="293.549" transform="matrix(0.2367 0.9716 -0.9716 0.2367 665.2575 25.4348)" display="inline" fill="#EE6427" width="15.003" height="285.121"/>
</g>
<g display="none">
	<path display="inline" fill="#DE2F27" d="M540.131,92.672C480.374,32.912,400.917,0,316.402,0
		c-84.514,0-163.971,32.912-223.73,92.672C32.911,152.433,0,231.89,0,316.405c0,84.513,32.912,163.968,92.672,223.728
		c59.76,59.764,139.217,92.672,223.73,92.672c84.513,0,163.97-32.908,223.729-92.672c59.764-59.76,92.674-139.215,92.674-223.728
		C632.805,231.89,599.895,152.433,540.131,92.672z M316.402,617.805C150.209,617.805,15,482.598,15,316.405
		C15,150.209,150.209,15,316.402,15c166.194,0,301.403,135.209,301.403,301.405C617.805,482.598,482.596,617.805,316.402,617.805z"
		/>
	<circle display="inline" fill="#DE2F27" cx="203.322" cy="229.171" r="30.334"/>
	<circle display="inline" fill="#DE2F27" cx="429.489" cy="229.171" r="30.334"/>
	<path display="inline" fill="#DE2F27" d="M320.784,391.012c-55.071,0-104.478,22.316-136.226,41.035
		c-34.264,20.203-55.396,40.188-56.279,41.025l10.34,10.863c0.207-0.193,21.01-19.824,53.889-39.162
		c30.066-17.686,76.727-38.764,128.276-38.764c51.547,0,98.207,21.078,128.271,38.764c32.884,19.338,53.688,38.969,53.891,39.16
		l10.344-10.861c-0.883-0.84-22.017-20.822-56.279-41.025C425.258,413.329,375.854,391.012,320.784,391.012z"/>
</g>
<path display="none" fill="#29A249" d="M316.403,0.619C142.001,0.619,0.618,142,0.618,316.405
	c0,174.4,141.383,315.782,315.785,315.782s315.785-141.382,315.785-315.782C632.188,142,490.805,0.619,316.403,0.619z
	 M432.006,196.217c17.125,0,31.008,13.884,31.008,31.01c0,17.125-13.883,31.01-31.008,31.01c-17.127,0-31.01-13.885-31.01-31.01
	C400.999,210.101,414.879,196.217,432.006,196.217z M200.8,196.217c17.126,0,31.009,13.884,31.009,31.01
	c0,17.125-13.883,31.01-31.009,31.01c-17.125,0-31.009-13.885-31.009-31.01C169.792,210.101,183.675,196.217,200.8,196.217z
	 M496.917,431.768c-19.549,26.834-42.896,48.238-69.387,63.613c-33.142,19.236-71.212,28.99-113.153,28.99
	c-41.958,0-79.826-9.762-112.552-29.012c-26.17-15.396-49.052-36.822-68.01-63.688c-32.11-45.5-41.738-90.416-42.132-92.305
	l15.01-3.137c0.092,0.436,9.521,44.107,39.96,87.035c40.353,56.91,96.784,85.768,167.725,85.768
	c71.183,0,128.427-29.035,170.146-86.297c31.305-42.965,41.563-86.232,41.664-86.664l14.938,3.457
	C540.688,341.422,530.042,386.303,496.917,431.768z"/>
<path display="none" fill="#2DA97D" d="M316.403,0.619C142.001,0.619,0.618,142,0.618,316.405
	c0,174.4,141.383,315.782,315.785,315.782s315.785-141.382,315.785-315.782C632.188,142,490.805,0.619,316.403,0.619z
	 M432.006,196.217c17.125,0,31.008,13.884,31.008,31.01c0,17.125-13.883,31.01-31.008,31.01c-17.127,0-31.01-13.885-31.01-31.01
	C400.999,210.101,414.879,196.217,432.006,196.217z M200.8,196.217c17.126,0,31.009,13.884,31.009,31.01
	c0,17.125-13.882,31.01-31.009,31.01c-17.126,0-31.009-13.885-31.009-31.01C169.792,210.101,183.674,196.217,200.8,196.217z
	 M456.827,457.647c-32.605,19.943-84.312,43.723-145.475,43.723c-61.285,0-110.218-23.855-140.476-43.867
	c-32.757-21.664-50.927-43.162-51.685-44.066l11.753-9.852c0.001,0.002,0.002,0.004,0.004,0.006
	c0.365,0.436,17.951,21.076,48.819,41.408c28.423,18.721,74.323,41.037,131.584,41.037c57.417,0,106.237-22.42,137.079-41.229
	c33.689-20.543,53.926-41.396,54.125-41.605l11.061,10.625C512.752,414.721,492.079,436.083,456.827,457.647z"/>
<path display="none" fill="#F89820" d="M316.402,0.619C142.001,0.619,0.618,142,0.618,316.405
	c0,174.4,141.383,315.782,315.784,315.782c174.403,0,315.786-141.382,315.786-315.782C632.188,142,490.805,0.619,316.402,0.619z
	 M432.004,196.217c17.127,0,31.01,13.884,31.01,31.01c0,17.125-13.883,31.01-31.01,31.01c-17.125,0-31.008-13.885-31.008-31.01
	C400.999,210.101,414.879,196.217,432.004,196.217z M200.8,196.217c17.126,0,31.009,13.884,31.009,31.01
	c0,17.125-13.882,31.01-31.009,31.01c-17.126,0-31.008-13.885-31.008-31.01C169.792,210.101,183.674,196.217,200.8,196.217z
	 M501.834,446.504H129.727V431.17h372.109v15.334H501.834L501.834,446.504z"/>
<path display="none" fill="#EE6427" d="M316.402,0.619C142,0.619,0.618,142,0.618,316.405c0,174.4,141.382,315.782,315.784,315.782
	c174.403,0,315.786-141.382,315.786-315.782C632.188,142,490.805,0.619,316.402,0.619z M200.804,196.217
	c17.126,0,31.009,13.884,31.009,31.01c0,17.125-13.883,31.01-31.009,31.01c-17.126,0-31.009-13.885-31.009-31.01
	C169.795,210.101,183.678,196.217,200.804,196.217z M176.633,480.708l-3.63-14.9l283.171-69.004l3.629,14.9L176.633,480.708z
	 M432.008,258.237c-17.125,0-31.008-13.885-31.008-31.01c0-17.126,13.883-31.01,31.008-31.01c17.127,0,31.012,13.884,31.012,31.01
	C463.02,244.352,449.135,258.237,432.008,258.237z"/>
<path display="none" fill="#DE2F27" d="M316.402,0.619C142,0.619,0.618,142,0.618,316.405c0,174.4,141.382,315.782,315.784,315.782
	c174.401,0,315.786-141.382,315.786-315.782C632.188,142,490.803,0.619,316.402,0.619z M432.006,196.217
	c17.127,0,31.01,13.884,31.01,31.01c0,17.125-13.883,31.01-31.01,31.01c-17.125,0-31.008-13.885-31.008-31.01
	C401,210.101,414.881,196.217,432.006,196.217z M200.803,196.217c17.127,0,31.01,13.884,31.01,31.01
	c0,17.125-13.883,31.01-31.01,31.01c-17.125,0-31.008-13.885-31.008-31.01C169.795,210.101,183.678,196.217,200.803,196.217z
	 M507.102,487.668c-0.209-0.197-21.477-20.266-55.09-40.033c-30.732-18.078-78.434-39.627-131.131-39.627
	c-52.697,0-100.397,21.549-131.133,39.627c-33.611,19.771-54.877,39.836-55.089,40.035l-10.57-11.104
	c0.902-0.859,22.506-21.287,57.533-41.939c32.455-19.137,82.962-41.949,139.259-41.949s106.803,22.813,139.26,41.949
	c35.027,20.652,56.633,41.08,57.533,41.939L507.102,487.668z"/>
<g display="none">
	<path display="inline" fill="#F89820" d="M540.133,92.672C480.374,32.912,400.917,0,316.402,0
		c-84.514,0-163.97,32.912-223.729,92.672C32.912,152.434,0,231.89,0,316.405c0,84.513,32.911,163.968,92.673,223.728
		c59.761,59.764,139.216,92.672,223.729,92.672c84.515,0,163.97-32.908,223.731-92.672c59.762-59.76,92.672-139.215,92.672-223.728
		C632.805,231.89,599.895,152.433,540.133,92.672z M316.402,617.805C150.208,617.805,15,482.598,15,316.405
		C15,150.209,150.208,15,316.402,15s301.403,135.209,301.403,301.405C617.805,482.598,482.596,617.805,316.402,617.805z"/>
	<circle display="inline" fill="#F89820" cx="203.319" cy="229.171" r="30.334"/>
	<circle display="inline" fill="#F89820" cx="429.487" cy="229.171" r="30.334"/>
	<polygon display="inline" fill="#F89820" points="352.632,438.389 280.054,418.388 207.478,438.388 136.898,418.938 
		132.913,433.399 207.478,453.948 280.054,433.948 352.632,453.948 425.214,433.948 495.803,453.399 499.788,438.938 
		425.214,418.389 	"/>
</g>
<g display="none">
	<path display="inline" fill="#F89820" d="M540.133,92.672C480.374,32.912,400.917,0,316.402,0
		c-84.514,0-163.97,32.912-223.729,92.672C32.911,152.434,0,231.89,0,316.405c0,84.513,32.91,163.968,92.672,223.728
		c59.762,59.764,139.217,92.672,223.729,92.672c84.515,0,163.97-32.908,223.731-92.672c59.763-59.76,92.672-139.215,92.672-223.728
		C632.805,231.89,599.895,152.433,540.133,92.672z M316.402,617.805C150.208,617.805,15,482.598,15,316.405
		C15,150.209,150.208,15,316.402,15s301.403,135.209,301.403,301.405C617.805,482.598,482.596,617.805,316.402,617.805z"/>
	<path display="inline" fill="#F89820" d="M203.319,259.505c16.754,0,30.334-13.581,30.334-30.334s-60.668-16.753-60.668,0
		S186.566,259.505,203.319,259.505z"/>
	<path display="inline" fill="#F89820" d="M429.487,259.505c16.752,0,30.334-13.581,30.334-30.334s-60.668-16.753-60.668,0
		S412.733,259.505,429.487,259.505z"/>
	<path display="inline" fill="#F89820" d="M197.217,435.4l14.912,1.622c0.214-1.685-25.868-41.217,53.774-41.217
		c85.617,0,188.78,46.71,189.813,47.184l6.239-13.643c-4.332-1.98-107.124-48.541-196.052-48.541
		C171.901,380.807,197.447,433.17,197.217,435.4z"/>
</g>
<g display="none">
	<path display="inline" fill="#DE2F27" d="M540.133,92.672C480.374,32.912,400.917,0,316.402,0
		c-84.514,0-163.97,32.912-223.729,92.672C32.912,152.434,0,231.89,0,316.405c0,84.513,32.911,163.968,92.673,223.728
		c59.761,59.764,139.216,92.672,223.729,92.672c84.515,0,163.97-32.908,223.731-92.672c59.762-59.76,92.672-139.215,92.672-223.728
		C632.805,231.89,599.895,152.433,540.133,92.672z M316.402,617.805C150.208,617.805,15,482.598,15,316.405
		C15,150.209,150.208,15,316.402,15s301.403,135.209,301.403,301.405C617.805,482.598,482.596,617.805,316.402,617.805z"/>
	<circle display="inline" fill="#DE2F27" cx="203.319" cy="229.171" r="30.334"/>
	<circle display="inline" fill="#DE2F27" cx="429.487" cy="229.171" r="30.334"/>
	<path display="inline" fill="#DE2F27" d="M178.903,351.57c30.667,0,0-48,0-48S148.236,351.57,178.903,351.57z"/>
	<path display="inline" fill="#DE2F27" d="M320.784,391.012c-55.07,0-104.478,22.316-136.226,41.035
		c-34.264,20.203-55.396,40.188-56.279,41.025l10.341,10.863c0.207-0.193,21.01-19.824,53.889-39.162
		c30.066-17.686,76.727-38.764,128.275-38.764c51.547,0,98.207,21.078,128.271,38.764c32.884,19.338,53.688,38.969,53.891,39.16
		l10.344-10.861c-0.883-0.84-22.017-20.822-56.279-41.025C425.258,413.329,375.854,391.012,320.784,391.012z"/>
</g>
<g display="none">
	<path display="inline" fill="#F89820" d="M540.133,92.672C480.374,32.912,400.917,0,316.402,0
		c-84.515,0-163.97,32.912-223.729,92.672C32.912,152.434,0,231.89,0,316.404c0,84.514,32.912,163.969,92.674,223.729
		c59.761,59.764,139.216,92.672,223.729,92.672c84.514,0,163.969-32.908,223.731-92.672c59.763-59.76,92.672-139.215,92.672-223.729
		C632.805,231.89,599.895,152.433,540.133,92.672z M316.402,617.805C150.208,617.805,15,482.598,15,316.404
		C15,150.209,150.208,15,316.402,15s301.403,135.209,301.403,301.404C617.805,482.598,482.596,617.805,316.402,617.805z"/>
	<circle display="inline" fill="#F89820" cx="203.623" cy="229.17" r="30.334"/>
	<circle display="inline" fill="#F89820" cx="429.792" cy="229.17" r="30.334"/>
	<path display="inline" fill="#F89820" d="M122.402,402.653h388.001v15c0,0-90.402,85.232-193.354,85.232
		c-102.952,0-194.649-85.232-194.649-85.232L122.402,402.653L122.402,402.653z"/>
</g>
<g display="none">
	<path display="inline" d="M540.133,92.671C480.374,32.912,400.917,0,316.402,0c-84.514,0-163.97,32.912-223.729,92.672
		C32.912,152.434,0,231.889,0,316.405c0,84.514,32.911,163.969,92.673,223.729c59.761,59.766,139.216,92.672,223.729,92.672
		c84.515,0,163.97-32.906,223.731-92.672c59.762-59.76,92.672-139.215,92.672-223.729
		C632.805,231.889,599.895,152.432,540.133,92.671z M316.402,617.805C150.208,617.805,15,482.598,15,316.405
		C15,150.208,150.208,15,316.402,15s301.403,135.209,301.403,301.405C617.805,482.598,482.596,617.805,316.402,617.805z"/>
	<polygon display="inline" points="441.88,221.795 441.88,152.959 373.047,152.959 190.082,152.959 190.082,221.795 
		373.047,221.795 373.047,269.565 258.783,334.984 258.789,351.99 258.789,405.906 327.622,405.906 327.622,357.208 
		373.047,330.888 373.047,331.121 441.88,291.618 441.88,291.005 442.724,290.512 441.88,289.061 	"/>
	<rect x="259.011" y="427.47" display="inline" width="68.548" height="68.392"/>
</g>
<g display="none">
	<path display="inline" d="M540.133,92.672C480.374,32.912,400.917,0,316.402,0c-84.515,0-163.97,32.912-223.729,92.672
		C32.912,152.434,0,231.89,0,316.404c0,84.514,32.912,163.969,92.674,223.729c59.761,59.764,139.216,92.672,223.729,92.672
		c84.514,0,163.969-32.908,223.731-92.672c59.763-59.76,92.672-139.215,92.672-223.729
		C632.805,231.89,599.895,152.433,540.133,92.672z M316.402,617.805C150.208,617.805,15,482.598,15,316.404
		C15,150.209,150.208,15,316.402,15s301.403,135.209,301.403,301.404C617.805,482.598,482.596,617.805,316.402,617.805z"/>
	<path display="inline" d="M396.35,173.7c-20.156-18.422-47.158-27.633-81.01-27.633c-31.966,0-57.669,8.583-77.113,25.743
		c-19.448,17.164-31.139,41.886-35.073,74.161l43.693,5.196c3.779-24.091,11.728-41.805,23.855-53.142
		c12.122-11.336,27.238-17.005,45.347-17.005c18.735,0,34.559,6.259,47.471,18.776c12.91,12.518,19.367,27.043,19.367,43.576
		c0,9.133-2.207,17.559-6.613,25.271c-4.406,7.717-13.975,18.068-28.693,31.059c-14.727,12.989-24.918,22.872-30.586,29.641
		c-7.716,9.291-13.307,18.502-16.768,27.633c-4.724,12.128-7.086,26.533-7.086,43.224c0,2.834,0.078,7.085,0.236,12.753h40.858
		c0.313-17.005,1.494-29.286,3.543-36.844c2.044-7.56,5.195-14.248,9.447-20.075c4.25-5.823,13.303-14.88,27.16-27.161
		c20.625-18.265,34.482-33.774,41.568-46.528c7.084-12.754,10.627-26.688,10.627-41.805
		C426.581,214.404,416.502,192.122,396.35,173.7z"/>
	<rect x="290.777" y="449.796" display="inline" width="48.417" height="48.417"/>
</g>
<g>
	<path fill="#F89820" d="M540.133,92.672C480.373,32.912,400.916,0,316.402,0c-84.514,0-163.97,32.912-223.729,92.672
		C32.912,152.434,0,231.89,0,316.404c0,84.514,32.912,163.969,92.674,223.729c59.761,59.764,139.216,92.672,223.729,92.672
		c84.514,0,163.969-32.908,223.73-92.672c59.762-59.76,92.672-139.215,92.672-223.729
		C632.805,231.89,599.895,152.433,540.133,92.672z M316.402,617.805C150.208,617.805,15,482.598,15,316.404
		C15,150.209,150.208,15,316.402,15c166.193,0,301.402,135.209,301.402,301.404C617.805,482.598,482.596,617.805,316.402,617.805z"
		/>
	<circle fill="#F89820" cx="203.623" cy="229.17" r="30.334"/>
	<circle fill="#F89820" cx="429.791" cy="229.17" r="30.334"/>
	<path fill="#F89820" d="M122.402,402.652h388v15c0,0-90.402,85.234-193.352,85.234c-102.952,0-194.649-85.234-194.649-85.234
		V402.652z"/>
</g>
</svg>
