<?xml version="1.0" encoding="utf-8"?>
<!-- Generator: Adobe Illustrator 16.0.0, SVG Export Plug-In . SVG Version: 6.00 Build 0)  -->
<!DOCTYPE svg PUBLIC "-//W3C//DTD SVG 1.1//EN" "http://www.w3.org/Graphics/SVG/1.1/DTD/svg11.dtd">
<svg version="1.1" id="Layer_1" xmlns="http://www.w3.org/2000/svg" xmlns:xlink="http://www.w3.org/1999/xlink" x="0px" y="0px"
	 width="632.806px" height="632.806px" viewBox="0 0 632.806 632.806" enable-background="new 0 0 632.806 632.806"
	 xml:space="preserve">
<g>
	<path fill="#29A249" d="M540.134,92.672C480.374,32.912,400.917,0,316.403,0s-163.97,32.912-223.73,92.672
		C32.912,152.434,0,231.89,0,316.405c0,84.514,32.912,163.969,92.673,223.729c59.761,59.762,139.216,92.672,223.73,92.672
		s163.97-32.91,223.731-92.672c59.761-59.76,92.672-139.215,92.672-223.729C632.806,231.89,599.895,152.433,540.134,92.672z
		 M316.403,617.806C150.209,617.806,15,482.599,15,316.405C15,150.209,150.209,15,316.403,15
		c166.194,0,301.403,135.209,301.403,301.405C617.806,482.599,482.597,617.806,316.403,617.806z"/>
	<path fill="#29A249" d="M521.615,335.647c-0.099,0.423-10.135,42.747-40.756,84.776c-40.811,56.014-96.808,84.416-166.438,84.416
		c-69.395,0-124.596-28.227-164.07-83.896c-29.775-41.993-39-84.714-39.089-85.141l-14.683,3.068
		c0.385,1.849,9.804,45.784,41.214,90.293c18.545,26.277,40.928,47.236,66.528,62.297c32.013,18.83,69.056,28.379,110.1,28.379
		c41.028,0,78.268-9.541,110.687-28.357c25.914-15.041,48.751-35.979,67.875-62.227c32.402-44.474,42.817-88.378,43.245-90.225
		L521.615,335.647z"/>
	<circle fill="#29A249" cx="203.32" cy="229.171" r="30.334"/>
	<circle fill="#29A249" cx="429.487" cy="229.171" r="30.334"/>
</g>
<g display="none">
	<path display="inline" fill="#2DA97D" d="M540.134,92.672C480.374,32.912,400.917,0,316.403,0s-163.97,32.912-223.73,92.672
		C32.912,152.434,0,231.89,0,316.405c0,84.514,32.912,163.969,92.673,223.729c59.761,59.762,139.216,92.672,223.73,92.672
		s163.97-32.91,223.731-92.672c59.761-59.76,92.672-139.215,92.672-223.729C632.806,231.89,599.895,152.433,540.134,92.672z
		 M316.403,617.806C150.209,617.806,15,482.599,15,316.405C15,150.209,150.209,15,316.403,15
		c166.194,0,301.403,135.209,301.403,301.405C617.806,482.599,482.597,617.806,316.403,617.806z"/>
	<circle display="inline" fill="#2DA97D" cx="203.32" cy="229.171" r="30.334"/>
	<circle display="inline" fill="#2DA97D" cx="429.487" cy="229.171" r="30.334"/>
	<path display="inline" fill="#2DA97D" d="M445.554,442.009c-30.17,18.398-77.926,40.33-134.092,40.33
		c-56.013,0-100.913-21.83-128.717-40.143c-30.195-19.889-47.398-40.082-47.755-40.506c-0.002-0.002-0.003-0.004-0.004-0.006
		l-11.497,9.637c0.741,0.885,18.515,21.914,50.558,43.105c29.599,19.576,77.465,42.912,137.415,42.912
		c59.831,0,110.408-23.258,142.303-42.77c34.484-21.096,54.708-41.99,55.552-42.869L498.5,401.308
		C498.304,401.511,478.509,421.913,445.554,442.009z"/>
</g>
<g display="none">
	<path display="inline" fill="#F89820" d="M540.134,92.672C480.373,32.912,400.917,0,316.402,0
		c-84.514,0-163.97,32.912-223.729,92.672C32.911,152.434,0,231.89,0,316.405c0,84.514,32.911,163.969,92.673,223.729
		c59.761,59.762,139.216,92.672,223.729,92.672c84.515,0,163.97-32.91,223.732-92.672c59.76-59.76,92.672-139.215,92.672-223.729
		C632.806,231.89,599.894,152.433,540.134,92.672z M316.402,617.806C150.208,617.806,15,482.599,15,316.405
		C15,150.209,150.208,15,316.402,15c166.195,0,301.404,135.209,301.404,301.405C617.806,482.599,482.597,617.806,316.402,617.806z"
		/>
	<circle display="inline" fill="#F89820" cx="203.319" cy="229.171" r="30.334"/>
	<circle display="inline" fill="#F89820" cx="429.486" cy="229.171" r="30.334"/>
	<rect x="133.795" y="428.669" display="inline" fill="#F89820" width="364" height="15"/>
</g>
<g display="none">
	<path display="inline" fill="#EE6427" d="M540.134,92.672C480.373,32.912,400.917,0,316.402,0
		c-84.514,0-163.97,32.912-223.73,92.672S0,231.89,0,316.405c0,84.514,32.912,163.969,92.672,223.729
		c59.761,59.762,139.217,92.672,223.73,92.672c84.515,0,163.97-32.91,223.732-92.672c59.76-59.76,92.672-139.215,92.672-223.729
		C632.806,231.89,599.894,152.433,540.134,92.672z M316.402,617.806C150.209,617.806,15,482.599,15,316.405
		C15,150.209,150.209,15,316.402,15c166.195,0,301.404,135.209,301.404,301.405C617.806,482.599,482.597,617.806,316.402,617.806z"
		/>
	<circle display="inline" fill="#EE6427" cx="203.323" cy="229.171" r="30.334"/>
	<circle display="inline" fill="#EE6427" cx="429.49" cy="229.171" r="30.334"/>
	
		<rect x="308.903" y="293.536" transform="matrix(-0.2367 -0.9716 0.9716 -0.2367 -32.3958 846.7271)" display="inline" fill="#EE6427" width="15.001" height="285.106"/>
</g>
<g display="none">
	<path display="inline" fill="#DE2F27" d="M540.132,92.672C480.373,32.912,400.916,0,316.402,0
		c-84.514,0-163.971,32.912-223.73,92.672C32.911,152.433,0,231.89,0,316.405c0,84.514,32.912,163.969,92.672,223.729
		c59.76,59.762,139.217,92.672,223.73,92.672c84.513,0,163.97-32.91,223.73-92.672c59.762-59.76,92.674-139.215,92.674-223.729
		C632.806,231.89,599.894,152.433,540.132,92.672z M316.402,617.806C150.209,617.806,15,482.599,15,316.405
		C15,150.209,150.209,15,316.402,15c166.195,0,301.404,135.209,301.404,301.405C617.806,482.599,482.597,617.806,316.402,617.806z"
		/>
	<circle display="inline" fill="#DE2F27" cx="203.322" cy="229.171" r="30.334"/>
	<circle display="inline" fill="#DE2F27" cx="429.488" cy="229.171" r="30.334"/>
	<path display="inline" fill="#DE2F27" d="M320.783,391.013c-55.07,0-104.477,22.316-136.225,41.035
		c-34.264,20.203-55.396,40.186-56.279,41.025l10.34,10.865c0.207-0.195,21.01-19.826,53.889-39.164
		c30.066-17.684,76.727-38.762,128.275-38.762s98.208,21.078,128.275,38.762c32.881,19.338,53.684,38.969,53.887,39.162
		l10.344-10.863c-0.883-0.84-22.016-20.822-56.279-41.025C425.259,413.329,375.854,391.013,320.783,391.013z"/>
</g>
<path display="none" fill="#29A249" d="M316.403,0.619C142.001,0.619,0.618,142,0.618,316.405
	c0,174.403,141.383,315.783,315.785,315.783c174.403,0,315.785-141.38,315.785-315.783C632.188,142,490.806,0.619,316.403,0.619z
	 M432.006,196.217c17.126,0,31.009,13.884,31.009,31.01c0,17.125-13.883,31.01-31.009,31.01s-31.009-13.885-31.009-31.01
	C400.998,210.101,414.88,196.217,432.006,196.217z M200.8,196.217c17.126,0,31.009,13.884,31.009,31.01
	c0,17.125-13.883,31.01-31.009,31.01c-17.125,0-31.009-13.885-31.009-31.01C169.792,210.101,183.675,196.217,200.8,196.217z
	 M496.917,431.769c-19.55,26.833-42.896,48.237-69.387,63.613c-33.142,19.235-71.211,28.989-113.153,28.989
	c-41.958,0-79.826-9.762-112.552-29.011c-26.17-15.396-49.052-36.822-68.01-63.686c-32.11-45.5-41.738-90.415-42.132-92.305
	l15.01-3.137c0.092,0.437,9.521,44.11,39.96,87.038c40.353,56.91,96.784,85.766,167.725,85.766
	c71.182,0,128.427-29.035,170.146-86.297c31.303-42.965,41.563-86.232,41.664-86.665l14.938,3.458
	C540.688,341.422,530.041,386.304,496.917,431.769z"/>
<path display="none" fill="#2DA97D" d="M316.403,0.619C142.001,0.619,0.618,142,0.618,316.405
	c0,174.403,141.383,315.783,315.785,315.783c174.403,0,315.785-141.38,315.785-315.783C632.188,142,490.806,0.619,316.403,0.619z
	 M432.006,196.217c17.126,0,31.009,13.884,31.009,31.01c0,17.125-13.883,31.01-31.009,31.01s-31.009-13.885-31.009-31.01
	C400.998,210.101,414.88,196.217,432.006,196.217z M200.8,196.217c17.126,0,31.009,13.884,31.009,31.01
	c0,17.125-13.882,31.01-31.009,31.01c-17.126,0-31.009-13.885-31.009-31.01C169.792,210.101,183.674,196.217,200.8,196.217z
	 M456.826,457.647c-32.605,19.946-84.31,43.723-145.474,43.723c-61.285,0-110.218-23.856-140.476-43.868
	c-32.757-21.664-50.927-43.161-51.685-44.066l11.753-9.851c0.001,0.002,0.002,0.004,0.004,0.006
	c0.365,0.433,17.951,21.076,48.819,41.408c28.423,18.721,74.323,41.037,131.584,41.037c57.417,0,106.237-22.421,137.079-41.229
	c33.689-20.543,53.926-41.399,54.125-41.607l11.059,10.624C512.752,414.722,492.078,436.082,456.826,457.647z"/>
<path display="none" fill="#F89820" d="M316.402,0.619C142.001,0.619,0.618,142,0.618,316.405
	c0,174.403,141.383,315.783,315.784,315.783c174.404,0,315.786-141.38,315.786-315.783C632.188,142,490.806,0.619,316.402,0.619z
	 M432.005,196.217c17.127,0,31.01,13.884,31.01,31.01c0,17.125-13.883,31.01-31.01,31.01c-17.125,0-31.008-13.885-31.008-31.01
	C400.998,210.101,414.88,196.217,432.005,196.217z M200.8,196.217c17.126,0,31.009,13.884,31.009,31.01
	c0,17.125-13.882,31.01-31.009,31.01c-17.126,0-31.008-13.885-31.008-31.01C169.792,210.101,183.674,196.217,200.8,196.217z
	 M501.835,446.504H129.727V431.17h372.109V446.504z"/>
<path display="none" fill="#EE6427" d="M316.402,0.619C142,0.619,0.618,142,0.618,316.405
	c0,174.403,141.382,315.783,315.784,315.783c174.404,0,315.786-141.38,315.786-315.783C632.188,142,490.806,0.619,316.402,0.619z
	 M200.804,196.217c17.126,0,31.009,13.884,31.009,31.01c0,17.125-13.883,31.01-31.009,31.01c-17.126,0-31.009-13.885-31.009-31.01
	C169.795,210.101,183.678,196.217,200.804,196.217z M176.633,480.707l-3.63-14.899l283.171-69.004l3.63,14.899L176.633,480.707z
	 M432.009,258.237c-17.125,0-31.008-13.885-31.008-31.01c0-17.126,13.883-31.01,31.008-31.01c17.127,0,31.01,13.884,31.01,31.01
	C463.019,244.352,449.136,258.237,432.009,258.237z"/>
<path display="none" fill="#DE2F27" d="M316.402,0.619C142,0.619,0.618,142,0.618,316.405
	c0,174.403,141.382,315.783,315.784,315.783c174.402,0,315.786-141.38,315.786-315.783C632.188,142,490.804,0.619,316.402,0.619z
	 M432.007,196.217c17.127,0,31.01,13.884,31.01,31.01c0,17.125-13.883,31.01-31.01,31.01c-17.125,0-31.008-13.885-31.008-31.01
	C401,210.101,414.882,196.217,432.007,196.217z M200.803,196.217c17.127,0,31.01,13.884,31.01,31.01
	c0,17.125-13.883,31.01-31.01,31.01c-17.125,0-31.008-13.885-31.008-31.01C169.795,210.101,183.678,196.217,200.803,196.217z
	 M507.101,487.669c-0.208-0.197-21.475-20.266-55.088-40.034c-30.736-18.078-78.435-39.626-131.132-39.626
	s-100.397,21.548-131.133,39.626c-33.611,19.769-54.877,39.837-55.089,40.036l-10.57-11.107
	c0.902-0.858,22.506-21.286,57.533-41.939c32.455-19.136,82.962-41.949,139.259-41.949s106.803,22.813,139.261,41.949
	c35.026,20.653,56.631,41.081,57.533,41.939L507.101,487.669z"/>
</svg>
