<?xml version="1.0" encoding="utf-8"?>
<!-- Generator: Adobe Illustrator 16.0.0, SVG Export Plug-In . SVG Version: 6.00 Build 0)  -->
<!DOCTYPE svg PUBLIC "-//W3C//DTD SVG 1.1//EN" "http://www.w3.org/Graphics/SVG/1.1/DTD/svg11.dtd">
<svg version="1.1" id="Layer_1" xmlns="http://www.w3.org/2000/svg" xmlns:xlink="http://www.w3.org/1999/xlink" x="0px" y="0px"
	 width="632.805px" height="632.805px" viewBox="0 0 632.805 632.805" enable-background="new 0 0 632.805 632.805"
	 xml:space="preserve">
<g display="none">
	<path display="inline" fill="#29A249" d="M540.133,92.672C480.374,32.912,400.917,0,316.403,0
		c-84.514,0-163.97,32.912-223.73,92.672C32.912,152.434,0,231.89,0,316.405c0,84.513,32.912,163.968,92.673,223.728
		c59.761,59.764,139.216,92.672,223.73,92.672c84.514,0,163.971-32.908,223.73-92.672c59.762-59.76,92.672-139.215,92.672-223.728
		C632.805,231.89,599.895,152.433,540.133,92.672z M316.403,617.805C150.209,617.805,15,482.598,15,316.405
		C15,150.209,150.209,15,316.403,15c166.193,0,301.402,135.209,301.402,301.405C617.805,482.598,482.596,617.805,316.403,617.805z"
		/>
	<path display="inline" fill="#29A249" d="M521.616,335.646c-0.103,0.425-10.136,42.746-40.756,84.773
		c-40.813,56.016-96.812,84.416-166.439,84.416c-69.395,0-124.596-28.227-164.07-83.895c-29.775-41.994-39-84.717-39.089-85.146
		l-14.683,3.068c0.385,1.85,9.804,45.785,41.214,90.293c18.545,26.275,40.928,47.234,66.528,62.297
		c32.013,18.83,69.056,28.379,110.1,28.379c41.029,0,78.269-9.541,110.688-28.354c25.914-15.041,48.752-35.979,67.875-62.229
		c32.399-44.473,42.813-88.377,43.244-90.225L521.616,335.646z"/>
	<circle display="inline" fill="#29A249" cx="203.32" cy="229.171" r="30.334"/>
	<circle display="inline" fill="#29A249" cx="429.487" cy="229.171" r="30.334"/>
</g>
<g display="none">
	<path display="inline" fill="#2DA97D" d="M540.133,92.672C480.374,32.912,400.917,0,316.403,0
		c-84.514,0-163.97,32.912-223.73,92.672C32.912,152.434,0,231.89,0,316.405c0,84.513,32.912,163.968,92.673,223.728
		c59.761,59.764,139.216,92.672,223.73,92.672c84.514,0,163.971-32.908,223.73-92.672c59.762-59.76,92.672-139.215,92.672-223.728
		C632.805,231.89,599.895,152.433,540.133,92.672z M316.403,617.805C150.209,617.805,15,482.598,15,316.405
		C15,150.209,150.209,15,316.403,15c166.193,0,301.402,135.209,301.402,301.405C617.805,482.598,482.596,617.805,316.403,617.805z"
		/>
	<circle display="inline" fill="#2DA97D" cx="203.32" cy="229.171" r="30.334"/>
	<circle display="inline" fill="#2DA97D" cx="429.487" cy="229.171" r="30.334"/>
	<path display="inline" fill="#2DA97D" d="M445.553,442.008c-30.17,18.398-77.926,40.33-134.091,40.33
		c-56.013,0-100.913-21.83-128.717-40.143c-30.195-19.892-47.398-40.082-47.755-40.506c-0.002-0.005-0.003-0.007-0.004-0.009
		l-11.497,9.64c0.741,0.885,18.515,21.914,50.558,43.104c29.599,19.576,77.465,42.912,137.415,42.912
		c59.832,0,110.408-23.258,142.302-42.77c34.484-21.101,54.709-41.99,55.556-42.869L498.5,401.307
		C498.303,401.51,478.508,421.913,445.553,442.008z"/>
</g>
<g display="none">
	<path display="inline" fill="#EE6427" d="M540.133,92.672C480.374,32.912,400.917,0,316.402,0
		c-84.514,0-163.97,32.912-223.73,92.672C32.912,152.432,0,231.89,0,316.405c0,84.513,32.912,163.968,92.672,223.728
		c59.761,59.764,139.217,92.672,223.73,92.672c84.515,0,163.97-32.908,223.731-92.672c59.762-59.76,92.672-139.215,92.672-223.728
		C632.805,231.89,599.895,152.433,540.133,92.672z M316.402,617.805C150.209,617.805,15,482.598,15,316.405
		C15,150.209,150.209,15,316.402,15c166.194,0,301.403,135.209,301.403,301.405C617.805,482.598,482.596,617.805,316.402,617.805z"
		/>
	<circle display="inline" fill="#EE6427" cx="203.323" cy="229.171" r="30.334"/>
	<circle display="inline" fill="#EE6427" cx="429.491" cy="229.171" r="30.334"/>
	
		<rect x="308.933" y="293.553" transform="matrix(-0.2367 -0.9716 0.9716 -0.2367 -32.3762 846.7966)" display="inline" fill="#EE6427" width="15.004" height="285.126"/>
</g>
<g display="none">
	<path display="inline" fill="#DE2F27" d="M540.131,92.672C480.374,32.912,400.917,0,316.402,0
		c-84.514,0-163.971,32.912-223.73,92.672C32.911,152.433,0,231.89,0,316.405c0,84.513,32.912,163.968,92.672,223.728
		c59.76,59.764,139.217,92.672,223.73,92.672c84.513,0,163.97-32.908,223.729-92.672c59.764-59.76,92.674-139.215,92.674-223.728
		C632.805,231.89,599.895,152.433,540.131,92.672z M316.402,617.805C150.209,617.805,15,482.598,15,316.405
		C15,150.209,150.209,15,316.402,15c166.194,0,301.403,135.209,301.403,301.405C617.805,482.598,482.596,617.805,316.402,617.805z"
		/>
	<circle display="inline" fill="#DE2F27" cx="203.322" cy="229.171" r="30.334"/>
	<circle display="inline" fill="#DE2F27" cx="429.489" cy="229.171" r="30.334"/>
	<path display="inline" fill="#DE2F27" d="M320.784,391.012c-55.071,0-104.478,22.316-136.226,41.035
		c-34.264,20.203-55.396,40.188-56.279,41.025l10.34,10.862c0.207-0.192,21.01-19.823,53.889-39.161
		c30.066-17.687,76.727-38.765,128.276-38.765c51.547,0,98.207,21.078,128.271,38.765c32.885,19.338,53.688,38.969,53.892,39.159
		l10.344-10.86c-0.883-0.84-22.017-20.822-56.279-41.025C425.258,413.329,375.854,391.012,320.784,391.012z"/>
</g>
<path display="none" fill="#29A249" d="M316.403,0.619C142.001,0.619,0.618,142,0.618,316.405
	c0,174.399,141.383,315.782,315.785,315.782s315.785-141.383,315.785-315.782C632.188,142,490.805,0.619,316.403,0.619z
	 M432.006,196.217c17.125,0,31.008,13.884,31.008,31.01c0,17.125-13.883,31.01-31.008,31.01c-17.127,0-31.01-13.885-31.01-31.01
	C400.999,210.101,414.879,196.217,432.006,196.217z M200.8,196.217c17.126,0,31.009,13.884,31.009,31.01
	c0,17.125-13.883,31.01-31.009,31.01c-17.125,0-31.009-13.885-31.009-31.01C169.792,210.101,183.675,196.217,200.8,196.217z
	 M496.917,431.768c-19.549,26.834-42.896,48.238-69.387,63.613c-33.142,19.236-71.212,28.99-113.153,28.99
	c-41.958,0-79.826-9.762-112.552-29.012c-26.17-15.396-49.052-36.822-68.01-63.688c-32.11-45.5-41.738-90.416-42.132-92.305
	l15.01-3.137c0.092,0.436,9.521,44.106,39.96,87.034c40.353,56.91,96.784,85.769,167.725,85.769
	c71.183,0,128.427-29.035,170.146-86.297c31.306-42.965,41.563-86.232,41.664-86.664l14.938,3.457
	C540.688,341.422,530.042,386.303,496.917,431.768z"/>
<path display="none" fill="#2DA97D" d="M316.403,0.619C142.001,0.619,0.618,142,0.618,316.405
	c0,174.399,141.383,315.782,315.785,315.782s315.785-141.383,315.785-315.782C632.188,142,490.805,0.619,316.403,0.619z
	 M432.006,196.217c17.125,0,31.008,13.884,31.008,31.01c0,17.125-13.883,31.01-31.008,31.01c-17.127,0-31.01-13.885-31.01-31.01
	C400.999,210.101,414.879,196.217,432.006,196.217z M200.8,196.217c17.126,0,31.009,13.884,31.009,31.01
	c0,17.125-13.882,31.01-31.009,31.01c-17.126,0-31.009-13.885-31.009-31.01C169.792,210.101,183.674,196.217,200.8,196.217z
	 M456.827,457.647c-32.605,19.942-84.312,43.723-145.475,43.723c-61.285,0-110.218-23.855-140.476-43.867
	c-32.757-21.664-50.927-43.162-51.685-44.066l11.753-9.852c0.001,0.002,0.002,0.004,0.004,0.006
	c0.365,0.437,17.951,21.076,48.819,41.408c28.423,18.721,74.323,41.037,131.584,41.037c57.417,0,106.237-22.42,137.079-41.229
	c33.689-20.543,53.926-41.396,54.125-41.604l11.062,10.625C512.752,414.721,492.079,436.083,456.827,457.647z"/>
<path display="none" fill="#F89820" d="M316.402,0.619C142.001,0.619,0.618,142,0.618,316.405
	c0,174.399,141.383,315.782,315.784,315.782c174.403,0,315.786-141.383,315.786-315.782C632.188,142,490.805,0.619,316.402,0.619z
	 M432.004,196.217c17.127,0,31.01,13.884,31.01,31.01c0,17.125-13.883,31.01-31.01,31.01c-17.125,0-31.008-13.885-31.008-31.01
	C400.999,210.101,414.879,196.217,432.004,196.217z M200.8,196.217c17.126,0,31.009,13.884,31.009,31.01
	c0,17.125-13.882,31.01-31.009,31.01c-17.126,0-31.008-13.885-31.008-31.01C169.792,210.101,183.674,196.217,200.8,196.217z
	 M501.834,446.504H129.727V431.17h372.109v15.334H501.834L501.834,446.504z"/>
<path display="none" fill="#EE6427" d="M316.402,0.619C142,0.619,0.618,142,0.618,316.405
	c0,174.399,141.382,315.782,315.784,315.782c174.403,0,315.786-141.383,315.786-315.782C632.188,142,490.805,0.619,316.402,0.619z
	 M200.804,196.217c17.126,0,31.009,13.884,31.009,31.01c0,17.125-13.883,31.01-31.009,31.01c-17.126,0-31.009-13.885-31.009-31.01
	C169.795,210.101,183.678,196.217,200.804,196.217z M176.633,480.708l-3.63-14.9l283.171-69.004l3.629,14.9L176.633,480.708z
	 M432.008,258.237c-17.125,0-31.008-13.885-31.008-31.01c0-17.126,13.883-31.01,31.008-31.01c17.127,0,31.012,13.884,31.012,31.01
	C463.02,244.352,449.135,258.237,432.008,258.237z"/>
<path display="none" fill="#DE2F27" d="M316.402,0.619C142,0.619,0.618,142,0.618,316.405
	c0,174.399,141.382,315.782,315.784,315.782c174.401,0,315.786-141.383,315.786-315.782C632.188,142,490.803,0.619,316.402,0.619z
	 M432.006,196.217c17.127,0,31.01,13.884,31.01,31.01c0,17.125-13.883,31.01-31.01,31.01c-17.125,0-31.008-13.885-31.008-31.01
	C401,210.101,414.881,196.217,432.006,196.217z M200.803,196.217c17.127,0,31.01,13.884,31.01,31.01
	c0,17.125-13.883,31.01-31.01,31.01c-17.125,0-31.008-13.885-31.008-31.01C169.795,210.101,183.678,196.217,200.803,196.217z
	 M507.102,487.668c-0.209-0.197-21.477-20.266-55.09-40.033c-30.731-18.078-78.434-39.627-131.131-39.627
	c-52.697,0-100.397,21.549-131.133,39.627c-33.611,19.771-54.877,39.836-55.089,40.035l-10.57-11.104
	c0.902-0.859,22.506-21.287,57.533-41.939c32.455-19.137,82.962-41.949,139.259-41.949s106.803,22.813,139.26,41.949
	c35.027,20.652,56.633,41.08,57.533,41.939L507.102,487.668z"/>
<g display="none">
	<path display="inline" fill="#F89820" d="M540.133,92.672C480.374,32.912,400.917,0,316.402,0
		c-84.514,0-163.97,32.912-223.729,92.672C32.912,152.434,0,231.89,0,316.405c0,84.513,32.911,163.968,92.673,223.728
		c59.761,59.764,139.216,92.672,223.729,92.672c84.515,0,163.97-32.908,223.731-92.672c59.762-59.76,92.672-139.215,92.672-223.728
		C632.805,231.89,599.895,152.433,540.133,92.672z M316.402,617.805C150.208,617.805,15,482.598,15,316.405
		C15,150.209,150.208,15,316.402,15s301.403,135.209,301.403,301.405C617.805,482.598,482.596,617.805,316.402,617.805z"/>
	<circle display="inline" fill="#F89820" cx="203.319" cy="229.171" r="30.334"/>
	<circle display="inline" fill="#F89820" cx="429.487" cy="229.171" r="30.334"/>
	<polygon display="inline" fill="#F89820" points="352.632,438.389 280.054,418.388 207.478,438.388 136.898,418.938 
		132.913,433.399 207.478,453.948 280.054,433.948 352.632,453.948 425.214,433.948 495.803,453.399 499.788,438.938 
		425.214,418.389 	"/>
</g>
<g display="none">
	<path display="inline" fill="#F89820" d="M540.133,92.672C480.374,32.912,400.917,0,316.402,0
		c-84.514,0-163.97,32.912-223.729,92.672C32.911,152.434,0,231.89,0,316.405c0,84.513,32.91,163.968,92.672,223.728
		c59.762,59.764,139.217,92.672,223.729,92.672c84.515,0,163.97-32.908,223.731-92.672c59.763-59.76,92.672-139.215,92.672-223.728
		C632.805,231.89,599.895,152.433,540.133,92.672z M316.402,617.805C150.208,617.805,15,482.598,15,316.405
		C15,150.209,150.208,15,316.402,15s301.403,135.209,301.403,301.405C617.805,482.598,482.596,617.805,316.402,617.805z"/>
	<path display="inline" fill="#F89820" d="M203.319,259.505c16.754,0,30.334-13.581,30.334-30.334s-60.668-16.753-60.668,0
		S186.566,259.505,203.319,259.505z"/>
	<path display="inline" fill="#F89820" d="M429.487,259.505c16.752,0,30.334-13.581,30.334-30.334s-60.668-16.753-60.668,0
		S412.733,259.505,429.487,259.505z"/>
	<path display="inline" fill="#F89820" d="M197.217,435.4l14.912,1.622c0.214-1.686-25.868-41.218,53.774-41.218
		c85.617,0,188.78,46.71,189.813,47.185l6.239-13.644c-4.332-1.979-107.124-48.541-196.052-48.541
		C171.901,380.807,197.447,433.17,197.217,435.4z"/>
</g>
<g display="none">
	<path display="inline" fill="#DE2F27" d="M540.133,92.672C480.374,32.912,400.917,0,316.402,0
		c-84.514,0-163.97,32.912-223.729,92.672C32.912,152.434,0,231.89,0,316.405c0,84.513,32.911,163.968,92.673,223.728
		c59.761,59.764,139.216,92.672,223.729,92.672c84.515,0,163.97-32.908,223.731-92.672c59.762-59.76,92.672-139.215,92.672-223.728
		C632.805,231.89,599.895,152.433,540.133,92.672z M316.402,617.805C150.208,617.805,15,482.598,15,316.405
		C15,150.209,150.208,15,316.402,15s301.403,135.209,301.403,301.405C617.805,482.598,482.596,617.805,316.402,617.805z"/>
	<circle display="inline" fill="#DE2F27" cx="203.319" cy="229.171" r="30.334"/>
	<circle display="inline" fill="#DE2F27" cx="429.487" cy="229.171" r="30.334"/>
	<path display="inline" fill="#DE2F27" d="M178.903,351.57c30.667,0,0-48,0-48S148.236,351.57,178.903,351.57z"/>
	<path display="inline" fill="#DE2F27" d="M320.784,391.012c-55.07,0-104.478,22.316-136.226,41.035
		c-34.264,20.203-55.396,40.188-56.279,41.025l10.341,10.862c0.207-0.192,21.01-19.823,53.889-39.161
		c30.066-17.687,76.727-38.765,128.275-38.765c51.547,0,98.207,21.078,128.271,38.765c32.885,19.338,53.688,38.969,53.892,39.159
		l10.344-10.86c-0.883-0.84-22.017-20.822-56.279-41.025C425.258,413.329,375.854,391.012,320.784,391.012z"/>
</g>
<g display="none">
	<path display="inline" fill="#F89820" d="M540.133,92.672C480.374,32.912,400.917,0,316.402,0
		c-84.515,0-163.97,32.912-223.729,92.672C32.912,152.434,0,231.89,0,316.404c0,84.514,32.912,163.969,92.674,223.729
		c59.761,59.764,139.216,92.672,223.729,92.672c84.514,0,163.969-32.908,223.731-92.672c59.763-59.76,92.672-139.215,92.672-223.729
		C632.805,231.89,599.895,152.433,540.133,92.672z M316.402,617.805C150.208,617.805,15,482.598,15,316.404
		C15,150.209,150.208,15,316.402,15s301.403,135.209,301.403,301.404C617.805,482.598,482.596,617.805,316.402,617.805z"/>
	<circle display="inline" fill="#F89820" cx="203.623" cy="229.17" r="30.334"/>
	<circle display="inline" fill="#F89820" cx="429.792" cy="229.17" r="30.334"/>
	<path display="inline" fill="#F89820" d="M122.402,402.653h388.001v15c0,0-90.402,85.231-193.354,85.231
		c-102.952,0-194.649-85.231-194.649-85.231L122.402,402.653L122.402,402.653z"/>
</g>
<path d="M540.133,92.671C480.374,32.912,400.917,0,316.402,0c-84.514,0-163.97,32.912-223.729,92.672
	C32.912,152.434,0,231.889,0,316.405c0,84.514,32.911,163.969,92.673,223.729c59.761,59.767,139.216,92.672,223.729,92.672
	c84.515,0,163.97-32.905,223.731-92.672c59.762-59.76,92.672-139.215,92.672-223.729
	C632.805,231.889,599.895,152.432,540.133,92.671z M327.559,495.862h-68.548V427.47h68.548V495.862z M441.88,291.005v0.613
	l-68.833,39.503v-0.233l-45.425,26.32v48.698h-68.833V351.99l-0.006-17.006l114.264-65.419v-47.77H190.082v-68.836h182.965h68.833
	v68.836v67.266l0.844,1.451L441.88,291.005z"/>
<path display="none" d="M540.133,92.672C480.374,32.912,400.917,0,316.402,0c-84.515,0-163.97,32.912-223.729,92.672
	C32.912,152.434,0,231.89,0,316.404c0,84.514,32.912,163.969,92.674,223.729c59.761,59.764,139.216,92.672,223.729,92.672
	c84.514,0,163.969-32.908,223.731-92.672c59.763-59.76,92.672-139.215,92.672-223.729
	C632.805,231.89,599.895,152.433,540.133,92.672z M339.193,498.213h-48.417v-48.417h48.417V498.213z M415.953,282.345
	c-7.086,12.754-20.943,28.264-41.568,46.528c-13.857,12.281-22.91,21.338-27.16,27.161c-4.252,5.827-7.402,12.515-9.447,20.075
	c-2.049,7.558-3.229,19.839-3.543,36.844h-40.857c-0.158-5.668-0.236-9.919-0.236-12.753c0-16.691,2.362-31.097,7.086-43.225
	c3.461-9.131,9.052-18.342,16.768-27.633c5.668-6.769,15.858-16.651,30.586-29.641c14.718-12.991,24.287-23.342,28.692-31.059
	c4.406-7.712,6.613-16.138,6.613-25.271c0-16.533-6.457-31.058-19.367-43.576c-12.912-12.517-28.735-18.776-47.471-18.776
	c-18.109,0-33.225,5.669-45.347,17.005c-12.127,11.337-20.076,29.051-23.855,53.142l-43.693-5.196
	c3.934-32.275,15.625-56.997,35.073-74.161c19.444-17.16,45.147-25.743,77.113-25.743c33.852,0,60.854,9.211,81.01,27.633
	c20.152,18.422,30.231,40.704,30.23,66.84C426.58,255.657,423.037,269.591,415.953,282.345z"/>
<path display="none" fill="#F89820" d="M540.133,92.672C480.373,32.912,400.916,0,316.402,0c-84.514,0-163.97,32.912-223.729,92.672
	C32.912,152.434,0,231.89,0,316.404c0,84.514,32.912,163.969,92.674,223.729c59.761,59.764,139.216,92.672,223.729,92.672
	c84.514,0,163.969-32.908,223.73-92.672c59.762-59.76,92.672-139.215,92.672-223.729C632.805,231.89,599.895,152.433,540.133,92.672
	z M429.791,198.836c16.752,0,30.334,13.582,30.334,30.334c0,16.754-13.582,30.334-30.334,30.334
	c-16.754,0-30.334-13.58-30.334-30.334C399.457,212.418,413.037,198.836,429.791,198.836z M203.623,198.836
	c16.754,0,30.334,13.582,30.334,30.334c0,16.754-13.58,30.334-30.334,30.334c-16.753,0-30.334-13.58-30.334-30.334
	C173.289,212.418,186.87,198.836,203.623,198.836z M510.402,417.652c0,0-90.402,85.233-193.353,85.233
	c-102.952,0-194.649-85.233-194.649-85.233v-15h388L510.402,417.652L510.402,417.652z"/>
</svg>
