<svg xmlns="http://www.w3.org/2000/svg" width="32" height="32" viewBox="0 0 32 32"><path d="M26.11 10.181c-2.442-.275-6.483-.245-9.42.491a4.493 4.493 0 0 1-.19.035 3.316 3.316 0 0 1-.19-.035c-2.937-.736-6.978-.765-9.42-.491C8.946 7.06 12.483 5 16.5 5s7.554 2.06 9.61 5.181zm.746 1.313A11.452 11.452 0 0 1 28 16.5C28 22.851 22.851 28 16.5 28S5 22.851 5 16.5c0-1.794.411-3.493 1.144-5.006a.094.094 0 0 0 .049.026c.459.169.655.59.655.59s.137.374.535 1.894 1.347 1.702 1.347 1.702 1.162.261 2.502.261c1.34 0 2.142-.055 3-.446s1.233-1.477 1.233-1.477.432-.937.73-1.82c.045-.134.163-.225.304-.284.14.058.259.15.304.284.298.884.73 1.82.73 1.82s.375 1.087 1.233 1.477c.858.39 1.66.446 3 .446s2.502-.261 2.502-.261.949-.182 1.347-1.702.535-1.894.535-1.894.196-.421.655-.59a.094.094 0 0 0 .049-.026zM16.5 29C23.404 29 29 23.404 29 16.5S23.404 4 16.5 4 4 9.596 4 16.5 9.596 29 16.5 29zm-.019-7C13 22 11 20 11 20v1s2 2 5.481 2S22 21 22 21v-1s-2.037 2-5.519 2zM8.44 11.317c.494-.32 2.314-.328 2.954-.313s1.813.109 2.952.454c1.139.345.464 1.518.375 1.771-.128.366-.531 1.018-.952 1.287S12.421 15 11.258 15c-.676 0-1.224-.029-1.765-.139s-.809-.208-1.126-.83c-.137-.269-.254-.71-.302-1.03s-.236-1.288.375-1.684zm16.12 0c.611.395.423 1.363.375 1.684s-.164.761-.302 1.03c-.318.622-.586.72-1.126.83S22.418 15 21.742 15c-1.164 0-2.09-.215-2.511-.484s-.824-.921-.952-1.287c-.088-.252-.764-1.426.375-1.771s2.312-.438 2.952-.454c.64-.016 2.459-.007 2.954.313zM12 14a1 1 0 1 0 0-2 1 1 0 0 0 0 2zm9 0a1 1 0 1 0 0-2 1 1 0 0 0 0 2z"/></svg>