<svg xmlns="http://www.w3.org/2000/svg" width="32" height="32" viewBox="0 0 32 32"><path d="M16.5 29C9.596 29 4 23.404 4 16.5S9.596 4 16.5 4 29 9.596 29 16.5 23.404 29 16.5 29zm0-1C22.851 28 28 22.851 28 16.5S22.851 5 16.5 5 5 10.149 5 16.5 10.149 28 16.5 28zM12 14a1 1 0 1 0 0-2 1 1 0 0 0 0 2zm9 0a1 1 0 1 0 0-2 1 1 0 0 0 0 2zm-4.5 10c-2.485 0-4.5-1.119-4.5-2.5s2.015-2.5 4.5-2.5 4.5 1.119 4.5 2.5-2.015 2.5-4.5 2.5zm0-1c1.933 0 3.5-.672 3.5-1.5S18.433 20 16.5 20s-3.5.672-3.5 1.5 1.567 1.5 3.5 1.5z"/></svg>