<svg xmlns="http://www.w3.org/2000/svg" width="32" height="32" viewBox="0 0 32 32"><path d="M19 20v1h-2v-1h2zm1 0h.494c.658 0 1.215.417 1.421 1H20v-1zm-1 3h-2v-1h2v1zm1 0v-1h1.915c-.206.585-.765 1-1.422 1h-.494zm-4-3v1h-2v-1h2zm0 3h-2v-1h2v1zm-3-3v1h-1.915c.206-.585.765-1 1.422-1h.494zm0 3h-.494a1.504 1.504 0 0 1-1.421-1H13v1zm3.5 6C23.404 29 29 23.404 29 16.5S23.404 4 16.5 4 4 9.596 4 16.5 9.596 29 16.5 29zM12 15a1 1 0 1 1 0-2 1 1 0 0 1 0 2zm9 0a1 1 0 1 1 0-2 1 1 0 0 1 0 2zm-2-5h4v1h-4v-1zm-9 0h4v1h-4v-1z"/></svg>