<svg xmlns="http://www.w3.org/2000/svg" width="32" height="32" viewBox="0 0 32 32"><path d="M16.5 29C9.596 29 4 23.404 4 16.5S9.596 4 16.5 4 29 9.596 29 16.5 23.404 29 16.5 29zm0-1C22.851 28 28 22.851 28 16.5S22.851 5 16.5 5 5 10.149 5 16.5 10.149 28 16.5 28zm-.019-7C13 21 11 23 11 23v-1s2-2 5.481-2S22 22 22 22v1s-2.037-2-5.519-2zm5.08-4.439l-2.828-2.828 2.828-2.828.707.707-2.121 2.121 2.121 2.121-.707.707zm-10.122-5.657l2.828 2.828-2.828 2.828-.707-.707 2.121-2.121-2.121-2.121.707-.707z"/></svg>