<svg xmlns="http://www.w3.org/2000/svg" width="172.89" height="172.91" viewBox="0 0 172.89 172.91"><g fill="#E3E5E4"><path d="M94.955 81.403v-.289c7.698-3.657 10.297-9.335 10.297-14.628 0-7.796-6.063-15.398-18.188-15.398-10.971 0-19.343 6.737-19.343 16.649 0 5.39 2.983 10.778 9.911 14.051l.097.289c-7.698 3.271-12.414 8.854-12.414 16.745 0 9.143 7.891 16.938 20.979 16.938 11.934 0 21.268-7.314 21.268-18.188-.001-7.604-4.812-13.09-12.607-16.169zM75.708 67.16c0-5.39 3.849-10.009 10.874-10.009 7.603 0 10.586 5.198 10.586 10.202 0 5.678-4.139 9.527-9.527 11.355-7.218-1.924-11.933-5.293-11.933-11.548zm10.778 42.441c-7.987 0-12.799-5.582-12.51-11.934 0-5.967 3.945-10.778 11.259-12.896 8.469 2.406 13.762 6.063 13.762 13.666 0 6.448-4.909 11.164-12.511 11.164z"/><path d="M86.433 0C38.772 0-.002 38.779-.002 86.45c0 47.676 38.774 86.46 86.436 86.46 47.666 0 86.446-38.784 86.446-86.46C172.879 38.779 134.099 0 86.433 0zm0 167.656c-44.765 0-81.182-36.43-81.182-81.206 0-44.772 36.417-81.196 81.182-81.196 44.77 0 81.192 36.424 81.192 81.196 0 44.777-36.422 81.206-81.192 81.206z"/></g></svg>