<svg xmlns="http://www.w3.org/2000/svg" width="172.89" height="172.91" viewBox="0 0 172.89 172.91"><g fill="#E3E5E4"><path d="M87.07 69.566L71.769 90.834v.192h20.498V70.144c0-3.272.096-6.544.288-9.816h-.288a178.84 178.84 0 0 1-5.197 9.238z"/><path d="M86.439 0C38.778 0 .004 38.779.004 86.45c0 47.676 38.774 86.46 86.436 86.46 47.666 0 86.446-38.784 86.446-86.46C172.886 38.779 134.105 0 86.439 0zm22.572 97.667h-8.757v17.034h-7.987V97.667H63.204v-5.582l27.907-39.938h9.143v38.88h8.757v6.64z"/></g></svg>