<svg xmlns="http://www.w3.org/2000/svg" width="172.89" height="172.91" viewBox="0 0 172.89 172.91"><g fill="#E3E5E4"><path d="M86.396 57.535c-7.218 0-12.318 6.353-12.318 15.207 0 7.795 4.716 13.28 12.029 13.28 5.678 0 10.104-2.791 12.318-6.544.48-.771.77-1.732.77-3.08 0-10.681-3.945-18.863-12.799-18.863z"/><path d="M86.439 0C38.778 0 .004 38.779.004 86.45c0 47.676 38.774 86.46 86.436 86.46 47.666 0 86.446-38.784 86.446-86.46C172.886 38.779 134.105 0 86.439 0zm10.542 106.81c-4.812 4.716-11.451 7.603-18.188 8.373-3.079.48-5.774.577-7.795.48v-6.929c1.828.192 3.945 0 6.833-.289 4.907-.673 9.526-2.694 13.087-6.063 4.138-3.753 7.121-9.239 8.276-16.649h-.289c-3.464 4.234-8.468 6.737-14.724 6.737-11.259 0-18.477-8.469-18.477-19.151 0-11.838 8.564-22.231 21.364-22.231 12.799 0 20.689 10.394 20.689 26.369.003 13.763-4.616 23.386-10.776 29.353z"/></g></svg>