<svg xmlns="http://www.w3.org/2000/svg" width="172.89" height="172.91" viewBox="0 0 172.89 172.91"><g fill="#E3E5E4"><path d="M87.064 51.088c-12.8 0-21.364 10.394-21.364 22.231 0 10.683 7.218 19.151 18.477 19.151 6.256 0 11.26-2.503 14.724-6.737h.289c-1.155 7.41-4.139 12.896-8.276 16.649-3.561 3.368-8.18 5.39-13.087 6.063-2.888.289-5.005.481-6.833.289v6.929c2.021.097 4.716 0 7.795-.48 6.736-.771 13.376-3.657 18.188-8.373 6.159-5.967 10.778-15.59 10.778-29.353-.002-15.976-7.892-26.369-20.691-26.369zm11.355 28.391c-2.214 3.753-6.641 6.544-12.318 6.544-7.313 0-12.029-5.485-12.029-13.28 0-8.854 5.101-15.207 12.318-15.207 8.854 0 12.799 8.181 12.799 18.863 0 1.347-.289 2.309-.77 3.08z"/><path d="M86.433 0C38.772 0-.002 38.779-.002 86.45c0 47.676 38.774 86.46 86.436 86.46 47.666 0 86.446-38.784 86.446-86.46C172.879 38.779 134.099 0 86.433 0zm0 167.656c-44.765 0-81.182-36.43-81.182-81.206 0-44.772 36.417-81.196 81.182-81.196 44.77 0 81.192 36.424 81.192 81.196 0 44.777-36.422 81.206-81.192 81.206z"/></g></svg>