<svg xmlns="http://www.w3.org/2000/svg" width="632.806" height="632.806" viewBox="0 0 632.806 632.806"><path fill="#DE2F27" d="M316.402.619C142 .619.618 142 .618 316.405.618 490.808 142 632.188 316.402 632.188s315.786-141.38 315.786-315.783C632.188 142 490.804.619 316.402.619zm115.605 195.598c17.127 0 31.01 13.884 31.01 31.01 0 17.125-13.883 31.01-31.01 31.01-17.125 0-31.008-13.885-31.008-31.01.001-17.126 13.883-31.01 31.008-31.01zm-231.204 0c17.127 0 31.01 13.884 31.01 31.01 0 17.125-13.883 31.01-31.01 31.01-17.125 0-31.008-13.885-31.008-31.01 0-17.126 13.883-31.01 31.008-31.01zm306.298 291.452c-.208-.197-21.475-20.266-55.088-40.034-30.736-18.078-78.435-39.626-131.132-39.626s-100.397 21.548-131.133 39.626c-33.611 19.769-54.877 39.837-55.089 40.036l-10.57-11.107c.902-.858 22.506-21.286 57.533-41.939 32.455-19.136 82.962-41.949 139.259-41.949s106.803 22.813 139.261 41.949c35.026 20.653 56.631 41.081 57.533 41.939l-10.574 11.105z"/></svg>