<svg xmlns="http://www.w3.org/2000/svg" width="632.806" height="632.806" viewBox="0 0 632.806 632.806"><g fill="#DE2F27"><path d="M540.132 92.672C480.373 32.912 400.916 0 316.402 0c-84.514 0-163.971 32.912-223.73 92.672C32.911 152.433 0 231.89 0 316.405c0 84.514 32.912 163.969 92.672 223.729 59.76 59.762 139.217 92.672 223.73 92.672 84.513 0 163.97-32.91 223.73-92.672 59.762-59.76 92.674-139.215 92.674-223.729 0-84.515-32.912-163.972-92.674-223.733zm-223.73 525.134C150.209 617.806 15 482.599 15 316.405 15 150.209 150.209 15 316.402 15c166.195 0 301.404 135.209 301.404 301.405 0 166.194-135.209 301.401-301.404 301.401z"/><circle cx="203.322" cy="229.171" r="30.334"/><circle cx="429.488" cy="229.171" r="30.334"/><path d="M320.783 391.013c-55.07 0-104.477 22.316-136.225 41.035-34.264 20.203-55.396 40.186-56.279 41.025l10.34 10.865c.207-.195 21.01-19.826 53.889-39.164 30.066-17.684 76.727-38.762 128.275-38.762s98.208 21.078 128.275 38.762c32.881 19.338 53.684 38.969 53.887 39.162l10.344-10.863c-.883-.84-22.016-20.822-56.279-41.025-31.751-18.719-81.156-41.035-136.227-41.035z"/></g></svg>