<svg xmlns="http://www.w3.org/2000/svg" width="172.89" height="172.91" viewBox="0 0 172.89 172.91"><g fill="#E3E5E4"><path d="M86.493 79.863c-5.101 0-9.815 3.176-12.125 7.699-.577.962-.963 2.213-.963 3.753.193 10.298 4.908 17.9 13.762 17.9 7.313 0 12.222-6.063 12.222-15.013-.001-8.949-5.101-14.339-12.896-14.339z"/><path d="M86.44 0C38.779 0 .004 38.779.004 86.45c0 47.676 38.774 86.46 86.436 86.46 47.666 0 86.445-38.784 86.445-86.46C172.885 38.779 134.106 0 86.44 0zm.727 115.76c-13.376 0-22.134-10.394-22.134-26.657 0-12.318 4.427-22.039 10.586-28.198 5.197-5.101 12.125-8.276 20.017-9.239a40.62 40.62 0 0 1 6.158-.48v6.929c-1.731-.097-3.945 0-6.351.385-13.28 2.214-20.306 11.934-21.749 22.231h.289c2.983-3.945 8.18-7.218 15.108-7.218 11.066 0 18.861 7.987 18.861 20.21.001 11.451-7.794 22.037-20.785 22.037z"/></g></svg>