<svg xmlns="http://www.w3.org/2000/svg" width="32" height="32" viewBox="0 0 32 32"><path d="M25.419 13.479l1.572-3.183a.666.666 0 0 0-.555-.96l-3.541-.229-.229-3.541a.67.67 0 0 0-.961-.555l-3.18 1.573-1.969-2.953c-.248-.371-.861-.371-1.109 0l-1.969 2.953-3.18-1.573a.668.668 0 0 0-.961.555l-.228 3.541-3.543.228a.668.668 0 0 0-.555.961l1.572 3.181-2.952 1.969a.669.669 0 0 0 0 1.11l2.953 1.969-1.573 3.181a.668.668 0 0 0 .555.96l3.541.228.228 3.543a.67.67 0 0 0 .332.535.673.673 0 0 0 .629.02l3.181-1.572 1.969 2.952a.669.669 0 0 0 1.11 0l1.969-2.952 3.181 1.572a.668.668 0 0 0 .961-.555l.228-3.541 3.541-.229a.67.67 0 0 0 .555-.961l-1.572-3.18 2.952-1.971a.669.669 0 0 0 0-1.11l-2.952-1.967z"/></svg>