<svg xmlns="http://www.w3.org/2000/svg" width="172.89" height="172.91" viewBox="0 0 172.89 172.91"><g fill="#E3E5E4"><path d="M90.913 80.922v-.192c7.699-2.791 11.548-8.276 11.548-14.725 0-7.603-5.581-14.917-17.899-14.917-6.735 0-13.088 2.406-16.359 4.812l2.214 6.16c2.694-1.925 7.506-4.139 12.51-4.139 7.795 0 10.971 4.428 10.971 9.432 0 7.41-7.795 10.586-13.953 10.586h-4.716v6.352h4.716c8.18 0 16.07 3.754 16.166 12.511.097 5.197-3.271 12.126-14.146 12.126-5.87 0-11.451-2.405-13.857-3.945l-2.31 6.544c3.079 2.021 9.238 4.234 16.263 4.234 15.013 0 22.808-8.758 22.808-18.767-.002-8.758-6.257-14.532-13.956-16.072z"/><path d="M86.433 0C38.772 0-.002 38.779-.002 86.45c0 47.676 38.774 86.46 86.436 86.46 47.666 0 86.446-38.784 86.446-86.46C172.879 38.779 134.099 0 86.433 0zm0 167.656c-44.765 0-81.182-36.43-81.182-81.206 0-44.772 36.417-81.196 81.182-81.196 44.77 0 81.192 36.424 81.192 81.196 0 44.777-36.422 81.206-81.192 81.206z"/></g></svg>