<svg xmlns="http://www.w3.org/2000/svg" width="172.89" height="172.91" viewBox="0 0 172.89 172.91"><path fill="#E3E5E4" d="M86.439 0C38.778 0 .004 38.779.004 86.45c0 47.676 38.774 86.46 86.436 86.46 47.666 0 86.446-38.784 86.446-86.46C172.886 38.779 134.105 0 86.439 0zm-4.374 115.76c-7.024 0-13.184-2.214-16.263-4.234l2.31-6.544c2.406 1.54 7.987 3.945 13.857 3.945 10.874 0 14.242-6.929 14.146-12.126-.095-8.757-7.986-12.511-16.166-12.511h-4.716v-6.352h4.716c6.158 0 13.953-3.176 13.953-10.586 0-5.004-3.176-9.432-10.971-9.432-5.004 0-9.815 2.213-12.51 4.139l-2.214-6.16c3.271-2.406 9.624-4.812 16.359-4.812 12.318 0 17.899 7.313 17.899 14.917 0 6.448-3.849 11.934-11.548 14.725v.192c7.699 1.54 13.954 7.314 13.954 16.071.002 10.01-7.793 18.768-22.806 18.768z"/></svg>