<svg xmlns="http://www.w3.org/2000/svg" width="29" height="32" viewBox="0 0 29 32"><path d="M4.571 24q0-.464-.339-.804t-.804-.339q-.482 0-.813.339t-.33.804q0 .482.33.813t.813.33q.464 0 .804-.33T4.571 24zm2.858-9.143v11.429q0 .464-.339.804t-.804.339H1.143q-.464 0-.804-.339T0 26.286V14.857q0-.464.339-.804t.804-.339h5.143q.464 0 .804.339t.339.804zm21.142 0q0 1.536-.982 2.661.268.786.268 1.357.054 1.357-.768 2.446.304 1 0 2.089-.268 1.018-.964 1.679.161 2-.875 3.232-1.143 1.357-3.518 1.393h-2.304q-1.179 0-2.571-.277t-2.17-.518-2.152-.705q-2.196-.768-2.821-.786-.464-.018-.804-.348t-.339-.795V14.839q0-.446.321-.777t.768-.366q.429-.036 1.357-1.054t1.804-2.161q1.214-1.554 1.804-2.143.321-.321.554-.857t.313-.866.241-1.08q.125-.696.223-1.089t.348-.929.607-.893q.339-.339.804-.339.821 0 1.473.188t1.071.464.714.723.429.804.214.893.089.804.009.696q0 .679-.17 1.357t-.339 1.071-.491 1q-.054.107-.179.321t-.196.393-.143.429h4.946q1.393 0 2.411 1.018t1.018 2.411z"/></svg>