<svg xmlns="http://www.w3.org/2000/svg" width="29" height="32" viewBox="0 0 29 32"><path d="M4.571 10.286q0 .464-.339.804t-.804.339q-.482 0-.813-.339t-.33-.804q0-.482.33-.813t.813-.33q.464 0 .804.33t.339.813zm2.858 9.143V8q0-.464-.339-.804t-.804-.339H1.143q-.464 0-.804.339T0 8v11.429q0 .464.339.804t.804.339h5.143q.464 0 .804-.339t.339-.804zm20.16-2.661q.982 1.089.982 2.661-.018 1.393-1.027 2.411t-2.402 1.018h-4.946q.071.25.143.429t.196.393.179.321q.321.661.482 1.018t.339 1.045.179 1.366q0 .429-.009.696t-.089.804-.214.893-.429.804-.714.723-1.071.464-1.473.188q-.464 0-.804-.339-.357-.357-.607-.893t-.348-.929-.223-1.089q-.161-.75-.241-1.08t-.313-.866-.554-.857q-.589-.589-1.804-2.143-.875-1.143-1.804-2.161T9.66 20.591q-.446-.036-.768-.366t-.321-.777V8.002q0-.464.339-.795t.804-.348q.625-.018 2.821-.786 1.375-.464 2.152-.705t2.17-.518 2.571-.277h2.304q2.375.036 3.518 1.393 1.036 1.232.875 3.232.696.661.964 1.679.304 1.089 0 2.089.821 1.089.768 2.446 0 .571-.268 1.357z"/></svg>