<?xml version="1.0" encoding="utf-8"?>
<!-- Generator: Adobe Illustrator 16.0.0, SVG Export Plug-In . SVG Version: 6.00 Build 0)  -->
<!DOCTYPE svg PUBLIC "-//W3C//DTD SVG 1.1//EN" "http://www.w3.org/Graphics/SVG/1.1/DTD/svg11.dtd">
<svg version="1.1" id="Layer_1" xmlns="http://www.w3.org/2000/svg" xmlns:xlink="http://www.w3.org/1999/xlink" x="0px" y="0px"
	 width="32px" height="32px" viewBox="0 0 32 32" enable-background="new 0 0 32 32" xml:space="preserve">
<title>zero</title>
<g>
	<path d="M16,0.004C7.18,0.004,0.004,7.18,0.004,16S7.18,31.996,16,31.996S31.996,24.82,31.996,16S24.82,0.004,16,0.004z M16,29.996
		C8.283,29.996,2.004,23.718,2.004,16S8.283,2.004,16,2.004c7.719,0,13.996,6.278,13.996,13.996S23.719,29.996,16,29.996z"/>
	<path d="M16,9.248c-3.094,0-4.557,2.13-4.557,6.743c0,4.612,1.463,6.761,4.557,6.761s4.559-2.148,4.559-6.761
		S19.094,9.248,16,9.248z M16,20.678c-1.48,0-1.891-1.297-1.891-4.687s0.41-4.668,1.891-4.668c1.482,0,1.891,1.278,1.891,4.668
		S17.482,20.678,16,20.678z"/>
</g>
</svg>
