<?xml version="1.0" encoding="utf-8"?>
<!-- Generator: Adobe Illustrator 16.0.0, SVG Export Plug-In . SVG Version: 6.00 Build 0)  -->
<!DOCTYPE svg PUBLIC "-//W3C//DTD SVG 1.1//EN" "http://www.w3.org/Graphics/SVG/1.1/DTD/svg11.dtd">
<svg version="1.1" id="Layer_1" xmlns="http://www.w3.org/2000/svg" xmlns:xlink="http://www.w3.org/1999/xlink" x="0px" y="0px"
	 width="31.992px" height="31.992px" viewBox="0 0 31.992 31.992" enable-background="new 0 0 31.992 31.992" xml:space="preserve">
<g display="none">
	<path display="inline" fill="#010101" d="M15.996,0C7.176,0,0,7.176,0,15.996c0,8.82,7.176,15.996,15.996,15.996
		s15.996-7.176,15.996-15.996C31.992,7.176,24.816,0,15.996,0z M15.996,29.992C8.278,29.992,2,23.714,2,15.996
		C2,8.278,8.278,2,15.996,2c7.718,0,13.996,6.278,13.996,13.996C29.992,23.714,23.714,29.992,15.996,29.992z"/>
	<path display="inline" fill="#010101" d="M10.139,13.432c1.178,0,2.133-0.953,2.133-2.132c0-1.177-0.955-1.131-2.133-1.131
		c-1.176,0-2.131-0.046-2.131,1.131C8.008,12.479,8.963,13.432,10.139,13.432z"/>
	<path display="inline" fill="#010101" d="M22.174,10.169c-1.176,0-2.131-0.046-2.131,1.131c0,1.179,0.955,2.132,2.131,2.132
		c1.178,0,2.133-0.953,2.133-2.132C24.307,10.123,23.352,10.169,22.174,10.169z"/>
	<path display="inline" fill="#010101" d="M7.688,20.746l1.979,0.288c0.1-0.447,0.927-1.292,3.348-1.292
		c3.863,0,10.247,2.058,10.311,2.078l0.617-1.902c-0.273-0.089-6.748-2.176-10.928-2.176C8.116,17.742,7.702,20.623,7.688,20.746z"
		/>
</g>
<g display="none">
	<path display="inline" fill="#010101" d="M15.996,0.001C7.176,0.001,0,7.177,0,15.996c0,8.82,7.176,15.995,15.996,15.995
		s15.996-7.175,15.996-15.995C31.992,7.177,24.816,0.001,15.996,0.001z M15.996,29.992C8.278,29.992,2,23.714,2,15.996
		C2,8.279,8.278,2.001,15.996,2.001c7.718,0,13.996,6.278,13.996,13.995C29.992,23.714,23.714,29.992,15.996,29.992z"/>
	<circle display="inline" fill="#010101" cx="9.979" cy="10.65" r="2.132"/>
	<circle display="inline" fill="#010101" cx="22.016" cy="10.65" r="2.132"/>
	<path display="inline" fill="#010101" d="M15.996,19.846c-5.472-0.004-6.619-1.5-7.092-0.479c-0.473,1.025,1.256,5.109,7.08,5.109
		c5.821,0,7.577-4.084,7.105-5.109C22.617,18.346,21.471,19.842,15.996,19.846z"/>
</g>
<g display="none">
	<path display="inline" fill="#010101" d="M15.996,0C7.176,0,0,7.176,0,15.996c0,8.82,7.176,15.996,15.996,15.996
		s15.996-7.176,15.996-15.996C31.992,7.176,24.816,0,15.996,0z M15.996,29.992C8.278,29.992,2,23.713,2,15.996
		C2,8.278,8.278,2,15.996,2c7.718,0,13.996,6.278,13.996,13.996C29.992,23.713,23.714,29.992,15.996,29.992z"/>
	<path display="inline" fill="#010101" d="M15.842,23.646c-5.29,0-6.294-4.895-6.334-5.103l-1.966,0.367
		c0.431,2.329,2.72,6.735,8.3,6.735c5.547,0,8.057-4.373,8.609-6.686l-1.945-0.465C22.456,18.708,21.213,23.646,15.842,23.646z"/>
	<circle display="inline" fill="#010101" cx="9.824" cy="11.478" r="2.132"/>
	<circle display="inline" fill="#010101" cx="21.859" cy="11.478" r="2.132"/>
</g>
<path d="M16.561,24.666h-3.467v-3.458h3.467V24.666z M22.342,14.307v0.031l-3.482,1.998v-0.013l-2.297,1.332v2.463h-3.48v-2.727
	v-0.859l5.777-3.309v-2.416H9.607V7.326h12.734v6.883l0.043,0.072L22.342,14.307z"/>
<g>
	<path fill="#010101" d="M15.996,0C7.176,0,0,7.176,0,15.996s7.176,15.996,15.996,15.996s15.996-7.176,15.996-15.996
		S24.816,0,15.996,0z M15.996,29.992C8.277,29.992,2,23.713,2,15.996S8.277,2,15.996,2c7.718,0,13.996,6.279,13.996,13.996
		S23.714,29.992,15.996,29.992z"/>
</g>
</svg>
