<?xml version="1.0" encoding="utf-8"?>
<!-- Generator: Adobe Illustrator 16.0.0, SVG Export Plug-In . SVG Version: 6.00 Build 0)  -->
<!DOCTYPE svg PUBLIC "-//W3C//DTD SVG 1.1//EN" "http://www.w3.org/Graphics/SVG/1.1/DTD/svg11.dtd">
<svg version="1.1" id="Layer_1" xmlns="http://www.w3.org/2000/svg" xmlns:xlink="http://www.w3.org/1999/xlink" x="0px" y="0px"
	 width="31.991px" height="31.992px" viewBox="0 0 31.991 31.992" enable-background="new 0 0 31.991 31.992" xml:space="preserve">
<path fill="#010101" d="M15.996,0C7.175,0,0,7.176,0,15.996s7.176,15.996,15.996,15.996c8.82,0,15.996-7.176,15.996-15.996
	S24.815,0,15.996,0z M17.913,23.866c0,0.288-0.238,0.525-0.525,0.525h-3.15c-0.287,0-0.523-0.237-0.523-0.525v-3.148
	c0-0.289,0.236-0.525,0.523-0.525h3.15c0.287,0,0.525,0.236,0.525,0.525V23.866z M19.118,16.992c-0.773,0.447-1.26,1.351-1.26,1.732
	c0,0.288-0.223,0.63-0.521,0.63h-3.15c-0.289,0-0.471-0.447-0.471-0.734v-0.59c0-1.588,1.572-2.952,2.727-3.478
	c1.011-0.459,1.431-0.893,1.431-1.731c0-0.734-0.957-1.39-2.019-1.39c-0.592,0-1.131,0.183-1.42,0.38
	c-0.313,0.223-0.629,0.538-1.402,1.509c-0.105,0.13-0.262,0.209-0.408,0.209c-0.117,0-0.223-0.04-0.326-0.105l-2.152-1.64
	c-0.223-0.171-0.275-0.46-0.131-0.695c1.418-2.348,3.412-3.489,6.088-3.489c2.806,0,5.953,2.243,5.953,5.247
	C22.058,15.34,20.366,16.298,19.118,16.992z"/>
</svg>
