<?xml version="1.0" encoding="utf-8"?>
<!-- Generator: Adobe Illustrator 16.0.0, SVG Export Plug-In . SVG Version: 6.00 Build 0)  -->
<!DOCTYPE svg PUBLIC "-//W3C//DTD SVG 1.1//EN" "http://www.w3.org/Graphics/SVG/1.1/DTD/svg11.dtd">
<svg version="1.1" id="Layer_1" xmlns="http://www.w3.org/2000/svg" xmlns:xlink="http://www.w3.org/1999/xlink" x="0px" y="0px"
	 width="25.143px" height="25.144px" viewBox="3.5 2.286 25.143 25.144" enable-background="new 3.5 2.286 25.143 25.144"
	 xml:space="preserve">
<title>square</title>
<path d="M23.14,5.071H9.004c-0.749,0-1.388,0.266-1.92,0.798C6.552,6.401,6.286,7.041,6.286,7.79v14.135
	c0,0.746,0.266,1.387,0.798,1.918c0.533,0.532,1.172,0.8,1.92,0.8H23.14c0.747,0,1.387-0.268,1.918-0.8
	c0.532-0.531,0.8-1.172,0.8-1.918V7.79c0-0.749-0.268-1.388-0.8-1.92C24.526,5.337,23.887,5.071,23.14,5.071z M28.643,7.429v14.857
	c0,1.417-0.502,2.628-1.509,3.634c-1.006,1.006-2.218,1.51-3.634,1.51H8.643c-1.417,0-2.628-0.504-3.634-1.51
	C4.003,24.914,3.5,23.703,3.5,22.286V7.429c0-1.417,0.503-2.628,1.509-3.634c1.006-1.006,2.218-1.509,3.634-1.509H23.5
	c1.416,0,2.628,0.503,3.634,1.509C28.141,4.801,28.643,6.012,28.643,7.429z"/>
</svg>
