<?xml version="1.0" encoding="utf-8"?>
<!-- Generator: Adobe Illustrator 22.1.0, SVG Export Plug-In . SVG Version: 6.00 Build 0)  -->
<svg version="1.1" id="Capa_1" xmlns="http://www.w3.org/2000/svg" xmlns:xlink="http://www.w3.org/1999/xlink" x="0px" y="0px"
	 viewBox="0 0 612 612" style="enable-background:new 0 0 612 612;" xml:space="preserve">
<g>
	<path d="M228.9,592.3c-3.3,0-6.6-0.8-9.7-2.4l0,0c-35.4-18.8-62.9-48.5-81.9-88.4c-11.6-24.4-43.1-112.8,37.6-225.2l0.1-0.1
		c80.4-109.5,83.5-200.1,81-233.9c-0.6-8.2,3.7-16,10.9-19.9c7.3-3.9,16.1-3.2,22.7,1.9c11.3,8.8,21.9,19.5,31.5,32
		c31.6,41.2,49,94.6,49,150.5c0,27.5,2.7,50.4,7.3,62.8c0.4,1,0.7,1.9,1.1,2.7c2-7,3.7-19.3,2.5-38.5c-0.5-8.5,4.1-16.3,11.7-20
		c7.6-3.7,16.5-2.5,22.9,3c16.4,14.4,39.8,43.7,58.5,101.9c16.3,51.3,17.7,89.2,16,111.9c-5.8,91.8-57.6,136.9-100,158.6
		c-8.3,4.3-18.3,2.6-24.7-4.4c-6.5-7-7.5-17.1-2.5-25.2c36-58.5-5-126.3-24.3-152.6c-21.2-29-35.4-59.7-44.1-82.5
		c-12.3,25-31,64.4-54.6,117.1c-23.6,52.7-9.5,93.6,6.6,118.6c5.1,7.9,4.3,18.3-2,25.3C240.3,589.9,234.6,592.3,228.9,592.3z
		 M388.3,575.3C388.3,575.3,388.3,575.3,388.3,575.3C388.3,575.3,388.3,575.3,388.3,575.3z M376.3,562.4
		C376.3,562.5,376.2,562.5,376.3,562.4C376.2,562.5,376.3,562.5,376.3,562.4z M302.7,242.7l9.3,38.8c0.1,0.6,14.2,57.8,50.7,107.7
		c39.9,54.6,53.2,110.5,38.5,157.6c35.9-27.2,55.6-66.8,58.8-118.3l0-0.2c1.5-20.1,0.2-53.9-14.6-100.7
		c-11.2-34.7-23.8-57.2-34.4-71.4c-1.7,29.7-11.2,48.1-27,51.5c-6.8,1.4-23.8,1.6-34.8-27.7c-6-15.9-9.3-41.9-9.3-73.4
		c0-49.3-15.2-96.3-42.8-132.3c-3.5-4.5-7.1-8.8-10.8-12.7c-0.9,46.8-14.4,132.8-87.3,232.1c-71.1,99.1-44.6,174.1-34.8,194.8
		c10.7,22.4,24.4,41,41,55.5c-3.2-9.2-5.5-18.6-6.8-28.2c-3.9-28.3,0.8-57.4,13.9-86.6c44-98.4,71.4-150.7,71.7-151.3L302.7,242.7z
		 M382.6,279.2C382.6,279.2,382.6,279.2,382.6,279.2C382.6,279.2,382.6,279.2,382.6,279.2z"/>
</g>
</svg>
