<?xml version="1.0" encoding="utf-8"?>
<!-- Generator: Adobe Illustrator 22.1.0, SVG Export Plug-In . SVG Version: 6.00 Build 0)  -->
<svg version="1.1" id="Layer_1" xmlns="http://www.w3.org/2000/svg" xmlns:xlink="http://www.w3.org/1999/xlink" x="0px" y="0px"
	 viewBox="0 0 32 32" style="enable-background:new 0 0 32 32;" xml:space="preserve">
<style type="text/css">
	.st0{fill:#010101;}
</style>
<g>
	<rect x="13.1" y="21.2" class="st0" width="3.5" height="3.5"/>
	<polygon class="st0" points="22.3,7.3 9.6,7.3 9.6,10.8 18.9,10.8 18.9,13.2 13.1,16.5 13.1,17.4 13.1,20.1 16.6,20.1 16.6,17.7 
		18.9,16.3 18.9,16.3 22.3,14.3 22.3,14.3 22.4,14.3 22.3,14.2 	"/>
	<path class="st0" d="M16,0C7.2,0,0,7.2,0,16c0,8.8,7.2,16,16,16c8.8,0,16-7.2,16-16C32,7.2,24.8,0,16,0z M16,30C8.3,30,2,23.7,2,16
		C2,8.3,8.3,2,16,2c7.7,0,14,6.3,14,14C30,23.7,23.7,30,16,30z"/>
</g>
</svg>
