<?xml version="1.0" encoding="utf-8"?>
<!-- Generator: Adobe Illustrator 16.0.0, SVG Export Plug-In . SVG Version: 6.00 Build 0)  -->
<!DOCTYPE svg PUBLIC "-//W3C//DTD SVG 1.1//EN" "http://www.w3.org/Graphics/SVG/1.1/DTD/svg11.dtd">
<svg version="1.1" id="Layer_1" xmlns="http://www.w3.org/2000/svg" xmlns:xlink="http://www.w3.org/1999/xlink" x="0px" y="0px"
	 width="31.992px" height="31.992px" viewBox="0 0 31.992 31.992" enable-background="new 0 0 31.992 31.992" xml:space="preserve">
<g display="none">
	<path display="inline" fill="#010101" d="M15.996,0C7.176,0,0,7.176,0,15.996c0,8.82,7.176,15.996,15.996,15.996
		s15.996-7.176,15.996-15.996C31.992,7.176,24.816,0,15.996,0z M15.996,29.992C8.278,29.992,2,23.714,2,15.996
		C2,8.278,8.278,2,15.996,2c7.718,0,13.996,6.278,13.996,13.996C29.992,23.714,23.714,29.992,15.996,29.992z"/>
	<path display="inline" fill="#010101" d="M10.139,13.432c1.178,0,2.133-0.953,2.133-2.132c0-1.177-0.955-1.131-2.133-1.131
		c-1.176,0-2.131-0.046-2.131,1.131C8.008,12.479,8.963,13.432,10.139,13.432z"/>
	<path display="inline" fill="#010101" d="M22.174,10.169c-1.176,0-2.131-0.046-2.131,1.131c0,1.179,0.955,2.132,2.131,2.132
		c1.178,0,2.133-0.953,2.133-2.132C24.307,10.123,23.352,10.169,22.174,10.169z"/>
	<path display="inline" fill="#010101" d="M7.688,20.746l1.979,0.288c0.1-0.447,0.927-1.292,3.348-1.292
		c3.863,0,10.247,2.058,10.311,2.078l0.617-1.902c-0.273-0.089-6.748-2.176-10.928-2.176C8.116,17.742,7.702,20.623,7.688,20.746z"
		/>
</g>
<path fill="#010101" d="M15.996,0.001C7.176,0.001,0,7.177,0,15.996c0,8.82,7.176,15.995,15.996,15.995s15.996-7.175,15.996-15.995
	C31.992,7.177,24.816,0.001,15.996,0.001z M7.847,10.65c0-1.177,0.955-2.132,2.132-2.132s2.132,0.955,2.132,2.132
	c0,1.178-0.955,2.132-2.132,2.132S7.847,11.828,7.847,10.65z M15.984,24.477c-5.824,0-7.553-4.084-7.08-5.109
	c0.473-1.021,1.62,0.475,7.092,0.479c5.475-0.004,6.621-1.5,7.093-0.479C23.561,20.393,21.805,24.477,15.984,24.477z M22.016,12.782
	c-1.178,0-2.133-0.954-2.133-2.132c0-1.177,0.955-2.132,2.133-2.132c1.177,0,2.131,0.955,2.131,2.132
	C24.146,11.828,23.192,12.782,22.016,12.782z"/>
</svg>
