<?xml version="1.0" encoding="utf-8"?>
<!-- Generator: Adobe Illustrator 16.0.0, SVG Export Plug-In . SVG Version: 6.00 Build 0)  -->
<!DOCTYPE svg PUBLIC "-//W3C//DTD SVG 1.1//EN" "http://www.w3.org/Graphics/SVG/1.1/DTD/svg11.dtd">
<svg version="1.1" id="Layer_1" xmlns="http://www.w3.org/2000/svg" xmlns:xlink="http://www.w3.org/1999/xlink" x="0px" y="0px"
	 width="31.992px" height="31.992px" viewBox="0 0 31.992 31.992" enable-background="new 0 0 31.992 31.992" xml:space="preserve">
<g display="none">
	<path display="inline" fill="#010101" d="M15.996,0C7.176,0,0,7.176,0,15.996c0,8.82,7.176,15.996,15.996,15.996
		s15.996-7.176,15.996-15.996C31.992,7.176,24.816,0,15.996,0z M15.996,29.992C8.278,29.992,2,23.714,2,15.996
		C2,8.278,8.278,2,15.996,2c7.718,0,13.996,6.278,13.996,13.996C29.992,23.714,23.714,29.992,15.996,29.992z"/>
	<path display="inline" fill="#010101" d="M10.139,13.432c1.178,0,2.133-0.953,2.133-2.132c0-1.177-0.955-1.131-2.133-1.131
		c-1.176,0-2.131-0.046-2.131,1.131C8.008,12.479,8.963,13.432,10.139,13.432z"/>
	<path display="inline" fill="#010101" d="M22.174,10.169c-1.176,0-2.131-0.046-2.131,1.131c0,1.179,0.955,2.132,2.131,2.132
		c1.178,0,2.133-0.953,2.133-2.132C24.307,10.123,23.352,10.169,22.174,10.169z"/>
	<path display="inline" fill="#010101" d="M7.688,20.746l1.979,0.288c0.1-0.447,0.927-1.292,3.348-1.292
		c3.863,0,10.247,2.058,10.311,2.078l0.617-1.902c-0.273-0.089-6.748-2.176-10.928-2.176C8.116,17.742,7.702,20.623,7.688,20.746z"
		/>
</g>
<g display="none">
	<path display="inline" fill="#010101" d="M15.996,0.001C7.176,0.001,0,7.177,0,15.996c0,8.82,7.176,15.995,15.996,15.995
		s15.996-7.175,15.996-15.995C31.992,7.177,24.816,0.001,15.996,0.001z M15.996,29.992C8.278,29.992,2,23.714,2,15.996
		C2,8.279,8.278,2.001,15.996,2.001c7.718,0,13.996,6.278,13.996,13.995C29.992,23.714,23.714,29.992,15.996,29.992z"/>
	<circle display="inline" fill="#010101" cx="9.979" cy="10.65" r="2.132"/>
	<circle display="inline" fill="#010101" cx="22.016" cy="10.65" r="2.132"/>
	<path display="inline" fill="#010101" d="M15.996,19.846c-5.472-0.004-6.619-1.5-7.092-0.479c-0.473,1.025,1.256,5.109,7.08,5.109
		c5.821,0,7.577-4.084,7.105-5.109C22.617,18.346,21.471,19.842,15.996,19.846z"/>
</g>
<g display="none">
	<path display="inline" fill="#010101" d="M15.996,0C7.176,0,0,7.176,0,15.996c0,8.82,7.176,15.996,15.996,15.996
		s15.996-7.176,15.996-15.996C31.992,7.176,24.816,0,15.996,0z M15.996,29.992C8.278,29.992,2,23.713,2,15.996
		C2,8.278,8.278,2,15.996,2c7.718,0,13.996,6.278,13.996,13.996C29.992,23.713,23.714,29.992,15.996,29.992z"/>
	<path display="inline" fill="#010101" d="M15.842,23.646c-5.29,0-6.294-4.895-6.334-5.103l-1.966,0.367
		c0.431,2.329,2.72,6.735,8.3,6.735c5.547,0,8.057-4.373,8.609-6.686l-1.945-0.465C22.456,18.708,21.213,23.646,15.842,23.646z"/>
	<circle display="inline" fill="#010101" cx="9.824" cy="11.478" r="2.132"/>
	<circle display="inline" fill="#010101" cx="21.859" cy="11.478" r="2.132"/>
</g>
<g display="none">
	<path display="inline" fill="#010101" d="M15.996,0C7.176,0,0,7.176,0,15.996c0,8.82,7.176,15.996,15.996,15.996
		s15.996-7.176,15.996-15.996C31.992,7.176,24.816,0,15.996,0z M15.996,29.992C8.278,29.992,2,23.713,2,15.996
		C2,8.279,8.278,2,15.996,2c7.718,0,13.996,6.279,13.996,13.996C29.992,23.713,23.714,29.992,15.996,29.992z"/>
	<path display="inline" fill="#010101" d="M17.389,20.193h-3.15c-0.287,0-0.523,0.236-0.523,0.522v3.147
		c0,0.289,0.236,0.527,0.523,0.527h3.15c0.287,0,0.525-0.238,0.525-0.527v-3.147C17.914,20.43,17.676,20.193,17.389,20.193z"/>
	<path display="inline" fill="#010101" d="M16.104,7.601c-2.676,0-4.67,1.141-6.088,3.489c-0.145,0.235-0.092,0.524,0.131,0.695
		l2.152,1.64c0.104,0.065,0.209,0.105,0.326,0.105c0.146,0,0.303-0.08,0.408-0.209c0.773-0.971,1.09-1.286,1.402-1.509
		c0.289-0.197,0.828-0.38,1.42-0.38c1.063,0,2.02,0.655,2.02,1.39c0,0.839-0.42,1.272-1.432,1.731
		c-1.154,0.525-2.727,1.889-2.727,3.476v0.591c0,0.289,0.182,0.733,0.471,0.733h3.15c0.3,0,0.521-0.34,0.521-0.629
		c0-0.381,0.486-1.285,1.261-1.731c1.248-0.694,2.938-1.652,2.938-4.144C22.057,9.844,18.91,7.601,16.104,7.601z"/>
</g>
<g display="none">
	<path display="inline" fill="#010101" d="M22.016,13.336c1.176,0,2.131,0.038,2.131-0.933c0-0.972-0.955-1.759-2.131-1.759
		c-1.178,0-2.133,0.787-2.133,1.759C19.883,13.374,20.838,13.336,22.016,13.336z"/>
	<path display="inline" fill="#010101" d="M9.979,13.336c1.177,0,2.132,0.038,2.132-0.933c0-0.972-0.955-1.759-2.132-1.759
		c-1.177,0-2.132,0.787-2.132,1.759C7.848,13.374,8.803,13.336,9.979,13.336z"/>
	<path display="inline" fill="#010101" d="M15.996,0C7.176,0,0,7.176,0,15.996c0,8.82,7.176,15.996,15.996,15.996
		s15.996-7.176,15.996-15.996C31.992,7.176,24.816,0,15.996,0z M15.996,29.992C8.278,29.992,2,23.713,2,15.996
		C2,8.279,8.278,2,15.996,2c7.718,0,13.996,6.279,13.996,13.996C29.992,23.713,23.714,29.992,15.996,29.992z"/>
	<path display="inline" fill="#010101" d="M7.846,20.137l1.313,1.51c0.031-0.026,3.11-2.67,6.98-2.67
		c3.815,0,6.597,2.609,6.625,2.637l1.385-1.441c-0.135-0.13-3.369-3.193-8.009-3.193C11.528,16.977,7.993,20.008,7.846,20.137z"/>
</g>
<g display="none">
	<path display="inline" fill="none" d="M15.996,2C8.279,2,2,8.278,2,15.996c0,7.717,6.279,13.996,13.996,13.996
		c7.719,0,13.996-6.279,13.996-13.996C29.992,8.278,23.715,2,15.996,2z M7.848,11.478c0-1.177,0.955-2.132,2.133-2.132
		c1.176,0,2.131,0.956,2.131,2.132c0,1.179-0.955,2.133-2.131,2.133C8.803,13.61,7.848,12.655,7.848,11.478z M23.635,21.73H8.682v-2
		h14.953V21.73z M22.016,13.61c-1.178,0-2.133-0.955-2.133-2.133c0-1.177,0.955-2.132,2.133-2.132c1.176,0,2.131,0.956,2.131,2.132
		C24.146,12.656,23.191,13.61,22.016,13.61z"/>
	<path display="inline" fill="#010101" d="M15.996,0C7.176,0,0,7.176,0,15.996c0,8.82,7.176,15.996,15.996,15.996
		s15.996-7.176,15.996-15.996C31.992,7.176,24.816,0,15.996,0z M15.996,29.992C8.279,29.992,2,23.713,2,15.996
		C2,8.278,8.279,2,15.996,2c7.719,0,13.996,6.278,13.996,13.996C29.992,23.713,23.715,29.992,15.996,29.992z"/>
	<g display="inline">
		<rect x="8.68" y="20.188" fill="#010101" width="14.953" height="2"/>
		<circle fill="#010101" cx="9.979" cy="11.936" r="2.132"/>
		<circle fill="#010101" cx="22.014" cy="11.936" r="2.132"/>
	</g>
</g>
<g display="none">
	<path display="inline" fill="none" d="M15.996,2C8.278,2,2,8.279,2,15.996c0,7.717,6.278,13.996,13.996,13.996
		c7.718,0,13.996-6.279,13.996-13.996C29.992,8.279,23.714,2,15.996,2z M21.943,9.346c1.176,0,2.131,0.955,2.131,2.132
		c0,1.178-0.955,2.132-2.131,2.132c-1.178,0-2.133-0.955-2.133-2.132S20.766,9.346,21.943,9.346z M9.906,9.346
		c1.178,0,2.133,0.955,2.133,2.132c0,1.178-0.955,2.132-2.133,2.132c-1.177,0-2.132-0.955-2.132-2.132S8.729,9.346,9.906,9.346z
		 M15.925,24.645c-4.64,0-7.874-3.063-8.009-3.193l1.386-1.442c0.027,0.027,2.809,2.638,6.623,2.638c3.847,0,6.95-2.644,6.981-2.67
		l1.313,1.51C24.07,21.613,20.536,24.645,15.925,24.645z"/>
	<path display="inline" fill="#010101" d="M15.996,0C7.176,0,0,7.176,0,15.996c0,8.82,7.176,15.996,15.996,15.996
		s15.996-7.176,15.996-15.996C31.992,7.176,24.816,0,15.996,0z M15.996,29.992C8.278,29.992,2,23.713,2,15.996
		C2,8.279,8.278,2,15.996,2c7.718,0,13.996,6.279,13.996,13.996C29.992,23.713,23.714,29.992,15.996,29.992z"/>
	<path display="inline" fill="#010101" d="M15.925,22.645c-3.814,0-6.596-2.608-6.623-2.637L7.916,21.45
		c0.135,0.13,3.369,3.194,8.009,3.194c4.611,0,8.146-3.031,8.294-3.16l-1.313-1.51C22.875,20.002,19.771,22.645,15.925,22.645z"/>
	<circle display="inline" fill="#010101" cx="9.906" cy="11.478" r="2.132"/>
	<circle display="inline" fill="#010101" cx="21.943" cy="11.478" r="2.132"/>
</g>
<g display="none">
	<path display="inline" fill="#010101" d="M15.996,0C7.176,0,0,7.176,0,15.996c0,8.82,7.176,15.996,15.996,15.996
		s15.996-7.176,15.996-15.996C31.992,7.176,24.816,0,15.996,0z M15.996,29.992C8.277,29.992,2,23.714,2,15.996
		C2,8.278,8.277,2,15.996,2c7.717,0,13.996,6.278,13.996,13.996C29.992,23.714,23.713,29.992,15.996,29.992z"/>
	<path display="inline" fill="#010101" d="M19.152,9.42h-2.945l-4.834,8.004v2.24h5.186v2.908h2.594v-2.908h1.466v-2.02h-1.466V9.42
		L19.152,9.42z M16.559,17.645h-3.276l3.297-5.648h0.037C16.615,12.402,16.559,14.458,16.559,17.645z"/>
</g>
<path fill="#010101" d="M15.996,0C7.176,0,0,7.176,0,15.996c0,8.82,7.176,15.996,15.996,15.996s15.996-7.176,15.996-15.996
	C31.992,7.176,24.816,0,15.996,0z M16.042,22.749c-1.24,0-4.576-0.276-4.576-4.39h2.539l-0.02,0.019
	c0,0.705,0.186,2.297,1.928,2.297c1.037,0,1.942-0.702,1.942-2.166c0-1.797-1.739-1.87-2.944-1.87v-1.853h0.407
	c0.777,0,2.204-0.074,2.204-1.779c0-0.481-0.222-1.686-1.647-1.686c-1.777,0-1.777,1.685-1.777,2.148h-2.408
	c0-2.465,1.389-4.225,4.354-4.225c1.76,0,4.076,0.891,4.076,3.668c0,1.334-0.834,2.168-1.576,2.502v0.037
	c0.463,0.129,1.982,0.814,1.98,3.059C20.523,20.988,18.689,22.749,16.042,22.749z"/>
<g display="none">
	<path display="inline" fill="#010101" d="M15.996,0C7.176,0,0,7.176,0,15.996c0,8.82,7.176,15.996,15.996,15.996
		s15.996-7.176,15.996-15.996C31.992,7.176,24.816,0,15.996,0z M15.996,29.992C8.278,29.992,2,23.714,2,15.996
		C2,8.278,8.278,2,15.996,2c7.718,0,13.996,6.278,13.996,13.996C29.992,23.714,23.714,29.992,15.996,29.992z"/>
	<path display="inline" fill="#010101" d="M17.729,17.848c1.279-0.871,2.742-2.02,2.742-4.279c0-2.667-2.002-4.149-4.52-4.149
		c-1.168,0-4.3,0.371-4.3,4.649h2.521c0.021-0.964,0.076-2.464,1.892-2.464c1.256,0,1.813,1,1.813,1.871
		c0,1.481-0.943,2.148-3.315,3.872c-2.853,2.075-2.963,3.688-3.058,5.225h8.984v-2.297h-5.705
		C15.08,19.662,15.988,19.07,17.729,17.848z"/>
</g>
<g display="none">
	<path display="inline" fill="#010101" d="M15.996,0C7.176,0,0,7.176,0,15.996c0,8.82,7.176,15.996,15.996,15.996
		s15.996-7.176,15.996-15.996C31.992,7.176,24.816,0,15.996,0z M15.996,29.992C8.278,29.992,2,23.714,2,15.996
		C2,8.278,8.278,2,15.996,2c7.718,0,13.996,6.278,13.996,13.996C29.992,23.714,23.714,29.992,15.996,29.992z"/>
	<path display="inline" fill="#010101" d="M12.494,10.965h-0.37v1.814h3.13v9.059h2.594V8.686h-2.13
		C15.662,9.668,14.995,10.965,12.494,10.965z"/>
</g>
<g display="none">
	<path display="inline" fill="#010101" d="M15.996,0C7.176,0,0,7.176,0,15.996c0,8.82,7.176,15.996,15.996,15.996
		s15.996-7.176,15.996-15.996C31.992,7.176,24.816,0,15.996,0z M15.996,29.992C8.278,29.992,2,23.714,2,15.996
		C2,8.278,8.278,2,15.996,2c7.718,0,13.996,6.278,13.996,13.996C29.992,23.714,23.714,29.992,15.996,29.992z"/>
	<path display="inline" fill="#010101" d="M16.543,13.673c-1.279,0-1.873,0.389-2.354,0.722l0.464-2.854h5.354V9.355h-7.225
		l-0.908,7.225l2.315,0.111c0.5-0.926,1.388-0.945,1.741-0.945c1.369,0,1.925,1.188,1.925,2.354c0,1.408-0.723,2.465-1.962,2.465
		c-1.148,0-1.723-0.724-1.834-1.797h-2.594c0.13,2.646,2.222,3.871,4.279,3.871c3.871,0,4.777-2.928,4.777-4.725
		C20.523,14.895,18.303,13.673,16.543,13.673z"/>
</g>
<g display="none">
	<path display="inline" fill="#010101" d="M15.996,0C7.176,0,0,7.176,0,15.996c0,8.82,7.176,15.996,15.996,15.996
		s15.996-7.176,15.996-15.996C31.992,7.176,24.816,0,15.996,0z M15.996,29.992C8.278,29.992,2,23.714,2,15.996
		C2,8.278,8.278,2,15.996,2c7.718,0,13.996,6.278,13.996,13.996C29.992,23.714,23.714,29.992,15.996,29.992z"/>
	<path display="inline" fill="#010101" d="M16.504,13.892c-1.463,0-2.111,0.612-2.463,1.093l-0.037-0.035
		c0.093-1.705,0.48-3.631,2.166-3.631c0.963,0,1.447,0.518,1.521,1.26h2.574c-0.24-1.39-0.5-1.778-1.223-2.482
		c-0.648-0.648-2.148-0.854-2.687-0.854c-4.558,0-4.892,4.392-4.892,6.893c0,3.277,0.779,6.611,4.762,6.611
		c2.538,0,4.297-1.927,4.297-4.797C20.523,15.986,19.229,13.892,16.504,13.892z M16.117,20.672c-1.242,0-2.057-1.018-2.057-2.443
		c0-1.649,1-2.26,1.98-2.26c0.815,0,1.89,0.536,1.892,2.204C17.932,19.949,17.063,20.672,16.117,20.672z"/>
</g>
<g display="none">
	<path display="inline" fill="#010101" d="M15.996,0C7.176,0,0,7.176,0,15.996c0,8.82,7.176,15.996,15.996,15.996
		s15.996-7.176,15.996-15.996C31.992,7.176,24.816,0,15.996,0z M15.996,29.992C8.278,29.992,2,23.714,2,15.996
		C2,8.278,8.278,2,15.996,2c7.718,0,13.996,6.278,13.996,13.996C29.992,23.714,23.714,29.992,15.996,29.992z"/>
	<path display="inline" fill="#010101" d="M18.588,15.32c1.057-0.555,1.52-1.52,1.52-2.648c0-1.816-1.444-3.428-4.168-3.428
		c-2.297,0-4.095,1.354-4.095,3.594c0,1.223,0.557,2.057,1.595,2.576c-2.001,0.926-2.001,2.666-2.001,3.334c0,1.797,1.167,4,4.557,4
		c3.481,0,4.557-2.592,4.557-4.26C20.551,16.783,19.848,15.951,18.588,15.32z M16.105,11.32c0.834,0,1.52,0.629,1.52,1.629
		c0,0.943-0.592,1.631-1.611,1.631c-1.112,0-1.686-0.852-1.686-1.631C14.328,11.986,14.938,11.32,16.105,11.32z M16.013,20.674
		c-1.185,0-1.908-0.834-1.908-2.094c0-1.426,0.909-2.037,1.853-2.037c1.444,0,1.926,1.129,1.926,2.055
		C17.883,19.506,17.365,20.674,16.013,20.674z"/>
</g>
<g display="none">
	<path display="inline" fill="#010101" d="M15.996,0C7.176,0,0,7.176,0,15.996c0,8.82,7.176,15.996,15.996,15.996
		s15.996-7.176,15.996-15.996C31.992,7.176,24.816,0,15.996,0z M15.996,29.992C8.278,29.992,2,23.714,2,15.996
		C2,8.278,8.278,2,15.996,2c7.718,0,13.996,6.278,13.996,13.996C29.992,23.714,23.714,29.992,15.996,29.992z"/>
	<path display="inline" fill="#010101" d="M15.922,9.244c-2.575,0-4.483,1.502-4.483,4.725c0,2.205,1.463,4.111,3.981,4.111
		c0.891,0,1.908-0.221,2.502-1.109l0.037,0.037c-0.02,2.76-1.094,3.668-2.168,3.668c-0.797,0-1.371-0.391-1.52-1.297v-0.02h-2.572
		c0.221,2.094,1.834,3.389,4.074,3.389c2.372,0,4.779-1.646,4.779-6.74C20.553,14.154,20.479,9.244,15.922,9.244z M15.976,16.008
		c-0.981,0-1.944-0.428-1.944-2.408c0-1.891,1.204-2.225,1.871-2.225c1.333,0,1.98,0.928,1.98,2.428
		C17.883,15.359,16.883,16.008,15.976,16.008z"/>
</g>
<g display="none">
	<path display="inline" fill="#010101" d="M15.996,0C7.176,0,0,7.176,0,15.996c0,8.82,7.176,15.996,15.996,15.996
		s15.996-7.176,15.996-15.996C31.992,7.176,24.816,0,15.996,0z M15.996,29.992C8.278,29.992,2,23.714,2,15.996
		C2,8.278,8.278,2,15.996,2c7.718,0,13.996,6.278,13.996,13.996C29.992,23.714,23.714,29.992,15.996,29.992z"/>
	<path display="inline" fill="#010101" d="M7.002,11.521H6.631v1.816h3.132v9.06h2.593V9.244h-2.13
		C10.17,10.227,9.502,11.521,7.002,11.521z"/>
	<path display="inline" fill="#010101" d="M20.799,9.244c-3.092,0-4.557,2.131-4.557,6.742c0,4.614,1.465,6.762,4.557,6.762
		c3.096,0,4.559-2.148,4.559-6.762C25.357,11.375,23.895,9.244,20.799,9.244z M20.799,20.674c-1.48,0-1.889-1.297-1.889-4.688
		c0-3.389,0.408-4.668,1.889-4.668c1.484,0,1.891,1.279,1.891,4.668C22.689,19.377,22.281,20.674,20.799,20.674z"/>
</g>
<g display="none">
	<path display="inline" fill="#010101" d="M15.996,0C7.176,0,0,7.176,0,15.996c0,8.82,7.176,15.996,15.996,15.996
		s15.996-7.176,15.996-15.996C31.992,7.176,24.816,0,15.996,0z M15.996,29.992C8.278,29.992,2,23.714,2,15.996
		C2,8.278,8.278,2,15.996,2c7.718,0,13.996,6.278,13.996,13.996C29.992,23.714,23.714,29.992,15.996,29.992z"/>
	<path display="inline" fill="#010101" d="M11.336,12.063h6.539c-1.111,1.186-4.408,5.373-4.688,10.632h2.668
		c0.314-5.668,3.54-9.558,4.799-10.929l0,0v-2h-9.263L11.336,12.063z"/>
</g>
</svg>
