<svg id="Layer_1" data-name="Layer 1" xmlns="http://www.w3.org/2000/svg" viewBox="0 0 47.44 26.76"><defs><style>.cls-1{fill:#e52525;}</style></defs><title>crown</title><path class="cls-1" d="M6,24.74l.54,1.93a75,75,0,0,1,17.19-2.49,71.63,71.63,0,0,1,17.12,2.59l.56-1.92a72.33,72.33,0,0,0-17.68-2.67A75.65,75.65,0,0,0,6,24.74Z"/><path class="cls-1" d="M33.3,8.12c-7-3-9.4-8.12-9.4-8.12h-.35s-2.37,5.11-9.4,8.12C9.69,10,0,7.57,0,7.57l3,7.49,2.84,7.11a51.3,51.3,0,0,1,8.3-2,54.46,54.46,0,0,1,9.57-.66h0a54.46,54.46,0,0,1,9.57.66,51.3,51.3,0,0,1,8.3,2l2.84-7.11,3-7.49S37.75,10,33.3,8.12ZM6.71,17,5,14.73l1.74-3,1.48,3Zm17-2.63-2.29-3.31,2.29-4.27,1.95,4.27ZM41.06,17l-1.74-2.29,1.74-3,1.48,3Z"/></svg>