<?xml version="1.0" encoding="utf-8"?>
<!-- Generator: Adobe Illustrator 16.0.0, SVG Export Plug-In . SVG Version: 6.00 Build 0)  -->
<!DOCTYPE svg PUBLIC "-//W3C//DTD SVG 1.1//EN" "http://www.w3.org/Graphics/SVG/1.1/DTD/svg11.dtd">
<svg version="1.1" id="Layer_1" xmlns="http://www.w3.org/2000/svg" xmlns:xlink="http://www.w3.org/1999/xlink" x="0px" y="0px"
	 width="64.763px" height="80.5px" viewBox="0 0 64.763 80.5" enable-background="new 0 0 64.763 80.5" xml:space="preserve">
<g display="none">
	<g display="inline">
		<path fill="none" stroke="#000000" stroke-width="3" stroke-miterlimit="10" d="M63.263,78c0,0.55-0.45,1-1,1H2.5
			c-0.55,0-1-0.45-1-1V2.5c0-0.55,0.45-1,1-1h59.763c0.55,0,1,0.45,1,1V78z"/>
	</g>
	<text transform="matrix(1 0 0 1 19.8887 54.4287)" display="inline" font-family="'HelveticaCE-Bold'" font-size="44.9367">0</text>
</g>
<g display="none">
	<g display="inline">
		<path fill="none" stroke="#000000" stroke-width="3" stroke-miterlimit="10" d="M63.263,78c0,0.55-0.45,1-1,1H2.5
			c-0.55,0-1-0.45-1-1V2.5c0-0.55,0.45-1,1-1h59.763c0.55,0,1,0.45,1,1V78z"/>
	</g>
	<text transform="matrix(1 0 0 1 19.8887 54.4287)" display="inline" font-family="'HelveticaCE-Bold'" font-size="44.9367">1</text>
</g>
<g display="none">
	<g display="inline">
		<path fill="none" stroke="#000000" stroke-width="3" stroke-miterlimit="10" d="M63.263,78c0,0.55-0.45,1-1,1H2.501
			c-0.55,0-1-0.45-1-1V2.5c0-0.55,0.45-1,1-1h59.762c0.55,0,1,0.45,1,1V78z"/>
	</g>
	<text transform="matrix(1 0 0 1 19.8896 54.4287)" display="inline" font-family="'HelveticaCE-Bold'" font-size="44.9367">2</text>
</g>
<g display="none">
	<g display="inline">
		<path fill="none" stroke="#000000" stroke-width="3" stroke-miterlimit="10" d="M63.263,78c0,0.55-0.45,1-1,1H2.5
			c-0.55,0-1-0.45-1-1V2.5c0-0.55,0.45-1,1-1h59.763c0.55,0,1,0.45,1,1V78z"/>
	</g>
	<text transform="matrix(1 0 0 1 19.8906 54.4287)" display="inline" font-family="'HelveticaCE-Bold'" font-size="44.9367">3</text>
</g>
<g display="none">
	<g display="inline">
		<path fill="none" stroke="#000000" stroke-width="3" stroke-miterlimit="10" d="M63.263,78c0,0.55-0.45,1-1,1H2.5
			c-0.55,0-1-0.45-1-1V2.5c0-0.55,0.45-1,1-1h59.763c0.55,0,1,0.45,1,1V78z"/>
	</g>
	<text transform="matrix(1 0 0 1 19.8906 54.4287)" display="inline" font-family="'HelveticaCE-Bold'" font-size="44.9367">4</text>
</g>
<g display="none">
	<g display="inline">
		<path fill="none" stroke="#000000" stroke-width="3" stroke-miterlimit="10" d="M63.263,78c0,0.55-0.45,1-1,1H2.5
			c-0.55,0-1-0.45-1-1V2.5c0-0.55,0.45-1,1-1h59.763c0.55,0,1,0.45,1,1V78z"/>
	</g>
	<text transform="matrix(1 0 0 1 19.8887 54.4287)" display="inline" font-family="'HelveticaCE-Bold'" font-size="44.9367">5</text>
</g>
<g display="none">
	<g display="inline">
		<path fill="none" stroke="#000000" stroke-width="3" stroke-miterlimit="10" d="M63.263,78c0,0.55-0.45,1-1,1H2.501
			c-0.55,0-1-0.45-1-1V2.5c0-0.55,0.45-1,1-1h59.762c0.55,0,1,0.45,1,1V78z"/>
	</g>
	<text transform="matrix(1 0 0 1 19.8877 54.4287)" display="inline" font-family="'HelveticaCE-Bold'" font-size="44.9367">6</text>
</g>
<g display="none">
	<g display="inline">
		<path fill="none" stroke="#000000" stroke-width="3" stroke-miterlimit="10" d="M63.263,78c0,0.55-0.45,1-1,1H2.501
			c-0.55,0-1-0.45-1-1V2.5c0-0.55,0.45-1,1-1h59.762c0.55,0,1,0.45,1,1V78z"/>
	</g>
	<text transform="matrix(1 0 0 1 19.8906 54.4287)" display="inline" font-family="'HelveticaCE-Bold'" font-size="44.9367">7</text>
</g>
<g display="none">
	<g display="inline">
		<path fill="none" stroke="#000000" stroke-width="3" stroke-miterlimit="10" d="M63.263,78c0,0.55-0.45,1-1,1H2.501
			c-0.55,0-1-0.45-1-1V2.5c0-0.55,0.45-1,1-1h59.762c0.55,0,1,0.45,1,1V78z"/>
	</g>
	<text transform="matrix(1 0 0 1 19.8896 54.4287)" display="inline" font-family="'HelveticaCE-Bold'" font-size="44.9367">8</text>
</g>
<g display="none">
	<g display="inline">
		<path fill="none" stroke="#000000" stroke-width="3" stroke-miterlimit="10" d="M63.263,78c0,0.55-0.45,1-1,1H2.501
			c-0.55,0-1-0.45-1-1V2.5c0-0.55,0.45-1,1-1h59.762c0.55,0,1,0.45,1,1V78z"/>
	</g>
	<text transform="matrix(1 0 0 1 19.8857 54.4287)" display="inline" font-family="'HelveticaCE-Bold'" font-size="44.9367">9</text>
</g>
<g display="none">
	<g display="inline">
		<path fill="none" stroke="#000000" stroke-width="3" stroke-miterlimit="10" d="M63.263,78c0,0.55-0.45,1-1,1H2.501
			c-0.55,0-1-0.45-1-1V2.5c0-0.55,0.45-1,1-1h59.762c0.55,0,1,0.45,1,1V78z"/>
	</g>
	<text transform="matrix(1 0 0 1 7.3955 54.4287)" display="inline" font-family="'HelveticaCE-Bold'" font-size="44.9367">10</text>
</g>
<g display="none">
	<g display="inline">
		<path fill="none" stroke="#000000" stroke-width="3" stroke-miterlimit="10" d="M63.263,78c0,0.55-0.45,1-1,1H2.501
			c-0.55,0-1-0.45-1-1V2.5c0-0.55,0.45-1,1-1h59.762c0.55,0,1,0.45,1,1V78z"/>
	</g>
	<text transform="matrix(1 0 0 1 7.3955 54.4287)" display="inline" font-family="'HelveticaCE-Bold'" font-size="44.9367">11</text>
</g>
<g display="none">
	<g display="inline">
		<path d="M32.382,27.557c-3.595,0-4.584,3.1-4.584,11.326c0,8.222,0.989,11.369,4.584,11.369c3.596,0,4.585-3.147,4.585-11.369
			C36.967,30.657,35.978,27.557,32.382,27.557z"/>
	</g>
	<g display="inline">
		<path d="M2.5,1.5c-0.55,0-1,0.45-1,1V78c0,0.55,0.45,1,1,1h59.763c0.55,0,1-0.45,1-1V2.5c0-0.55-0.45-1-1-1H2.5z M32.382,55.282
			c-7.505,0-11.055-5.213-11.055-16.4c0-11.191,3.55-16.36,11.055-16.36s11.055,5.169,11.055,16.36
			C43.437,50.069,39.887,55.282,32.382,55.282z"/>
	</g>
</g>
<path display="none" d="M61.233,1.5H3.53C2.414,1.5,1.5,2.414,1.5,3.53v73.44C1.5,78.086,2.414,79,3.53,79h57.704
	c1.116,0,2.029-0.914,2.029-2.03V3.53C63.263,2.414,62.35,1.5,61.233,1.5z M36.875,54.43h-6.291V32.453H22.99v-4.4h0.899
	c6.066,0,7.684-3.147,7.818-5.53h5.168V54.43z"/>
<path display="none" d="M61.233,1.5H3.531c-1.116,0-2.03,0.914-2.03,2.03v73.44c0,1.116,0.914,2.03,2.03,2.03h57.703
	c1.116,0,2.029-0.914,2.029-2.03V3.53C63.263,2.414,62.35,1.5,61.233,1.5z M42.854,54.43H21.059
	c0.225-3.73,0.494-7.639,7.415-12.673c5.752-4.178,8.043-5.795,8.043-9.391c0-2.113-1.348-4.539-4.403-4.539
	c-4.404,0-4.539,3.639-4.584,5.978h-6.111c0-10.382,7.595-11.282,10.425-11.282c6.111,0,10.965,3.596,10.965,10.065
	c0,5.482-3.55,8.269-6.651,10.382c-4.223,2.965-6.425,4.404-7.144,5.887h13.841V54.43z"/>
<path display="none" d="M61.233,1.5H3.53C2.414,1.5,1.5,2.414,1.5,3.53v73.44C1.5,78.086,2.414,79,3.53,79h57.704
	c1.116,0,2.029-0.914,2.029-2.03V3.53C63.263,2.414,62.35,1.5,61.233,1.5z M32.204,55.282c-3.011,0-11.1-0.674-11.1-10.648h6.156
	l-0.044,0.044c0,1.708,0.449,5.573,4.674,5.573c2.516,0,4.718-1.708,4.718-5.26c0-4.356-4.224-4.539-7.146-4.539v-4.491h0.989
	c1.887,0,5.348-0.183,5.348-4.317c0-1.165-0.539-4.087-4-4.087c-4.314,0-4.314,4.087-4.314,5.213h-5.842
	c0-5.978,3.371-10.248,10.561-10.248c4.27,0,9.887,2.157,9.887,8.9c0,3.235-2.022,5.256-3.82,6.065v0.091
	c1.124,0.313,4.808,1.978,4.808,7.413C43.079,51.013,38.63,55.282,32.204,55.282z"/>
<g display="none">
	<path display="inline" d="M61.233,1.5H3.53C2.414,1.5,1.5,2.414,1.5,3.53v73.44C1.5,78.086,2.414,79,3.53,79h57.704
		c1.116,0,2.029-0.914,2.029-2.03V3.53C63.263,2.414,62.35,1.5,61.233,1.5z M43.529,47.374h-3.55v7.056h-6.291v-7.056H21.104v-5.439
		l11.729-19.413h7.146v19.952h3.55V47.374z"/>
	<path display="inline" d="M25.733,42.474h7.955c0-7.727,0.135-12.717,0.135-13.705h-0.091L25.733,42.474z"/>
</g>
<path display="none" d="M61.233,1.5H3.53C2.414,1.5,1.5,2.414,1.5,3.53v73.44C1.5,78.086,2.414,79,3.53,79h57.704
	c1.116,0,2.029-0.914,2.029-2.03V3.53C63.263,2.414,62.35,1.5,61.233,1.5z M31.483,55.282c-4.988,0-10.066-2.965-10.381-9.391h6.291
	c0.27,2.604,1.663,4.36,4.449,4.36c3.012,0,4.764-2.564,4.764-5.978c0-2.83-1.348-5.708-4.674-5.708
	c-0.853,0-3.011,0.047-4.224,2.291l-5.618-0.27l2.202-17.525h17.526v5.304H28.831l-1.123,6.921c1.168-0.809,2.606-1.752,5.706-1.752
	c4.27,0,9.663,2.965,9.663,10.287C43.077,48.182,40.875,55.282,31.483,55.282z"/>
<g display="none">
	<path display="inline" d="M61.233,1.5H3.531c-1.116,0-2.03,0.914-2.03,2.03v73.44c0,1.116,0.914,2.03,2.03,2.03h57.703
		c1.116,0,2.029-0.914,2.029-2.03V3.53C63.263,2.414,62.35,1.5,61.233,1.5z M32.83,55.282c-9.661,0-11.548-8.087-11.548-16.043
		c0-6.065,0.809-16.717,11.863-16.717c1.302,0,4.943,0.496,6.515,2.069c1.754,1.705,2.383,2.652,2.968,6.022H36.38
		c-0.178-1.8-1.348-3.057-3.685-3.057c-4.089,0-5.033,4.674-5.257,8.809l0.089,0.087c0.854-1.166,2.426-2.648,5.976-2.648
		c6.606,0,9.752,5.078,9.752,9.839C43.256,50.608,38.986,55.282,32.83,55.282z"/>
	<path display="inline" d="M32.382,38.835c-2.382,0-4.809,1.482-4.809,5.482c0,3.46,1.977,5.934,4.987,5.934
		c2.291,0,4.404-1.756,4.404-6.069C36.965,40.139,34.358,38.835,32.382,38.835z"/>
</g>
<path d="M61.233,1.5H3.531c-1.116,0-2.03,0.914-2.03,2.03v73.44c0,1.116,0.914,2.03,2.03,2.03h57.703
	c1.116,0,2.029-0.914,2.029-2.03V3.53C63.263,2.414,62.35,1.5,61.233,1.5z M43.618,27.917c-3.056,3.322-10.875,12.761-11.639,26.512
	h-6.471c0.674-12.765,8.673-22.921,11.369-25.795H21.015l0.135-5.573h22.469V27.917z"/>
<g display="none">
	<path display="inline" d="M32.293,40.23c-2.292,0-4.494,1.483-4.494,4.943c0,3.053,1.752,5.078,4.628,5.078
		c3.28,0,4.539-2.834,4.539-5.034C36.967,42.969,35.799,40.23,32.293,40.23z"/>
	<path display="inline" d="M32.428,35.465c2.472,0,3.911-1.661,3.911-3.957c0-2.426-1.663-3.952-3.685-3.952
		c-2.833,0-4.315,1.617-4.315,3.952C28.339,33.4,29.732,35.465,32.428,35.465z"/>
	<path display="inline" d="M61.233,1.5H3.531c-1.116,0-2.03,0.914-2.03,2.03v73.44c0,1.116,0.914,2.03,2.03,2.03h57.703
		c1.116,0,2.029-0.914,2.029-2.03V3.53C63.263,2.414,62.35,1.5,61.233,1.5z M32.384,55.282c-8.224,0-11.056-5.348-11.056-9.704
		c0-1.622,0-5.843,4.854-8.091c-2.517-1.256-3.865-3.278-3.865-6.248c0-5.435,4.359-8.717,9.932-8.717
		c6.604,0,10.111,3.909,10.111,8.313c0,2.743-1.124,5.078-3.685,6.426c3.054,1.53,4.763,3.552,4.763,7.687
		C43.438,48.991,40.832,55.282,32.384,55.282z"/>
</g>
<g display="none">
	<path display="inline" d="M32.065,27.691c-1.617,0-4.539,0.809-4.539,5.392c0,4.808,2.337,5.843,4.719,5.843
		c2.2,0,4.628-1.574,4.628-5.348C36.874,29.939,35.3,27.691,32.065,27.691z"/>
	<path display="inline" d="M61.233,1.5H3.531c-1.116,0-2.03,0.914-2.03,2.03v73.44c0,1.116,0.914,2.03,2.03,2.03h57.703
		c1.116,0,2.029-0.914,2.029-2.03V3.53C63.263,2.414,62.35,1.5,61.233,1.5z M31.75,55.282c-5.437,0-9.348-3.144-9.887-8.222h6.248
		v0.043c0.358,2.2,1.752,3.147,3.685,3.147c2.606,0,5.213-2.204,5.256-8.899l-0.089-0.091c-1.437,2.157-3.909,2.696-6.067,2.696
		c-6.111,0-9.661-4.626-9.661-9.974c0-7.821,4.628-11.46,10.875-11.46c11.055,0,11.232,11.909,11.232,16.404
		C43.343,51.282,37.502,55.282,31.75,55.282z"/>
</g>
<g display="none">
	<path display="inline" d="M44.873,27.557c-3.596,0-4.584,3.1-4.584,11.326c0,8.222,0.988,11.369,4.584,11.369
		s4.585-3.147,4.585-11.369C49.458,30.657,48.469,27.557,44.873,27.557z"/>
	<path display="inline" d="M61.233,1.5H3.531c-1.116,0-2.03,0.914-2.03,2.03v73.44c0,1.116,0.914,2.03,2.03,2.03h57.703
		c1.116,0,2.029-0.914,2.029-2.03V3.53C63.263,2.414,62.35,1.5,61.233,1.5z M24.382,54.43h-6.291V32.453h-7.594v-4.4h0.898
		c6.067,0,7.685-3.147,7.819-5.53h5.167V54.43z M44.873,55.282c-7.504,0-11.054-5.213-11.054-16.4c0-11.191,3.55-16.36,11.054-16.36
		c7.505,0,11.055,5.169,11.055,16.36C55.928,50.069,52.378,55.282,44.873,55.282z"/>
</g>
<path display="none" d="M61.233,1.5H3.53C2.415,1.5,1.5,2.414,1.5,3.53v73.44C1.5,78.086,2.415,79,3.53,79h57.703
	c1.115,0,2.029-0.914,2.029-2.03V3.53C63.263,2.414,62.349,1.5,61.233,1.5z M24.382,54.43h-6.291V32.453h-7.594v-4.4h0.898
	c6.067,0,7.685-3.147,7.819-5.53h5.167V54.43z M49.366,54.43h-6.291V32.453h-7.594v-4.4h0.898c6.067,0,7.684-3.147,7.819-5.53h5.168
	V54.43z"/>
</svg>
