<svg xmlns="http://www.w3.org/2000/svg" width="632.806" height="632.806" viewBox="0 0 632.806 632.806"><path fill="#29A249" d="M316.403.619C142.001.619.618 142 .618 316.405c0 174.403 141.383 315.783 315.785 315.783 174.403 0 315.785-141.38 315.785-315.783C632.188 142 490.806.619 316.403.619zm115.603 195.598c17.126 0 31.009 13.884 31.009 31.01 0 17.125-13.883 31.01-31.009 31.01s-31.009-13.885-31.009-31.01c.001-17.126 13.883-31.01 31.009-31.01zm-231.206 0c17.126 0 31.009 13.884 31.009 31.01 0 17.125-13.883 31.01-31.009 31.01-17.125 0-31.009-13.885-31.009-31.01.001-17.126 13.884-31.01 31.009-31.01zm296.117 235.552c-19.55 26.833-42.896 48.237-69.387 63.613-33.142 19.235-71.211 28.989-113.153 28.989-41.958 0-79.826-9.762-112.552-29.011-26.17-15.396-49.052-36.822-68.01-63.686-32.11-45.5-41.738-90.415-42.132-92.305l15.01-3.137c.092.437 9.521 44.11 39.96 87.038 40.353 56.91 96.784 85.766 167.725 85.766 71.182 0 128.427-29.035 170.146-86.297 31.303-42.965 41.563-86.232 41.664-86.665l14.938 3.458c-.438 1.89-11.085 46.772-44.209 92.237z"/></svg>