<svg xmlns="http://www.w3.org/2000/svg" width="27.43" height="29.715" viewBox="0 0 27.43 29.715"><path fill="#010101" d="M4.231 23.195a1.093 1.093 0 0 0-.804-.339 1.1 1.1 0 0 0-.805.339 1.097 1.097 0 0 0-.339.804c0 .311.113.578.339.804.227.226.494.339.805.34.31 0 .577-.113.804-.34a1.1 1.1 0 0 0 .339-.804c0-.309-.113-.577-.339-.804zm20.08-9.377c0-.552-.21-1.039-.632-1.455-.424-.416-.903-.625-1.445-.625h-5.712c0-.629.258-1.488.778-2.588.518-1.098.778-1.965.778-2.604.001-1.063-.174-1.848-.52-2.355-.348-.508-1.038-.762-2.077-.762-.282.281-.488.74-.617 1.379-.13.639-.295 1.318-.496 2.037-.2.719-.522 1.313-.966 1.777-.239.248-.655.74-1.25 1.477l-.374.486a33.401 33.401 0 0 1-1.073 1.355c-.237.287-.454.525-.648.715s-.403.381-.625.576c-.223.195-.438.34-.649.439a1.41 1.41 0 0 1-.576.145h-.519v10.387h.519c.142 0 .313.016.513.049.198.032.378.069.534.106.157.037.363.096.617.178.255.081.444.143.568.186l.577.203c.26.093.417.149.471.171 2.283.789 4.133 1.186 5.551 1.186h2.077c.941 0 1.678-.222 2.208-.666.53-.443.796-1.125.796-2.045 0-.281-.027-.584-.082-.909.325-.173.582-.457.771-.853.188-.396.285-.792.285-1.193s-.099-.774-.294-1.12c.573-.541.861-1.185.861-1.931a2.978 2.978 0 0 0-.164-.9c-.107-.33-.243-.587-.403-.771.345-.011.635-.265.866-.762.235-.496.351-.934.352-1.313zm3.118-.124v.004a5.17 5.17 0 0 1-.875 2.911c.105.393.159.804.159 1.231 0 .917-.227 1.774-.679 2.571.036.25.054.506.054.768 0 1.203-.356 2.263-1.069 3.18v.089c.012 1.63-.498 2.916-1.527 3.856-1.03.941-2.379 1.411-4.045 1.411h-2c-1.25 0-2.44-.131-3.571-.393s-2.458-.655-3.981-1.179c-1.381-.477-2.202-.715-2.464-.715H2.286a2.205 2.205 0 0 1-1.616-.67A2.199 2.199 0 0 1 0 25.144V13.715A2.2 2.2 0 0 1 .67 12.1c.447-.447.985-.67 1.616-.67h4.895c.428-.287 1.242-1.209 2.445-2.77.703-.916 1.34-1.672 1.911-2.268.227-.25.411-.631.554-1.143.145-.514.248-1.018.313-1.512s.217-1.029.455-1.613.559-1.072.964-1.467C14.286.221 14.822 0 15.43 0c1 0 1.897.191 2.695.578.798.389 1.404.994 1.821 1.814.416.807.625 1.916.625 3.32 0 1.107-.286 2.252-.857 3.43h3.144c1.238 0 2.311.453 3.215 1.357.904.904 1.357 1.97 1.356 3.195z"/></svg>