<svg xmlns="http://www.w3.org/2000/svg" width="31.992" height="31.992" viewBox="0 0 31.992 31.992"><path fill="#010101" d="M15.996 0C7.176 0 0 7.176 0 15.996s7.176 15.996 15.996 15.996 15.996-7.176 15.996-15.996S24.816 0 15.996 0zm4.492 22.572h-8.984c.095-1.537.205-3.149 3.058-5.225 2.372-1.724 3.315-2.391 3.315-3.872 0-.871-.557-1.871-1.813-1.871-1.816 0-1.871 1.5-1.892 2.464h-2.521c0-4.278 3.132-4.649 4.3-4.649 2.518 0 4.52 1.482 4.52 4.149 0 2.259-1.463 3.408-2.742 4.279-1.741 1.223-2.648 1.814-2.945 2.428h5.705v2.297z"/></svg>