<svg xmlns="http://www.w3.org/2000/svg" width="31.991" height="31.992" viewBox="0 0 31.991 31.992"><path fill="#010101" d="M15.996 0C7.176 0 0 7.176 0 15.996s7.176 15.996 15.996 15.996c8.819 0 15.995-7.176 15.995-15.996S24.815 0 15.996 0zm5.995 9.672a2.132 2.132 0 1 1 0 4.265 2.132 2.132 0 0 1 0-4.265zm-12.034 0a2.132 2.132 0 1 1-.002 4.264 2.132 2.132 0 0 1 .002-4.264zm14.705 12.441l-2.799-1.036-3.871 1.244-3.691-1.262-3.861.935-3.807-1.008.512-1.934 3.316.879 3.936-.952 3.615 1.234 3.898-1.252 3.447 1.276-.695 1.876z"/></svg>