<svg xmlns="http://www.w3.org/2000/svg" width="31.992" height="31.992" viewBox="0 0 31.992 31.992"><path fill="#010101" d="M15.996 0C7.176 0 0 7.176 0 15.996s7.176 15.996 15.996 15.996 15.996-7.176 15.996-15.996S24.816 0 15.996 0zm-.252 22.639c-2.057 0-4.149-1.225-4.279-3.871h2.594c.111 1.073.686 1.797 1.834 1.797 1.24 0 1.962-1.057 1.962-2.465 0-1.166-.557-2.354-1.925-2.354-.353 0-1.241.019-1.741.945l-2.315-.111.908-7.225h7.225v2.186h-5.354l-.464 2.854c.481-.333 1.075-.722 2.354-.722 1.76 0 3.98 1.222 3.979 4.241-.001 1.797-.907 4.725-4.778 4.725z"/></svg>