<?xml version="1.0" encoding="utf-8"?>
<!-- Generator: Adobe Illustrator 16.0.0, SVG Export Plug-In . SVG Version: 6.00 Build 0)  -->
<!DOCTYPE svg PUBLIC "-//W3C//DTD SVG 1.1//EN" "http://www.w3.org/Graphics/SVG/1.1/DTD/svg11.dtd">
<svg version="1.1" id="Layer_1" xmlns="http://www.w3.org/2000/svg" xmlns:xlink="http://www.w3.org/1999/xlink" x="0px" y="0px"
	 width="32px" height="32px" viewBox="0 0 32 32" enable-background="new 0 0 32 32" xml:space="preserve">
<title>zero</title>
<g>
	<path d="M16,11.323c-1.481,0-1.891,1.278-1.891,4.668c0,3.39,0.411,4.687,1.891,4.687c1.482,0,1.891-1.297,1.891-4.687
		C17.891,12.601,17.482,11.323,16,11.323z"/>
	<path d="M16,0.004C7.18,0.004,0.004,7.18,0.004,16c0,8.82,7.176,15.996,15.996,15.996c8.82,0,15.996-7.176,15.996-15.996
		C31.996,7.18,24.82,0.004,16,0.004z M16,22.752c-3.094,0-4.557-2.148-4.557-6.761c0-4.613,1.463-6.743,4.557-6.743
		c3.094,0,4.559,2.13,4.559,6.743C20.559,20.604,19.094,22.752,16,22.752z"/>
</g>
</svg>
