<svg xmlns="http://www.w3.org/2000/svg" width="31.992" height="31.992" viewBox="0 0 31.992 31.992"><g fill="#010101"><path d="M15.996 0C7.176 0 0 7.176 0 15.996s7.176 15.996 15.996 15.996 15.996-7.176 15.996-15.996S24.816 0 15.996 0zm0 29.992C8.278 29.992 2 23.713 2 15.996 2 8.278 8.278 2 15.996 2s13.996 6.278 13.996 13.996c0 7.717-6.278 13.996-13.996 13.996z"/><path d="M15.842 23.647c-5.29 0-6.294-4.895-6.334-5.103l-1.966.367c.431 2.329 2.72 6.735 8.3 6.735 5.546 0 8.057-4.373 8.609-6.685l-1.945-.465c-.05.212-1.293 5.151-6.664 5.151z"/><circle cx="9.824" cy="11.478" r="2.132"/><circle cx="21.859" cy="11.478" r="2.132"/></g></svg>