<?xml version="1.0" encoding="utf-8"?>
<!-- Generator: Adobe Illustrator 16.0.0, SVG Export Plug-In . SVG Version: 6.00 Build 0)  -->
<!DOCTYPE svg PUBLIC "-//W3C//DTD SVG 1.1//EN" "http://www.w3.org/Graphics/SVG/1.1/DTD/svg11.dtd">
<svg version="1.1" id="Layer_1" xmlns="http://www.w3.org/2000/svg" xmlns:xlink="http://www.w3.org/1999/xlink" x="0px" y="0px"
	 width="32px" height="32px" viewBox="0 0 32 32" enable-background="new 0 0 32 32" xml:space="preserve">
<title>comments</title>
<path d="M27.25,25.445c0.119,0.287,0.241,0.549,0.366,0.787c0.124,0.238,0.272,0.467,0.446,0.688
	c0.172,0.221,0.307,0.394,0.401,0.518c0.096,0.125,0.25,0.301,0.464,0.527c0.215,0.227,0.352,0.375,0.411,0.446
	c0.013,0.012,0.036,0.038,0.071,0.079c0.035,0.042,0.063,0.072,0.08,0.09s0.041,0.047,0.07,0.089s0.051,0.074,0.063,0.099
	l0.045,0.088c0,0,0.013,0.036,0.036,0.107s0.027,0.109,0.009,0.116c-0.019,0.006-0.024,0.044-0.019,0.116
	c-0.035,0.166-0.113,0.297-0.231,0.393s-0.249,0.137-0.394,0.125c-0.595-0.084-1.106-0.179-1.535-0.285
	c-1.834-0.477-3.488-1.238-4.965-2.287c-1.07,0.191-2.118,0.287-3.143,0.287c-3.226,0-6.036-0.787-8.429-2.357
	c0.69,0.047,1.214,0.07,1.571,0.07c1.917,0,3.756-0.268,5.518-0.804s3.334-1.304,4.714-2.304c1.488-1.096,2.632-2.357,3.429-3.786
	c0.799-1.429,1.197-2.941,1.196-4.536c0-0.917-0.137-1.821-0.411-2.714c1.536,0.845,2.75,1.905,3.644,3.179
	c0.893,1.274,1.339,2.642,1.339,4.107c0,1.428-0.423,2.765-1.268,4.009c-0.846,1.244-2.006,2.294-3.482,3.151L27.25,25.445z"/>
<path d="M12.73,7.113c-1.749,0-3.384,0.297-4.905,0.893c-1.522,0.596-2.73,1.4-3.626,2.41c-0.895,1.012-1.344,2.105-1.344,3.279
	c0,0.96,0.306,1.875,0.92,2.746c0.613,0.871,1.477,1.623,2.59,2.256l1.119,0.644c0,0-0.269,1.623-2.829,4.872
	c1.302-0.539,4.064-2.7,5.118-3.627l0.553-0.488l0.733,0.078c0.591,0.067,1.148,0.103,1.671,0.103c1.749,0,3.385-0.299,4.905-0.894
	c1.521-0.595,2.73-1.4,3.625-2.411c0.897-1.011,1.345-2.104,1.344-3.279c-0.001-1.174-0.447-2.268-1.344-3.279
	c-0.894-1.011-2.103-1.814-3.625-2.411C16.113,7.41,14.478,7.112,12.73,7.113L12.73,7.113z M25.337,13.577
	c0,1.632-0.563,3.14-1.688,4.523c-1.126,1.384-2.653,2.476-4.586,3.278c-1.933,0.802-4.043,1.202-6.332,1.202
	c-0.657,0-1.337-0.038-2.04-0.112c-1.857,1.641-4.015,2.776-6.471,3.404c-0.459,0.131-0.994,0.233-1.604,0.31h-0.07
	c-0.141,0-0.268-0.048-0.38-0.146s-0.188-0.229-0.225-0.389v-0.015c-0.029-0.036-0.031-0.093-0.007-0.167
	c0.024-0.075,0.033-0.123,0.029-0.142c-0.005-0.019,0.016-0.063,0.063-0.133l0.085-0.127c0,0,0.032-0.041,0.098-0.121
	c0.066-0.079,0.104-0.123,0.113-0.127c0.065-0.075,0.211-0.237,0.437-0.485c0.225-0.249,0.387-0.426,0.486-0.534
	c0.097-0.108,0.243-0.293,0.436-0.556c0.193-0.263,0.346-0.501,0.457-0.718c0.112-0.217,0.238-0.493,0.38-0.831
	c0.142-0.337,0.263-0.693,0.366-1.068c-1.473-0.835-2.634-1.866-3.483-3.094c-0.849-1.231-1.273-2.549-1.273-3.955
	c0-1.632,0.563-3.14,1.688-4.523c1.126-1.383,2.655-2.476,4.586-3.278c1.932-0.802,4.043-1.203,6.332-1.203
	c2.289,0,4.399,0.401,6.332,1.203c1.933,0.802,3.46,1.895,4.586,3.278c1.125,1.384,1.688,2.891,1.688,4.523V13.577z"/>
</svg>
