<?xml version="1.0" encoding="utf-8"?>
<!-- Generator: Adobe Illustrator 16.0.0, SVG Export Plug-In . SVG Version: 6.00 Build 0)  -->
<!DOCTYPE svg PUBLIC "-//W3C//DTD SVG 1.1//EN" "http://www.w3.org/Graphics/SVG/1.1/DTD/svg11.dtd">
<svg version="1.1" id="Layer_1" xmlns="http://www.w3.org/2000/svg" xmlns:xlink="http://www.w3.org/1999/xlink" x="0px" y="0px"
	 width="31.992px" height="31.992px" viewBox="0 0 31.992 31.992" enable-background="new 0 0 31.992 31.992" xml:space="preserve">
<path fill="#010101" d="M15.996,0C7.176,0,0,7.176,0,15.996c0,8.82,7.176,15.996,15.996,15.996s15.996-7.176,15.996-15.996
	C31.992,7.176,24.816,0,15.996,0z M10.139,10.169c1.178,0,2.133-0.046,2.133,1.131c0,1.179-0.955,2.132-2.133,2.132
	c-1.176,0-2.131-0.953-2.131-2.132C8.008,10.123,8.963,10.169,10.139,10.169z M23.326,21.82c-0.064-0.021-6.448-2.078-10.311-2.078
	c-2.421,0-3.248,0.845-3.348,1.292l-1.979-0.288c0.014-0.123,0.428-3.004,5.327-3.004c4.18,0,10.655,2.087,10.928,2.176
	L23.326,21.82z M22.174,13.432c-1.176,0-2.131-0.953-2.131-2.132c0-1.177,0.955-1.131,2.131-1.131c1.178,0,2.133-0.046,2.133,1.131
	C24.307,12.479,23.352,13.432,22.174,13.432z"/>
</svg>
