<?xml version="1.0" encoding="utf-8"?>
<!-- Generator: Adobe Illustrator 16.0.0, SVG Export Plug-In . SVG Version: 6.00 Build 0)  -->
<!DOCTYPE svg PUBLIC "-//W3C//DTD SVG 1.1//EN" "http://www.w3.org/Graphics/SVG/1.1/DTD/svg11.dtd">
<svg version="1.1" id="Layer_1" xmlns="http://www.w3.org/2000/svg" xmlns:xlink="http://www.w3.org/1999/xlink" x="0px" y="0px"
	 width="31.834px" height="20.373px" viewBox="7.152 -3.323 31.834 20.373" enable-background="new 7.152 -3.323 31.834 20.373"
	 xml:space="preserve">
<title>envelop</title>
<path d="M9.411-1.351l9.444,8.212l-9.447,8.216c-0.235-0.227-0.381-0.543-0.381-0.896V-0.456C9.027-0.809,9.174-1.125,9.411-1.351z
	 M36.727-1.354c0.236,0.225,0.383,0.544,0.383,0.897V14.18c0,0.354-0.148,0.67-0.385,0.896l-9.445-8.214L36.727-1.354z
	 M26.367,7.656l8.91,7.754h-24.42l8.912-7.754l3.299,2.869L26.367,7.656z M9.704-3.323c-1.409,0-2.552,1.139-2.552,2.539V14.51
	c0,1.402,1.134,2.539,2.552,2.539h26.73c1.408,0,2.551-1.139,2.551-2.539V-0.785c0-1.402-1.133-2.539-2.551-2.539H9.704z
	 M23.069,8.666L11.232-1.685h23.67L23.069,8.666z"/>
</svg>
