<svg xmlns="http://www.w3.org/2000/svg" width="31.992" height="31.992" viewBox="0 0 31.992 31.992"><g fill="#010101"><path d="M15.996 0C7.176 0 0 7.176 0 15.996s7.176 15.996 15.996 15.996 15.996-7.176 15.996-15.996S24.816 0 15.996 0zm-3.64 22.396H9.763v-9.06H6.631V11.52h.371c2.5 0 3.168-1.294 3.224-2.277h2.13v13.153zm8.443.352c-3.092 0-4.557-2.148-4.557-6.762 0-4.611 1.465-6.742 4.557-6.742 3.096 0 4.559 2.131 4.559 6.742-.001 4.614-1.463 6.762-4.559 6.762z"/><path d="M20.799 11.318c-1.48 0-1.889 1.279-1.889 4.668 0 3.391.408 4.688 1.889 4.688 1.482 0 1.891-1.297 1.891-4.688-.001-3.389-.407-4.668-1.891-4.668z"/></g></svg>