<svg xmlns="http://www.w3.org/2000/svg" width="31.992" height="31.992" viewBox="0 0 31.992 31.992"><g fill="#010101"><path d="M15.996 0C7.176 0 0 7.176 0 15.996s7.176 15.996 15.996 15.996 15.996-7.176 15.996-15.996S24.816 0 15.996 0zm0 29.992C8.278 29.992 2 23.714 2 15.996S8.278 2 15.996 2s13.996 6.278 13.996 13.996-6.278 13.996-13.996 13.996z"/><path d="M16.504 13.892c-1.463 0-2.111.612-2.463 1.093l-.037-.035c.093-1.705.48-3.631 2.166-3.631.963 0 1.447.518 1.521 1.26h2.575c-.241-1.39-.5-1.778-1.223-2.482-.649-.648-2.149-.854-2.687-.854-4.558 0-4.892 4.392-4.892 6.893 0 3.277.779 6.611 4.762 6.611 2.538 0 4.298-1.926 4.298-4.797 0-1.964-1.296-4.058-4.02-4.058zm-.387 6.78c-1.242 0-2.057-1.018-2.057-2.443 0-1.65 1-2.261 1.98-2.261.815 0 1.89.536 1.891 2.204.001 1.777-.869 2.5-1.814 2.5z"/></g></svg>