<svg xmlns="http://www.w3.org/2000/svg" width="31.992" height="31.992" viewBox="0 0 31.992 31.992"><g fill="#010101"><path d="M15.996 0C7.176 0 0 7.176 0 15.996s7.176 15.996 15.996 15.996 15.996-7.176 15.996-15.996S24.816 0 15.996 0zm0 29.992C8.279 29.992 2 23.714 2 15.996S8.279 2 15.996 2c7.719 0 13.996 6.278 13.996 13.996s-6.277 13.996-13.996 13.996z"/><path d="M16.387 19.945c-4.391 0-5.545 2.245-5.189 2.989.355.741.254 1.201 4.383 1.198 4.129.003 4.813-.035 5.17-.776.356-.743.028-3.411-4.364-3.411z"/><ellipse cx="9.699" cy="13.754" rx="1.941" ry="2.133"/><ellipse cx="22.295" cy="13.754" rx="1.941" ry="2.133"/><path d="M21.416 9.419c.686-.529 1.34-1.399 1.367-1.436l-.801-.6c-.006.008-.602.799-1.178 1.244-.465.358-1.56.745-1.942.863l.295.955c.158-.048 1.568-.492 2.259-1.026zm-10.839 0c.69.534 2.102.979 2.26 1.027l.295-.955c-.383-.118-1.479-.505-1.943-.863-.578-.445-1.173-1.236-1.179-1.244l-.801.6c.027.036.682.906 1.368 1.435z"/></g></svg>