<?xml version="1.0" encoding="utf-8"?>
<!-- Generator: Adobe Illustrator 16.0.0, SVG Export Plug-In . SVG Version: 6.00 Build 0)  -->
<!DOCTYPE svg PUBLIC "-//W3C//DTD SVG 1.1//EN" "http://www.w3.org/Graphics/SVG/1.1/DTD/svg11.dtd">
<svg version="1.1" id="Layer_1" xmlns="http://www.w3.org/2000/svg" xmlns:xlink="http://www.w3.org/1999/xlink" x="0px" y="0px"
	 width="31.992px" height="31.992px" viewBox="0 0 31.992 31.992" enable-background="new 0 0 31.992 31.992" xml:space="preserve">
<g>
	<path fill="#010101" d="M15.996,0C7.176,0,0,7.176,0,15.996s7.176,15.996,15.996,15.996s15.996-7.176,15.996-15.996
		S24.816,0,15.996,0z M15.996,29.992C8.279,29.992,2,23.714,2,15.996S8.279,2,15.996,2c7.719,0,13.996,6.278,13.996,13.996
		S23.715,29.992,15.996,29.992z"/>
	<path fill="#010101" d="M16.387,19.945c-4.391,0-5.545,2.245-5.189,2.989c0.355,0.741,0.254,1.201,4.383,1.198
		c4.129,0.003,4.813-0.035,5.17-0.776C21.107,22.613,20.779,19.945,16.387,19.945z"/>
	<ellipse fill="#010101" cx="9.699" cy="13.754" rx="1.941" ry="2.133"/>
	<ellipse fill="#010101" cx="22.295" cy="13.754" rx="1.941" ry="2.133"/>
	<path fill="#010101" d="M21.416,9.419c0.686-0.529,1.34-1.399,1.367-1.436l-0.801-0.6c-0.006,0.008-0.602,0.799-1.178,1.244
		c-0.465,0.358-1.56,0.745-1.942,0.863l0.295,0.955C19.315,10.397,20.725,9.953,21.416,9.419z"/>
	<path fill="#010101" d="M10.577,9.419c0.69,0.534,2.102,0.979,2.26,1.027l0.295-0.955c-0.383-0.118-1.479-0.505-1.943-0.863
		c-0.578-0.445-1.173-1.236-1.179-1.244l-0.801,0.6C9.236,8.02,9.891,8.89,10.577,9.419z"/>
</g>
</svg>
