<?xml version="1.0" encoding="utf-8"?>
<!-- Generator: Adobe Illustrator 16.0.0, SVG Export Plug-In . SVG Version: 6.00 Build 0)  -->
<!DOCTYPE svg PUBLIC "-//W3C//DTD SVG 1.1//EN" "http://www.w3.org/Graphics/SVG/1.1/DTD/svg11.dtd">
<svg version="1.1" id="Layer_1" xmlns="http://www.w3.org/2000/svg" xmlns:xlink="http://www.w3.org/1999/xlink" x="0px" y="0px"
	 width="31.992px" height="31.992px" viewBox="0 0 31.992 31.992" enable-background="new 0 0 31.992 31.992" xml:space="preserve">
<g>
	<path fill="#010101" d="M15.996,0C7.176,0,0,7.176,0,15.996s7.176,15.996,15.996,15.996s15.996-7.176,15.996-15.996
		S24.816,0,15.996,0z M15.996,29.992C8.278,29.992,2,23.714,2,15.996S8.278,2,15.996,2s13.996,6.278,13.996,13.996
		S23.714,29.992,15.996,29.992z"/>
	<path fill="#010101" d="M10.139,13.432c1.178,0,2.133-0.953,2.133-2.132c0-1.177-0.955-1.131-2.133-1.131
		c-1.176,0-2.131-0.046-2.131,1.131C8.008,12.479,8.963,13.432,10.139,13.432z"/>
	<path fill="#010101" d="M22.174,10.169c-1.176,0-2.131-0.046-2.131,1.131c0,1.179,0.955,2.132,2.131,2.132
		c1.178,0,2.133-0.953,2.133-2.132C24.307,10.123,23.352,10.169,22.174,10.169z"/>
	<path fill="#010101" d="M7.688,20.746l1.979,0.288c0.1-0.447,0.927-1.292,3.348-1.292c3.863,0,10.246,2.058,10.311,2.078
		l0.617-1.902c-0.273-0.089-6.747-2.176-10.928-2.176C8.116,17.742,7.702,20.623,7.688,20.746z"/>
</g>
</svg>
