<svg xmlns="http://www.w3.org/2000/svg" width="31.992" height="31.992" viewBox="0 0 31.992 31.992"><path fill="#010101" d="M15.996 0C7.176 0 0 7.176 0 15.996s7.176 15.996 15.996 15.996 15.996-7.176 15.996-15.996S24.816 0 15.996 0zm.046 22.749c-1.24 0-4.576-.276-4.576-4.39h2.539l-.02.019c0 .705.186 2.297 1.928 2.297 1.037 0 1.942-.702 1.942-2.166 0-1.797-1.739-1.87-2.944-1.87v-1.853h.407c.777 0 2.204-.074 2.204-1.779 0-.481-.222-1.686-1.647-1.686-1.777 0-1.777 1.685-1.777 2.148H11.69c0-2.465 1.389-4.225 4.354-4.225 1.76 0 4.076.891 4.076 3.668a2.701 2.701 0 0 1-1.576 2.502v.037c.463.129 1.982.814 1.98 3.059-.001 2.478-1.835 4.239-4.482 4.239z"/></svg>