<svg xmlns="http://www.w3.org/2000/svg" width="32" height="27.432" viewBox="0 4.568 32 27.432"><title>comment</title><path d="M16 7.794c-2.22 0-4.295.378-6.226 1.134-1.931.756-3.465 1.776-4.603 3.059-1.136 1.284-1.705 2.671-1.705 4.162 0 1.219.389 2.38 1.167 3.484.778 1.105 1.874 2.06 3.288 2.865l1.42.815S9 25.374 5.75 29.499c1.653-.686 5.158-3.428 6.497-4.604l.702-.619.93.098a18.7 18.7 0 0 0 2.121.131c2.22 0 4.295-.378 6.226-1.135 1.931-.755 3.465-1.776 4.602-3.06 1.138-1.283 1.706-2.67 1.705-4.162-.001-1.491-.568-2.878-1.705-4.162-1.136-1.284-2.67-2.304-4.602-3.06-1.933-.755-4.008-1.133-6.226-1.132zM32 16c0 2.071-.715 3.984-2.143 5.741-1.43 1.756-3.369 3.144-5.821 4.161S18.905 27.43 16 27.43c-.833 0-1.696-.049-2.589-.144-2.357 2.083-5.096 3.523-8.214 4.321-.583.166-1.262.297-2.036.393h-.089a.715.715 0 0 1-.482-.188.916.916 0 0 1-.286-.492v-.018c-.036-.047-.039-.119-.009-.214s.042-.155.036-.179.021-.08.08-.17l.107-.161.125-.151c.083-.102.131-.156.143-.162.083-.096.268-.301.554-.615l.616-.68c.125-.137.309-.372.554-.705.245-.332.438-.636.58-.91.142-.275.303-.627.482-1.055.18-.428.334-.881.464-1.357-1.87-1.059-3.343-2.368-4.42-3.928S0 17.782 0 15.997c0-2.071.714-3.985 2.143-5.741C3.572 8.5 5.512 7.113 7.964 6.095 10.416 5.077 13.095 4.568 16 4.568s5.584.509 8.036 1.527c2.452 1.018 4.392 2.405 5.821 4.161C31.285 12.012 32 13.926 32 15.997V16z"/></svg>