<svg xmlns="http://www.w3.org/2000/svg" width="31.834" height="20.373" viewBox="7.152 -3.323 31.834 20.373"><title>envelop</title><path d="M9.411-1.351l9.444 8.212-9.447 8.216a1.24 1.24 0 0 1-.381-.896V-.456c0-.353.147-.669.384-.895zm27.316-.003c.236.225.383.544.383.897V14.18c0 .354-.148.67-.385.896L27.28 6.862l9.447-8.216zm-10.36 9.01l8.91 7.754h-24.42l8.912-7.754 3.299 2.869 3.299-2.869zM9.704-3.323A2.547 2.547 0 0 0 7.152-.784V14.51a2.54 2.54 0 0 0 2.552 2.539h26.73a2.547 2.547 0 0 0 2.551-2.539V-.785a2.54 2.54 0 0 0-2.551-2.539H9.704zM23.069 8.666L11.232-1.685h23.67L23.069 8.666z"/></svg>