<svg xmlns="http://www.w3.org/2000/svg" width="64.763" height="80.5" viewBox="0 0 64.763 80.5"><path d="M61.233 1.5H3.531c-1.116 0-2.03.914-2.03 2.03v73.44c0 1.116.914 2.03 2.03 2.03h57.703a2.036 2.036 0 0 0 2.029-2.03V3.53c0-1.116-.913-2.03-2.03-2.03zM32.83 55.282c-9.661 0-11.548-8.087-11.548-16.043 0-6.065.809-16.717 11.863-16.717 1.302 0 4.943.496 6.515 2.069 1.754 1.705 2.383 2.652 2.968 6.022H36.38c-.178-1.8-1.348-3.057-3.685-3.057-4.089 0-5.033 4.674-5.257 8.809l.089.087c.854-1.166 2.426-2.648 5.976-2.648 6.606 0 9.752 5.078 9.752 9.839.001 6.965-4.269 11.639-10.425 11.639z"/><path d="M32.382 38.835c-2.382 0-4.809 1.482-4.809 5.482 0 3.46 1.977 5.934 4.987 5.934 2.291 0 4.404-1.756 4.404-6.069.001-4.043-2.606-5.347-4.582-5.347z"/></svg>