<svg xmlns="http://www.w3.org/2000/svg" width="64.763" height="80.5" viewBox="0 0 64.763 80.5"><path d="M61.233 1.5H3.53c-1.116 0-2.03.914-2.03 2.03v73.44c0 1.116.914 2.03 2.03 2.03h57.704a2.036 2.036 0 0 0 2.029-2.03V3.53c0-1.116-.913-2.03-2.03-2.03zm-29.75 53.782c-4.988 0-10.066-2.965-10.381-9.391h6.291c.27 2.604 1.663 4.36 4.449 4.36 3.012 0 4.764-2.564 4.764-5.978 0-2.83-1.348-5.708-4.674-5.708-.853 0-3.011.047-4.224 2.291l-5.618-.27 2.202-17.525h17.526v5.304H28.831l-1.123 6.921c1.168-.809 2.606-1.752 5.706-1.752 4.27 0 9.663 2.965 9.663 10.287 0 4.361-2.202 11.461-11.594 11.461z"/></svg>