<svg xmlns="http://www.w3.org/2000/svg" width="31.992" height="31.992" viewBox="0 0 31.992 31.992"><path fill="none" d="M15.996 2C8.278 2 2 8.278 2 15.996c0 7.718 6.278 13.997 13.996 13.997s13.996-6.279 13.996-13.997S23.714 2 15.996 2z"/><path fill="#010101" d="M15.996 0C7.176 0 0 7.175 0 15.996c0 8.821 7.176 15.997 15.996 15.997s15.996-7.176 15.996-15.997S24.816 0 15.996 0zm0 29.993C8.278 29.993 2 23.713 2 15.996 2 8.278 8.278 2 15.996 2s13.996 6.279 13.996 13.996c0 7.717-6.278 13.997-13.996 13.997z"/><path fill="#010101" d="M15.996 5.048c-6.037 0-10.947 4.911-10.947 10.947S9.96 26.943 15.996 26.943s10.947-4.912 10.947-10.948S22.032 5.048 15.996 5.048z"/></svg>