<svg xmlns="http://www.w3.org/2000/svg" width="64.764" height="80.5" viewBox="0 0 64.764 80.5"><path d="M32.382 55.281c7.504 0 11.055-5.213 11.055-16.401 0-11.189-3.551-16.357-11.055-16.357-7.505 0-11.055 5.168-11.055 16.357 0 11.188 3.55 16.401 11.055 16.401zm0-27.725c3.595 0 4.584 3.101 4.584 11.324 0 8.223-.989 11.37-4.584 11.37-3.595 0-4.583-3.146-4.583-11.37-.001-8.223.987-11.324 4.583-11.324z"/><path d="M62.263 0H2.5A2.503 2.503 0 0 0 0 2.5V78c0 1.379 1.122 2.5 2.5 2.5h59.764c1.379 0 2.5-1.121 2.5-2.5V2.5A2.504 2.504 0 0 0 62.263 0zm-.5 77.5H3V3h58.764v74.5z"/></svg>