<svg xmlns="http://www.w3.org/2000/svg" width="32" height="32" viewBox="0 0 32 32"><title>comments</title><path d="M27.25 25.445c.119.287.241.549.366.787.124.238.272.467.446.688.172.221.307.394.401.518.096.125.25.301.464.527a12.61 12.61 0 0 1 .482.525c.035.042.063.072.08.09s.041.047.07.089.051.074.063.099l.045.088.036.107c.023.071.027.109.009.116-.019.006-.024.044-.019.116-.035.166-.113.297-.231.393s-.249.137-.394.125a15.563 15.563 0 0 1-1.535-.285c-1.834-.477-3.488-1.238-4.965-2.287a17.87 17.87 0 0 1-3.143.287c-3.226 0-6.036-.787-8.429-2.357.69.047 1.214.07 1.571.07 1.917 0 3.756-.268 5.518-.804s3.334-1.304 4.714-2.304c1.488-1.096 2.632-2.357 3.429-3.786a9.143 9.143 0 0 0 1.196-4.536 9.2 9.2 0 0 0-.411-2.714c1.536.845 2.75 1.905 3.644 3.179.893 1.274 1.339 2.642 1.339 4.107 0 1.428-.423 2.765-1.268 4.009-.846 1.244-2.006 2.294-3.482 3.151l.004.002z"/><path d="M12.73 7.113c-1.749 0-3.384.297-4.905.893-1.522.596-2.73 1.4-3.626 2.41-.895 1.012-1.344 2.105-1.344 3.279 0 .96.306 1.875.92 2.746.613.871 1.477 1.623 2.59 2.256l1.119.644s-.269 1.623-2.829 4.872c1.302-.539 4.064-2.7 5.118-3.627l.553-.488.733.078a14.9 14.9 0 0 0 1.671.103c1.749 0 3.385-.299 4.905-.894 1.521-.595 2.73-1.4 3.625-2.411.897-1.011 1.345-2.104 1.344-3.279-.001-1.174-.447-2.268-1.344-3.279-.894-1.011-2.103-1.814-3.625-2.411-1.522-.595-3.157-.893-4.905-.892zm12.607 6.464c0 1.632-.563 3.14-1.688 4.523-1.126 1.384-2.653 2.476-4.586 3.278-1.933.802-4.043 1.202-6.332 1.202-.657 0-1.337-.038-2.04-.112-1.857 1.641-4.015 2.776-6.471 3.404-.459.131-.994.233-1.604.31h-.07c-.141 0-.268-.048-.38-.146s-.188-.229-.225-.389v-.015c-.029-.036-.031-.093-.007-.167a.393.393 0 0 0 .029-.142c-.005-.019.016-.063.063-.133l.085-.127.098-.121a1.1 1.1 0 0 1 .113-.127 97.134 97.134 0 0 1 .923-1.019c.097-.108.243-.293.436-.556.193-.263.346-.501.457-.718.112-.217.238-.493.38-.831a8.64 8.64 0 0 0 .366-1.068c-1.473-.835-2.634-1.866-3.483-3.094C.552 16.298.128 14.98.128 13.574c0-1.632.563-3.14 1.688-4.523 1.126-1.383 2.655-2.476 4.586-3.278 1.932-.802 4.043-1.203 6.332-1.203 2.289 0 4.399.401 6.332 1.203 1.933.802 3.46 1.895 4.586 3.278 1.125 1.384 1.688 2.891 1.688 4.523v.003z"/></svg>