<svg xmlns="http://www.w3.org/2000/svg" width="31.992" height="31.992" viewBox="0 0 31.992 31.992"><path fill="#010101" d="M15.996 0C7.176 0 0 7.176 0 15.996s7.176 15.996 15.996 15.996 15.996-7.176 15.996-15.996S24.816 0 15.996 0zm6.107 7.343l.561.828-3.375 2.285-.561-.828 3.375-2.285zm-12.213 0l3.374 2.285-.561.828-3.374-2.285.561-.828zm-2.043 6.483a2.132 2.132 0 1 1 4.264 0 2.132 2.132 0 0 1-4.264 0zm15.241 10.565c-.473.74-1.619-.344-7.092-.348-5.474.004-6.621 1.088-7.093.348-.471-.744 1.284-3.707 7.106-3.707s7.553 2.962 7.079 3.707zm-1.074-8.433a2.133 2.133 0 1 1 0-4.266 2.133 2.133 0 0 1 0 4.266z"/></svg>