<svg xmlns="http://www.w3.org/2000/svg" width="31.992" height="31.992" viewBox="0 0 31.992 31.992"><g fill="#010101"><path d="M15.996 0C7.176 0 0 7.176 0 15.996s7.176 15.996 15.996 15.996 15.996-7.176 15.996-15.996S24.816 0 15.996 0zm0 29.992C8.278 29.992 2 23.714 2 15.996S8.278 2 15.996 2s13.996 6.278 13.996 13.996-6.278 13.996-13.996 13.996z"/><path d="M18.543 15.451v-.037a2.701 2.701 0 0 0 1.576-2.502c0-2.777-2.316-3.668-4.076-3.668-2.965 0-4.354 1.76-4.354 4.225h2.408c0-.463 0-2.148 1.777-2.148 1.426 0 1.648 1.205 1.648 1.686 0 1.705-1.427 1.779-2.204 1.779h-.407v1.852c1.205 0 2.945.074 2.945 1.871 0 1.463-.906 2.166-1.943 2.166-1.742 0-1.928-1.592-1.928-2.297l.02-.019h-2.539c0 4.113 3.336 4.39 4.576 4.39 2.648 0 4.482-1.76 4.482-4.24.001-2.244-1.518-2.929-1.981-3.058z"/></g></svg>