<?xml version="1.0" encoding="utf-8"?>
<!-- Generator: Adobe Illustrator 16.0.0, SVG Export Plug-In . SVG Version: 6.00 Build 0)  -->
<!DOCTYPE svg PUBLIC "-//W3C//DTD SVG 1.1//EN" "http://www.w3.org/Graphics/SVG/1.1/DTD/svg11.dtd">
<svg version="1.1" id="Layer_1" xmlns="http://www.w3.org/2000/svg" xmlns:xlink="http://www.w3.org/1999/xlink" x="0px" y="0px"
	 width="32px" height="27.428px" viewBox="0 2.286 32 27.428" enable-background="new 0 2.286 32 27.428" xml:space="preserve">
<title>heart-selected</title>
<path d="M16,29.714c-0.31,0-0.571-0.106-0.786-0.321L4.071,18.643c-0.119-0.095-0.283-0.25-0.491-0.463
	c-0.208-0.215-0.539-0.604-0.991-1.171c-0.453-0.566-0.857-1.146-1.214-1.741S0.7,13.953,0.42,13.107C0.14,12.261,0,11.44,0,10.643
	C0,8.024,0.756,5.976,2.268,4.5C3.78,3.024,5.869,2.286,8.536,2.286c0.738,0,1.491,0.128,2.259,0.384
	c0.768,0.256,1.482,0.602,2.143,1.036s1.229,0.842,1.705,1.223C15.119,5.31,15.571,5.714,16,6.143
	c0.429-0.429,0.881-0.833,1.357-1.214c0.476-0.381,1.044-0.789,1.705-1.223c0.66-0.435,1.375-0.78,2.143-1.036
	c0.768-0.256,1.521-0.384,2.259-0.384c2.667,0,4.757,0.738,6.269,2.214S32,8.024,32,10.643c0,2.631-1.363,5.309-4.089,8.037
	L16.786,29.393C16.572,29.607,16.31,29.714,16,29.714z"/>
</svg>
