<?xml version="1.0" encoding="utf-8"?>
<!-- Generator: Adobe Illustrator 16.0.0, SVG Export Plug-In . SVG Version: 6.00 Build 0)  -->
<!DOCTYPE svg PUBLIC "-//W3C//DTD SVG 1.1//EN" "http://www.w3.org/Graphics/SVG/1.1/DTD/svg11.dtd">
<svg version="1.1" id="Layer_1" xmlns="http://www.w3.org/2000/svg" xmlns:xlink="http://www.w3.org/1999/xlink" x="0px" y="0px"
	 width="31.992px" height="31.992px" viewBox="0 0 31.992 31.992" enable-background="new 0 0 31.992 31.992" xml:space="preserve">
<path fill="#010101" d="M15.996,0C7.176,0,0,7.176,0,15.996s7.176,15.996,15.996,15.996s15.996-7.176,15.996-15.996
	S24.816,0,15.996,0z M22.103,7.343l0.561,0.828l-3.375,2.285l-0.561-0.828L22.103,7.343z M9.89,7.343l3.374,2.285l-0.561,0.828
	L9.329,8.171L9.89,7.343z M7.847,13.826c0-1.177,0.954-2.132,2.132-2.132c1.177,0,2.132,0.955,2.132,2.132
	c0,1.179-0.955,2.132-2.132,2.132C8.801,15.958,7.847,15.003,7.847,13.826z M23.088,24.391c-0.473,0.74-1.619-0.344-7.092-0.348
	c-5.474,0.004-6.621,1.088-7.093,0.348c-0.471-0.744,1.284-3.707,7.106-3.707S23.562,23.646,23.088,24.391z M22.014,15.958
	c-1.178,0-2.133-0.955-2.133-2.132s0.955-2.132,2.133-2.132c1.177,0,2.132,0.955,2.132,2.132
	C24.146,15.005,23.19,15.958,22.014,15.958z"/>
</svg>
