<?xml version="1.0" encoding="utf-8"?>
<!-- Generator: Adobe Illustrator 16.0.0, SVG Export Plug-In . SVG Version: 6.00 Build 0)  -->
<!DOCTYPE svg PUBLIC "-//W3C//DTD SVG 1.1//EN" "http://www.w3.org/Graphics/SVG/1.1/DTD/svg11.dtd">
<svg version="1.1" id="Layer_1" xmlns="http://www.w3.org/2000/svg" xmlns:xlink="http://www.w3.org/1999/xlink" x="0px" y="0px"
	 width="31.992px" height="31.992px" viewBox="0 0 31.992 31.992" enable-background="new 0 0 31.992 31.992" xml:space="preserve">
<g>
	<path fill="#010101" d="M15.996,0C7.176,0,0,7.176,0,15.996s7.176,15.996,15.996,15.996s15.996-7.176,15.996-15.996
		S24.816,0,15.996,0z M15.996,29.992C8.278,29.992,2,23.714,2,15.996S8.278,2,15.996,2s13.996,6.278,13.996,13.996
		S23.714,29.992,15.996,29.992z"/>
	
		<rect x="20.195" y="6.861" transform="matrix(0.5605 0.8281 -0.8281 0.5605 16.4645 -13.2274)" fill="#010101" width="1" height="4.076"/>
	
		<rect x="9.259" y="8.399" transform="matrix(0.828 0.5608 -0.5608 0.828 6.9338 -4.8037)" fill="#010101" width="4.075" height="1"/>
	<circle fill="#010101" cx="9.979" cy="13.826" r="2.132"/>
	<circle fill="#010101" cx="22.014" cy="13.826" r="2.132"/>
	<path fill="#010101" d="M16.01,20.684c-5.822,0-7.577,2.963-7.106,3.707c0.472,0.74,1.619-0.344,7.093-0.348
		c5.473,0.004,6.619,1.088,7.092,0.348C23.562,23.646,21.832,20.684,16.01,20.684z"/>
</g>
</svg>
