<svg xmlns="http://www.w3.org/2000/svg" width="31.992" height="31.992" viewBox="0 0 31.992 31.992"><g fill="#010101"><path d="M15.996 0C7.176 0 0 7.176 0 15.996s7.176 15.996 15.996 15.996 15.996-7.176 15.996-15.996S24.816 0 15.996 0zm0 29.992C8.278 29.992 2 23.714 2 15.996S8.278 2 15.996 2s13.996 6.278 13.996 13.996-6.278 13.996-13.996 13.996z"/><path d="M18.588 15.32c1.056-.555 1.519-1.52 1.519-2.648 0-1.816-1.444-3.428-4.168-3.428-2.297 0-4.095 1.354-4.095 3.594 0 1.223.557 2.057 1.595 2.576-2.001.926-2.001 2.666-2.001 3.334 0 1.797 1.167 4 4.557 4 3.482 0 4.557-2.592 4.557-4.26-.001-1.705-.704-2.537-1.964-3.168zm-2.483-4c.834 0 1.52.629 1.52 1.629 0 .943-.592 1.631-1.611 1.631-1.112 0-1.686-.852-1.686-1.631 0-.963.61-1.629 1.777-1.629zm-.092 9.354c-1.185 0-1.908-.834-1.908-2.094 0-1.426.909-2.037 1.853-2.037 1.445 0 1.926 1.129 1.926 2.055-.001.908-.519 2.076-1.871 2.076z"/></g></svg>