<?xml version="1.0" encoding="utf-8"?>
<!-- Generator: Adobe Illustrator 16.0.0, SVG Export Plug-In . SVG Version: 6.00 Build 0)  -->
<!DOCTYPE svg PUBLIC "-//W3C//DTD SVG 1.1//EN" "http://www.w3.org/Graphics/SVG/1.1/DTD/svg11.dtd">
<svg version="1.1" id="Layer_1" xmlns="http://www.w3.org/2000/svg" xmlns:xlink="http://www.w3.org/1999/xlink" x="0px" y="0px"
	 width="27.43px" height="29.715px" viewBox="0 0 27.43 29.715" enable-background="new 0 0 27.43 29.715" xml:space="preserve">
<title>thumb-down</title>
<path d="M4.57,5.716c0-0.309-0.113-0.577-0.339-0.804C4.005,4.686,3.737,4.573,3.427,4.573C3.117,4.574,2.849,4.687,2.623,4.912
	C2.397,5.138,2.284,5.406,2.284,5.716S2.397,6.295,2.623,6.52c0.227,0.226,0.494,0.338,0.805,0.339c0.31,0,0.577-0.112,0.804-0.339
	C4.457,6.293,4.57,6.025,4.57,5.716z M24.309,15.897c0-0.379-0.115-0.816-0.35-1.314c-0.231-0.497-0.521-0.75-0.866-0.762
	c0.16-0.184,0.296-0.441,0.403-0.771c0.108-0.329,0.162-0.629,0.164-0.9c0-0.746-0.288-1.39-0.861-1.931
	c0.195-0.346,0.294-0.719,0.294-1.12c0-0.401-0.097-0.798-0.285-1.193c-0.189-0.396-0.446-0.68-0.771-0.853
	c0.055-0.325,0.082-0.628,0.082-0.909c0-0.92-0.266-1.602-0.796-2.045c-0.53-0.444-1.267-0.666-2.208-0.666h-2.077
	c-1.418,0-3.268,0.396-5.551,1.185c-0.054,0.022-0.211,0.079-0.471,0.171c-0.261,0.092-0.452,0.16-0.577,0.203
	c-0.124,0.043-0.313,0.105-0.568,0.186C9.617,5.26,9.411,5.319,9.254,5.356C9.097,5.393,8.918,5.43,8.719,5.462
	c-0.2,0.033-0.371,0.049-0.513,0.049H7.688v10.387h0.519c0.173,0,0.365,0.049,0.576,0.146c0.211,0.099,0.427,0.244,0.649,0.438
	c0.222,0.196,0.431,0.388,0.625,0.577s0.411,0.428,0.648,0.715c0.238,0.287,0.424,0.516,0.561,0.689
	c0.136,0.174,0.307,0.395,0.512,0.666c0.206,0.27,0.331,0.432,0.374,0.485c0.595,0.736,1.011,1.229,1.25,1.478
	c0.443,0.465,0.766,1.059,0.966,1.777c0.201,0.719,0.366,1.397,0.496,2.036c0.129,0.64,0.335,1.099,0.617,1.38
	c1.039,0,1.729-0.255,2.077-0.763c0.346-0.508,0.521-1.293,0.52-2.354c0-0.639-0.261-1.506-0.778-2.604
	c-0.521-1.099-0.778-1.959-0.778-2.588h5.712c0.542,0,1.021-0.209,1.445-0.625C24.1,16.935,24.31,16.45,24.309,15.897L24.309,15.897
	L24.309,15.897z M27.429,16.021c0,1.226-0.453,2.291-1.357,3.194c-0.904,0.904-1.977,1.357-3.215,1.357h-3.144
	c0.571,1.178,0.857,2.322,0.857,3.43c0,1.404-0.209,2.513-0.625,3.32c-0.417,0.82-1.023,1.426-1.821,1.813
	c-0.798,0.387-1.695,0.579-2.695,0.579c-0.607,0-1.144-0.221-1.606-0.659c-0.405-0.394-0.726-0.882-0.964-1.466
	s-0.39-1.12-0.455-1.614s-0.169-0.998-0.313-1.511c-0.143-0.512-0.327-0.893-0.554-1.143c-0.571-0.596-1.208-1.352-1.911-2.268
	c-1.203-1.561-2.018-2.482-2.445-2.77H2.286c-0.631,0-1.169-0.224-1.616-0.671C0.223,17.17,0,16.631,0,16V4.572
	c0-0.631,0.224-1.169,0.67-1.616c0.447-0.446,0.985-0.67,1.616-0.67h5.144c0.262,0,1.083-0.238,2.464-0.714
	c1.523-0.524,2.851-0.917,3.981-1.179C15.006,0.131,16.196,0,17.446,0h2c1.666,0,3.015,0.47,4.045,1.411
	c1.029,0.941,1.539,2.227,1.527,3.857v0.089c0.713,0.917,1.069,1.976,1.069,3.179c0,0.262-0.018,0.518-0.054,0.768
	c0.452,0.797,0.679,1.654,0.679,2.571c0,0.428-0.054,0.839-0.159,1.232c0.582,0.88,0.875,1.851,0.875,2.911L27.429,16.021
	L27.429,16.021z"/>
</svg>
