<svg xmlns="http://www.w3.org/2000/svg" width="64.764" height="80.5" viewBox="0 0 64.764 80.5"><path d="M62.263 0H2.501a2.503 2.503 0 0 0-2.5 2.5V78c0 1.379 1.122 2.5 2.5 2.5h59.762c1.379 0 2.5-1.121 2.5-2.5V2.5c0-1.378-1.121-2.5-2.5-2.5zm-.5 77.5H3.001V3h58.762v74.5z"/><path d="M28.9 43.531c-6.921 5.031-7.19 8.941-7.415 12.672H43.28v-5.572H29.439c.719-1.482 2.921-2.922 7.146-5.887 3.1-2.113 6.65-4.899 6.65-10.382 0-6.471-4.854-10.065-10.965-10.065-2.831 0-10.426.898-10.426 11.279h6.111c.045-2.337.18-5.976 4.584-5.976 3.057 0 4.404 2.427 4.404 4.538.001 3.595-2.291 5.213-8.043 9.393z"/></svg>