<svg xmlns="http://www.w3.org/2000/svg" width="64.764" height="80.5" viewBox="0 0 64.764 80.5"><path fill="none" d="M3.001 77.5h58.762V3H3.001v74.5zm29.107-54.978c11.055 0 11.235 11.908 11.235 16.402 0 12.357-5.842 16.357-11.594 16.357-5.438 0-9.347-3.146-9.886-8.225h6.247v.045c.359 2.203 1.752 3.146 3.685 3.146 2.606 0 5.213-2.201 5.258-8.898l-.09-.09c-1.438 2.158-3.91 2.697-6.067 2.697-6.112 0-9.662-4.628-9.662-9.976 0-7.818 4.628-11.458 10.874-11.458z"/><path fill="none" d="M32.243 38.924c2.201 0 4.629-1.573 4.629-5.348 0-3.641-1.573-5.887-4.809-5.887-1.618 0-4.539.809-4.539 5.393.001 4.808 2.338 5.842 4.719 5.842z"/><path d="M62.263 0H2.501a2.503 2.503 0 0 0-2.5 2.5V78c0 1.379 1.122 2.5 2.5 2.5h59.762c1.379 0 2.5-1.121 2.5-2.5V2.5c0-1.378-1.121-2.5-2.5-2.5zm-.5 77.5H3.001V3h58.762v74.5z"/><path d="M30.895 43.957c2.157 0 4.628-.539 6.067-2.697l.09.09c-.045 6.697-2.652 8.898-5.258 8.898-1.932 0-3.325-.943-3.685-3.146v-.045h-6.247c.54 5.078 4.449 8.225 9.886 8.225 5.752 0 11.594-4 11.594-16.357 0-4.494-.18-16.402-11.235-16.402-6.246 0-10.875 3.64-10.875 11.459.002 5.347 3.551 9.975 9.663 9.975zm1.168-16.267c3.236 0 4.809 2.246 4.809 5.887 0 3.774-2.428 5.348-4.629 5.348-2.382 0-4.719-1.034-4.719-5.842.001-4.584 2.922-5.393 4.539-5.393z"/></svg>