<svg xmlns="http://www.w3.org/2000/svg" width="32" height="27.428" viewBox="0 2.286 32 27.428"><title>heart</title><path d="M28.796 10.987c0-.898-.119-1.693-.358-2.384-.237-.688-.543-1.235-.916-1.641a4.39 4.39 0 0 0-1.357-.992 5.96 5.96 0 0 0-1.564-.517 9.66 9.66 0 0 0-1.634-.134c-.577 0-1.198.142-1.866.425a8.642 8.642 0 0 0-1.842 1.066 19.43 19.43 0 0 0-1.441 1.2c-.399.373-.732.714-.998 1.025-.203.245-.476.367-.82.367s-.617-.122-.816-.365c-.267-.312-.6-.653-.999-1.025-.4-.372-.88-.772-1.442-1.2a8.48 8.48 0 0 0-1.84-1.066c-.667-.285-1.289-.426-1.867-.426-.579 0-1.123.045-1.633.134a6.025 6.025 0 0 0-1.567.516 4.394 4.394 0 0 0-1.358.992c-.37.405-.676.953-.916 1.641-.24.689-.359 1.483-.358 2.384 0 1.866 1.038 3.837 3.115 5.915L16 26.232l9.664-9.313c2.088-2.089 3.132-4.066 3.132-5.932zM32 10.643c0 2.631-1.363 5.31-4.089 8.037L16.786 29.393c-.214.215-.476.321-.786.321s-.572-.106-.786-.321L4.071 18.643a5.968 5.968 0 0 1-.491-.463 18.249 18.249 0 0 1-.991-1.171c-.453-.566-.857-1.146-1.214-1.741S.7 13.953.42 13.107A7.82 7.82 0 0 1 0 10.643C0 8.024.756 5.976 2.268 4.5 3.78 3.024 5.869 2.286 8.536 2.286c.738 0 1.491.128 2.259.384s1.482.602 2.143 1.036c.661.434 1.229.842 1.705 1.223s.928.785 1.357 1.214a16.48 16.48 0 0 1 1.357-1.214 22.376 22.376 0 0 1 1.705-1.223c.66-.436 1.375-.78 2.143-1.036s1.521-.384 2.259-.384c2.667 0 4.757.737 6.269 2.214C31.245 5.976 32 8.024 32 10.643z"/></svg>