<svg xmlns="http://www.w3.org/2000/svg" width="31.992" height="31.992" viewBox="0 0 31.992 31.992"><g fill="#010101"><path d="M15.996 0C7.176 0 0 7.176 0 15.996s7.176 15.996 15.996 15.996 15.996-7.176 15.996-15.996S24.816 0 15.996 0zm0 29.992C8.278 29.992 2 23.714 2 15.996S8.278 2 15.996 2s13.996 6.278 13.996 13.996-6.278 13.996-13.996 13.996z"/><path d="M15.922 9.244c-2.575 0-4.483 1.502-4.483 4.725 0 2.205 1.463 4.111 3.981 4.111.891 0 1.908-.221 2.502-1.109l.037.037c-.02 2.76-1.094 3.668-2.168 3.668-.797 0-1.371-.391-1.52-1.297v-.02h-2.572c.221 2.094 1.834 3.389 4.074 3.389 2.371 0 4.779-1.646 4.779-6.74.001-1.854-.073-6.764-4.63-6.764zm.054 6.764c-.981 0-1.944-.428-1.944-2.408 0-1.891 1.204-2.225 1.871-2.225 1.333 0 1.98.928 1.98 2.428 0 1.556-1 2.205-1.907 2.205z"/></g></svg>