<?xml version="1.0" encoding="utf-8"?>
<!-- Generator: Adobe Illustrator 16.0.0, SVG Export Plug-In . SVG Version: 6.00 Build 0)  -->
<!DOCTYPE svg PUBLIC "-//W3C//DTD SVG 1.1//EN" "http://www.w3.org/Graphics/SVG/1.1/DTD/svg11.dtd">
<svg version="1.1" id="Layer_1" xmlns="http://www.w3.org/2000/svg" xmlns:xlink="http://www.w3.org/1999/xlink" x="0px" y="0px"
	 width="31.992px" height="31.992px" viewBox="0 0 31.992 31.992" enable-background="new 0 0 31.992 31.992" xml:space="preserve">
<g>
	<path fill="#010101" d="M15.996,0C7.176,0,0,7.176,0,15.996s7.176,15.996,15.996,15.996s15.996-7.176,15.996-15.996
		S24.816,0,15.996,0z M15.996,29.992C8.278,29.992,2,23.714,2,15.996S8.278,2,15.996,2s13.996,6.278,13.996,13.996
		S23.714,29.992,15.996,29.992z"/>
	<circle fill="#010101" cx="9.978" cy="11.784" r="2.132"/>
	<circle fill="#010101" cx="22.013" cy="11.784" r="2.132"/>
	
		<rect x="14.995" y="12.461" transform="matrix(-0.1718 -0.9851 0.9851 -0.1718 -1.0084 39.2528)" fill="#010101" width="2" height="15.179"/>
</g>
</svg>
