<svg xmlns="http://www.w3.org/2000/svg" width="64.764" height="80.5" viewBox="0 0 64.764 80.5"><path fill="none" d="M44.044 51.597c3.594 0 4.582-3.146 4.582-11.369 0-8.224-.988-11.324-4.582-11.324-3.596 0-4.584 3.101-4.584 11.324 0 8.222.988 11.369 4.584 11.369z"/><path fill="none" d="M3.001 77.5h58.762V3H3.001v74.5zm41.043-53.63c7.504 0 11.053 5.168 11.053 16.357S51.548 56.63 44.044 56.63c-7.506 0-11.055-5.213-11.055-16.402S36.538 23.87 44.044 23.87zM9.667 29.397h.899c6.066 0 7.684-3.146 7.819-5.527h5.168v31.906h-6.292V33.801H9.667v-4.404z"/><path d="M62.263 0H2.501a2.503 2.503 0 0 0-2.5 2.5V78c0 1.379 1.122 2.5 2.5 2.5h59.762c1.379 0 2.5-1.121 2.5-2.5V2.5c0-1.378-1.121-2.5-2.5-2.5zm-.5 77.5H3.001V3h58.762v74.5z"/><path d="M17.261 55.776h6.292V23.87h-5.168c-.135 2.382-1.752 5.527-7.819 5.527h-.899V33.8h7.594v21.976zm26.783.854c7.504 0 11.053-5.213 11.053-16.402S51.548 23.87 44.044 23.87c-7.506 0-11.055 5.168-11.055 16.357S36.538 56.63 44.044 56.63zm0-27.727c3.594 0 4.582 3.101 4.582 11.324 0 8.223-.988 11.369-4.582 11.369-3.596 0-4.584-3.146-4.584-11.369 0-8.223.988-11.324 4.584-11.324z"/></svg>