<svg xmlns="http://www.w3.org/2000/svg" width="27.43" height="29.715" viewBox="0 0 27.43 29.715"><title>thumb-down</title><path d="M4.57 5.716c0-.309-.113-.577-.339-.804a1.099 1.099 0 0 0-.804-.339c-.31.001-.578.114-.804.339-.226.226-.339.494-.339.804s.113.579.339.804c.227.226.494.338.805.339.31 0 .577-.112.804-.339.225-.227.338-.495.338-.804zm19.739 10.181c0-.379-.115-.816-.35-1.314-.231-.497-.521-.75-.866-.762.16-.184.296-.441.403-.771.108-.329.162-.629.164-.9 0-.746-.288-1.39-.861-1.931.195-.346.294-.719.294-1.12 0-.401-.097-.798-.285-1.193-.189-.396-.446-.68-.771-.853.055-.325.082-.628.082-.909 0-.92-.266-1.602-.796-2.045-.53-.444-1.267-.666-2.208-.666h-2.077c-1.418 0-3.268.396-5.551 1.185a16.62 16.62 0 0 1-.471.171l-.577.203c-.124.043-.313.105-.568.186-.254.082-.46.141-.617.178a7.567 7.567 0 0 1-.535.106c-.2.033-.371.049-.513.049h-.518v10.387h.519c.173 0 .365.049.576.146.211.099.427.244.649.438.222.196.431.388.625.577s.411.428.648.715c.238.287.424.516.561.689.136.174.307.395.512.666.206.27.331.432.374.485.595.736 1.011 1.229 1.25 1.478.443.465.766 1.059.966 1.777.201.719.366 1.397.496 2.036.129.64.335 1.099.617 1.38 1.039 0 1.729-.255 2.077-.763.346-.508.521-1.293.52-2.354 0-.639-.261-1.506-.778-2.604-.521-1.099-.778-1.959-.778-2.588h5.712c.542 0 1.021-.209 1.445-.625.421-.416.631-.901.63-1.454zm3.12.124c0 1.226-.453 2.291-1.357 3.194-.904.904-1.977 1.357-3.215 1.357h-3.144c.571 1.178.857 2.322.857 3.43 0 1.404-.209 2.513-.625 3.32-.417.82-1.023 1.426-1.821 1.813s-1.695.579-2.695.579c-.607 0-1.144-.221-1.606-.659-.405-.394-.726-.882-.964-1.466s-.39-1.12-.455-1.614-.169-.998-.313-1.511c-.143-.512-.327-.893-.554-1.143-.571-.596-1.208-1.352-1.911-2.268-1.203-1.561-2.018-2.482-2.445-2.77H2.286a2.202 2.202 0 0 1-1.616-.671A2.184 2.184 0 0 1 0 16V4.572c0-.631.224-1.169.67-1.616.447-.446.985-.67 1.616-.67H7.43c.262 0 1.083-.238 2.464-.714 1.523-.524 2.851-.917 3.981-1.179A15.779 15.779 0 0 1 17.446 0h2c1.666 0 3.015.47 4.045 1.411 1.029.941 1.539 2.227 1.527 3.857v.089c.713.917 1.069 1.976 1.069 3.179 0 .262-.018.518-.054.768.452.797.679 1.654.679 2.571 0 .428-.054.839-.159 1.232a5.17 5.17 0 0 1 .875 2.911l.001.003z"/></svg>