<svg xmlns="http://www.w3.org/2000/svg" width="31.992" height="31.992" viewBox="0 0 31.992 31.992"><g fill="#010101"><path d="M15.996.001C7.176.001 0 7.177 0 15.996c0 8.82 7.176 15.995 15.996 15.995s15.996-7.175 15.996-15.995c0-8.819-7.176-15.995-15.996-15.995zm0 29.991C8.278 29.992 2 23.714 2 15.996 2 8.279 8.278 2.001 15.996 2.001s13.996 6.278 13.996 13.995c0 7.718-6.278 13.996-13.996 13.996z"/><circle cx="9.979" cy="10.65" r="2.132"/><circle cx="22.015" cy="10.65" r="2.132"/><path d="M15.996 19.846c-5.472-.004-6.619-1.5-7.092-.479-.473 1.025 1.256 5.109 7.08 5.109 5.821 0 7.576-4.084 7.105-5.109-.472-1.021-1.618.475-7.093.479z"/></g></svg>