<svg xmlns="http://www.w3.org/2000/svg" width="31.992" height="31.992" viewBox="0 0 31.992 31.992"><path fill="none" d="M15.996 2C8.278 2 2 8.279 2 15.996s6.278 13.997 13.996 13.997 13.996-6.279 13.996-13.997S23.714 2 15.996 2z"/><path fill="#010101" d="M15.996 0C7.176 0 0 7.176 0 15.996c0 8.821 7.176 15.997 15.996 15.997s15.996-7.176 15.996-15.997C31.992 7.176 24.816 0 15.996 0zm0 29.993C8.278 29.993 2 23.713 2 15.996S8.278 2 15.996 2s13.996 6.279 13.996 13.996-6.278 13.997-13.996 13.997z"/></svg>