<svg xmlns="http://www.w3.org/2000/svg" width="31.992" height="31.992" viewBox="0 0 31.992 31.992"><g fill="#010101"><path d="M15.996 0C7.176 0 0 7.176 0 15.996s7.176 15.996 15.996 15.996 15.996-7.176 15.996-15.996S24.816 0 15.996 0zm0 29.992C8.277 29.992 2 23.714 2 15.996S8.277 2 15.996 2c7.717 0 13.996 6.278 13.996 13.996s-6.279 13.996-13.996 13.996z"/><path d="M19.152 9.42h-2.945l-4.834 8.004v2.24h5.186v2.908h2.594v-2.908h1.465v-2.02h-1.465V9.42zm-2.593 8.225h-3.277l3.297-5.649h.037c-.001.406-.057 2.462-.057 5.649z"/></g></svg>