<svg xmlns="http://www.w3.org/2000/svg" width="25.143" height="25.144" viewBox="3.5 2.286 25.143 25.144"><title>square</title><path d="M23.14 5.071H9.004c-.749 0-1.388.266-1.92.798a2.618 2.618 0 0 0-.798 1.921v14.135c0 .746.266 1.387.798 1.918.533.532 1.172.8 1.92.8H23.14c.747 0 1.387-.268 1.918-.8.532-.531.8-1.172.8-1.918V7.79c0-.749-.268-1.388-.8-1.92a2.612 2.612 0 0 0-1.918-.799zm5.503 2.358v14.857c0 1.417-.502 2.628-1.509 3.634-1.006 1.006-2.218 1.51-3.634 1.51H8.643c-1.417 0-2.628-.504-3.634-1.51C4.003 24.914 3.5 23.703 3.5 22.286V7.429c0-1.417.503-2.628 1.509-3.634 1.006-1.006 2.218-1.509 3.634-1.509H23.5c1.416 0 2.628.503 3.634 1.509 1.007 1.006 1.509 2.217 1.509 3.634z"/></svg>