<svg xmlns="http://www.w3.org/2000/svg" width="31.992" height="31.992" viewBox="0 0 31.992 31.992"><path d="M16.561 24.666h-3.467v-3.458h3.467v3.458zm5.781-10.359v.031l-3.482 1.998v-.013l-2.297 1.332v2.463h-3.48v-3.586l5.777-3.309v-2.416H9.607V7.326h12.734v6.883l.043.072-.042.026z"/><path fill="#010101" d="M15.996 0C7.176 0 0 7.176 0 15.996s7.176 15.996 15.996 15.996 15.996-7.176 15.996-15.996S24.816 0 15.996 0zm0 29.992C8.277 29.992 2 23.713 2 15.996S8.277 2 15.996 2c7.718 0 13.996 6.279 13.996 13.996s-6.278 13.996-13.996 13.996z"/></svg>