<svg xmlns="http://www.w3.org/2000/svg" viewBox="0 0 612 612"><path d="M228.9 592.3c-3.3 0-6.6-.8-9.7-2.4-35.4-18.8-62.9-48.5-81.9-88.4-11.6-24.4-43.1-112.8 37.6-225.2l.1-.1c80.4-109.5 83.5-200.1 81-233.9-.6-8.2 3.7-16 10.9-19.9 7.3-3.9 16.1-3.2 22.7 1.9 11.3 8.8 21.9 19.5 31.5 32 31.6 41.2 49 94.6 49 150.5 0 27.5 2.7 50.4 7.3 62.8.4 1 .7 1.9 1.1 2.7 2-7 3.7-19.3 2.5-38.5-.5-8.5 4.1-16.3 11.7-20 7.6-3.7 16.5-2.5 22.9 3 16.4 14.4 39.8 43.7 58.5 101.9 16.3 51.3 17.7 89.2 16 111.9-5.8 91.8-57.6 136.9-100 158.6-8.3 4.3-18.3 2.6-24.7-4.4-6.5-7-7.5-17.1-2.5-25.2 36-58.5-5-126.3-24.3-152.6-21.2-29-35.4-59.7-44.1-82.5-12.3 25-31 64.4-54.6 117.1-23.6 52.7-9.5 93.6 6.6 118.6 5.1 7.9 4.3 18.3-2 25.3-4.2 4.4-9.9 6.8-15.6 6.8zm159.4-17zm-12-12.9c0 .1-.1.1 0 0-.1.1 0 .1 0 0zm-73.6-319.7l9.3 38.8c.1.6 14.2 57.8 50.7 107.7 39.9 54.6 53.2 110.5 38.5 157.6 35.9-27.2 55.6-66.8 58.8-118.3v-.2c1.5-20.1.2-53.9-14.6-100.7-11.2-34.7-23.8-57.2-34.4-71.4-1.7 29.7-11.2 48.1-27 51.5-6.8 1.4-23.8 1.6-34.8-27.7-6-15.9-9.3-41.9-9.3-73.4 0-49.3-15.2-96.3-42.8-132.3-3.5-4.5-7.1-8.8-10.8-12.7-.9 46.8-14.4 132.8-87.3 232.1-71.1 99.1-44.6 174.1-34.8 194.8 10.7 22.4 24.4 41 41 55.5-3.2-9.2-5.5-18.6-6.8-28.2-3.9-28.3.8-57.4 13.9-86.6 44-98.4 71.4-150.7 71.7-151.3l18.7-35.2zm79.9 36.5z"/></svg>