<?xml version="1.0" encoding="utf-8"?>
<!-- Generator: Adobe Illustrator 16.0.0, SVG Export Plug-In . SVG Version: 6.00 Build 0)  -->
<!DOCTYPE svg PUBLIC "-//W3C//DTD SVG 1.1//EN" "http://www.w3.org/Graphics/SVG/1.1/DTD/svg11.dtd">
<svg version="1.1" id="Layer_1" xmlns="http://www.w3.org/2000/svg" xmlns:xlink="http://www.w3.org/1999/xlink" x="0px" y="0px"
	 width="31.992px" height="31.992px" viewBox="0 0 31.992 31.992" enable-background="new 0 0 31.992 31.992" xml:space="preserve">
<path fill="#010101" d="M15.996,0C7.176,0,0,7.176,0,15.996s7.176,15.996,15.996,15.996s15.996-7.176,15.996-15.996
	S24.816,0,15.996,0z M9.978,9.652c1.177,0,2.132,0.954,2.132,2.132s-0.955,2.132-2.132,2.132s-2.132-0.954-2.132-2.132
	S8.801,9.652,9.978,9.652z M8.69,22.34l-0.344-1.971L23.3,17.761l0.344,1.971L8.69,22.34z M22.013,13.916
	c-1.177,0-2.132-0.954-2.132-2.132s0.955-2.132,2.132-2.132s2.132,0.954,2.132,2.132S23.189,13.916,22.013,13.916z"/>
</svg>
