<svg xmlns="http://www.w3.org/2000/svg" width="31.992" height="31.992" viewBox="0 0 31.992 31.992"><g fill="#010101"><path d="M15.996 0C7.176 0 0 7.176 0 15.996s7.176 15.996 15.996 15.996 15.996-7.176 15.996-15.996S24.816 0 15.996 0zm-.223 22.748c-2.24 0-3.853-1.295-4.074-3.389h2.572v.02c.149.906.723 1.297 1.52 1.297 1.074 0 2.148-.908 2.168-3.668l-.037-.037c-.594.889-1.611 1.109-2.502 1.109-2.518 0-3.981-1.906-3.981-4.111 0-3.223 1.908-4.725 4.483-4.725 4.557 0 4.631 4.91 4.63 6.764 0 5.094-2.407 6.74-4.779 6.74z"/><path d="M15.903 11.375c-.667 0-1.871.334-1.871 2.225 0 1.98.963 2.408 1.944 2.408.907 0 1.907-.649 1.907-2.205 0-1.5-.647-2.428-1.98-2.428z"/></g></svg>