<svg xmlns="http://www.w3.org/2000/svg" width="31.993" height="31.992" viewBox="0 0 31.993 31.992"><title>thumb-down</title><path d="M15.997 0C7.176 0 0 7.177 0 15.996c0 8.82 7.176 15.996 15.998 15.996 8.82 0 15.996-7.176 15.996-15.996C31.993 7.177 24.817 0 15.997 0zm0 29.992C8.279 29.992 2 23.714 2 15.996 2 8.279 8.278 2 15.997 2c7.716 0 13.996 6.279 13.996 13.996 0 7.718-6.28 13.996-13.996 13.996z"/><path d="M17.389 20.193h-3.15a.525.525 0 0 0-.523.523v3.148c0 .289.236.526.523.526h3.15a.527.527 0 0 0 .523-.526v-3.148a.525.525 0 0 0-.523-.523zM16.104 7.602c-2.676 0-4.67 1.141-6.088 3.489a.515.515 0 0 0 .131.694l2.153 1.641a.613.613 0 0 0 .326.104.55.55 0 0 0 .408-.209c.773-.971 1.09-1.286 1.402-1.509.289-.197.828-.38 1.421-.38 1.062 0 2.019.654 2.019 1.39 0 .839-.42 1.272-1.431 1.731-1.154.524-2.728 1.889-2.728 3.477v.59c0 .289.183.734.472.734h3.15c.299 0 .52-.34.52-.629 0-.381.486-1.285 1.26-1.732 1.248-.693 2.939-1.651 2.939-4.144-.001-3.004-3.147-5.247-5.954-5.247z"/></svg>