<svg xmlns="http://www.w3.org/2000/svg" width="31.992" height="31.992" viewBox="0 0 31.992 31.992"><g fill="#010101"><path d="M22.015 13.336c1.177 0 2.132.038 2.132-.933 0-.972-.955-1.759-2.132-1.759s-2.132.787-2.132 1.759c0 .971.955.933 2.132.933zm-12.036 0c1.177 0 2.132.038 2.132-.933 0-.972-.955-1.759-2.132-1.759s-2.132.787-2.132 1.759c.001.971.956.933 2.132.933z"/><path d="M15.996 0C7.176 0 0 7.176 0 15.996s7.176 15.996 15.996 15.996 15.996-7.176 15.996-15.996S24.816 0 15.996 0zm0 29.992C8.278 29.992 2 23.713 2 15.996 2 8.279 8.278 2 15.996 2s13.996 6.279 13.996 13.996c0 7.717-6.278 13.996-13.996 13.996z"/><path d="M7.846 20.137l1.313 1.509c.031-.026 3.11-2.669 6.98-2.669 3.815 0 6.597 2.609 6.624 2.637l1.386-1.442c-.135-.13-3.369-3.194-8.01-3.194-4.611-.001-8.146 3.03-8.293 3.159z"/></g></svg>