<svg xmlns="http://www.w3.org/2000/svg" width="31.992" height="31.992" viewBox="0 0 31.992 31.992"><g fill="#010101"><path d="M15.996 0C7.176 0 0 7.176 0 15.996s7.176 15.996 15.996 15.996 15.996-7.176 15.996-15.996S24.816 0 15.996 0zm0 29.992C8.278 29.992 2 23.714 2 15.996S8.278 2 15.996 2s13.996 6.278 13.996 13.996-6.278 13.996-13.996 13.996z"/><path d="M16.543 13.673c-1.279 0-1.873.389-2.354.722l.464-2.854h5.354V9.355h-7.225l-.908 7.225 2.315.111c.5-.926 1.388-.945 1.741-.945 1.369 0 1.926 1.187 1.926 2.354 0 1.408-.723 2.465-1.963 2.465-1.148 0-1.723-.724-1.834-1.798h-2.594c.13 2.647 2.222 3.871 4.279 3.871 3.871 0 4.778-2.927 4.778-4.724.002-3.019-2.219-4.241-3.979-4.241z"/></g></svg>