<svg xmlns="http://www.w3.org/2000/svg" width="31.992" height="31.992" viewBox="0 0 31.992 31.992"><title>crying</title><path fill="#010101" d="M15.996 0C7.176 0 0 7.176 0 15.996s7.176 15.996 15.996 15.996 15.996-7.176 15.996-15.996S24.816 0 15.996 0zm6.019 10.644c1.177 0 2.132.787 2.132 1.759 0 .971-.955.933-2.132.933s-2.132.038-2.132-.933c0-.972.955-1.759 2.132-1.759zm-12.036 0c1.177 0 2.132.787 2.132 1.759 0 .971-.955.933-2.132.933s-2.132.038-2.132-.933c.001-.972.956-1.759 2.132-1.759zm-1.342 4.523s2.403 3.275 0 3.275c-2.402-.001 0-3.275 0-3.275zm14.126 8.446c-.027-.025-2.809-2.637-6.624-2.637-3.87 0-6.949 2.643-6.98 2.67l-1.313-1.509c.147-.129 3.683-3.161 8.293-3.161 4.641 0 7.875 3.064 8.01 3.195l-1.386 1.442z"/></svg>