<svg xmlns="http://www.w3.org/2000/svg" width="31.992" height="31.992" viewBox="0 0 31.992 31.992"><path fill="#010101" d="M15.996 0C7.176 0 0 7.176 0 15.996s7.176 15.996 15.996 15.996 15.996-7.176 15.996-15.996S24.816 0 15.996 0zm-5.857 10.169c1.178 0 2.133-.046 2.133 1.131a2.132 2.132 0 1 1-4.264 0c0-1.177.955-1.131 2.131-1.131zM23.326 21.82c-.064-.021-6.448-2.078-10.311-2.078-2.421 0-3.248.845-3.348 1.292l-1.979-.288c.014-.123.428-3.004 5.327-3.004 4.18 0 10.655 2.087 10.928 2.176l-.617 1.902zm-1.152-8.388a2.131 2.131 0 0 1-2.131-2.132c0-1.177.955-1.131 2.131-1.131 1.178 0 2.133-.046 2.133 1.131a2.132 2.132 0 0 1-2.133 2.132z"/></svg>