<?xml version="1.0" encoding="utf-8"?>
<!-- Generator: Adobe Illustrator 16.0.0, SVG Export Plug-In . SVG Version: 6.00 Build 0)  -->
<!DOCTYPE svg PUBLIC "-//W3C//DTD SVG 1.1//EN" "http://www.w3.org/Graphics/SVG/1.1/DTD/svg11.dtd">
<svg version="1.1" id="Layer_1" xmlns="http://www.w3.org/2000/svg" xmlns:xlink="http://www.w3.org/1999/xlink" x="0px" y="0px"
	 width="32px" height="27.428px" viewBox="0 2.286 32 27.428" enable-background="new 0 2.286 32 27.428" xml:space="preserve">
<title>heart</title>
<path d="M28.796,10.987c0-0.898-0.119-1.693-0.358-2.384c-0.237-0.688-0.543-1.235-0.916-1.641
	c-0.371-0.405-0.823-0.736-1.357-0.992c-0.532-0.256-1.055-0.429-1.564-0.517c-0.513-0.089-1.058-0.133-1.634-0.134
	c-0.577,0-1.198,0.142-1.866,0.425c-0.666,0.283-1.279,0.64-1.842,1.066c-0.56,0.427-1.041,0.828-1.441,1.2
	c-0.399,0.373-0.732,0.714-0.998,1.025C16.617,9.28,16.344,9.402,16,9.402s-0.617-0.122-0.816-0.365
	c-0.267-0.312-0.6-0.653-0.999-1.025c-0.4-0.372-0.88-0.772-1.442-1.2c-0.561-0.428-1.175-0.784-1.84-1.066
	C10.236,5.461,9.614,5.32,9.036,5.32c-0.579,0-1.123,0.045-1.633,0.134C6.893,5.542,6.37,5.715,5.836,5.97
	C5.302,6.226,4.849,6.557,4.478,6.962c-0.37,0.405-0.676,0.953-0.916,1.641c-0.24,0.689-0.359,1.483-0.358,2.384
	c0,1.866,1.038,3.837,3.115,5.915L16,26.232l9.664-9.313C27.752,14.83,28.796,12.853,28.796,10.987z M32,10.643
	c0,2.631-1.363,5.31-4.089,8.037L16.786,29.393c-0.214,0.215-0.476,0.321-0.786,0.321s-0.572-0.106-0.786-0.321L4.071,18.643
	c-0.119-0.095-0.283-0.25-0.491-0.463c-0.208-0.215-0.539-0.604-0.991-1.171c-0.453-0.566-0.857-1.146-1.214-1.741
	S0.7,13.953,0.42,13.107C0.14,12.261,0,11.44,0,10.643C0,8.024,0.756,5.976,2.268,4.5C3.78,3.024,5.869,2.286,8.536,2.286
	c0.738,0,1.491,0.128,2.259,0.384s1.482,0.602,2.143,1.036c0.661,0.434,1.229,0.842,1.705,1.223S15.571,5.714,16,6.143
	c0.429-0.429,0.881-0.833,1.357-1.214c0.476-0.381,1.043-0.789,1.705-1.223c0.66-0.436,1.375-0.78,2.143-1.036
	s1.521-0.384,2.259-0.384c2.667,0,4.757,0.737,6.269,2.214C31.245,5.976,32,8.024,32,10.643z"/>
</svg>
