<svg xmlns="http://www.w3.org/2000/svg" width="32" height="27.428" viewBox="0 2.286 32 27.428"><title>heart-selected</title><path d="M16 29.714c-.31 0-.571-.106-.786-.321L4.071 18.643a5.968 5.968 0 0 1-.491-.463 18.249 18.249 0 0 1-.991-1.171c-.453-.566-.857-1.146-1.214-1.741S.7 13.953.42 13.107A7.82 7.82 0 0 1 0 10.643C0 8.024.756 5.976 2.268 4.5 3.78 3.024 5.869 2.286 8.536 2.286c.738 0 1.491.128 2.259.384.768.256 1.482.602 2.143 1.036s1.229.842 1.705 1.223c.476.381.928.785 1.357 1.214a16.48 16.48 0 0 1 1.357-1.214 22.578 22.578 0 0 1 1.705-1.223 9.111 9.111 0 0 1 2.143-1.036 7.118 7.118 0 0 1 2.259-.384c2.667 0 4.757.738 6.269 2.214S32 8.024 32 10.643c0 2.631-1.363 5.309-4.089 8.037L16.786 29.393a1.069 1.069 0 0 1-.786.321z"/></svg>