<svg xmlns="http://www.w3.org/2000/svg" width="31.992" height="31.992" viewBox="0 0 31.992 31.992"><path fill="#010101" d="M15.996 0C7.176 0 0 7.176 0 15.996s7.176 15.996 15.996 15.996 15.996-7.176 15.996-15.996S24.816 0 15.996 0zm6.02 10.644c1.176 0 2.131.787 2.131 1.759 0 .971-.955.933-2.131.933-1.178 0-2.133.038-2.133-.933 0-.972.955-1.759 2.133-1.759zm-12.037 0c1.177 0 2.132.787 2.132 1.759 0 .971-.955.933-2.132.933-1.176 0-2.131.038-2.132-.933 0-.972.955-1.759 2.132-1.759zm12.785 10.969c-.027-.027-2.81-2.637-6.625-2.637-3.87 0-6.949 2.644-6.98 2.67l-1.313-1.51c.147-.129 3.682-3.16 8.293-3.158 4.64 0 7.875 3.063 8.009 3.193l-1.384 1.442z"/></svg>