<svg xmlns="http://www.w3.org/2000/svg" width="64.764" height="80.5" viewBox="0 0 64.764 80.5"><path d="M62.264 0H2.5A2.503 2.503 0 0 0 0 2.5V78c0 1.379 1.121 2.5 2.5 2.5h59.763c1.379 0 2.5-1.121 2.501-2.5V2.5c0-1.378-1.121-2.5-2.5-2.5zm-.5 77.5H3V3h58.764v74.5z"/><path d="M21.395 45.979c0 9.977 8.089 10.65 11.1 10.65 6.427 0 10.875-4.27 10.875-10.291 0-5.438-3.685-7.101-4.808-7.415v-.09c1.797-.809 3.818-2.831 3.818-6.066 0-6.74-5.616-8.897-9.886-8.897-7.189 0-10.561 4.269-10.561 10.245h5.842c0-1.123 0-5.212 4.314-5.212 3.46 0 3.999 2.921 3.999 4.089 0 4.135-3.46 4.314-5.348 4.314h-.988V41.8c2.921 0 7.146.18 7.146 4.539 0 3.551-2.202 5.258-4.719 5.258-4.225 0-4.674-3.865-4.674-5.572l.045-.045h-6.155z"/></svg>