<svg xmlns="http://www.w3.org/2000/svg" width="31.992" height="31.992" viewBox="0 0 31.992 31.992"><g fill="#010101"><path d="M15.958 16.543c-.944 0-1.853.611-1.853 2.037 0 1.26.723 2.094 1.908 2.094 1.352 0 1.87-1.168 1.871-2.076 0-.926-.482-2.055-1.926-2.055zm.056-1.963c1.019 0 1.611-.688 1.611-1.631 0-1-.686-1.629-1.52-1.629-1.167 0-1.777.666-1.777 1.629 0 .779.574 1.631 1.686 1.631z"/><path d="M15.996 0C7.176 0 0 7.176 0 15.996s7.176 15.996 15.996 15.996 15.996-7.176 15.996-15.996S24.816 0 15.996 0zm-.001 22.748c-3.39 0-4.557-2.203-4.557-4 0-.668 0-2.408 2.001-3.334-1.038-.519-1.595-1.353-1.595-2.576 0-2.24 1.798-3.594 4.095-3.594 2.724 0 4.168 1.612 4.168 3.428 0 1.128-.463 2.093-1.52 2.648 1.26.631 1.963 1.463 1.964 3.168.001 1.668-1.074 4.26-4.556 4.26z"/></g></svg>