<svg xmlns="http://www.w3.org/2000/svg" width="31.992" height="31.992" viewBox="0 0 31.992 31.992"><path fill="#010101" d="M15.996 0C7.176 0 0 7.176 0 15.996s7.176 15.996 15.996 15.996 15.996-7.176 15.996-15.996S24.816 0 15.996 0zm5.947 9.347a2.132 2.132 0 1 1 0 4.264 2.132 2.132 0 0 1 0-4.264zm-12.037 0a2.133 2.133 0 1 1 0 4.266 2.133 2.133 0 0 1 0-4.266zm14.313 12.141c-.111.095-2.127 1.824-5.073 2.683-.982.286-2.067.476-3.221.476-.29 0-.574-.012-.853-.034-4.179-.337-7.029-3.037-7.156-3.159v-.001l1.386-1.442c.027.028 2.81 2.637 6.623 2.637 3.847 0 6.95-2.643 6.981-2.67l1.313 1.51z"/></svg>