<svg xmlns="http://www.w3.org/2000/svg" width="31.991" height="31.992" viewBox="0 0 31.991 31.992"><path fill="#010101" d="M15.996 0C7.175 0 0 7.176 0 15.996s7.176 15.996 15.996 15.996 15.996-7.176 15.996-15.996S24.815 0 15.996 0zm1.917 23.866a.528.528 0 0 1-.525.525h-3.15a.526.526 0 0 1-.523-.525v-3.148c0-.289.236-.525.523-.525h3.15c.287 0 .525.236.525.525v3.148zm1.205-6.874c-.773.447-1.26 1.351-1.26 1.732 0 .288-.223.63-.521.63h-3.15c-.289 0-.471-.447-.471-.734v-.59c0-1.588 1.572-2.952 2.727-3.478 1.011-.459 1.431-.893 1.431-1.731 0-.734-.957-1.39-2.019-1.39-.592 0-1.131.183-1.42.38-.313.223-.629.538-1.402 1.509a.546.546 0 0 1-.408.209.603.603 0 0 1-.326-.105l-2.152-1.64a.517.517 0 0 1-.131-.695C11.434 8.741 13.428 7.6 16.104 7.6c2.806 0 5.953 2.243 5.953 5.247.001 2.493-1.691 3.451-2.939 4.145z"/></svg>