<?xml version="1.0" encoding="utf-8"?>
<!-- Generator: Adobe Illustrator 16.0.0, SVG Export Plug-In . SVG Version: 6.00 Build 0)  -->
<!DOCTYPE svg PUBLIC "-//W3C//DTD SVG 1.1//EN" "http://www.w3.org/Graphics/SVG/1.1/DTD/svg11.dtd">
<svg version="1.1" id="Layer_1" xmlns="http://www.w3.org/2000/svg" xmlns:xlink="http://www.w3.org/1999/xlink" x="0px" y="0px"
	 width="31.991px" height="31.992px" viewBox="0 0 31.991 31.992" enable-background="new 0 0 31.991 31.992" xml:space="preserve">
<path fill="#010101" d="M15.996,0C7.176,0,0,7.176,0,15.996s7.176,15.996,15.996,15.996c8.819,0,15.995-7.176,15.995-15.996
	S24.815,0,15.996,0z M21.991,9.672c1.177,0,2.132,0.955,2.132,2.131c0,1.178-0.955,2.133-2.132,2.133s-2.132-0.955-2.132-2.133
	C19.859,10.627,20.814,9.672,21.991,9.672z M9.957,9.672c1.176,0,2.131,0.955,2.131,2.131c0,1.178-0.955,2.133-2.131,2.133
	c-1.178,0-2.133-0.955-2.133-2.133C7.824,10.627,8.779,9.672,9.957,9.672z M24.662,22.113l-2.799-1.036l-3.871,1.244l-3.691-1.262
	l-3.861,0.935l-3.807-1.008l0.512-1.934l3.316,0.879l3.936-0.952l3.615,1.234l3.898-1.252l3.447,1.276L24.662,22.113z"/>
</svg>
