<?xml version="1.0" encoding="utf-8"?>
<!-- Generator: Adobe Illustrator 16.0.0, SVG Export Plug-In . SVG Version: 6.00 Build 0)  -->
<!DOCTYPE svg PUBLIC "-//W3C//DTD SVG 1.1//EN" "http://www.w3.org/Graphics/SVG/1.1/DTD/svg11.dtd">
<svg version="1.1" id="Layer_1" xmlns="http://www.w3.org/2000/svg" xmlns:xlink="http://www.w3.org/1999/xlink" x="0px" y="0px"
	 width="31.991px" height="31.992px" viewBox="0 0 31.991 31.992" enable-background="new 0 0 31.991 31.992" xml:space="preserve">
<g>
	<path fill="#010101" d="M15.996,0C7.176,0,0,7.176,0,15.996s7.176,15.996,15.996,15.996c8.819,0,15.995-7.176,15.995-15.996
		S24.815,0,15.996,0z M15.996,29.992C8.278,29.992,2,23.714,2,15.996S8.278,2,15.996,2c7.717,0,13.995,6.278,13.995,13.996
		S23.713,29.992,15.996,29.992z"/>
	<circle fill="#010101" cx="9.957" cy="11.804" r="2.132"/>
	<circle fill="#010101" cx="21.991" cy="11.804" r="2.132"/>
	<polygon fill="#010101" points="18.012,20.214 14.396,18.979 10.461,19.932 7.145,19.053 6.633,20.986 10.439,21.994 14.301,21.06 
		17.992,22.321 21.863,21.077 24.662,22.113 25.357,20.238 21.91,18.962 	"/>
</g>
</svg>
