<svg xmlns="http://www.w3.org/2000/svg" width="31.992" height="31.992" viewBox="0 0 31.992 31.992"><title>crying</title><g fill="#010101"><path d="M22.015 13.336c1.177 0 2.132.038 2.132-.933 0-.972-.955-1.759-2.132-1.759s-2.132.787-2.132 1.759c0 .971.955.933 2.132.933zm-12.036 0c1.177 0 2.132.038 2.132-.933 0-.972-.955-1.759-2.132-1.759s-2.132.787-2.132 1.759c.001.971.956.933 2.132.933z"/><path d="M15.996 0C7.176 0 0 7.176 0 15.996s7.176 15.996 15.996 15.996 15.996-7.176 15.996-15.996S24.816 0 15.996 0zm0 29.992C8.278 29.992 2 23.713 2 15.996 2 8.279 8.278 2 15.996 2s13.996 6.279 13.996 13.996c0 7.717-6.278 13.996-13.996 13.996z"/><path d="M7.846 22.138l1.313 1.509c.031-.027 3.11-2.67 6.98-2.67 3.815 0 6.597 2.611 6.624 2.637l1.386-1.441c-.135-.131-3.369-3.195-8.01-3.195-4.611-.001-8.146 3.031-8.293 3.16z"/></g><path fill="#010101" d="M8.637 15.167s-2.401 3.275 0 3.275c2.403-.001 0-3.275 0-3.275z"/></svg>