<svg xmlns="http://www.w3.org/2000/svg" width="31.992" height="31.992" viewBox="0 0 31.992 31.992"><path fill="#010101" d="M15.996 0C7.176 0 0 7.176 0 15.996s7.176 15.996 15.996 15.996 15.996-7.176 15.996-15.996S24.816 0 15.996 0zm5.863 9.346a2.131 2.131 0 1 1 0 4.264 2.133 2.133 0 1 1 0-4.264zm-12.035 0a2.132 2.132 0 1 1 0 4.264 2.132 2.132 0 0 1 0-4.264zm6.018 16.3c-5.58 0-7.869-4.406-8.3-6.735l1.966-.367c.04.208 1.044 5.103 6.334 5.103 5.371 0 6.614-4.938 6.664-5.15l1.945.465c-.553 2.311-3.062 6.684-8.609 6.684z"/></svg>