<svg xmlns="http://www.w3.org/2000/svg" width="31.992" height="31.992" viewBox="0 0 31.992 31.992"><g fill="#010101"><path d="M15.996 0C7.176 0 0 7.176 0 15.996s7.176 15.996 15.996 15.996 15.996-7.176 15.996-15.996S24.816 0 15.996 0zm0 29.992C8.278 29.992 2 23.714 2 15.996S8.278 2 15.996 2s13.996 6.278 13.996 13.996-6.278 13.996-13.996 13.996z"/><path d="M7.002 11.521h-.371v1.816h3.132v9.059h2.593V9.244h-2.13c-.056.983-.724 2.277-3.224 2.277zm13.797-2.277c-3.092 0-4.557 2.131-4.557 6.742 0 4.613 1.465 6.762 4.557 6.762 3.095 0 4.559-2.148 4.559-6.762-.001-4.611-1.464-6.742-4.559-6.742zm0 11.43c-1.48 0-1.889-1.297-1.889-4.688 0-3.389.408-4.668 1.889-4.668 1.484 0 1.891 1.279 1.891 4.668-.001 3.391-.409 4.688-1.891 4.688z"/></g></svg>