<?xml version="1.0" encoding="utf-8"?>
<!-- Generator: Adobe Illustrator 16.0.0, SVG Export Plug-In . SVG Version: 6.00 Build 0)  -->
<!DOCTYPE svg PUBLIC "-//W3C//DTD SVG 1.1//EN" "http://www.w3.org/Graphics/SVG/1.1/DTD/svg11.dtd">
<svg version="1.1" id="Layer_1" xmlns="http://www.w3.org/2000/svg" xmlns:xlink="http://www.w3.org/1999/xlink" x="0px" y="0px"
	 width="31.992px" height="31.992px" viewBox="0 0 31.992 31.992" enable-background="new 0 0 31.992 31.992" xml:space="preserve">
<g>
	<path fill="none" d="M15.996,2C8.278,2,2,8.279,2,15.996s6.278,13.997,13.996,13.997s13.996-6.279,13.996-13.997S23.714,2,15.996,2
		z"/>
	<path fill="#010101" d="M15.996,0C7.176,0,0,7.176,0,15.996c0,8.821,7.176,15.997,15.996,15.997s15.996-7.176,15.996-15.997
		C31.992,7.176,24.816,0,15.996,0z M15.996,29.993C8.278,29.993,2,23.713,2,15.996S8.278,2,15.996,2s13.996,6.279,13.996,13.996
		S23.714,29.993,15.996,29.993z"/>
</g>
</svg>
