<svg xmlns="http://www.w3.org/2000/svg" width="64.764" height="80.5" viewBox="0 0 64.764 80.5"><path d="M62.263 0H2.501a2.503 2.503 0 0 0-2.5 2.5V78c0 1.379 1.122 2.5 2.5 2.5h59.762c1.379 0 2.5-1.121 2.5-2.5V2.5c0-1.378-1.121-2.5-2.5-2.5zm-.5 77.5H3.001V3h58.762v74.5z"/><path d="M32.944 56.63c6.156 0 10.426-4.674 10.426-11.639 0-4.764-3.146-9.842-9.752-9.842-3.55 0-5.123 1.482-5.977 2.651l-.09-.09c.225-4.135 1.168-8.808 5.258-8.808 2.337 0 3.505 1.258 3.685 3.056h6.247c-.585-3.37-1.214-4.314-2.967-6.021-1.572-1.573-5.213-2.067-6.516-2.067-11.054 0-11.863 10.65-11.863 16.717 0 7.953 1.887 16.043 11.549 16.043zm-.45-16.447c1.977 0 4.584 1.303 4.584 5.348 0 4.314-2.113 6.066-4.404 6.066-3.011 0-4.988-2.471-4.988-5.932 0-4 2.427-5.482 4.808-5.482z"/></svg>