<svg xmlns="http://www.w3.org/2000/svg" width="64.764" height="80.5" viewBox="0 0 64.764 80.5"><path d="M62.264 0H2.5A2.503 2.503 0 0 0 0 2.5V78c0 1.379 1.121 2.5 2.5 2.5h59.763c1.379 0 2.5-1.121 2.501-2.5V2.5c0-1.378-1.121-2.5-2.5-2.5zm-.5 77.5H3V3h58.764v74.5z"/><path d="M31.843 50.25c-2.786 0-4.179-1.754-4.449-4.359h-6.291c.314 6.426 5.393 9.391 10.38 9.391 9.392 0 11.594-7.1 11.594-11.459 0-7.324-5.393-10.29-9.662-10.29-3.101 0-4.539.943-5.707 1.752l1.124-6.92h12.987v-5.303H24.293l-2.202 17.525 5.617.27c1.213-2.248 3.371-2.292 4.224-2.292 3.326 0 4.674 2.876 4.674 5.707.001 3.416-1.753 5.978-4.763 5.978z"/></svg>