<svg xmlns="http://www.w3.org/2000/svg" width="31.992" height="31.992" viewBox="0 0 31.992 31.992"><g fill="#010101"><path d="M16.04 15.968c-.98 0-1.98.611-1.98 2.26 0 1.426.815 2.443 2.057 2.443.945 0 1.814-.723 1.814-2.5-.001-1.667-1.076-2.203-1.891-2.203z"/><path d="M15.996 0C7.176 0 0 7.176 0 15.996s7.176 15.996 15.996 15.996 15.996-7.176 15.996-15.996S24.816 0 15.996 0zm.23 22.747c-3.983 0-4.762-3.334-4.762-6.611 0-2.501.334-6.893 4.892-6.893.539 0 2.039.206 2.687.854.723.704.982 1.092 1.223 2.482h-2.574c-.074-.742-.559-1.26-1.521-1.26-1.686 0-2.073 1.926-2.166 3.631l.037.035c.352-.481 1-1.093 2.463-1.093 2.725 0 4.02 2.094 4.02 4.058-.002 2.87-1.761 4.797-4.299 4.797z"/></g></svg>