<?xml version="1.0" encoding="utf-8"?>
<!-- Generator: Adobe Illustrator 16.0.0, SVG Export Plug-In . SVG Version: 6.00 Build 0)  -->
<!DOCTYPE svg PUBLIC "-//W3C//DTD SVG 1.1//EN" "http://www.w3.org/Graphics/SVG/1.1/DTD/svg11.dtd">
<svg version="1.1" id="Layer_1" xmlns="http://www.w3.org/2000/svg" xmlns:xlink="http://www.w3.org/1999/xlink" x="0px" y="0px"
	 width="27.43px" height="29.715px" viewBox="0 0 27.43 29.715" enable-background="new 0 0 27.43 29.715" xml:space="preserve">
<path fill="#010101" d="M4.231,23.195c-0.227-0.228-0.494-0.339-0.804-0.339c-0.311,0.001-0.578,0.112-0.805,0.339
	c-0.226,0.225-0.339,0.494-0.339,0.804c0,0.311,0.113,0.578,0.339,0.804c0.227,0.226,0.494,0.339,0.805,0.34
	c0.31,0,0.577-0.113,0.804-0.34c0.226-0.227,0.339-0.494,0.339-0.804C4.57,23.69,4.457,23.422,4.231,23.195z M24.311,13.818
	L24.311,13.818c0-0.552-0.21-1.039-0.632-1.455c-0.424-0.416-0.903-0.625-1.445-0.625h-5.712c0-0.629,0.258-1.488,0.778-2.588
	c0.518-1.098,0.778-1.965,0.778-2.604c0.001-1.063-0.174-1.848-0.52-2.355c-0.348-0.508-1.038-0.762-2.077-0.762
	c-0.282,0.281-0.488,0.74-0.617,1.379c-0.13,0.639-0.295,1.318-0.496,2.037c-0.2,0.719-0.522,1.313-0.966,1.777
	c-0.239,0.248-0.655,0.74-1.25,1.477c-0.043,0.055-0.168,0.217-0.374,0.486c-0.205,0.271-0.376,0.492-0.512,0.666
	c-0.137,0.174-0.322,0.402-0.561,0.689c-0.237,0.287-0.454,0.525-0.648,0.715s-0.403,0.381-0.625,0.576
	c-0.223,0.195-0.438,0.34-0.649,0.439c-0.211,0.096-0.403,0.145-0.576,0.145H7.688v10.387h0.519c0.142,0,0.313,0.016,0.513,0.049
	c0.198,0.032,0.378,0.069,0.534,0.106c0.157,0.037,0.363,0.096,0.617,0.178c0.255,0.081,0.444,0.143,0.568,0.186
	c0.125,0.044,0.316,0.111,0.577,0.203c0.26,0.093,0.417,0.149,0.471,0.171c2.283,0.789,4.133,1.186,5.551,1.186h2.077
	c0.941,0,1.678-0.222,2.208-0.666c0.53-0.443,0.796-1.125,0.796-2.045c0-0.281-0.027-0.584-0.082-0.909
	c0.325-0.173,0.582-0.457,0.771-0.853c0.188-0.396,0.285-0.792,0.285-1.193s-0.099-0.774-0.294-1.12
	c0.573-0.541,0.861-1.185,0.861-1.931c-0.002-0.271-0.056-0.571-0.164-0.9c-0.107-0.33-0.243-0.587-0.403-0.771
	c0.345-0.011,0.635-0.265,0.866-0.762C24.194,14.635,24.31,14.197,24.311,13.818L24.311,13.818z M27.429,13.694v0.004
	c0,1.06-0.293,2.031-0.875,2.911c0.105,0.393,0.159,0.804,0.159,1.231c0,0.917-0.227,1.774-0.679,2.571
	c0.036,0.25,0.054,0.506,0.054,0.768c0,1.203-0.356,2.263-1.069,3.18v0.089c0.012,1.63-0.498,2.916-1.527,3.856
	c-1.03,0.941-2.379,1.411-4.045,1.411h-2c-1.25,0-2.44-0.131-3.571-0.393s-2.458-0.655-3.981-1.179
	c-1.381-0.477-2.202-0.715-2.464-0.715H2.286c-0.631,0-1.169-0.224-1.616-0.67C0.224,26.313,0,25.774,0,25.144V13.715
	c0-0.631,0.224-1.17,0.67-1.615c0.447-0.447,0.985-0.67,1.616-0.67h4.895c0.428-0.287,1.242-1.209,2.445-2.77
	c0.703-0.916,1.34-1.672,1.911-2.268c0.227-0.25,0.411-0.631,0.554-1.143c0.145-0.514,0.248-1.018,0.313-1.512
	s0.217-1.029,0.455-1.613s0.559-1.072,0.964-1.467C14.286,0.221,14.822,0,15.43,0c1,0,1.897,0.191,2.695,0.578
	c0.798,0.389,1.404,0.994,1.821,1.814c0.416,0.807,0.625,1.916,0.625,3.32c0,1.107-0.286,2.252-0.857,3.43h3.144
	c1.238,0,2.311,0.453,3.215,1.357C26.977,11.403,27.43,12.469,27.429,13.694L27.429,13.694z"/>
</svg>
