<svg xmlns="http://www.w3.org/2000/svg" width="31.992" height="31.992" viewBox="0 0 31.992 31.992"><path fill="none" d="M15.996 2C8.278 2 2 8.279 2 15.996c0 7.717 6.278 13.996 13.996 13.996s13.996-6.279 13.996-13.996C29.992 8.279 23.714 2 15.996 2zm5.947 7.346a2.132 2.132 0 1 1-.003 4.265 2.132 2.132 0 0 1 .003-4.265zm-12.037 0a2.133 2.133 0 1 1 0 4.266 2.133 2.133 0 0 1 0-4.266zm6.019 15.299c-4.64 0-7.874-3.064-8.009-3.194l1.386-1.442c.027.027 2.809 2.637 6.623 2.637 3.847 0 6.95-2.643 6.981-2.67l1.313 1.51c-.149.127-3.683 3.159-8.294 3.159z"/><path fill="#010101" d="M15.996 0C7.176 0 0 7.176 0 15.996s7.176 15.996 15.996 15.996 15.996-7.176 15.996-15.996S24.816 0 15.996 0zm0 29.992C8.278 29.992 2 23.713 2 15.996 2 8.279 8.278 2 15.996 2s13.996 6.279 13.996 13.996c0 7.717-6.278 13.996-13.996 13.996z"/><path fill="#010101" d="M15.925 22.645c-3.814 0-6.596-2.609-6.623-2.637L7.916 21.45c.135.13 3.369 3.194 8.009 3.194 4.611 0 8.146-3.031 8.294-3.16l-1.313-1.51c-.031.028-3.135 2.671-6.981 2.671z"/><circle fill="#010101" cx="9.906" cy="11.478" r="2.132"/><circle fill="#010101" cx="21.943" cy="11.478" r="2.132"/></svg>