<?xml version="1.0" encoding="utf-8"?>
<!-- Generator: Adobe Illustrator 16.0.0, SVG Export Plug-In . SVG Version: 6.00 Build 0)  -->
<!DOCTYPE svg PUBLIC "-//W3C//DTD SVG 1.1//EN" "http://www.w3.org/Graphics/SVG/1.1/DTD/svg11.dtd">
<svg version="1.1" id="Layer_1" xmlns="http://www.w3.org/2000/svg" xmlns:xlink="http://www.w3.org/1999/xlink" x="0px" y="0px"
	 width="31.992px" height="31.992px" viewBox="0 0 31.992 31.992" enable-background="new 0 0 31.992 31.992" xml:space="preserve">
<g display="none">
	<path display="inline" fill="#010101" d="M15.996,0C7.176,0,0,7.176,0,15.996s7.176,15.996,15.996,15.996
		s15.996-7.176,15.996-15.996S24.816,0,15.996,0z M15.996,29.992C8.278,29.992,2,23.714,2,15.996S8.278,2,15.996,2
		s13.996,6.278,13.996,13.996S23.714,29.992,15.996,29.992z"/>
	<path display="inline" fill="#010101" d="M10.139,13.432c1.178,0,2.133-0.953,2.133-2.132c0-1.177-0.955-1.131-2.133-1.131
		c-1.176,0-2.131-0.046-2.131,1.131C8.008,12.479,8.963,13.432,10.139,13.432z"/>
	<path display="inline" fill="#010101" d="M22.174,10.169c-1.176,0-2.131-0.046-2.131,1.131c0,1.179,0.955,2.132,2.131,2.132
		c1.178,0,2.133-0.953,2.133-2.132C24.307,10.123,23.352,10.169,22.174,10.169z"/>
	<path display="inline" fill="#010101" d="M7.688,20.746l1.979,0.288c0.1-0.447,0.927-1.292,3.348-1.292
		c3.863,0,10.246,2.058,10.311,2.078l0.617-1.902c-0.273-0.089-6.747-2.176-10.928-2.176C8.116,17.742,7.702,20.623,7.688,20.746z"
		/>
</g>
<g display="none">
	<path display="inline" fill="#010101" d="M15.996,0.001C7.176,0.001,0,7.177,0,15.996c0,8.82,7.176,15.995,15.996,15.995
		s15.996-7.175,15.996-15.995C31.992,7.177,24.816,0.001,15.996,0.001z M15.996,29.992C8.278,29.992,2,23.714,2,15.996
		C2,8.279,8.278,2.001,15.996,2.001s13.996,6.278,13.996,13.995C29.992,23.714,23.714,29.992,15.996,29.992z"/>
	<circle display="inline" fill="#010101" cx="9.979" cy="10.65" r="2.132"/>
	<circle display="inline" fill="#010101" cx="22.015" cy="10.65" r="2.132"/>
	<path display="inline" fill="#010101" d="M15.996,19.846c-5.472-0.004-6.619-1.5-7.092-0.479c-0.473,1.025,1.256,5.109,7.08,5.109
		c5.821,0,7.576-4.084,7.105-5.109C22.617,18.346,21.471,19.842,15.996,19.846z"/>
</g>
<g display="none">
	<path display="inline" fill="#010101" d="M15.996,0C7.176,0,0,7.176,0,15.996s7.176,15.996,15.996,15.996
		s15.996-7.176,15.996-15.996S24.816,0,15.996,0z M15.996,29.992C8.278,29.992,2,23.713,2,15.996C2,8.278,8.278,2,15.996,2
		s13.996,6.278,13.996,13.996C29.992,23.713,23.714,29.992,15.996,29.992z"/>
	<path display="inline" fill="#010101" d="M15.842,23.647c-5.29,0-6.294-4.895-6.334-5.103l-1.966,0.367
		c0.431,2.329,2.72,6.735,8.3,6.735c5.546,0,8.057-4.373,8.609-6.685l-1.945-0.465C22.456,18.708,21.213,23.647,15.842,23.647z"/>
	<circle display="inline" fill="#010101" cx="9.824" cy="11.478" r="2.132"/>
	<circle display="inline" fill="#010101" cx="21.859" cy="11.478" r="2.132"/>
</g>
<g display="none">
	<path display="inline" fill="#010101" d="M15.996,0C7.176,0,0,7.176,0,15.996s7.176,15.996,15.996,15.996
		s15.996-7.176,15.996-15.996S24.816,0,15.996,0z M15.996,29.992C8.278,29.992,2,23.713,2,15.996C2,8.279,8.278,2,15.996,2
		s13.996,6.279,13.996,13.996C29.992,23.713,23.714,29.992,15.996,29.992z"/>
	<path display="inline" fill="#010101" d="M17.389,20.193h-3.15c-0.287,0-0.523,0.236-0.523,0.523v3.148
		c0,0.289,0.236,0.526,0.523,0.526h3.15c0.287,0,0.525-0.237,0.525-0.526v-3.148C17.914,20.43,17.676,20.193,17.389,20.193z"/>
	<path display="inline" fill="#010101" d="M16.104,7.601c-2.676,0-4.67,1.141-6.088,3.489c-0.145,0.235-0.092,0.524,0.131,0.695
		l2.152,1.64c0.104,0.065,0.209,0.105,0.326,0.105c0.146,0,0.303-0.08,0.408-0.209c0.773-0.971,1.09-1.286,1.402-1.509
		c0.289-0.197,0.828-0.38,1.42-0.38c1.063,0,2.02,0.655,2.02,1.39c0,0.839-0.42,1.272-1.432,1.731
		c-1.154,0.525-2.727,1.889-2.727,3.477v0.59c0,0.289,0.182,0.734,0.471,0.734h3.15c0.299,0,0.521-0.34,0.521-0.629
		c0-0.381,0.486-1.285,1.26-1.732c1.248-0.694,2.939-1.652,2.938-4.144C22.057,9.844,18.91,7.601,16.104,7.601z"/>
</g>
<g display="none">
	<path display="inline" fill="#010101" d="M22.015,13.336c1.177,0,2.132,0.038,2.132-0.933c0-0.972-0.955-1.759-2.132-1.759
		s-2.132,0.787-2.132,1.759C19.883,13.374,20.838,13.336,22.015,13.336z"/>
	<path display="inline" fill="#010101" d="M9.979,13.336c1.177,0,2.132,0.038,2.132-0.933c0-0.972-0.955-1.759-2.132-1.759
		s-2.132,0.787-2.132,1.759C7.848,13.374,8.803,13.336,9.979,13.336z"/>
	<path display="inline" fill="#010101" d="M15.996,0C7.176,0,0,7.176,0,15.996s7.176,15.996,15.996,15.996
		s15.996-7.176,15.996-15.996S24.816,0,15.996,0z M15.996,29.992C8.278,29.992,2,23.713,2,15.996C2,8.279,8.278,2,15.996,2
		s13.996,6.279,13.996,13.996C29.992,23.713,23.714,29.992,15.996,29.992z"/>
	<path display="inline" fill="#010101" d="M7.846,20.137l1.313,1.509c0.031-0.026,3.11-2.669,6.98-2.669
		c3.815,0,6.597,2.609,6.624,2.637l1.386-1.442c-0.135-0.13-3.369-3.194-8.01-3.194C11.528,16.977,7.993,20.008,7.846,20.137z"/>
</g>
<g display="none">
	<path display="inline" fill="none" d="M15.996,2C8.279,2,2,8.278,2,15.996c0,7.717,6.279,13.996,13.996,13.996
		c7.719,0,13.996-6.279,13.996-13.996C29.992,8.278,23.715,2,15.996,2z M7.848,11.478c0-1.177,0.955-2.132,2.133-2.132
		c1.176,0,2.131,0.956,2.131,2.132c0,1.179-0.955,2.133-2.131,2.133C8.803,13.61,7.848,12.655,7.848,11.478z M23.635,21.73H8.682v-2
		h14.953V21.73z M22.016,13.61c-1.178,0-2.133-0.955-2.133-2.133c0-1.177,0.955-2.132,2.133-2.132c1.176,0,2.131,0.956,2.131,2.132
		C24.146,12.656,23.191,13.61,22.016,13.61z"/>
	<path display="inline" fill="#010101" d="M15.996,0C7.176,0,0,7.176,0,15.996s7.176,15.996,15.996,15.996
		s15.996-7.176,15.996-15.996S24.816,0,15.996,0z M15.996,29.992C8.279,29.992,2,23.713,2,15.996C2,8.278,8.279,2,15.996,2
		c7.719,0,13.996,6.278,13.996,13.996C29.992,23.713,23.715,29.992,15.996,29.992z"/>
	<g display="inline">
		<rect x="8.68" y="20.188" fill="#010101" width="14.953" height="2"/>
		<circle fill="#010101" cx="9.979" cy="11.936" r="2.132"/>
		<circle fill="#010101" cx="22.014" cy="11.936" r="2.132"/>
	</g>
</g>
<g>
	<path fill="none" d="M15.996,2C8.278,2,2,8.279,2,15.996c0,7.717,6.278,13.996,13.996,13.996s13.996-6.279,13.996-13.996
		C29.992,8.279,23.714,2,15.996,2z M21.943,9.346c1.176,0,2.131,0.955,2.131,2.132c0,1.178-0.955,2.132-2.131,2.132
		c-1.178,0-2.133-0.955-2.133-2.132S20.766,9.346,21.943,9.346z M9.906,9.346c1.178,0,2.133,0.955,2.133,2.132
		c0,1.178-0.955,2.132-2.133,2.132c-1.177,0-2.132-0.955-2.132-2.132S8.729,9.346,9.906,9.346z M15.925,24.645
		c-4.64,0-7.874-3.064-8.009-3.194l1.386-1.442c0.027,0.027,2.809,2.637,6.623,2.637c3.847,0,6.95-2.643,6.981-2.67l1.313,1.51
		C24.07,21.613,20.536,24.645,15.925,24.645z"/>
	<path fill="#010101" d="M15.996,0C7.176,0,0,7.176,0,15.996s7.176,15.996,15.996,15.996s15.996-7.176,15.996-15.996
		S24.816,0,15.996,0z M15.996,29.992C8.278,29.992,2,23.713,2,15.996C2,8.279,8.278,2,15.996,2s13.996,6.279,13.996,13.996
		C29.992,23.713,23.714,29.992,15.996,29.992z"/>
	<path fill="#010101" d="M15.925,22.645c-3.814,0-6.596-2.609-6.623-2.637L7.916,21.45c0.135,0.13,3.369,3.194,8.009,3.194
		c4.611,0,8.146-3.031,8.294-3.16l-1.313-1.51C22.875,20.002,19.771,22.645,15.925,22.645z"/>
	<circle fill="#010101" cx="9.906" cy="11.478" r="2.132"/>
	<circle fill="#010101" cx="21.943" cy="11.478" r="2.132"/>
</g>
</svg>
