<svg xmlns="http://www.w3.org/2000/svg" width="31.992" height="31.992" viewBox="0 0 31.992 31.992"><g fill="#010101"><path d="M15.996 0C7.176 0 0 7.176 0 15.996s7.176 15.996 15.996 15.996 15.996-7.176 15.996-15.996S24.816 0 15.996 0zm0 29.992C8.278 29.992 2 23.714 2 15.996S8.278 2 15.996 2s13.996 6.278 13.996 13.996-6.278 13.996-13.996 13.996z"/><path d="M17.729 17.847c1.279-.871 2.742-2.019 2.742-4.278 0-2.667-2.002-4.149-4.52-4.149-1.168 0-4.3.371-4.3 4.649h2.521c.021-.964.076-2.464 1.892-2.464 1.257 0 1.813 1 1.813 1.871 0 1.481-.944 2.148-3.315 3.871-2.853 2.076-2.963 3.688-3.058 5.225h8.984v-2.297h-5.705c.297-.613 1.205-1.205 2.946-2.428z"/></g></svg>