<svg xmlns="http://www.w3.org/2000/svg" width="64.763" height="80.5" viewBox="0 0 64.763 80.5"><path d="M32.065 27.691c-1.617 0-4.539.809-4.539 5.392 0 4.808 2.337 5.843 4.719 5.843 2.2 0 4.628-1.574 4.628-5.348.001-3.639-1.573-5.887-4.808-5.887z"/><path d="M61.233 1.5H3.531c-1.116 0-2.03.914-2.03 2.03v73.44c0 1.116.914 2.03 2.03 2.03h57.703a2.036 2.036 0 0 0 2.029-2.03V3.53c0-1.116-.913-2.03-2.03-2.03zM31.75 55.282c-5.437 0-9.348-3.144-9.887-8.222h6.248v.043c.358 2.2 1.752 3.147 3.685 3.147 2.606 0 5.213-2.204 5.256-8.899l-.089-.091c-1.437 2.157-3.909 2.696-6.067 2.696-6.111 0-9.661-4.626-9.661-9.974 0-7.821 4.628-11.46 10.875-11.46 11.055 0 11.232 11.909 11.232 16.404.001 12.356-5.84 16.356-11.592 16.356z"/></svg>