<svg xmlns="http://www.w3.org/2000/svg" width="32" height="32" viewBox="0 0 32 32"><title>zero</title><path d="M16 .004C7.18.004.004 7.18.004 16S7.18 31.996 16 31.996 31.996 24.82 31.996 16 24.82.004 16 .004zm0 29.992C8.283 29.996 2.004 23.718 2.004 16S8.283 2.004 16 2.004c7.719 0 13.996 6.278 13.996 13.996S23.719 29.996 16 29.996z"/><path d="M16 9.248c-3.094 0-4.557 2.13-4.557 6.743 0 4.612 1.463 6.761 4.557 6.761s4.559-2.148 4.559-6.761S19.094 9.248 16 9.248zm0 11.43c-1.48 0-1.891-1.297-1.891-4.687s.41-4.668 1.891-4.668c1.482 0 1.891 1.278 1.891 4.668s-.409 4.687-1.891 4.687z"/></svg>