<svg xmlns="http://www.w3.org/2000/svg" width="31.992" height="31.992" viewBox="0 0 31.992 31.992"><g fill="#010101"><path d="M15.996 0C7.176 0 0 7.176 0 15.996s7.176 15.996 15.996 15.996 15.996-7.176 15.996-15.996S24.816 0 15.996 0zm0 29.992C8.278 29.992 2 23.714 2 15.996S8.278 2 15.996 2s13.996 6.278 13.996 13.996-6.278 13.996-13.996 13.996z"/><path d="M22.102 7.342l.56.828-3.375 2.284-.56-.828zM9.89 7.343l3.374 2.285-.56.828-3.375-2.285z"/><circle cx="9.979" cy="13.826" r="2.132"/><circle cx="22.014" cy="13.826" r="2.132"/><path d="M16.01 20.684c-5.822 0-7.577 2.963-7.106 3.707.472.74 1.619-.344 7.093-.348 5.473.004 6.619 1.088 7.092.348.473-.745-1.257-3.707-7.079-3.707z"/></g></svg>