<svg xmlns="http://www.w3.org/2000/svg" width="31.992" height="31.992" viewBox="0 0 31.992 31.992"><path fill="#010101" d="M15.996 0C7.176 0 0 7.176 0 15.996s7.176 15.996 15.996 15.996 15.996-7.176 15.996-15.996S24.816 0 15.996 0zm4.809 8.628c.576-.445 1.172-1.236 1.178-1.244l.801.6c-.027.036-.682.906-1.367 1.436-.691.534-2.101.979-2.259 1.027l-.295-.955c.382-.119 1.477-.506 1.942-.864zM10.01 7.384c.006.008.601.799 1.179 1.244.464.358 1.561.745 1.943.863l-.295.955c-.158-.049-1.569-.493-2.26-1.027-.686-.529-1.341-1.399-1.368-1.436l.801-.599zm-.311 8.503c-1.07 0-1.941-.955-1.941-2.133s.871-2.133 1.941-2.133 1.941.957 1.941 2.133c.001 1.178-.87 2.133-1.941 2.133zm11.051 7.469c-.357.741-1.041.779-5.17.776-4.129.003-4.027-.457-4.383-1.198-.355-.744.799-2.989 5.189-2.989 4.393 0 4.721 2.668 4.364 3.411zm1.545-7.469c-1.072 0-1.941-.955-1.941-2.133s.869-2.133 1.941-2.133c1.07 0 1.94.957 1.94 2.133 0 1.178-.87 2.133-1.94 2.133z"/></svg>