<svg xmlns="http://www.w3.org/2000/svg" width="31.992" height="31.992" viewBox="0 0 31.992 31.992"><g fill="#010101"><path d="M15.996 0C7.176 0 0 7.176 0 15.996s7.176 15.996 15.996 15.996 15.996-7.176 15.996-15.996S24.816 0 15.996 0zm0 29.992C8.278 29.992 2 23.714 2 15.996S8.278 2 15.996 2s13.996 6.278 13.996 13.996-6.278 13.996-13.996 13.996z"/><path d="M10.139 13.432a2.132 2.132 0 0 0 2.133-2.132c0-1.177-.955-1.131-2.133-1.131-1.176 0-2.131-.046-2.131 1.131 0 1.179.955 2.132 2.131 2.132zm12.035-3.263c-1.176 0-2.131-.046-2.131 1.131a2.131 2.131 0 1 0 4.264 0c0-1.177-.955-1.131-2.133-1.131zM7.688 20.746l1.979.288c.1-.447.927-1.292 3.348-1.292 3.863 0 10.246 2.058 10.311 2.078l.617-1.902c-.273-.089-6.747-2.176-10.928-2.176-4.899 0-5.313 2.881-5.327 3.004z"/></g></svg>