<svg xmlns="http://www.w3.org/2000/svg" width="31.991" height="31.992" viewBox="0 0 31.991 31.992"><g fill="#010101"><path d="M15.996 0C7.176 0 0 7.176 0 15.996s7.176 15.996 15.996 15.996c8.819 0 15.995-7.176 15.995-15.996S24.815 0 15.996 0zm0 29.992C8.278 29.992 2 23.714 2 15.996S8.278 2 15.996 2c7.717 0 13.995 6.278 13.995 13.996s-6.278 13.996-13.995 13.996z"/><circle cx="9.957" cy="11.804" r="2.132"/><circle cx="21.991" cy="11.804" r="2.132"/><path d="M18.012 20.214l-3.616-1.235-3.935.953-3.316-.879-.512 1.933 3.806 1.008 3.862-.934 3.691 1.261 3.871-1.244 2.799 1.036.695-1.875-3.447-1.276z"/></g></svg>