<?xml version="1.0" encoding="utf-8"?>
<!-- Generator: Adobe Illustrator 16.0.0, SVG Export Plug-In . SVG Version: 6.00 Build 0)  -->
<!DOCTYPE svg PUBLIC "-//W3C//DTD SVG 1.1//EN" "http://www.w3.org/Graphics/SVG/1.1/DTD/svg11.dtd">
<svg version="1.1" id="Layer_1" xmlns="http://www.w3.org/2000/svg" xmlns:xlink="http://www.w3.org/1999/xlink" x="0px" y="0px"
	 width="31.993px" height="31.992px" viewBox="0 0 31.993 31.992" enable-background="new 0 0 31.993 31.992" xml:space="preserve">
<title>thumb-down</title>
<g>
	<path d="M15.997,0C7.176,0,0,7.177,0,15.996c0,8.82,7.176,15.996,15.998,15.996c8.82,0,15.996-7.176,15.996-15.996
		C31.993,7.177,24.817,0,15.997,0z M15.997,29.992C8.279,29.992,2,23.714,2,15.996C2,8.279,8.278,2,15.997,2
		c7.716,0,13.996,6.279,13.996,13.996C29.993,23.714,23.713,29.992,15.997,29.992z"/>
	<path d="M17.389,20.193h-3.15c-0.287,0-0.523,0.236-0.523,0.523v3.148c0,0.289,0.236,0.526,0.523,0.526h3.15
		c0.287,0,0.523-0.237,0.523-0.526v-3.148C17.915,20.431,17.676,20.193,17.389,20.193z"/>
	<path d="M16.104,7.602c-2.676,0-4.67,1.141-6.088,3.489c-0.145,0.234-0.092,0.523,0.131,0.694l2.153,1.641
		c0.104,0.064,0.209,0.104,0.326,0.104c0.146,0,0.303-0.08,0.408-0.209c0.773-0.971,1.09-1.286,1.402-1.509
		c0.289-0.197,0.828-0.38,1.421-0.38c1.062,0,2.019,0.654,2.019,1.39c0,0.839-0.42,1.272-1.431,1.731
		c-1.154,0.524-2.728,1.889-2.728,3.477v0.59c0,0.289,0.183,0.734,0.472,0.734h3.15c0.299,0,0.52-0.34,0.52-0.629
		c0-0.381,0.486-1.285,1.26-1.732c1.248-0.693,2.939-1.651,2.939-4.144C22.057,9.845,18.911,7.602,16.104,7.602z"/>
</g>
</svg>
