<?xml version="1.0" encoding="utf-8"?>
<!-- Generator: Adobe Illustrator 22.1.0, SVG Export Plug-In . SVG Version: 6.00 Build 0)  -->
<svg version="1.1" id="Capa_1" xmlns="http://www.w3.org/2000/svg" xmlns:xlink="http://www.w3.org/1999/xlink" x="0px" y="0px"
	 viewBox="0 0 612 612" style="enable-background:new 0 0 612 612;" xml:space="preserve">
<g>
	<path d="M229,583.8c-2,0-4-0.5-5.8-1.5l0,0c-33.7-17.9-60-46.3-78.2-84.5c-11.1-23.3-41.2-107.9,36.8-216.6
		C263.9,169.3,267,76.3,264.5,41.6c-0.4-4.9,2.1-9.5,6.4-11.8c4.4-2.4,9.5-1.9,13.4,1.1c10.8,8.3,20.9,18.6,30,30.5
		c30.5,39.7,47.2,91.3,47.2,145.4c0,28.5,2.9,52.5,7.9,65.8c4.3,11.4,8.8,14.6,10.2,14.3c3.5-0.7,12.2-14.8,9.8-53.6
		c-0.3-5,2.4-9.7,6.9-11.9s9.8-1.5,13.5,1.8c15.5,13.6,37.8,41.7,56,98.1c15.9,50,17.2,86.8,15.6,108.8
		c-5.5,87.8-54.9,130.9-95.4,151.6c-4.9,2.5-10.8,1.5-14.6-2.6c-3.8-4.1-4.4-10.1-1.5-14.9c38.7-63-4.3-134.4-24.6-162.1
		c-27.4-37.4-42.7-77.6-49.6-99.3c-10.9,21.7-33.3,67.5-63.7,135.4c-25.2,56.2-10,100,7.2,126.7c3.1,4.7,2.6,10.7-1.2,14.9
		C235.6,582.4,232.3,583.8,229,583.8z M277.5,42c2.4,37.3-1.7,133-85.2,246.8c-73.8,102.8-45.9,181.7-35.6,203.4
		c16.5,34.7,40.2,60.8,70.3,77.4c-18.4-29.7-33.6-76.9-6.8-136.9c43.9-98.2,71.2-150.3,71.5-150.8l8.1-15.3l4,16.8
		c0.1,0.6,14.5,59.3,52.1,110.8c45.5,62.3,55.1,125.9,26.4,174.7c37.1-19.6,81.3-59.6,86.3-139.8c1.6-20.9,0.2-55.9-15-103.9
		c-17.6-54.6-39.1-80.3-51-91.2c2.1,37.4-5.6,62.5-20.2,65.6c-4.6,1-16.4,0.8-25.1-22.4c-5.6-14.9-8.7-39.9-8.7-70.4
		c0-51.2-15.8-100-44.6-137.4C295.8,58.7,286.9,49.5,277.5,42z"/>
</g>
</svg>
