<svg xmlns="http://www.w3.org/2000/svg" viewBox="0 0 612 612"><path d="M229 583.8c-2 0-4-.5-5.8-1.5-33.7-17.9-60-46.3-78.2-84.5-11.1-23.3-41.2-107.9 36.8-216.6C263.9 169.3 267 76.3 264.5 41.6c-.4-4.9 2.1-9.5 6.4-11.8 4.4-2.4 9.5-1.9 13.4 1.1 10.8 8.3 20.9 18.6 30 30.5 30.5 39.7 47.2 91.3 47.2 145.4 0 28.5 2.9 52.5 7.9 65.8 4.3 11.4 8.8 14.6 10.2 14.3 3.5-.7 12.2-14.8 9.8-53.6-.3-5 2.4-9.7 6.9-11.9s9.8-1.5 13.5 1.8c15.5 13.6 37.8 41.7 56 98.1 15.9 50 17.2 86.8 15.6 108.8-5.5 87.8-54.9 130.9-95.4 151.6-4.9 2.5-10.8 1.5-14.6-2.6-3.8-4.1-4.4-10.1-1.5-14.9 38.7-63-4.3-134.4-24.6-162.1-27.4-37.4-42.7-77.6-49.6-99.3-10.9 21.7-33.3 67.5-63.7 135.4-25.2 56.2-10 100 7.2 126.7 3.1 4.7 2.6 10.7-1.2 14.9-2.4 2.6-5.7 4-9 4zM277.5 42c2.4 37.3-1.7 133-85.2 246.8-73.8 102.8-45.9 181.7-35.6 203.4 16.5 34.7 40.2 60.8 70.3 77.4-18.4-29.7-33.6-76.9-6.8-136.9 43.9-98.2 71.2-150.3 71.5-150.8l8.1-15.3 4 16.8c.1.6 14.5 59.3 52.1 110.8 45.5 62.3 55.1 125.9 26.4 174.7 37.1-19.6 81.3-59.6 86.3-139.8 1.6-20.9.2-55.9-15-103.9-17.6-54.6-39.1-80.3-51-91.2 2.1 37.4-5.6 62.5-20.2 65.6-4.6 1-16.4.8-25.1-22.4-5.6-14.9-8.7-39.9-8.7-70.4 0-51.2-15.8-100-44.6-137.4-8.2-10.7-17.1-19.9-26.5-27.4z"/></svg>