<svg xmlns="http://www.w3.org/2000/svg" width="64.764" height="80.5" viewBox="0 0 64.764 80.5"><path d="M32.382 55.281c7.504 0 11.055-5.213 11.055-16.401 0-11.189-3.551-16.357-11.055-16.357-7.505 0-11.055 5.168-11.055 16.357 0 11.188 3.55 16.401 11.055 16.401zm0-27.725c3.595 0 4.584 3.101 4.584 11.324 0 8.224-.989 11.37-4.584 11.37s-4.583-3.146-4.583-11.37c-.001-8.223.987-11.324 4.583-11.324z"/><path d="M62.989 0H1.774C.796 0 0 .793 0 1.769v76.963c0 .975.796 1.768 1.774 1.768h61.215c.979 0 1.774-.793 1.774-1.769l.001-76.963C64.764.793 63.967 0 62.989 0zm.274 78.731a.275.275 0 0 1-.274.269H1.774a.275.275 0 0 1-.274-.269V1.769c0-.146.125-.269.274-.269h61.215c.149 0 .275.123.275.269l-.001 76.962z"/></svg>