<svg xmlns="http://www.w3.org/2000/svg" width="64.763" height="80.5" viewBox="0 0 64.763 80.5"><path d="M32.382 27.557c-3.595 0-4.584 3.1-4.584 11.326 0 8.222.989 11.369 4.584 11.369 3.596 0 4.585-3.147 4.585-11.369 0-8.226-.989-11.326-4.585-11.326z"/><path d="M2.5 1.5c-.55 0-1 .45-1 1V78c0 .55.45 1 1 1h59.763c.55 0 1-.45 1-1V2.5c0-.55-.45-1-1-1H2.5zm29.882 53.782c-7.505 0-11.055-5.213-11.055-16.4 0-11.191 3.55-16.36 11.055-16.36s11.055 5.169 11.055 16.36c0 11.187-3.55 16.4-11.055 16.4z"/></svg>