<svg xmlns="http://www.w3.org/2000/svg" width="64.763" height="80.5" viewBox="0 0 64.763 80.5"><path d="M32.293 40.23c-2.292 0-4.494 1.483-4.494 4.943 0 3.053 1.752 5.078 4.628 5.078 3.28 0 4.539-2.834 4.539-5.034.001-2.248-1.167-4.987-4.673-4.987zm.135-4.765c2.472 0 3.911-1.661 3.911-3.957 0-2.426-1.663-3.952-3.685-3.952-2.833 0-4.315 1.617-4.315 3.952 0 1.892 1.393 3.957 4.089 3.957z"/><path d="M61.233 1.5H3.531c-1.116 0-2.03.914-2.03 2.03v73.44c0 1.116.914 2.03 2.03 2.03h57.703a2.036 2.036 0 0 0 2.029-2.03V3.53c0-1.116-.913-2.03-2.03-2.03zM32.384 55.282c-8.224 0-11.056-5.348-11.056-9.704 0-1.622 0-5.843 4.854-8.091-2.517-1.256-3.865-3.278-3.865-6.248 0-5.435 4.359-8.717 9.932-8.717 6.604 0 10.111 3.909 10.111 8.313 0 2.743-1.124 5.078-3.685 6.426 3.054 1.53 4.763 3.552 4.763 7.687 0 4.043-2.606 10.334-11.054 10.334z"/></svg>