<svg xmlns="http://www.w3.org/2000/svg" width="64.764" height="80.5" viewBox="0 0 64.764 80.5"><path fill="none" d="M32.427 35.463c2.471 0 3.91-1.662 3.91-3.954 0-2.427-1.663-3.954-3.686-3.954-2.831 0-4.313 1.617-4.313 3.954 0 1.888 1.393 3.954 4.089 3.954zm0 14.785c3.281 0 4.539-2.83 4.539-5.033 0-2.246-1.168-4.988-4.673-4.988-2.292 0-4.494 1.484-4.494 4.943 0 3.057 1.753 5.078 4.628 5.078z"/><path fill="none" d="M22.317 31.24c0-5.438 4.359-8.718 9.932-8.718 6.604 0 10.11 3.909 10.11 8.313 0 2.741-1.123 5.078-3.686 6.426 3.057 1.528 4.764 3.549 4.764 7.684 0 4.045-2.604 10.336-11.054 10.336-8.224 0-11.055-5.348-11.055-9.707 0-1.617 0-5.841 4.853-8.088-2.516-1.258-3.864-3.28-3.864-6.246z"/><path d="M21.328 45.574c0 4.359 2.831 9.707 11.055 9.707 8.449 0 11.054-6.291 11.054-10.336 0-4.135-1.707-6.156-4.764-7.684 2.563-1.348 3.686-3.685 3.686-6.426 0-4.404-3.506-8.313-10.11-8.313-5.572 0-9.932 3.28-9.932 8.718 0 2.966 1.349 4.988 3.864 6.246-4.853 2.247-4.853 6.471-4.853 8.088zm11.324-18.019c2.022 0 3.686 1.527 3.686 3.954 0 2.292-1.438 3.954-3.91 3.954-2.696 0-4.089-2.066-4.089-3.954-.001-2.337 1.482-3.954 4.313-3.954zm-.359 12.672c3.505 0 4.673 2.742 4.673 4.988 0 2.203-1.258 5.033-4.539 5.033-2.876 0-4.628-2.021-4.628-5.078 0-3.459 2.202-4.943 4.494-4.943z"/><path d="M62.989 0H1.774C.796 0 0 .793 0 1.769v76.963c0 .975.796 1.768 1.774 1.768h61.215c.979 0 1.774-.793 1.774-1.769l.001-76.963C64.764.793 63.967 0 62.989 0zm.274 78.731a.275.275 0 0 1-.274.269H1.774a.275.275 0 0 1-.274-.269V1.769c0-.146.125-.269.274-.269h61.215c.149 0 .275.123.275.269l-.001 76.962z"/></svg>