<svg xmlns="http://www.w3.org/2000/svg" width="64.764" height="80.5" viewBox="0 0 64.764 80.5"><path d="M62.989 0H1.774C.796 0 0 .793 0 1.769v76.963c0 .975.796 1.768 1.774 1.768h61.215c.979 0 1.774-.793 1.774-1.769l.001-76.963C64.764.793 63.967 0 62.989 0zm.274 78.731a.275.275 0 0 1-.274.269H1.774a.275.275 0 0 1-.274-.269V1.769c0-.146.125-.269.274-.269h61.215c.149 0 .275.123.275.269l-.001 76.962z"/><path d="M30.583 54.428h6.291V22.522h-5.167c-.136 2.382-1.752 5.527-7.819 5.527h-.899v4.403h7.595v21.976z"/></svg>