<svg xmlns="http://www.w3.org/2000/svg" width="64.763" height="80.5" viewBox="0 0 64.763 80.5"><path d="M61.233 1.5H3.531c-1.116 0-2.03.914-2.03 2.03v73.44c0 1.116.914 2.03 2.03 2.03h57.703a2.036 2.036 0 0 0 2.029-2.03V3.53c0-1.116-.913-2.03-2.03-2.03zM42.854 54.43H21.059c.225-3.73.494-7.639 7.415-12.673 5.752-4.178 8.043-5.795 8.043-9.391 0-2.113-1.348-4.539-4.403-4.539-4.404 0-4.539 3.639-4.584 5.978h-6.111c0-10.382 7.595-11.282 10.425-11.282 6.111 0 10.965 3.596 10.965 10.065 0 5.482-3.55 8.269-6.651 10.382-4.223 2.965-6.425 4.404-7.144 5.887h13.841v5.573z"/></svg>