<svg xmlns="http://www.w3.org/2000/svg" width="64.763" height="80.5" viewBox="0 0 64.763 80.5"><path d="M44.873 27.557c-3.596 0-4.584 3.1-4.584 11.326 0 8.222.988 11.369 4.584 11.369s4.585-3.147 4.585-11.369c0-8.226-.989-11.326-4.585-11.326z"/><path d="M61.233 1.5H3.531c-1.116 0-2.03.914-2.03 2.03v73.44c0 1.116.914 2.03 2.03 2.03h57.703a2.036 2.036 0 0 0 2.029-2.03V3.53c0-1.116-.913-2.03-2.03-2.03zM24.382 54.43h-6.291V32.453h-7.594v-4.4h.898c6.067 0 7.685-3.147 7.819-5.53h5.167V54.43zm20.491.852c-7.504 0-11.054-5.213-11.054-16.4 0-11.191 3.55-16.36 11.054-16.36 7.505 0 11.055 5.169 11.055 16.36 0 11.187-3.55 16.4-11.055 16.4z"/></svg>