<svg xmlns="http://www.w3.org/2000/svg" width="64.764" height="80.5" viewBox="0 0 64.764 80.5"><path fill="none" d="M3.001 77.5h58.762V3H3.001v74.5zm29.107-54.978c11.056 0 11.235 11.908 11.235 16.402 0 12.357-5.842 16.357-11.594 16.357-5.438 0-9.348-3.146-9.887-8.225h6.247v.045c.359 2.203 1.752 3.146 3.686 3.146 2.605 0 5.213-2.201 5.258-8.897l-.09-.091c-1.438 2.158-3.91 2.697-6.067 2.697-6.111 0-9.662-4.628-9.662-9.976 0-7.818 4.628-11.458 10.874-11.458z"/><path fill="none" d="M32.243 38.924c2.2 0 4.629-1.573 4.629-5.348 0-3.641-1.573-5.887-4.81-5.887-1.618 0-4.539.809-4.539 5.393.002 4.808 2.339 5.842 4.72 5.842z"/><path d="M30.895 43.957c2.157 0 4.628-.539 6.067-2.697l.09.09c-.045 6.697-2.652 8.898-5.258 8.898-1.933 0-3.325-.943-3.686-3.146v-.045h-6.247c.54 5.078 4.449 8.225 9.887 8.225 5.752 0 11.594-4 11.594-16.356 0-4.494-.18-16.402-11.235-16.402-6.246 0-10.875 3.64-10.875 11.459.002 5.346 3.551 9.974 9.663 9.974zm1.168-16.267c3.236 0 4.81 2.246 4.81 5.887 0 3.774-2.429 5.348-4.629 5.348-2.383 0-4.72-1.034-4.72-5.842.001-4.584 2.922-5.393 4.539-5.393z"/><path d="M62.989 0H1.774C.796 0 0 .793 0 1.769v76.963c0 .975.796 1.768 1.774 1.768h61.215c.979 0 1.774-.793 1.774-1.769l.001-76.963C64.764.793 63.967 0 62.989 0zm.274 78.731a.275.275 0 0 1-.274.269H1.774a.275.275 0 0 1-.274-.269V1.769c0-.146.125-.269.274-.269h61.215c.149 0 .275.123.275.269l-.001 76.962z"/></svg>