<svg xmlns="http://www.w3.org/2000/svg" width="64.763" height="80.5" viewBox="0 0 64.763 80.5"><path d="M61.233 1.5H3.53c-1.116 0-2.03.914-2.03 2.03v73.44c0 1.116.914 2.03 2.03 2.03h57.704a2.036 2.036 0 0 0 2.029-2.03V3.53c0-1.116-.913-2.03-2.03-2.03zM32.204 55.282c-3.011 0-11.1-.674-11.1-10.648h6.156l-.044.044c0 1.708.449 5.573 4.674 5.573 2.516 0 4.718-1.708 4.718-5.26 0-4.356-4.224-4.539-7.146-4.539v-4.491h.989c1.887 0 5.348-.183 5.348-4.317 0-1.165-.539-4.087-4-4.087-4.314 0-4.314 4.087-4.314 5.213h-5.842c0-5.978 3.371-10.248 10.561-10.248 4.27 0 9.887 2.157 9.887 8.9 0 3.235-2.022 5.256-3.82 6.065v.091c1.124.313 4.808 1.978 4.808 7.413 0 6.022-4.449 10.291-10.875 10.291z"/></svg>