<svg xmlns="http://www.w3.org/2000/svg" width="64.764" height="80.5" viewBox="0 0 64.764 80.5"><path fill="none" d="M44.044 51.598c3.594 0 4.582-3.146 4.582-11.37s-.988-11.324-4.582-11.324c-3.597 0-4.584 3.101-4.584 11.324 0 8.222.988 11.37 4.584 11.37z"/><path fill="none" d="M44.044 23.87c7.504 0 11.053 5.168 11.053 16.357S51.548 56.63 44.044 56.63c-7.506 0-11.056-5.213-11.056-16.402s3.55-16.358 11.056-16.358zM9.667 29.397h.898c6.066 0 7.685-3.146 7.819-5.527h5.168v31.905H17.26V33.801H9.667v-4.404z"/><path d="M17.261 55.775h6.292V23.87h-5.168c-.135 2.382-1.752 5.527-7.819 5.527h-.899V33.8h7.594v21.975zm26.783.855c7.504 0 11.053-5.213 11.053-16.402S51.548 23.87 44.044 23.87c-7.506 0-11.056 5.168-11.056 16.357s3.55 16.403 11.056 16.403zm0-27.727c3.594 0 4.582 3.101 4.582 11.324s-.988 11.369-4.582 11.369c-3.597 0-4.584-3.146-4.584-11.369s.988-11.324 4.584-11.324z"/><path d="M62.989 0H1.774C.796 0 0 .793 0 1.769v76.963c0 .975.796 1.768 1.774 1.768h61.215c.979 0 1.774-.793 1.774-1.769l.001-76.963C64.764.793 63.967 0 62.989 0zm.274 78.731a.275.275 0 0 1-.274.269H1.774a.275.275 0 0 1-.274-.269V1.769c0-.146.125-.269.274-.269h61.215c.149 0 .275.123.275.269l-.001 76.962z"/></svg>