<svg xmlns="http://www.w3.org/2000/svg" width="64.764" height="80.5" viewBox="0 0 64.764 80.5"><path d="M32.944 56.63c6.156 0 10.427-4.674 10.427-11.639 0-4.764-3.146-9.842-9.752-9.842-3.551 0-5.123 1.482-5.978 2.651l-.09-.09c.225-4.135 1.168-8.808 5.258-8.808 2.337 0 3.505 1.258 3.686 3.056h6.247c-.586-3.37-1.215-4.314-2.968-6.021-1.571-1.573-5.213-2.067-6.516-2.067-11.054 0-11.863 10.65-11.863 16.717 0 7.953 1.887 16.043 11.549 16.043zm-.45-16.447c1.977 0 4.584 1.303 4.584 5.348 0 4.314-2.113 6.066-4.404 6.066-3.011 0-4.988-2.472-4.988-5.933 0-3.999 2.427-5.481 4.808-5.481z"/><path d="M62.989 0H1.774C.796 0 0 .793 0 1.769v76.963c0 .975.796 1.768 1.774 1.768h61.215c.979 0 1.774-.793 1.774-1.769l.001-76.963C64.764.793 63.967 0 62.989 0zm.274 78.731a.275.275 0 0 1-.274.269H1.774a.275.275 0 0 1-.274-.269V1.769c0-.146.125-.269.274-.269h61.215c.149 0 .275.123.275.269l-.001 76.962z"/></svg>