<svg xmlns="http://www.w3.org/2000/svg" width="64.764" height="80.5" viewBox="0 0 64.764 80.5"><path d="M28.9 43.531c-6.921 5.031-7.189 8.941-7.415 12.672H43.28v-5.572H29.439c.72-1.482 2.921-2.922 7.146-5.887 3.1-2.113 6.649-4.899 6.649-10.382 0-6.471-4.854-10.065-10.965-10.065-2.831 0-10.426.898-10.426 11.279h6.111c.046-2.337.181-5.976 4.585-5.976 3.057 0 4.403 2.427 4.403 4.538.002 3.595-2.29 5.213-8.042 9.393z"/><path d="M62.989 0H1.774C.796 0 0 .793 0 1.769v76.963c0 .975.796 1.768 1.774 1.768h61.215c.979 0 1.774-.793 1.774-1.769l.001-76.963C64.764.793 63.967 0 62.989 0zm.274 78.731a.275.275 0 0 1-.274.269H1.774a.275.275 0 0 1-.274-.269V1.769c0-.146.125-.269.274-.269h61.215c.149 0 .275.123.275.269l-.001 76.962z"/></svg>