<svg xmlns="http://www.w3.org/2000/svg" width="64.764" height="80.5" viewBox="0 0 64.764 80.5"><path d="M31.843 50.25c-2.786 0-4.179-1.754-4.449-4.359h-6.291c.314 6.426 5.394 9.391 10.38 9.391 9.393 0 11.595-7.1 11.595-11.459 0-7.323-5.394-10.289-9.662-10.289-3.102 0-4.539.943-5.707 1.752l1.124-6.92h12.986v-5.303H24.293l-2.202 17.525 5.617.271c1.213-2.249 3.371-2.292 4.224-2.292 3.326 0 4.674 2.876 4.674 5.707.001 3.414-1.753 5.976-4.763 5.976z"/><path d="M62.989 0H1.774C.796 0 0 .793 0 1.769v76.963c0 .975.796 1.768 1.774 1.768h61.215c.979 0 1.774-.793 1.774-1.769l.001-76.963C64.764.793 63.967 0 62.989 0zm.274 78.731a.275.275 0 0 1-.274.269H1.774a.275.275 0 0 1-.274-.269V1.769c0-.146.125-.269.274-.269h61.215c.149 0 .275.123.275.269l-.001 76.962z"/></svg>