<?xml version="1.0" encoding="utf-8"?>
<!-- Generated by IcoMoon.io -->
<!DOCTYPE svg PUBLIC "-//W3C//DTD SVG 1.1//EN" "http://www.w3.org/Graphics/SVG/1.1/DTD/svg11.dtd">
<svg version="1.1" xmlns="http://www.w3.org/2000/svg" xmlns:xlink="http://www.w3.org/1999/xlink" width="32" height="32" viewBox="0 0 32 32">
<path fill="#0af" d="M16 32c-8.822 0-16-7.178-16-16s7.178-16 16-16c8.822 0 16 7.178 16 16s-7.178 16-16 16zM16 1.28c-8.116 0-14.72 6.604-14.72 14.72s6.604 14.72 14.72 14.72c8.116 0 14.72-6.604 14.72-14.72s-6.604-14.72-14.72-14.72zM16 26.182c-5.623 0-10.182-4.559-10.182-10.182s4.559-10.182 10.182-10.182c5.623 0 10.182 4.559 10.182 10.182s-4.559 10.182-10.182 10.182z"></path>
</svg>
