<!-- Generated by IcoMoon.io -->
<svg version="1.1" xmlns="http://www.w3.org/2000/svg" width="32" height="32" viewBox="0 0 32 32">
<title>five</title>
<path fill="#e3e5e4" d="M17.715 14.495c-0.712-0.428-1.603-0.623-2.493-0.623-0.427 0-0.677 0.036-0.944 0.071l0.445-2.974h4.417v-1.318h-5.538l-0.748 5.557c0.428-0.053 0.944-0.125 1.603-0.125 2.315 0 3.313 1.069 3.33 2.565 0 1.55-1.264 2.511-2.742 2.511-1.051 0-1.994-0.356-2.475-0.641l-0.392 1.193c0.552 0.356 1.621 0.712 2.885 0.712 2.511 0 4.31-1.692 4.31-3.954-0-1.46-0.748-2.458-1.657-2.974z"></path>
<path fill="#e3e5e4" d="M15.996 0c-8.82 0-15.996 7.177-15.996 15.999s7.176 16.001 15.996 16.001c8.821 0 15.998-7.178 15.998-16.001s-7.177-15.999-15.999-15.999zM15.996 31.028c-8.285 0-15.024-6.742-15.024-15.029s6.74-15.027 15.024-15.027c8.285 0 15.026 6.741 15.026 15.027s-6.741 15.029-15.026 15.029z"></path>
</svg>
