<!-- Generated by IcoMoon.io -->
<svg version="1.1" xmlns="http://www.w3.org/2000/svg" width="32" height="32" viewBox="0 0 32 32">
<title>happy-selected</title>
<path fill="#29a249" d="M16 0.031c-8.819 0-15.969 7.149-15.969 15.969s7.149 15.969 15.969 15.969c8.819 0 15.969-7.149 15.969-15.969s-7.149-15.969-15.969-15.969zM21.846 9.922c0.866 0 1.568 0.702 1.568 1.568s-0.702 1.568-1.568 1.568-1.568-0.702-1.568-1.568c0-0.866 0.702-1.568 1.568-1.568zM10.154 9.922c0.866 0 1.568 0.702 1.568 1.568s-0.702 1.568-1.568 1.568c-0.866 0-1.568-0.702-1.568-1.568s0.702-1.568 1.568-1.568zM25.128 21.834c-0.989 1.357-2.169 2.439-3.509 3.217-1.676 0.973-3.601 1.466-5.722 1.466s-4.037-0.494-5.692-1.467c-1.323-0.779-2.48-1.862-3.439-3.221-1.624-2.301-2.111-4.572-2.131-4.668l0.759-0.159c0.005 0.022 0.481 2.231 2.021 4.401 2.041 2.878 4.894 4.337 8.482 4.337 3.6 0 6.494-1.468 8.604-4.364 1.583-2.173 2.102-4.361 2.107-4.383l0.755 0.175c-0.022 0.096-0.561 2.365-2.236 4.664z"></path>
</svg>
