<!-- Generated by IcoMoon.io -->
<svg version="1.1" xmlns="http://www.w3.org/2000/svg" width="32" height="32" viewBox="0 0 32 32">
<title>smile</title>
<path fill="#2da97d" d="M27.314 4.686c-3.022-3.022-7.040-4.686-11.314-4.686s-8.292 1.664-11.314 4.686c-3.022 3.022-4.686 7.040-4.686 11.314s1.664 8.292 4.686 11.314c3.022 3.022 7.040 4.686 11.314 4.686s8.292-1.664 11.314-4.686c3.022-3.022 4.686-7.040 4.686-11.314s-1.664-8.292-4.686-11.314zM16 31.241c-8.404 0-15.241-6.837-15.241-15.241s6.837-15.242 15.241-15.242 15.241 6.837 15.241 15.242c0 8.404-6.837 15.241-15.241 15.241z"></path>
<path fill="#2da97d" d="M11.816 11.589c0 0.847-0.687 1.534-1.534 1.534s-1.534-0.687-1.534-1.534c0-0.847 0.687-1.534 1.534-1.534s1.534 0.687 1.534 1.534z"></path>
<path fill="#2da97d" d="M23.252 11.589c0 0.847-0.687 1.534-1.534 1.534s-1.534-0.687-1.534-1.534c0-0.847 0.687-1.534 1.534-1.534s1.534 0.687 1.534 1.534z"></path>
<path fill="#2da97d" d="M22.531 22.352c-1.526 0.93-3.941 2.039-6.781 2.039-2.832 0-5.103-1.104-6.509-2.030-1.527-1.006-2.397-2.027-2.415-2.048-0-0-0-0-0-0l-0.581 0.487c0.037 0.045 0.936 1.108 2.557 2.18 1.497 0.99 3.917 2.17 6.949 2.17 3.026 0 5.583-1.176 7.196-2.163 1.744-1.067 2.767-2.123 2.809-2.168l-0.547-0.525c-0.010 0.010-1.011 1.042-2.677 2.058z"></path>
</svg>
