<!-- Generated by IcoMoon.io -->
<svg version="1.1" xmlns="http://www.w3.org/2000/svg" width="32" height="32" viewBox="0 0 32 32">
<title>smile-selected</title>
<path fill="#2da97d" d="M16 0.031c-8.819 0-15.969 7.149-15.969 15.969s7.149 15.969 15.969 15.969c8.819 0 15.969-7.149 15.969-15.969s-7.149-15.969-15.969-15.969zM21.846 9.922c0.866 0 1.568 0.702 1.568 1.568s-0.702 1.568-1.568 1.568-1.568-0.702-1.568-1.568c0-0.866 0.702-1.568 1.568-1.568zM10.154 9.922c0.866 0 1.568 0.702 1.568 1.568s-0.702 1.568-1.568 1.568c-0.866 0-1.568-0.702-1.568-1.568s0.702-1.568 1.568-1.568zM23.101 23.142c-1.649 1.009-4.263 2.211-7.356 2.211-3.099 0-5.574-1.206-7.104-2.218-1.656-1.096-2.575-2.183-2.614-2.228l0.594-0.498c0 0 0 0 0 0 0.018 0.022 0.908 1.066 2.469 2.094 1.437 0.947 3.758 2.075 6.654 2.075 2.903 0 5.372-1.134 6.932-2.085 1.704-1.039 2.727-2.093 2.737-2.104l0.559 0.537c-0.044 0.045-1.089 1.126-2.872 2.216z"></path>
</svg>
