<!-- Generated by IcoMoon.io -->
<svg version="1.1" xmlns="http://www.w3.org/2000/svg" width="32" height="32" viewBox="0 0 32 32">
<title>three</title>
<path fill="#e3e5e4" d="M16.825 14.976v-0.036c1.425-0.517 2.137-1.532 2.137-2.725 0-1.407-1.033-2.761-3.313-2.761-1.246 0-2.422 0.445-3.028 0.891l0.41 1.14c0.499-0.356 1.389-0.766 2.315-0.766 1.443 0 2.030 0.819 2.030 1.746 0 1.371-1.443 1.959-2.582 1.959h-0.873v1.176h0.873c1.514 0 2.974 0.695 2.992 2.315 0.018 0.962-0.605 2.244-2.618 2.244-1.086 0-2.119-0.445-2.564-0.73l-0.428 1.211c0.57 0.374 1.71 0.784 3.010 0.784 2.778 0 4.221-1.621 4.221-3.473-0-1.621-1.158-2.689-2.583-2.974z"></path>
<path fill="#e3e5e4" d="M15.996 0c-8.82 0-15.996 7.177-15.996 15.999s7.176 16.001 15.996 16.001c8.821 0 15.998-7.178 15.998-16.001s-7.177-15.999-15.999-15.999zM15.996 31.028c-8.285 0-15.024-6.742-15.024-15.029s6.74-15.027 15.024-15.027c8.285 0 15.026 6.741 15.026 15.027s-6.741 15.029-15.026 15.029z"></path>
</svg>
