<svg xmlns="http://www.w3.org/2000/svg" xmlns:xlink="http://www.w3.org/1999/xlink" preserveAspectRatio="xMidYMid" width="22" height="21" viewBox="0 0 22 21">
  <defs>
    <style>
      .cls-1 {
        fill: #777;
        fill-rule: evenodd;
      }
    </style>
  </defs>
  <path d="M21.510,4.175 C20.834,2.449 19.544,1.126 17.876,0.449 C17.155,0.156 16.425,0.007 15.706,0.007 C13.317,0.007 11.644,1.606 10.992,2.355 C10.343,1.603 8.678,-0.002 6.289,-0.002 C5.573,-0.002 4.845,0.146 4.125,0.439 C2.457,1.116 1.166,2.439 0.490,4.164 C-0.231,6.005 -0.161,8.092 0.683,9.890 C1.881,12.442 4.605,16.415 10.776,20.847 L10.990,21.001 L11.204,20.847 C17.406,16.393 20.127,12.435 21.317,9.899 C22.161,8.102 22.231,6.015 21.510,4.175 Z" class="cls-1"/>
</svg>
