<svg xmlns="http://www.w3.org/2000/svg" xmlns:xlink="http://www.w3.org/1999/xlink" preserveAspectRatio="xMidYMid" width="1000" height="1000" viewBox="0 0 1000 1000">
  <defs>
    <style>
      .cls-1 {
        fill: #dd2f2f;
        fill-rule: evenodd;
      }
    </style>
  </defs>
  <path d="M499.500,916.000 C270.391,916.000 84.000,729.609 84.000,500.500 C84.000,271.391 270.391,85.000 499.500,85.000 C728.609,85.000 915.000,271.391 915.000,500.500 C915.000,729.609 728.609,916.000 499.500,916.000 ZM499.500,118.240 C288.721,118.240 117.240,289.721 117.240,500.500 C117.240,711.279 288.721,882.760 499.500,882.760 C710.279,882.760 881.760,711.279 881.760,500.500 C881.760,289.721 710.279,118.240 499.500,118.240 ZM439.000,665.000 L560.000,665.000 L560.000,750.000 L439.000,750.000 L439.000,665.000 ZM439.000,252.000 L560.000,252.000 L560.000,628.000 L439.000,628.000 L439.000,252.000 Z" class="cls-1"/>
</svg>
