<?xml version="1.0" encoding="utf-8"?>
<!-- Generator: Adobe Illustrator 16.0.0, SVG Export Plug-In . SVG Version: 6.00 Build 0)  -->
<!DOCTYPE svg PUBLIC "-//W3C//DTD SVG 1.1//EN" "http://www.w3.org/Graphics/SVG/1.1/DTD/svg11.dtd">
<svg version="1.1" id="Layer_1" xmlns="http://www.w3.org/2000/svg" xmlns:xlink="http://www.w3.org/1999/xlink" x="0px" y="0px"
	 width="172.89px" height="172.91px" viewBox="0 0 172.89 172.91" enable-background="new 0 0 172.89 172.91" xml:space="preserve">
<g>
	<polygon fill="#E3E5E4" points="71.763,59.461 73.399,65.909 84.273,60.039 84.465,60.039 84.465,114.701 92.645,114.701 
		92.645,52.147 85.428,52.147 	"/>
	<path fill="#E3E5E4" d="M86.433,0C38.772,0-0.002,38.779-0.002,86.45c0,47.676,38.774,86.46,86.436,86.46
		c47.666,0,86.446-38.784,86.446-86.46C172.879,38.779,134.099,0,86.433,0z M86.433,167.656c-44.765,0-81.182-36.43-81.182-81.206
		c0-44.772,36.417-81.196,81.182-81.196c44.77,0,81.192,36.424,81.192,81.196C167.625,131.227,131.203,167.656,86.433,167.656z"/>
</g>
<g display="none">
	<path display="inline" fill="#E3E5E4" d="M77.922,107.483l5.004-4.619c13.184-12.703,21.556-22.039,21.556-33.587
		c0-8.95-5.678-18.189-19.15-18.189c-7.217,0-13.376,2.695-17.706,6.352l2.694,5.967c2.887-2.406,7.603-5.293,13.279-5.293
		c9.335,0,12.414,5.871,12.414,12.222c-0.096,9.431-7.313,17.515-23.288,32.721l-6.64,6.447v5.197h39.937v-7.025h-28.1V107.483z"/>
	<path display="inline" fill="#E3E5E4" d="M86.433,0C38.772,0-0.002,38.779-0.002,86.45c0,47.676,38.774,86.46,86.436,86.46
		c47.666,0,86.446-38.784,86.446-86.46C172.879,38.779,134.099,0,86.433,0z M86.433,167.656c-44.765,0-81.182-36.43-81.182-81.206
		c0-44.772,36.417-81.196,81.182-81.196c44.77,0,81.192,36.424,81.192,81.196C167.625,131.227,131.203,167.656,86.433,167.656z"/>
</g>
<g display="none">
	<path display="inline" fill="#E3E5E4" d="M90.913,80.922v-0.192c7.699-2.791,11.548-8.276,11.548-14.725
		c0-7.603-5.581-14.917-17.899-14.917c-6.735,0-13.088,2.406-16.359,4.812l2.214,6.16c2.694-1.925,7.506-4.139,12.51-4.139
		c7.795,0,10.971,4.428,10.971,9.432c0,7.41-7.795,10.586-13.953,10.586h-4.716v6.352h4.716c8.18,0,16.07,3.754,16.166,12.511
		c0.097,5.197-3.271,12.126-14.146,12.126c-5.87,0-11.451-2.405-13.857-3.945l-2.31,6.544c3.079,2.021,9.238,4.234,16.263,4.234
		c15.013,0,22.808-8.758,22.808-18.767C104.867,88.236,98.612,82.462,90.913,80.922z"/>
	<path display="inline" fill="#E3E5E4" d="M86.433,0C38.772,0-0.002,38.779-0.002,86.45c0,47.676,38.774,86.46,86.436,86.46
		c47.666,0,86.446-38.784,86.446-86.46C172.879,38.779,134.099,0,86.433,0z M86.433,167.656c-44.765,0-81.182-36.43-81.182-81.206
		c0-44.772,36.417-81.196,81.182-81.196c44.77,0,81.192,36.424,81.192,81.196C167.625,131.227,131.203,167.656,86.433,167.656z"/>
</g>
<g display="none">
	<polygon display="inline" fill="#E3E5E4" points="43.814,62.492 45.45,68.94 56.324,63.069 56.517,63.069 56.517,117.732 
		64.696,117.732 64.696,55.178 57.479,55.178 	"/>
	<path display="inline" fill="#E3E5E4" d="M108.386,54.119c-12.703,0-21.749,11.549-21.749,32.528
		c0.193,20.691,8.469,32.144,20.69,32.144c13.857,0,21.748-11.741,21.748-33.01C129.075,65.86,121.569,54.119,108.386,54.119z
		 M107.808,112.247c-7.698,0-12.702-9.239-12.702-25.503c0-17.034,5.389-26.081,12.799-26.081c8.758,0,12.702,10.105,12.702,25.504
		C120.606,102.142,116.469,112.247,107.808,112.247z"/>
	<path display="inline" fill="#E3E5E4" d="M86.439,0C38.778,0,0.004,38.779,0.004,86.45c0,47.676,38.774,86.46,86.436,86.46
		c47.666,0,86.446-38.784,86.446-86.46C172.886,38.779,134.105,0,86.439,0z M86.439,167.656c-44.765,0-81.182-36.43-81.182-81.206
		c0-44.772,36.417-81.196,81.182-81.196c44.77,0,81.192,36.424,81.192,81.196C167.632,131.227,131.209,167.656,86.439,167.656z"/>
</g>
<g display="none">
	<path display="inline" fill="#E3E5E4" d="M86.968,51.088c-12.703,0-21.749,11.549-21.749,32.528
		c0.193,20.691,8.469,32.144,20.69,32.144c13.857,0,21.749-11.741,21.749-33.01C107.659,62.829,100.152,51.088,86.968,51.088z
		 M86.391,109.216c-7.698,0-12.703-9.239-12.703-25.503c0-17.034,5.39-26.081,12.799-26.081c8.758,0,12.703,10.105,12.703,25.504
		C99.19,99.11,95.051,109.216,86.391,109.216z"/>
	<path display="inline" fill="#E3E5E4" d="M86.433,0C38.772,0-0.002,38.779-0.002,86.45c0,47.676,38.774,86.46,86.436,86.46
		c47.666,0,86.446-38.784,86.446-86.46C172.879,38.779,134.099,0,86.433,0z M86.433,167.656c-44.765,0-81.182-36.43-81.182-81.206
		c0-44.772,36.417-81.196,81.182-81.196c44.77,0,81.192,36.424,81.192,81.196C167.625,131.227,131.203,167.656,86.433,167.656z"/>
</g>
<g display="none">
	<path display="inline" fill="#E3E5E4" d="M87.064,51.088c-12.8,0-21.364,10.394-21.364,22.231c0,10.683,7.218,19.151,18.477,19.151
		c6.256,0,11.26-2.503,14.724-6.737h0.289c-1.155,7.41-4.139,12.896-8.276,16.649c-3.561,3.368-8.18,5.39-13.087,6.063
		c-2.888,0.289-5.005,0.481-6.833,0.289v6.929c2.021,0.097,4.716,0,7.795-0.48c6.736-0.771,13.376-3.657,18.188-8.373
		c6.159-5.967,10.778-15.59,10.778-29.353C107.753,61.481,99.863,51.088,87.064,51.088z M98.419,79.479
		c-2.214,3.753-6.641,6.544-12.318,6.544c-7.313,0-12.029-5.485-12.029-13.28c0-8.854,5.101-15.207,12.318-15.207
		c8.854,0,12.799,8.181,12.799,18.863C99.189,77.746,98.9,78.708,98.419,79.479z"/>
	<path display="inline" fill="#E3E5E4" d="M86.433,0C38.772,0-0.002,38.779-0.002,86.45c0,47.676,38.774,86.46,86.436,86.46
		c47.666,0,86.446-38.784,86.446-86.46C172.879,38.779,134.099,0,86.433,0z M86.433,167.656c-44.765,0-81.182-36.43-81.182-81.206
		c0-44.772,36.417-81.196,81.182-81.196c44.77,0,81.192,36.424,81.192,81.196C167.625,131.227,131.203,167.656,86.433,167.656z"/>
</g>
<g display="none">
	<path display="inline" fill="#E3E5E4" d="M94.955,81.403v-0.289c7.698-3.657,10.297-9.335,10.297-14.628
		c0-7.796-6.063-15.398-18.188-15.398c-10.971,0-19.343,6.737-19.343,16.649c0,5.39,2.983,10.778,9.911,14.051l0.097,0.289
		c-7.698,3.271-12.414,8.854-12.414,16.745c0,9.143,7.891,16.938,20.979,16.938c11.934,0,21.268-7.314,21.268-18.188
		C107.561,89.968,102.75,84.482,94.955,81.403z M75.708,67.16c0-5.39,3.849-10.009,10.874-10.009
		c7.603,0,10.586,5.198,10.586,10.202c0,5.678-4.139,9.527-9.527,11.355C80.423,76.784,75.708,73.415,75.708,67.16z M86.486,109.601
		c-7.987,0-12.799-5.582-12.51-11.934c0-5.967,3.945-10.778,11.259-12.896c8.469,2.406,13.762,6.063,13.762,13.666
		C98.997,104.885,94.088,109.601,86.486,109.601z"/>
	<path display="inline" fill="#E3E5E4" d="M86.433,0C38.772,0-0.002,38.779-0.002,86.45c0,47.676,38.774,86.46,86.436,86.46
		c47.666,0,86.446-38.784,86.446-86.46C172.879,38.779,134.099,0,86.433,0z M86.433,167.656c-44.765,0-81.182-36.43-81.182-81.206
		c0-44.772,36.417-81.196,81.182-81.196c44.77,0,81.192,36.424,81.192,81.196C167.625,131.227,131.203,167.656,86.433,167.656z"/>
</g>
<g display="none">
	<polygon display="inline" fill="#E3E5E4" points="67.24,59.172 97.841,59.172 97.841,59.364 70.705,114.701 79.461,114.701 
		106.695,57.728 106.695,52.146 67.24,52.146 	"/>
	<path display="inline" fill="#E3E5E4" d="M86.433,0C38.772,0-0.002,38.779-0.002,86.45c0,47.676,38.774,86.46,86.436,86.46
		c47.666,0,86.446-38.784,86.446-86.46C172.879,38.779,134.099,0,86.433,0z M86.433,167.656c-44.765,0-81.182-36.43-81.182-81.206
		c0-44.772,36.417-81.196,81.182-81.196c44.77,0,81.192,36.424,81.192,81.196C167.625,131.227,131.203,167.656,86.433,167.656z"/>
</g>
<g display="none">
	<path display="inline" fill="#E3E5E4" d="M89.084,73.512c-6.929,0-12.125,3.272-15.108,7.218h-0.289
		c1.443-10.298,8.469-20.018,21.749-22.231c2.405-0.385,4.619-0.481,6.351-0.385v-6.929c-1.539,0-3.656,0.096-6.158,0.481
		c-7.892,0.962-14.819,4.138-20.017,9.239c-6.159,6.159-10.586,15.88-10.586,28.198c0,16.264,8.758,26.657,22.134,26.657
		c12.991,0,20.786-10.586,20.786-22.038C107.946,81.499,100.151,73.512,89.084,73.512z M87.16,109.216
		c-8.854,0-13.568-7.603-13.762-17.9c0-1.54,0.386-2.791,0.963-3.753c2.31-4.523,7.024-7.699,12.125-7.699
		c7.795,0,12.896,5.39,12.896,14.34C99.381,103.152,94.473,109.216,87.16,109.216z"/>
	<path display="inline" fill="#E3E5E4" d="M86.433,0C38.772,0-0.002,38.779-0.002,86.45c0,47.676,38.774,86.46,86.436,86.46
		c47.666,0,86.446-38.784,86.446-86.46C172.879,38.779,134.099,0,86.433,0z M86.433,167.656c-44.765,0-81.182-36.43-81.182-81.206
		c0-44.772,36.417-81.196,81.182-81.196c44.77,0,81.192,36.424,81.192,81.196C167.625,131.227,131.203,167.656,86.433,167.656z"/>
</g>
<g display="none">
	<path display="inline" fill="#E3E5E4" d="M95.724,78.323c-3.85-2.31-8.66-3.368-13.473-3.368c-2.309,0-3.656,0.192-5.1,0.385
		l2.405-16.072h23.866v-7.122H73.495l-4.042,30.026c2.31-0.288,5.101-0.674,8.661-0.674c12.511,0,17.899,5.774,17.995,13.858
		c0,8.373-6.832,13.569-14.819,13.569c-5.678,0-10.777-1.925-13.376-3.465l-2.117,6.448c2.983,1.925,8.757,3.85,15.589,3.85
		c13.569,0,23.289-9.143,23.289-21.364C104.674,86.504,100.632,81.114,95.724,78.323z"/>
	<path display="inline" fill="#E3E5E4" d="M86.433,0C38.772,0-0.002,38.779-0.002,86.45c0,47.676,38.774,86.46,86.436,86.46
		c47.666,0,86.446-38.784,86.446-86.46C172.879,38.779,134.099,0,86.433,0z M86.433,167.656c-44.765,0-81.182-36.43-81.182-81.206
		c0-44.772,36.417-81.196,81.182-81.196c44.77,0,81.192,36.424,81.192,81.196C167.625,131.227,131.203,167.656,86.433,167.656z"/>
</g>
<g display="none">
	<path display="inline" fill="#E3E5E4" d="M100.248,52.147h-9.143L63.198,92.085v5.582H92.26v17.034h7.987V97.667h8.757v-6.641
		h-8.757V52.147z M92.26,70.144v20.883H71.762v-0.192l15.302-21.268c1.731-2.888,3.271-5.582,5.196-9.239h0.288
		C92.356,63.6,92.26,66.871,92.26,70.144z"/>
	<path display="inline" fill="#E3E5E4" d="M86.433,0C38.772,0-0.002,38.779-0.002,86.45c0,47.676,38.774,86.46,86.436,86.46
		c47.666,0,86.446-38.784,86.446-86.46C172.879,38.779,134.099,0,86.433,0z M86.433,167.656c-44.765,0-81.182-36.43-81.182-81.206
		c0-44.772,36.417-81.196,81.182-81.196c44.77,0,81.192,36.424,81.192,81.196C167.625,131.227,131.203,167.656,86.433,167.656z"/>
</g>
<path display="none" fill="#E3E5E4" d="M86.439,0C38.778,0,0.004,38.779,0.004,86.45c0,47.676,38.774,86.46,86.436,86.46
	c47.666,0,86.446-38.784,86.446-86.46C172.886,38.779,134.105,0,86.439,0z M92.651,114.701h-8.18V60.039h-0.192l-10.874,5.871
	l-1.636-6.448l13.665-7.314h7.217V114.701z"/>
<path display="none" fill="#E3E5E4" d="M86.439,0C38.778,0,0.004,38.779,0.004,86.45c0,47.676,38.774,86.46,86.436,86.46
	c47.666,0,86.446-38.784,86.446-86.46C172.886,38.779,134.105,0,86.439,0z M106.028,114.701H66.092v-5.197l6.64-6.447
	c15.975-15.206,23.192-23.29,23.288-32.721c0-6.352-3.079-12.223-12.414-12.223c-5.677,0-10.393,2.888-13.279,5.294l-2.694-5.968
	c4.33-3.656,10.489-6.352,17.706-6.352c13.473,0,19.15,9.239,19.15,18.189c0,11.548-8.372,20.884-21.556,33.587l-5.004,4.619v0.192
	h28.1V114.701z"/>
<path display="none" fill="#E3E5E4" d="M86.439,0C38.778,0,0.004,38.779,0.004,86.45c0,47.676,38.774,86.46,86.436,86.46
	c47.666,0,86.446-38.784,86.446-86.46C172.886,38.779,134.105,0,86.439,0z M82.065,115.76c-7.024,0-13.184-2.214-16.263-4.234
	l2.31-6.544c2.406,1.54,7.987,3.945,13.857,3.945c10.874,0,14.242-6.929,14.146-12.126C96.02,88.044,88.129,84.29,79.949,84.29
	h-4.716v-6.352h4.716c6.158,0,13.953-3.176,13.953-10.586c0-5.004-3.176-9.432-10.971-9.432c-5.004,0-9.815,2.213-12.51,4.139
	l-2.214-6.16c3.271-2.406,9.624-4.812,16.359-4.812c12.318,0,17.899,7.313,17.899,14.917c0,6.448-3.849,11.934-11.548,14.725v0.192
	c7.699,1.54,13.954,7.314,13.954,16.071C104.873,107.002,97.078,115.76,82.065,115.76z"/>
<g display="none">
	<path display="inline" fill="#E3E5E4" d="M111.177,57.633c-7.41,0-12.799,9.047-12.799,26.081c0,16.264,5.004,25.503,12.702,25.503
		c8.661,0,12.799-10.105,12.799-26.08C123.879,67.738,119.935,57.633,111.177,57.633z"/>
	<path display="inline" fill="#E3E5E4" d="M86.439,0C38.778,0,0.004,38.779,0.004,86.45c0,47.676,38.774,86.46,86.436,86.46
		c47.666,0,86.446-38.784,86.446-86.46C172.886,38.779,134.105,0,86.439,0z M67.969,114.702h-8.18V60.039h-0.192L48.723,65.91
		l-1.636-6.449l13.665-7.314h7.217V114.702z M110.6,115.761c-12.222,0-20.497-11.452-20.69-32.144
		c0-20.979,9.046-32.528,21.749-32.528c13.184,0,20.689,11.741,20.689,31.662C132.348,104.02,124.457,115.761,110.6,115.761z"/>
</g>
<g display="none">
	<path display="inline" fill="#E3E5E4" d="M86.493,57.632c-7.409,0-12.799,9.047-12.799,26.081c0,16.264,5.005,25.503,12.703,25.503
		c8.66,0,12.799-10.105,12.799-26.08C99.196,67.737,95.251,57.632,86.493,57.632z"/>
	<path display="inline" fill="#E3E5E4" d="M86.439,0C38.778,0,0.004,38.779,0.004,86.45c0,47.676,38.774,86.46,86.436,86.46
		c47.666,0,86.446-38.784,86.446-86.46C172.886,38.779,134.105,0,86.439,0z M85.916,115.76c-12.222,0-20.497-11.452-20.69-32.144
		c0-20.979,9.046-32.528,21.749-32.528c13.184,0,20.69,11.741,20.69,31.662C107.665,104.019,99.773,115.76,85.916,115.76z"/>
</g>
<g display="none">
	<path display="inline" fill="#E3E5E4" d="M86.396,57.535c-7.218,0-12.318,6.353-12.318,15.207c0,7.795,4.716,13.28,12.029,13.28
		c5.678,0,10.104-2.791,12.318-6.544c0.48-0.771,0.77-1.732,0.77-3.08C99.195,65.717,95.25,57.535,86.396,57.535z"/>
	<path display="inline" fill="#E3E5E4" d="M86.439,0C38.778,0,0.004,38.779,0.004,86.45c0,47.676,38.774,86.46,86.436,86.46
		c47.666,0,86.446-38.784,86.446-86.46C172.886,38.779,134.105,0,86.439,0z M96.981,106.81c-4.812,4.716-11.451,7.603-18.188,8.373
		c-3.079,0.48-5.774,0.577-7.795,0.48v-6.929c1.828,0.192,3.945,0,6.833-0.289c4.907-0.673,9.526-2.694,13.087-6.063
		c4.138-3.753,7.121-9.239,8.276-16.649h-0.289c-3.464,4.234-8.468,6.737-14.724,6.737c-11.259,0-18.477-8.469-18.477-19.151
		c0-11.838,8.564-22.231,21.364-22.231c12.799,0,20.689,10.394,20.689,26.369C107.76,91.22,103.141,100.843,96.981,106.81z"/>
</g>
<g display="none">
	<path display="inline" fill="#E3E5E4" d="M87.647,78.708c5.389-1.828,9.527-5.678,9.527-11.355c0-5.004-2.983-10.202-10.586-10.202
		c-7.025,0-10.874,4.619-10.874,10.01C75.715,73.415,80.43,76.784,87.647,78.708z"/>
	<path display="inline" fill="#E3E5E4" d="M85.241,84.771c-7.313,2.117-11.259,6.929-11.259,12.896
		c-0.289,6.352,4.522,11.934,12.51,11.934c7.603,0,12.511-4.716,12.511-11.163C99.003,90.834,93.71,87.178,85.241,84.771z"/>
	<path display="inline" fill="#E3E5E4" d="M86.439,0C38.778,0,0.004,38.779,0.004,86.45c0,47.676,38.774,86.46,86.436,86.46
		c47.666,0,86.446-38.784,86.446-86.46C172.886,38.779,134.105,0,86.439,0z M86.3,115.76c-13.088,0-20.979-7.795-20.979-16.938
		c0-7.892,4.716-13.474,12.414-16.745l-0.097-0.289c-6.928-3.272-9.911-8.661-9.911-14.051c0-9.913,8.372-16.649,19.343-16.649
		c12.125,0,18.188,7.603,18.188,15.398c0,5.293-2.599,10.971-10.297,14.628v0.289c7.795,3.079,12.606,8.564,12.606,16.168
		C107.567,108.445,98.233,115.76,86.3,115.76z"/>
</g>
<path display="none" fill="#E3E5E4" d="M86.44,0C38.779,0,0.004,38.779,0.004,86.45c0,47.676,38.774,86.46,86.436,86.46
	c47.666,0,86.445-38.784,86.445-86.46C172.885,38.779,134.106,0,86.44,0z M106.702,57.728l-27.234,56.974h-8.756l27.137-55.337
	v-0.192H67.247v-7.025h39.455V57.728z"/>
<g display="none">
	<path display="inline" fill="#E3E5E4" d="M86.493,79.863c-5.101,0-9.815,3.176-12.125,7.699c-0.577,0.962-0.963,2.213-0.963,3.753
		c0.193,10.298,4.908,17.9,13.762,17.9c7.313,0,12.222-6.063,12.222-15.013C99.388,85.253,94.288,79.863,86.493,79.863z"/>
	<path display="inline" fill="#E3E5E4" d="M86.44,0C38.779,0,0.004,38.779,0.004,86.45c0,47.676,38.774,86.46,86.436,86.46
		c47.666,0,86.445-38.784,86.445-86.46C172.885,38.779,134.106,0,86.44,0z M87.167,115.76c-13.376,0-22.134-10.394-22.134-26.657
		c0-12.318,4.427-22.039,10.586-28.198c5.197-5.101,12.125-8.276,20.017-9.239c2.502-0.385,4.619-0.48,6.158-0.48v6.929
		c-1.731-0.097-3.945,0-6.351,0.385c-13.28,2.214-20.306,11.934-21.749,22.231h0.289c2.983-3.945,8.18-7.218,15.108-7.218
		c11.066,0,18.861,7.987,18.861,20.21C107.953,105.174,100.158,115.76,87.167,115.76z"/>
</g>
<path display="none" fill="#E3E5E4" d="M86.439,0C38.778,0,0.004,38.779,0.004,86.45c0,47.676,38.774,86.46,86.436,86.46
	c47.666,0,86.446-38.784,86.446-86.46C172.886,38.779,134.105,0,86.439,0z M81.392,115.76c-6.832,0-12.605-1.925-15.589-3.85
	l2.117-6.448c2.599,1.54,7.698,3.465,13.376,3.465c7.987,0,14.819-5.196,14.819-13.569c-0.096-8.084-5.484-13.858-17.995-13.858
	c-3.561,0-6.352,0.386-8.661,0.674l4.042-30.026h29.929v7.121H79.563L77.158,75.34c1.443-0.192,2.791-0.385,5.1-0.385
	c4.813,0,9.623,1.059,13.473,3.368c4.908,2.791,8.95,8.181,8.95,16.072C104.681,106.617,94.961,115.76,81.392,115.76z"/>
<g display="none">
	<path display="inline" fill="#E3E5E4" d="M87.07,69.566L71.769,90.834v0.192h20.498V70.144c0-3.272,0.096-6.544,0.288-9.816h-0.288
		C90.342,63.984,88.802,66.679,87.07,69.566z"/>
	<path display="inline" fill="#E3E5E4" d="M86.439,0C38.778,0,0.004,38.779,0.004,86.45c0,47.676,38.774,86.46,86.436,86.46
		c47.666,0,86.446-38.784,86.446-86.46C172.886,38.779,134.105,0,86.439,0z M109.011,97.667h-8.757v17.034h-7.987V97.667H63.204
		v-5.582l27.907-39.938h9.143v38.88h8.757V97.667z"/>
</g>
</svg>
