<!-- Generated by IcoMoon.io -->
<svg version="1.1" xmlns="http://www.w3.org/2000/svg" width="32" height="32" viewBox="0 0 32 32">
<title>two-selected</title>
<path fill="#e3e5e4" d="M15.997 0c-8.82 0-15.996 7.177-15.996 15.999s7.176 16.001 15.996 16.001c8.821 0 15.998-7.178 15.998-16.001s-7.177-15.999-15.999-15.999zM19.622 21.227h-7.391v-0.962l1.229-1.193c2.956-2.814 4.292-4.31 4.31-6.056 0-1.176-0.57-2.262-2.297-2.262-1.051 0-1.923 0.534-2.457 0.98l-0.499-1.104c0.801-0.677 1.941-1.176 3.277-1.176 2.493 0 3.544 1.71 3.544 3.366 0 2.137-1.549 3.865-3.989 6.216l-0.926 0.855v0.036h5.2v1.3z"></path>
</svg>
