<!-- Generated by IcoMoon.io -->
<svg version="1.1" xmlns="http://www.w3.org/2000/svg" width="32" height="32" viewBox="0 0 32 32">
<title>six-selected</title>
<path fill="#e3e5e4" d="M16.007 14.78c-0.944 0-1.816 0.588-2.244 1.425-0.107 0.178-0.178 0.41-0.178 0.695 0.036 1.906 0.908 3.313 2.547 3.313 1.353 0 2.262-1.122 2.262-2.778s-0.944-2.654-2.387-2.654z"></path>
<path fill="#e3e5e4" d="M15.997 0c-8.82 0-15.996 7.177-15.996 15.999s7.176 16.001 15.996 16.001c8.821 0 15.998-7.178 15.998-16.001s-7.177-15.999-15.998-15.999zM16.132 21.423c-2.475 0-4.096-1.924-4.096-4.933 0-2.28 0.819-4.079 1.959-5.219 0.962-0.944 2.244-1.532 3.704-1.71 0.463-0.071 0.855-0.089 1.14-0.089v1.282c-0.32-0.018-0.73 0-1.175 0.071-2.458 0.41-3.758 2.209-4.025 4.114h0.053c0.552-0.73 1.514-1.336 2.796-1.336 2.048 0 3.491 1.478 3.491 3.74 0 2.119-1.442 4.078-3.847 4.078z"></path>
</svg>
