<!-- Generated by IcoMoon.io -->
<svg version="1.1" xmlns="http://www.w3.org/2000/svg" width="32" height="32" viewBox="0 0 32 32">
<title>angry-selected</title>
<path fill="#f89820" d="M27.314 4.686c-3.022-3.022-7.040-4.686-11.314-4.686s-8.292 1.664-11.314 4.686c-3.022 3.022-4.686 7.040-4.686 11.314s1.664 8.292 4.686 11.314c3.022 3.022 7.040 4.686 11.314 4.686s8.292-1.664 11.314-4.686c3.022-3.022 4.686-7.040 4.686-11.314s-1.664-8.292-4.686-11.314zM22.059 6.495l0.419 0.632-3.352 2.222-0.419-0.632 3.352-2.222zM9.942 6.495l3.352 2.222-0.419 0.632-3.352-2.222 0.419-0.632zM10.282 10.055c0.847 0 1.534 0.687 1.534 1.534s-0.687 1.534-1.534 1.534c-0.847 0-1.534-0.687-1.534-1.534s0.687-1.534 1.534-1.534zM23.028 21.746c-0.469 0.579-1.604-0.266-7.028-0.268-5.423 0.001-6.559 0.846-7.027 0.268s4.342-2.882 7.040-2.882 7.483 2.304 7.016 2.882zM21.718 13.123c-0.847 0-1.534-0.687-1.534-1.534s0.687-1.534 1.534-1.534 1.534 0.687 1.534 1.534-0.687 1.534-1.534 1.534z"></path>
</svg>
