<!-- Generated by IcoMoon.io -->
<svg version="1.1" xmlns="http://www.w3.org/2000/svg" width="32" height="32" viewBox="0 0 32 32">
<title>down</title>
<path fill="#ee6427" d="M27.314 4.686c-3.022-3.022-7.040-4.686-11.314-4.686s-8.292 1.664-11.314 4.686-4.686 7.040-4.686 11.314c0 4.274 1.664 8.292 4.686 11.314s7.040 4.686 11.314 4.686c4.274 0 8.292-1.664 11.314-4.686s4.686-7.040 4.686-11.314c0-4.274-1.664-8.292-4.686-11.314zM16 31.241c-8.404 0-15.241-6.837-15.241-15.241s6.837-15.242 15.241-15.242c8.404 0 15.242 6.837 15.242 15.242s-6.837 15.241-15.242 15.241z"></path>
<path fill="#ee6427" d="M11.816 11.589c0 0.847-0.687 1.534-1.534 1.534s-1.534-0.687-1.534-1.534c0-0.847 0.687-1.534 1.534-1.534s1.534 0.687 1.534 1.534z"></path>
<path fill="#ee6427" d="M23.253 11.589c0 0.847-0.687 1.534-1.534 1.534s-1.534-0.687-1.534-1.534c0-0.847 0.687-1.534 1.534-1.534s1.534 0.687 1.534 1.534z"></path>
<path fill="#ee6427" d="M9.086 24.127l-0.18-0.737 14.008-3.413 0.18 0.737-14.008 3.413z"></path>
</svg>
