<!-- Generated by IcoMoon.io -->
<svg version="1.1" xmlns="http://www.w3.org/2000/svg" width="32" height="32" viewBox="0 0 32 32">
<title>down-selected</title>
<path fill="#ee6427" d="M16 0.031c-8.819 0-15.969 7.149-15.969 15.969s7.149 15.969 15.969 15.969c8.819 0 15.969-7.149 15.969-15.969s-7.149-15.969-15.969-15.969zM10.154 9.922c0.866 0 1.568 0.702 1.568 1.568s-0.702 1.568-1.568 1.568-1.568-0.702-1.568-1.568c0-0.866 0.702-1.568 1.568-1.568zM8.932 24.309l-0.184-0.753 14.319-3.489 0.184 0.753-14.319 3.489zM21.846 13.059c-0.866 0-1.568-0.702-1.568-1.568s0.702-1.568 1.568-1.568c0.866 0 1.568 0.702 1.568 1.568s-0.702 1.568-1.568 1.568z"></path>
</svg>
