<!-- Generated by IcoMoon.io -->
<svg version="1.1" xmlns="http://www.w3.org/2000/svg" width="32" height="32" viewBox="0 0 32 32">
<title>eight-selected</title>
<path fill="#e3e5e4" d="M16.221 14.566c0.997-0.338 1.763-1.051 1.763-2.101 0-0.926-0.552-1.888-1.959-1.888-1.3 0-2.012 0.855-2.012 1.853 0 1.157 0.873 1.781 2.208 2.137z"></path>
<path fill="#e3e5e4" d="M15.775 15.688c-1.353 0.392-2.084 1.282-2.084 2.387-0.053 1.176 0.837 2.209 2.315 2.209 1.407 0 2.315-0.873 2.315-2.066 0-1.407-0.98-2.084-2.547-2.529z"></path>
<path fill="#e3e5e4" d="M15.997 0c-8.82 0-15.996 7.177-15.996 15.999s7.176 16.001 15.996 16.001c8.821 0 15.998-7.178 15.998-16.001s-7.177-15.999-15.999-15.999zM15.971 21.423c-2.422 0-3.883-1.443-3.883-3.135 0-1.461 0.873-2.494 2.297-3.099l-0.018-0.053c-1.282-0.606-1.834-1.603-1.834-2.6 0-1.835 1.549-3.081 3.58-3.081 2.244 0 3.366 1.407 3.366 2.85 0 0.98-0.481 2.030-1.906 2.707v0.053c1.443 0.57 2.333 1.585 2.333 2.992 0 2.012-1.727 3.366-3.936 3.366z"></path>
</svg>
