<!-- Generated by IcoMoon.io -->
<svg version="1.1" xmlns="http://www.w3.org/2000/svg" width="32" height="32" viewBox="0 0 32 32">
<title>sad-selected</title>
<path fill="#de2f27" d="M16 0.031c-8.819 0-15.969 7.149-15.969 15.969s7.149 15.969 15.969 15.969 15.969-7.149 15.969-15.969c0-8.819-7.15-15.969-15.969-15.969zM21.846 9.922c0.866 0 1.568 0.702 1.568 1.568s-0.702 1.568-1.568 1.568c-0.866 0-1.568-0.702-1.568-1.568s0.702-1.568 1.568-1.568zM10.154 9.922c0.866 0 1.568 0.702 1.568 1.568s-0.702 1.568-1.568 1.568c-0.866 0-1.568-0.702-1.568-1.568s0.702-1.568 1.568-1.568zM25.643 24.661c-0.011-0.010-1.086-1.025-2.786-2.024-1.554-0.914-3.966-2.004-6.631-2.004s-5.077 1.090-6.631 2.004c-1.7 1-2.775 2.014-2.786 2.025l-0.534-0.562c0.046-0.043 1.138-1.076 2.909-2.121 1.641-0.968 4.195-2.121 7.042-2.121s5.401 1.154 7.042 2.121c1.771 1.044 2.864 2.077 2.909 2.121l-0.535 0.562z"></path>
</svg>
