<!-- Generated by IcoMoon.io -->
<svg version="1.1" xmlns="http://www.w3.org/2000/svg" width="32" height="32" viewBox="0 0 32 32">
<title>ten</title>
<path fill="#e3e5e4" d="M8.109 11.565l0.303 1.193 2.012-1.087h0.036v10.116h1.514v-11.577h-1.336z"></path>
<path fill="#e3e5e4" d="M20.059 10.016c-2.351 0-4.025 2.137-4.025 6.020 0.036 3.829 1.567 5.949 3.829 5.949 2.564 0 4.025-2.173 4.025-6.109 0-3.687-1.389-5.86-3.829-5.86zM19.952 20.773c-1.425 0-2.351-1.71-2.351-4.72 0-3.152 0.997-4.827 2.369-4.827 1.621 0 2.351 1.87 2.351 4.72-0 2.956-0.766 4.827-2.369 4.827z"></path>
<path fill="#e3e5e4" d="M15.997 0c-8.82 0-15.996 7.177-15.996 15.999s7.176 16.001 15.996 16.001c8.821 0 15.998-7.178 15.998-16.001s-7.177-15.999-15.999-15.999zM15.997 31.028c-8.285 0-15.024-6.742-15.024-15.029s6.74-15.027 15.024-15.027c8.285 0 15.026 6.741 15.026 15.027s-6.741 15.029-15.026 15.029z"></path>
</svg>
