<!-- Generated by IcoMoon.io -->
<svg version="1.1" xmlns="http://www.w3.org/2000/svg" width="32" height="32" viewBox="0 0 32 32">
<title>three-selected</title>
<path fill="#e3e5e4" d="M15.997 0c-8.82 0-15.996 7.177-15.996 15.999s7.176 16.001 15.996 16.001c8.821 0 15.998-7.178 15.998-16.001s-7.177-15.999-15.999-15.999zM15.188 21.423c-1.3 0-2.44-0.41-3.010-0.784l0.428-1.211c0.445 0.285 1.478 0.73 2.564 0.73 2.012 0 2.636-1.282 2.618-2.244-0.018-1.621-1.478-2.315-2.992-2.315h-0.873v-1.176h0.873c1.14 0 2.582-0.588 2.582-1.959 0-0.926-0.588-1.746-2.030-1.746-0.926 0-1.816 0.41-2.315 0.766l-0.41-1.14c0.605-0.445 1.781-0.891 3.028-0.891 2.28 0 3.313 1.353 3.313 2.761 0 1.193-0.712 2.209-2.137 2.725v0.036c1.425 0.285 2.582 1.354 2.582 2.974 0 1.853-1.442 3.473-4.221 3.473z"></path>
</svg>
