<?xml version="1.0" encoding="UTF-8"?>
<svg width="72px" height="32px" viewBox="0 0 72 32" version="1.1" xmlns="http://www.w3.org/2000/svg" xmlns:xlink="http://www.w3.org/1999/xlink">
    <!-- Generator: Sketch 41 (35326) - http://www.bohemiancoding.com/sketch -->
    <title>Desktop HD</title>
    <desc>Created with Sketch.</desc>
    <defs></defs>
    <g id="Page-1" stroke="none" stroke-width="1" fill="none" fill-rule="evenodd">
        <g id="Desktop-HD">
            <g id="ekomi-logo-(1)">
                <g id="Page-1">
                    <g id="Desktop">
                        <g id="ekomi_logo_complete">
                            <g id="Page-1">
                                <g id="ekomi_logo_complete">
                                    <g id="Group-25">
                                        <g id="ekomi" fill="#2DA137">
                                            <path d="M6.2725179,8.19229384 C4.58313103,8.19229384 3.52717087,9.64417054 3.65913476,12.574043 L8.62172424,11.8349455 C8.62172424,9.30098974 7.77715533,8.19229384 6.2725179,8.19229384 L6.2725179,8.19229384 Z M3.92331155,14.5802677 C4.21363212,16.665596 5.26934329,17.6951883 7.35462187,17.6951883 C9.01761594,17.6951883 10.2849673,17.3256147 11.0503579,16.9296981 L11.9743542,19.4899969 C10.8656085,20.0443448 9.28179269,20.5195891 6.87955181,20.5195891 C2.52424525,20.5195891 0.01643324,17.6422035 0.01643324,13.102023 C0.01643324,8.64092129 2.3394958,5.76375972 6.43087454,5.76375972 C10.5486461,5.76375972 12.6341737,8.56184251 12.4494242,13.36615 L3.92331155,14.5802677 L3.92331155,14.5802677 Z" id="Fill-1"></path>
                                            <polyline id="Fill-3" points="23.7993153 20.2554871 19.3117958 11.2542048 19.2590103 11.2542048 19.2590103 20.2554871 15.0090258 20.2554871 15.0090258 2.09451603 19.2590103 2.09451603 19.2590103 10.2775972 19.3117958 10.2775972 23.8784936 2.09451603 28.2601929 2.09451603 23.112854 10.4360038 28.6035481 20.2554871 23.7993153 20.2554871"></polyline>
                                            <path d="M35.2811703,20.5195891 C31.1631497,20.5195891 28.9989418,17.3783255 28.9989418,13.1283909 C28.9989418,8.87870525 31.1631497,5.76375972 35.2547775,5.76375972 C39.3989418,5.76375972 41.5633987,8.87870525 41.5633987,13.1283909 C41.5633987,17.3783255 39.3989418,20.5195891 35.2811703,20.5195891 Z M35.2811703,8.32433242 C33.4598195,8.32433242 33.0903206,10.5414753 33.0903206,13.0756552 C33.0903206,15.6362278 33.4862123,17.7215313 35.2811703,17.7215313 C37.102521,17.7215313 37.4722689,15.6362278 37.4722689,13.0756552 C37.4722689,10.5414753 37.102521,8.32433242 35.2811703,8.32433242 Z" id="Fill-4"></path>
                                            <path d="M59.8822285,20.2554871 L59.8822285,10.2775972 C59.8822285,9.19526921 59.2490507,8.3507003 57.8233427,8.3507003 C57.1107376,8.3507003 56.5034547,8.56184251 56.0283847,9.03683784 L56.0283847,20.2554871 L51.9106131,20.2554871 L51.9106131,10.2248864 C51.9106131,9.08982262 51.1185808,8.3507003 49.6931217,8.3507003 C48.9541239,8.3507003 48.5318394,8.42980392 48.0298786,8.61457826 L48.0298786,20.2554871 L43.9123561,20.2554871 L43.9123561,6.81974482 C45.4961718,6.10696545 47.1853097,5.76375972 49.6667289,5.76375972 C52.0159352,5.76375972 53.362465,6.39721136 54.1806411,7.1893184 C55.0777466,6.4238282 56.5298475,5.76375972 58.8793028,5.76375972 C62.2583255,5.76375972 64,7.77000935 64,10.2775972 L64,20.2554871 L59.8822285,20.2554871" id="Fill-5"></path>
                                            <path d="M66.9291005,20.2554871 L71.0471209,20.2554871 L71.0471209,6.02763772 L66.9291005,6.02763772 L66.9291005,20.2554871 Z M68.9884844,3.86325552 C67.7736696,3.86325552 66.7973854,3.0184127 66.7973854,1.93638344 C66.7973854,0.880398381 67.7736696,0.00921257393 68.9884844,0.00921257393 C70.2025518,0.00921257393 71.1788361,0.880398381 71.1788361,1.93638344 C71.1788361,3.0184127 70.2025518,3.86325552 68.9884844,3.86325552 L68.9884844,3.86325552 Z" id="Fill-6"></path>
                                        </g>
                                        <g id="claim" transform="translate(0.000000, 25.371927)" fill="#5F6260">
                                            <polyline id="Fill-7" points="3.33171491 1.14559602 2.17566138 1.12741986 2.17566138 4.62545907 1.1545596 4.62545907 1.1545596 1.12741986 0.023155929 1.14559602 0.023155929 0.356800498 3.33171491 0.356800498 3.33171491 1.14559602"></polyline>
                                            <path d="M4.76862745,1.9956427 C5.00093371,1.63485839 5.3557423,1.38412698 5.80840336,1.38412698 C6.61562403,1.38412698 7.00080922,1.89779022 7.00080922,2.76028634 L7.00080922,4.62545907 L6.04693433,4.62545907 L6.04693433,3.11484594 C6.04693433,2.52175537 5.96128229,2.15474634 5.49642079,2.15474634 C4.94590725,2.15474634 4.78082788,2.64400872 4.78082788,3.23112356 L4.78082788,4.62545907 L3.826953,4.62545907 L3.826953,0.00199190787 L4.77485216,0.00199190787 L4.77485216,1.26784936 C4.77485216,1.48820417 4.76862745,1.76956116 4.75642702,1.9956427 L4.76862745,1.9956427" id="Fill-8"></path>
                                            <path d="M9.85670714,2.71123561 C9.85670714,2.24039838 9.61817619,2.03249299 9.23896671,2.03249299 C8.89038281,2.03249299 8.59707438,2.26479925 8.54802365,2.71123561 L9.85670714,2.71123561 L9.85670714,2.71123561 Z M8.55424835,3.31055089 C8.57864922,3.72636166 8.93320885,4.01394335 9.50812323,4.01394335 C9.84450667,4.01394335 10.162465,3.93451603 10.4560224,3.76918768 L10.4744476,4.49100529 C10.205291,4.62545907 9.82010585,4.7048864 9.39807034,4.7048864 C8.32169311,4.7048864 7.60012449,4.09337068 7.60012449,3.03541861 C7.60012449,2.06311858 8.26666667,1.38412698 9.26361656,1.38412698 C10.1993153,1.38412698 10.725179,1.93464052 10.725179,3.08422035 C10.725179,3.13327108 10.7189542,3.26772487 10.7129785,3.31055089 L8.55424835,3.31055089 L8.55424835,3.31055089 Z" id="Fill-9"></path>
                                            <polyline id="Fill-10" points="15.5256769 0.356800498 15.5256769 1.12741986 13.9478369 1.12741986 13.9478369 2.13632119 15.4524744 2.13632119 15.4524744 2.89474012 13.9478369 2.89474012 13.9478369 4.62545907 12.9449113 4.62545907 12.9449113 0.356800498 15.5256769 0.356800498"></polyline>
                                            <path d="M18.1248677,2.71123561 C18.1248677,2.24039838 17.8863368,2.03249299 17.5071273,2.03249299 C17.1585434,2.03249299 16.864986,2.26479925 16.8161843,2.71123561 L18.1248677,2.71123561 L18.1248677,2.71123561 Z M16.822409,3.31055089 C16.8468099,3.72636166 17.2013694,4.01394335 17.7762839,4.01394335 C18.1126673,4.01394335 18.4306256,3.93451603 18.724183,3.76918768 L18.7426081,4.49100529 C18.4734516,4.62545907 18.0882664,4.7048864 17.666231,4.7048864 C16.5898537,4.7048864 15.8682851,4.09337068 15.8682851,3.03541861 C15.8682851,2.06311858 16.5348273,1.38412698 17.5317771,1.38412698 C18.4674759,1.38412698 18.9933395,1.93464052 18.9933395,3.08422035 C18.9933395,3.13327108 18.9873638,3.26772487 18.9811391,3.31055089 L16.822409,3.31055089 L16.822409,3.31055089 Z" id="Fill-11"></path>
                                            <path d="M21.6901338,2.71123561 C21.6901338,2.24039838 21.4518519,2.03249299 21.0726424,2.03249299 C20.7240585,2.03249299 20.4305011,2.26479925 20.3814504,2.71123561 L21.6901338,2.71123561 L21.6901338,2.71123561 Z M20.387675,3.31055089 C20.4120759,3.72636166 20.7668845,4.01394335 21.3415499,4.01394335 C21.6779334,4.01394335 21.9961407,3.93451603 22.2896981,3.76918768 L22.3078743,4.49100529 C22.0387177,4.62545907 21.6535325,4.7048864 21.231497,4.7048864 C20.1551198,4.7048864 19.4335512,4.09337068 19.4335512,3.03541861 C19.4335512,2.06311858 20.1000934,1.38412698 21.0970433,1.38412698 C22.032742,1.38412698 22.5586057,1.93464052 22.5586057,3.08422035 C22.5586057,3.13327108 22.55263,3.26772487 22.5464052,3.31055089 L20.387675,3.31055089 L20.387675,3.31055089 Z" id="Fill-12"></path>
                                            <path d="M23.9835667,3.03541861 C23.9835667,3.58568316 24.258699,3.97709306 24.6867102,3.97709306 C25.1209461,3.97709306 25.4145036,3.58568316 25.4145036,3.04761905 C25.4145036,2.49112979 25.1209461,2.11192033 24.6685341,2.11192033 C24.2524744,2.11192033 23.9835667,2.49112979 23.9835667,3.03541861 L23.9835667,3.03541861 Z M25.4635543,4.06896981 C25.2372238,4.49100529 24.8886399,4.69891068 24.3931528,4.69891068 C23.5431061,4.69891068 22.9988173,4.04456894 22.9988173,3.0291939 C22.9988173,2.05689387 23.567756,1.38412698 24.3993775,1.38412698 C24.8764395,1.38412698 25.1943977,1.59825708 25.3901027,1.94061624 L25.4023031,1.94061624 C25.3901027,1.67170868 25.383878,1.32910053 25.383878,1.02334267 L25.383878,0.00199190787 L26.3442266,0.00199190787 L26.3442266,3.68378463 C26.3442266,4.01394335 26.3502023,4.36252723 26.3746032,4.62545907 L25.4879552,4.62545907 C25.4817304,4.48478058 25.4757547,4.28309991 25.4757547,4.06896981 L25.4635543,4.06896981 L25.4635543,4.06896981 Z" id="Fill-13"></path>
                                            <path d="M28.1112979,3.04139433 C28.1112979,3.59190787 28.3926549,3.97111733 28.8390912,3.97111733 C29.2733271,3.97111733 29.5362589,3.59813259 29.5362589,3.0291939 C29.5362589,2.47892935 29.2855275,2.11192033 28.8453159,2.11192033 C28.4048553,2.11192033 28.1112979,2.50333022 28.1112979,3.04139433 L28.1112979,3.04139433 Z M28.0684718,4.1361967 C28.0684718,4.30127607 28.0562714,4.50320573 28.044071,4.62545907 L27.1389978,4.62545907 C27.1633987,4.36252723 27.1696234,4.01394335 27.1696234,3.68378463 L27.1696234,0.00199190787 L28.129723,0.00199190787 L28.129723,1.02334267 C28.129723,1.32910053 28.1237473,1.6776844 28.1112979,1.94061624 L28.1237473,1.94061624 C28.368254,1.57983193 28.7168378,1.38412698 29.1816993,1.38412698 C29.98892,1.38412698 30.5147837,2.05066916 30.5147837,3.01699346 C30.5147837,4.01394335 29.9645192,4.7048864 29.1144725,4.7048864 C28.6374105,4.7048864 28.2888267,4.49698101 28.0809213,4.1361967 L28.0684718,4.1361967 L28.0684718,4.1361967 Z" id="Fill-14"></path>
                                            <path d="M32.8019919,3.1760971 C32.1964519,3.1760971 31.8600685,3.31055089 31.8600685,3.64693433 C31.8600685,3.91609088 32.043573,4.04456894 32.3311547,4.04456894 C32.7469655,4.04456894 33.0527233,3.76321195 33.0527233,3.18829754 C32.9792717,3.18207283 32.8936196,3.1760971 32.8019919,3.1760971 L32.8019919,3.1760971 Z M33.1139745,4.09959539 C32.9060691,4.45415499 32.5450358,4.68671024 32.0313725,4.68671024 C31.4014317,4.68671024 30.9368192,4.30127607 30.9368192,3.69598506 C30.9368192,3.00479303 31.5361345,2.64998444 32.5878618,2.64998444 C32.7163399,2.64998444 32.8876439,2.65620915 33.0405229,2.66840959 C33.0405229,2.22819795 32.7960162,2.04469343 32.3311547,2.04469343 C31.9947713,2.04469343 31.6155618,2.15474634 31.3282291,2.31384998 L31.2976035,1.61643324 C31.6277622,1.45757859 32.1048242,1.38412698 32.4840336,1.38412698 C33.5053843,1.38412698 33.9396203,1.86741363 33.9396203,2.69903517 C33.9396203,2.90096483 33.9271709,3.23709928 33.9271709,3.4940554 C33.9271709,4.0627451 33.945596,4.42352941 33.9699969,4.62545907 L33.1321507,4.62545907 C33.1199502,4.57640834 33.1139745,4.46635543 33.1139745,4.37472767 C33.1139745,4.30750078 33.1199502,4.2096483 33.1261749,4.09959539 L33.1139745,4.09959539 L33.1139745,4.09959539 Z" id="Fill-15"></path>
                                            <path d="M36.887146,2.22819795 C36.7158419,2.16097106 36.5445378,2.12412076 36.3490819,2.12412076 C35.804793,2.12412076 35.48061,2.49112979 35.48061,3.04139433 C35.48061,3.59813259 35.7863679,3.94671647 36.367258,3.94671647 C36.5569872,3.94671647 36.7280424,3.9220666 36.9237473,3.83641456 L36.9605976,4.56420791 C36.7098662,4.64388422 36.5079365,4.67426081 36.2328042,4.67426081 C35.1748521,4.67426081 34.4898849,4.05054467 34.4898849,3.04139433 C34.4898849,2.04469343 35.2358544,1.42097728 36.2084034,1.42097728 C36.5019608,1.42097728 36.734267,1.44537815 36.9543728,1.51882975 L36.887146,2.22819795" id="Fill-16"></path>
                                            <path d="M39.0765017,3.84886399 C38.9236228,3.62253346 38.703268,3.2799253 38.5688142,3.05981948 L38.5566138,3.05981948 L38.5566138,4.62545907 L37.5843137,4.62545907 L37.5843137,0.00199190787 L38.5566138,0.00199190787 L38.5566138,2.77248677 L38.5688142,2.77248677 C38.6910675,2.58898226 38.9236228,2.2832244 39.0887021,2.08129474 L39.5963896,1.46355431 L40.6909431,1.46355431 L39.4616869,2.88253968 L40.800996,4.62545907 L39.6085901,4.62545907 L39.0765017,3.84886399" id="Fill-17"></path>
                                            <path d="M45.968503,1.25564893 C45.6749455,1.12741986 45.3935885,1.07214441 45.0756302,1.07214441 C44.237784,1.07214441 43.6628696,1.54920635 43.6628696,2.4605042 C43.6628696,3.3533769 44.2562091,3.89169001 45.1124806,3.89169001 C45.4242141,3.89169001 45.7055711,3.84886399 46.0175537,3.72636166 L46.0725801,4.55200747 C45.7790227,4.63765951 45.4120137,4.68671024 45.0512294,4.68671024 C43.5896669,4.68671024 42.6111422,3.9220666 42.6111422,2.48490507 C42.6111422,1.10899471 43.6140678,0.295549331 45.0084034,0.295549331 C45.3998133,0.295549331 45.7177715,0.332150638 46.0357298,0.442452536 L45.968503,1.25564893" id="Fill-18"></path>
                                            <path d="M47.4056645,3.04139433 C47.4056645,3.62850918 47.7051976,4.01394335 48.151634,4.01394335 C48.604295,4.01394335 48.9040772,3.63473389 48.9040772,3.04139433 C48.9040772,2.43610333 48.6105198,2.06311858 48.151634,2.06311858 C47.7051976,2.06311858 47.4056645,2.44830377 47.4056645,3.04139433 L47.4056645,3.04139433 Z M49.9007781,3.05384376 C49.9007781,4.05054467 49.1976346,4.7048864 48.151634,4.7048864 C47.1058824,4.7048864 46.4027389,4.04456894 46.4027389,3.05384376 C46.4027389,2.02626829 47.0936819,1.38412698 48.1700591,1.38412698 C49.2036104,1.38412698 49.9007781,2.03846872 49.9007781,3.05384376 L49.9007781,3.05384376 Z" id="Fill-19"></path>
                                            <path d="M52.6100218,4.62545907 L52.6100218,3.07824463 C52.6100218,2.5339558 52.5243698,2.15474634 52.1267351,2.15474634 C51.6865235,2.15474634 51.4845938,2.60740741 51.4845938,3.15169623 L51.4845938,4.62545907 L50.5244942,4.62545907 L50.5244942,2.46672892 C50.5244942,2.18537193 50.5185185,1.84276377 50.4938687,1.46355431 L51.3807656,1.46355431 C51.3929661,1.59203237 51.3989418,1.84276377 51.3989418,2.00784314 L51.4113912,2.00784314 C51.6374728,1.61045752 52.0288826,1.38412698 52.4693433,1.38412698 C52.9464052,1.38412698 53.2949891,1.6042328 53.447868,2.02626829 C53.6801743,1.61045752 54.1081855,1.38412698 54.5670712,1.38412698 C55.3252412,1.38412698 55.6556489,1.92841581 55.6556489,2.75406162 L55.6556489,4.62545907 L54.6953003,4.62545907 L54.6953003,2.99881731 C54.6953003,2.42987862 54.5486461,2.15474634 54.2122627,2.15474634 C53.7474012,2.15474634 53.5701214,2.61960784 53.5701214,3.16389667 L53.5701214,4.62545907 L52.6100218,4.62545907" id="Fill-20"></path>
                                            <path d="M57.3739184,3.04139433 C57.3739184,3.59190787 57.6612511,3.97709306 58.1017118,3.97709306 C58.5419235,3.97709306 58.7988796,3.59813259 58.7988796,3.02321818 C58.7988796,2.46672892 58.5359477,2.11814504 58.1076875,2.11814504 C57.6674759,2.11814504 57.3739184,2.50333022 57.3739184,3.04139433 L57.3739184,3.04139433 Z M57.361718,1.96526611 C57.643075,1.57385621 57.9488329,1.38412698 58.4318706,1.38412698 C59.2575164,1.38412698 59.78338,2.02626829 59.78338,3.01101774 C59.78338,4.01394335 59.2268907,4.69891068 58.3890445,4.69891068 C57.924183,4.69891068 57.600249,4.50918145 57.3923436,4.16059757 L57.3798941,4.16059757 C57.3923436,4.28309991 57.3983193,4.72953626 57.3983193,4.91279178 L57.3983193,5.91596639 L56.432244,5.91596639 L56.432244,2.42987862 C56.432244,2.09971989 56.4260193,1.72673514 56.4016184,1.46355431 L57.3248677,1.46355431 C57.3373171,1.59203237 57.3495176,1.80616247 57.3495176,1.96526611 L57.361718,1.96526611 L57.361718,1.96526611 Z" id="Fill-21"></path>
                                            <path d="M62.0705882,3.1760971 C61.4650482,3.1760971 61.1286648,3.31055089 61.1286648,3.64693433 C61.1286648,3.91609088 61.3121693,4.04456894 61.599751,4.04456894 C62.0155618,4.04456894 62.3213197,3.76321195 62.3213197,3.18829754 C62.247868,3.18207283 62.162216,3.1760971 62.0705882,3.1760971 L62.0705882,3.1760971 Z M62.3825708,4.09959539 C62.1746654,4.45415499 61.8136321,4.68671024 61.2999689,4.68671024 C60.670028,4.68671024 60.2054155,4.30127607 60.2054155,3.69598506 C60.2054155,3.00479303 60.8047308,2.64998444 61.8564582,2.64998444 C61.9849362,2.64998444 62.1562403,2.65620915 62.3091192,2.66840959 C62.3091192,2.22819795 62.0646125,2.04469343 61.599751,2.04469343 C61.2633676,2.04469343 60.8841581,2.15474634 60.5968254,2.31384998 L60.5661998,1.61643324 C60.8963585,1.45757859 61.3734205,1.38412698 61.75263,1.38412698 C62.7739809,1.38412698 63.2082165,1.86741363 63.2082165,2.69903517 C63.2082165,2.90096483 63.1957672,3.23709928 63.1957672,3.4940554 C63.1957672,4.0627451 63.2141923,4.42352941 63.2385933,4.62545907 L62.400747,4.62545907 C62.3885465,4.57640834 62.3825708,4.46635543 62.3825708,4.37472767 C62.3825708,4.30750078 62.3885465,4.2096483 62.3947713,4.09959539 L62.3825708,4.09959539 L62.3825708,4.09959539 Z" id="Fill-22"></path>
                                            <path d="M64.8714598,2.00186741 C65.103766,1.63485839 65.5014005,1.38412698 65.9538127,1.38412698 C66.7612825,1.38412698 67.134267,1.89779022 67.134267,2.75406162 L67.134267,4.62545907 L66.1801431,4.62545907 L66.1801431,3.11484594 C66.1801431,2.51553065 66.1066918,2.15474634 65.6420787,2.15474634 C65.3607222,2.15474634 65.1587922,2.30140056 65.0427639,2.52175537 C64.9508869,2.70525988 64.9142858,2.95599128 64.9142858,3.23112356 L64.9142858,4.62545907 L63.9601619,4.62545907 L63.9601619,2.46672892 C63.9601619,2.17914721 63.954186,1.84276377 63.929536,1.46355431 L64.8348587,1.46355431 C64.8470588,1.59825708 64.859259,1.83678805 64.859259,2.00186741 L64.8714598,2.00186741" id="Fill-23"></path>
                                            <path d="M71.0421415,1.46355431 L69.7822595,4.81493931 C69.5009023,5.57335823 69.0788668,5.98319328 68.363274,5.98319328 C68.1493929,5.98319328 67.9414877,5.95256769 67.7639592,5.90351696 L67.8311856,5.18194834 C67.9843137,5.22477436 68.1065669,5.2431995 68.2410209,5.2431995 C68.4733271,5.2431995 68.6814814,5.12069717 68.7975103,4.73551198 L67.5744784,1.46355431 L68.6140053,1.46355431 L69.0910676,2.99259259 C69.1582946,3.21892312 69.2623718,3.59813259 69.3295987,3.86704015 L69.3417989,3.86704015 C69.4030249,3.60410831 69.5009023,3.26772487 69.58033,2.99881731 L70.0573917,1.46355431 L71.0421415,1.46355431" id="Fill-24"></path>
                                        </g>
                                    </g>
                                </g>
                            </g>
                        </g>
                    </g>
                </g>
            </g>
        </g>
    </g>
</svg>