<svg width="72" height="32" viewBox="0 0 72 32" xmlns="http://www.w3.org/2000/svg"><title>Desktop HD</title><g fill="none" fill-rule="evenodd"><path d="M6.273 8.192c-1.69 0-2.746 1.452-2.614 4.382l4.963-.74c0-2.533-.845-3.642-2.35-3.642zm-2.35 6.388c.29 2.086 1.346 3.115 3.432 3.115 1.663 0 2.93-.37 3.695-.765l.924 2.56c-1.108.554-2.692 1.03-5.094 1.03-4.356 0-6.864-2.878-6.864-7.418 0-4.461 2.323-7.338 6.415-7.338 4.118 0 6.203 2.798 6.018 7.602L3.923 14.58zM23.8 20.255l-4.488-9h-.053v9h-4.25V2.095h4.25v8.183h.053l4.566-8.183h4.382l-5.147 8.341 5.49 9.82H23.8m11.481.264c-4.118 0-6.282-3.142-6.282-7.392s2.164-7.364 6.256-7.364c4.144 0 6.308 3.115 6.308 7.364 0 4.25-2.164 7.392-6.282 7.392zm0-12.196c-1.821 0-2.19 2.217-2.19 4.752 0 2.56.395 4.646 2.19 4.646 1.822 0 2.191-2.086 2.191-4.646 0-2.535-.37-4.752-2.19-4.752zm24.601 11.931v-9.977c0-1.083-.633-1.927-2.059-1.927-.712 0-1.32.21-1.795.686v11.218h-4.117v-10.03c0-1.135-.792-1.874-2.218-1.874-.739 0-1.161.079-1.663.264v11.64h-4.118V6.82c1.584-.713 3.273-1.056 5.755-1.056 2.349 0 3.695.633 4.514 1.425.897-.765 2.349-1.425 4.698-1.425C62.26 5.764 64 7.77 64 10.278v9.977h-4.118m7.048 0h4.117V6.028H66.93v14.227zm2.058-16.392c-1.214 0-2.19-.845-2.19-1.927 0-1.056.976-1.927 2.19-1.927 1.215 0 2.19.871 2.19 1.927 0 1.082-.975 1.927-2.19 1.927z" fill="#2DA137"/><path d="M3.332 26.518l-1.156-.019v3.498H1.155V26.5l-1.132.019v-.79h3.309v.79m1.437.849c.232-.361.587-.612 1.04-.612.807 0 1.192.514 1.192 1.376v1.865h-.954v-1.51c0-.593-.086-.96-.55-.96-.551 0-.716.489-.716 1.076v1.394h-.954v-4.623h.948v1.266c0 .22-.006.501-.019.728h.013m5.088.715c0-.47-.239-.679-.618-.679-.349 0-.642.233-.691.68h1.309zm-1.303.6c.025.415.38.703.954.703.337 0 .654-.08.948-.245l.018.722c-.269.134-.654.214-1.076.214-1.076 0-1.798-.612-1.798-1.67 0-.972.667-1.65 1.664-1.65.935 0 1.461.55 1.461 1.7 0 .048-.006.183-.012.225H8.554zm6.972-2.954v.77h-1.578v1.01h1.504v.758h-1.504v1.73h-1.003V25.73h2.58m2.6 2.353c0-.47-.239-.679-.618-.679-.348 0-.642.233-.69.68h1.308zm-1.303.6c.025.415.38.703.954.703.337 0 .655-.08.948-.245l.019.722c-.27.134-.655.214-1.077.214-1.076 0-1.798-.612-1.798-1.67 0-.972.667-1.65 1.664-1.65.935 0 1.461.55 1.461 1.7 0 .048-.006.183-.012.225h-2.159zm4.868-.6c0-.47-.238-.679-.617-.679-.349 0-.642.233-.692.68h1.31zm-1.302.6c.024.415.379.703.954.703.336 0 .654-.08.948-.245l.018.722c-.27.134-.654.214-1.077.214-1.076 0-1.797-.612-1.797-1.67 0-.972.666-1.65 1.663-1.65.936 0 1.462.55 1.462 1.7 0 .048-.006.183-.013.225h-2.158zm3.596-.276c0 .55.275.942.703.942.434 0 .728-.391.728-.93 0-.556-.294-.935-.746-.935-.417 0-.685.38-.685.923zm1.48 1.034c-.227.422-.575.63-1.07.63-.85 0-1.395-.655-1.395-1.67 0-.972.569-1.645 1.4-1.645.477 0 .795.214.991.557h.012a21.67 21.67 0 0 1-.018-.918v-1.021h.96v3.682c0 .33.006.678.03.941h-.886a13.44 13.44 0 0 1-.012-.556h-.012zm2.647-1.028c0 .55.282.93.728.93.434 0 .697-.373.697-.942 0-.55-.25-.917-.69-.917-.441 0-.735.391-.735.93zm-.043 1.095c0 .165-.012.367-.024.49h-.905c.024-.264.03-.612.03-.942v-3.682h.96v1.021c0 .306-.005.655-.018.918h.013a1.207 1.207 0 0 1 1.058-.557c.807 0 1.333.667 1.333 1.633 0 .997-.55 1.688-1.4 1.688-.478 0-.826-.208-1.034-.569h-.013zm4.734-.96c-.606 0-.942.134-.942.47 0 .27.184.398.471.398.416 0 .722-.28.722-.856a2.951 2.951 0 0 0-.251-.012zm.312.924c-.208.354-.569.587-1.083.587-.63 0-1.094-.386-1.094-.991 0-.691.6-1.046 1.65-1.046.13 0 .3.006.454.018 0-.44-.245-.623-.71-.623-.336 0-.715.11-1.003.269l-.03-.698c.33-.158.807-.232 1.186-.232 1.021 0 1.456.483 1.456 1.315 0 .202-.013.538-.013.795 0 .569.019.93.043 1.131h-.838a1.363 1.363 0 0 1-.018-.25c0-.068.006-.165.012-.275h-.012zm3.773-1.872a1.431 1.431 0 0 0-.538-.104c-.544 0-.868.367-.868.917 0 .557.305.906.886.906.19 0 .361-.025.557-.11l.037.727a2.2 2.2 0 0 1-.728.11c-1.058 0-1.743-.624-1.743-1.633 0-.996.746-1.62 1.718-1.62.294 0 .526.024.746.098l-.067.71m2.19 1.619a24.197 24.197 0 0 1-.508-.788h-.012v1.565h-.973v-4.623h.973v2.77h.012c.122-.183.355-.489.52-.69l.507-.619h1.095l-1.23 1.42 1.34 1.742h-1.192l-.532-.776m6.892-2.593a2.147 2.147 0 0 0-.893-.184c-.838 0-1.413.477-1.413 1.388 0 .893.593 1.432 1.45 1.432.311 0 .593-.043.905-.166l.055.826a3.779 3.779 0 0 1-1.022.135c-1.461 0-2.44-.765-2.44-2.202 0-1.376 1.003-2.19 2.397-2.19.392 0 .71.037 1.028.147l-.067.814m1.437 1.785c0 .587.3.973.746.973.452 0 .752-.38.752-.973 0-.605-.293-.978-.752-.978-.447 0-.746.385-.746.978zm2.495.013c0 .996-.703 1.65-1.75 1.65-1.045 0-1.748-.66-1.748-1.65 0-1.028.69-1.67 1.767-1.67 1.034 0 1.73.654 1.73 1.67zm2.709 1.571V28.45c0-.544-.086-.923-.483-.923-.44 0-.642.452-.642.997v1.473h-.96V27.84c0-.282-.006-.624-.031-1.004h.887c.012.129.018.38.018.545h.012a1.199 1.199 0 0 1 1.058-.624c.477 0 .826.22.979.642a1.26 1.26 0 0 1 1.12-.642c.757 0 1.088.544 1.088 1.37v1.871h-.96v-1.626c0-.57-.147-.844-.484-.844-.465 0-.642.465-.642 1.009v1.461h-.96m4.764-1.585c0 .55.287.936.728.936.44 0 .697-.379.697-.954 0-.556-.263-.905-.691-.905-.44 0-.734.385-.734.923zm-.012-1.076c.281-.391.587-.58 1.07-.58.826 0 1.351.641 1.351 1.626 0 1.003-.556 1.688-1.394 1.688-.465 0-.789-.19-.997-.538h-.012c.012.122.018.568.018.752v1.003h-.966v-3.486c0-.33-.006-.703-.03-.967h.923c.012.129.025.343.025.502h.012zm4.708 1.211c-.605 0-.941.134-.941.47 0 .27.183.398.47.398.417 0 .722-.28.722-.856a2.951 2.951 0 0 0-.25-.012zm.313.924c-.208.354-.57.587-1.083.587-.63 0-1.095-.386-1.095-.991 0-.691.6-1.046 1.651-1.046.129 0 .3.006.453.018 0-.44-.244-.623-.71-.623-.336 0-.715.11-1.002.269l-.03-.698c.33-.158.806-.232 1.186-.232 1.021 0 1.455.483 1.455 1.315 0 .202-.012.538-.012.795 0 .569.018.93.043 1.131H62.4a1.363 1.363 0 0 1-.018-.25c0-.068.006-.165.012-.275h-.012zm2.488-2.098a1.29 1.29 0 0 1 1.083-.618c.807 0 1.18.514 1.18 1.37v1.871h-.954v-1.51c0-.6-.073-.96-.538-.96a.651.651 0 0 0-.6.367c-.091.183-.128.434-.128.71v1.393h-.954V27.84c0-.288-.006-.624-.03-1.004h.905c.012.135.024.374.024.539h.012m6.171-.54l-1.26 3.352c-.281.758-.703 1.168-1.419 1.168-.214 0-.422-.03-.599-.08l.067-.721c.153.043.276.061.41.061.232 0 .44-.122.557-.508l-1.224-3.272h1.04l.477 1.53c.067.226.171.605.239.874h.012c.061-.263.159-.6.238-.868l.477-1.536h.985" fill="#5F6260"/></g></svg>